<svg width="20" height="23" viewBox="0 0 20 23" fill="none" xmlns="http://www.w3.org/2000/svg">
<path d="M0.00519491 11.2728C0.00519491 8.41392 -0.00948212 5.55469 0.0105037 2.69578C0.0236194 0.823048 0.802755 0.02424 2.65332 0.016433C7.17574 -0.00261595 11.6982 -0.00886136 16.2203 0.0183069C18.6051 0.0326717 19.971 1.41544 19.9826 3.82123C20.0063 8.7593 20.0051 13.6977 19.9832 18.6357C19.9723 21.119 18.6036 22.4755 16.1085 22.4874C11.69 22.5083 7.2716 22.5014 2.85318 22.4902C0.780271 22.4849 0.0189352 21.7348 0.00831777 19.6937C-0.00573477 16.887 0.00519491 14.0799 0.00519491 11.2728ZM1.96849 20.6146C6.88906 20.6146 11.6666 20.629 16.4442 20.604C17.5877 20.5981 18.1136 19.8936 18.1142 18.7813C18.1167 13.7876 18.113 8.79396 18.1183 3.8C18.1195 2.51622 17.5015 1.87824 16.2125 1.88292C14.5474 1.88885 12.8829 1.88355 11.2182 1.88355C8.1641 1.88355 5.1097 1.88355 1.96849 1.88355C1.96849 8.16659 1.96849 14.2788 1.96849 20.6146Z" fill="#757982"/>
<path d="M14.3578 8.72276C14.3741 11.0951 12.4011 13.0959 10.0272 13.1143C7.65945 13.1328 5.65494 11.1551 5.63745 8.78272C5.61996 6.41315 7.59669 4.40926 9.9675 4.39302C12.3424 4.37616 14.3416 6.34788 14.3578 8.72276ZM10.5861 11.1273C10.5674 10.0996 10.6108 9.20679 11.9424 9.3392C12.0976 9.3545 12.4779 8.89014 12.4326 8.77866C12.328 8.52103 12.027 8.16597 11.8043 8.16503C10.9456 8.1616 10.5896 7.8209 10.5871 6.95526C10.5864 6.73011 10.237 6.42564 9.98062 6.31853C9.86851 6.27169 9.39416 6.65454 9.4129 6.79975C9.60464 8.27339 8.43953 8.0854 7.62479 8.23873C7.51487 10.3541 8.38737 11.2291 10.5861 11.1273Z" fill="#757982"/>
<path d="M9.85446 18.1202C8.86828 18.1202 7.87024 18.2101 6.90155 18.0802C6.455 18.0202 6.0659 17.5309 5.65088 17.2364C6.03155 16.9085 6.40003 16.3149 6.79444 16.2974C8.91825 16.2034 11.0505 16.2034 13.1743 16.2955C13.5765 16.313 13.9544 16.891 14.3435 17.2105C13.9372 17.5137 13.5556 18.0271 13.1193 18.0786C12.0445 18.2051 10.9443 18.1198 9.85446 18.1202Z" fill="#757982"/>
</svg>
