<svg width="20" height="20" viewBox="0 0 20 20" fill="none" xmlns="http://www.w3.org/2000/svg">
<path d="M14.7778 8.75318C17.6469 8.75961 19.9916 11.1015 20 13.9691C20.0083 16.8855 17.6133 19.257 14.695 19.2217C11.8353 19.1872 9.51404 16.8141 9.53309 13.9446C9.55213 11.0794 11.9086 8.74675 14.7778 8.75318ZM13.7239 15.4409C13.1473 14.7479 12.7373 14.2105 12.2714 13.7272C12.1574 13.6092 11.8595 13.6682 11.6462 13.6458C11.6446 13.8872 11.5403 14.2163 11.6588 14.355C12.1467 14.9267 12.7178 15.4261 13.2277 15.9804C13.6496 16.4389 13.9943 16.4022 14.4157 15.968C15.4652 14.8862 16.5622 13.8499 17.594 12.7521C17.8076 12.5247 17.8216 12.1098 17.9276 11.7812C17.5995 11.8865 17.181 11.8984 16.9588 12.1131C15.9349 13.104 14.9657 14.1513 13.7239 15.4409Z" fill="#757982"/>
<path d="M19.0477 9.31218C17.8349 8.90436 17.5162 8.18085 17.6002 7.08714C17.7 5.78631 17.6092 4.47167 17.6281 3.16346C17.6388 2.41591 17.3164 2.07951 16.5615 2.08094C11.8824 2.09046 7.2033 2.09094 2.52421 2.07999C1.7838 2.07832 1.42883 2.37258 1.43121 3.13513C1.44216 6.54529 1.44621 9.95545 1.42812 13.3656C1.42359 14.1984 1.81142 14.4803 2.59611 14.4715C4.53664 14.4491 6.47741 14.4641 8.50651 14.4641C8.61865 14.8914 8.72387 15.2928 8.8691 15.8456C6.42171 15.8456 4.06645 15.9342 1.72309 15.8049C0.688185 15.7478 0.0370549 14.89 0.0272939 13.8113C-0.00603637 10.124 -0.0124643 6.43578 0.0284843 2.7485C0.0422925 1.50837 0.914593 0.67845 2.18091 0.671308C7.0976 0.643453 12.015 0.641549 16.9317 0.675117C18.1742 0.683688 19.0096 1.55051 19.0355 2.80349C19.0798 4.9421 19.0477 7.08215 19.0477 9.31218Z" fill="#757982"/>
<path d="M5.78724 8.75032C6.06341 8.75032 6.36219 8.682 6.61098 8.76461C7.1145 8.93174 7.90324 9.07744 8.01513 9.41645C8.27368 10.1997 7.97704 11.1189 7.0876 11.3187C6.20839 11.5163 5.17087 11.5744 4.35523 11.2763C3.8698 11.0989 3.45008 10.1319 3.40913 9.49335C3.35056 8.58248 4.23738 8.77889 4.84066 8.75247C5.15563 8.7389 5.47179 8.75032 5.78724 8.75032Z" fill="#757982"/>
<path d="M12.7856 7.31451C12.1133 7.31403 11.4289 7.38736 10.7744 7.27975C10.4925 7.23332 10.2725 6.81169 10.0245 6.56077C10.264 6.3415 10.4961 5.94273 10.7442 5.93225C12.1652 5.87297 13.5915 5.8744 15.0123 5.9382C15.2507 5.94892 15.4709 6.36507 15.6997 6.59386C15.4402 6.83431 15.2049 7.23999 14.9166 7.28189C14.2193 7.38355 13.4975 7.31498 12.7856 7.31451Z" fill="#757982"/>
<path d="M7.15259 6.36174C7.04189 7.22499 6.5886 7.78827 5.6982 7.76923C4.81828 7.75042 4.29523 7.2019 4.31928 6.31793C4.34166 5.49539 4.85923 4.98496 5.68249 4.9671C6.57455 4.94782 7.03117 5.49991 7.15259 6.36174Z" fill="#757982"/>
</svg>
