<svg width="310" height="343" viewBox="0 0 310 343" fill="none" xmlns="http://www.w3.org/2000/svg">
<path d="M149.253 343C145.291 341.95 141.175 341.288 137.393 339.785C120.041 332.89 109.406 320.23 105.726 301.814C105.533 300.85 105.284 299.897 105.019 298.762C103.68 298.762 102.465 298.762 101.25 298.762C80.2007 298.76 59.1508 298.856 38.1018 298.725C22.2961 298.628 8.21074 288.61 2.55748 273.805C-3.05469 259.106 0.731714 242.804 12.3241 232.137C19.6521 225.394 28.3486 221.884 38.2805 221.31C43.1665 221.027 44.2142 219.814 44.2169 214.871C44.2258 193.111 43.781 171.341 44.3134 149.594C45.4764 102.103 68.0162 68.326 110.708 47.9174C112.806 46.9143 115.834 46.6472 116.895 45.0287C117.941 43.4343 117.024 40.5554 116.988 38.2392C116.693 19.7529 129.895 3.78284 148.067 0.61633C148.702 0.505569 149.304 0.209016 149.921 0C153.041 0 156.161 0 159.282 0C165.337 1.4774 171.324 3.13346 176.413 6.97971C189.081 16.5543 193.855 29.3373 191.702 45.1877C192.497 45.5566 193.366 45.9773 194.249 46.3668C234.015 63.9161 257.207 94.3038 264.048 137.199C264.904 142.565 264.926 148.099 264.953 153.557C265.053 173.874 264.991 194.191 264.995 214.508C264.996 219.939 265.896 220.917 271.229 221.353C290.494 222.933 305.28 235.511 308.53 253.086C312.87 276.549 294.967 298.508 271.076 298.718C250.021 298.903 228.962 298.76 207.905 298.761C206.691 298.761 205.477 298.761 205.14 298.761C202.468 305.548 200.653 312.189 197.395 318.022C189.777 331.661 177.831 339.632 162.441 342.365C161.816 342.476 161.226 342.784 160.619 343C156.831 343 153.042 343 149.253 343ZM154.577 276.653C185.661 276.653 216.746 276.654 247.831 276.653C255.407 276.653 262.984 276.735 270.559 276.611C278.123 276.488 284.242 271.866 286.367 264.936C289.681 254.132 282.026 244.3 269.584 243.378C252.623 242.121 242.922 231.624 242.916 214.508C242.91 193.967 242.856 173.426 242.937 152.886C242.982 141.145 240.99 129.813 236.816 118.852C220.164 75.1217 174.835 51.911 130.221 64.2743C93.6224 74.4169 66.7442 109.14 66.3726 147.138C66.1475 170.133 66.3521 193.131 66.2833 216.127C66.2431 229.573 57.7654 240.209 44.9958 242.846C42.0678 243.451 38.9951 243.328 36.0474 243.861C24.4023 245.968 18.4213 258.668 24.4488 268.513C28.0369 274.376 33.5044 276.686 40.2644 276.678C78.3687 276.626 116.472 276.653 154.577 276.653ZM127.964 298.933C129.084 310.604 141.621 320.863 154.599 320.867C167.581 320.871 180.085 310.655 181.251 298.933C163.483 298.933 145.731 298.933 127.964 298.933ZM139.166 39.2808C149.716 39.2808 159.768 39.2808 170.047 39.2808C170.586 33.0746 168.306 28.1296 163.153 24.7559C157.625 21.1356 151.791 21.0749 146.201 24.6898C140.885 28.1279 138.626 33.1416 139.166 39.2808Z" fill="black"/>
</svg>
