<svg width="351" height="342" viewBox="0 0 351 342" fill="none" xmlns="http://www.w3.org/2000/svg">
<g clip-path="url(#clip0_260_16383)">
<path d="M57.4904 30.4134C57.4904 24.5943 57.4824 19.3126 57.4945 14.0349C57.5147 4.87379 62.2751 0.169974 71.5372 0.15381C74.6893 0.149768 77.8413 0.1134 80.9893 0.161893C88.5098 0.275043 93.5531 5.24961 93.6743 12.7337C93.7632 18.2781 93.7349 23.8265 93.7753 29.3708C93.7753 29.589 93.9572 29.8073 94.139 30.2195C148.225 30.2195 202.383 30.2195 257.176 30.2195C257.176 26.8411 257.362 23.3617 257.144 19.9066C256.15 4.04537 260.854 -0.941323 277.079 0.141687C278.206 0.218468 279.346 0.137645 280.481 0.15381C288.236 0.258878 293.275 5.2092 293.36 12.9155C293.425 18.5731 293.372 24.2265 293.372 30.4134C296.318 30.4134 299.038 30.369 301.758 30.4215C310.818 30.5993 319.979 30.0255 328.91 31.1974C341.255 32.8179 350.121 43.6399 350.804 56.1147C350.861 57.1209 350.857 58.1312 350.857 59.1374C350.861 143.859 350.865 228.58 350.853 313.301C350.853 326.867 343.534 337.325 331.46 340.756C328.595 341.573 325.507 341.944 322.525 341.948C224.46 342.009 126.395 342.009 28.334 341.985C11.6161 341.985 0.0222259 330.391 0.0181849 313.673C-0.00606163 228.701 -0.00606163 143.725 0.0181849 58.7535C0.0222259 42.0315 11.612 30.4862 28.3219 30.4215C37.8791 30.3851 47.4362 30.4134 57.4904 30.4134ZM12 106.083C12 107.699 12 108.94 12 110.18C12 177.743 11.9959 245.31 12.004 312.873C12.004 324.03 17.8959 330.003 28.92 330.003C126.589 330.007 224.262 330.007 321.931 330.003C332.943 330.003 338.863 324.018 338.867 312.885C338.871 245.322 338.871 177.755 338.871 110.192C338.871 108.859 338.871 107.529 338.871 106.083C229.738 106.083 121.137 106.083 12 106.083ZM12.0808 93.7251C121.214 93.7251 229.895 93.7251 338.782 93.7251C338.782 80.9067 339.045 68.3228 338.677 55.7551C338.479 49.0145 332.838 43.0256 326.085 42.6983C315.32 42.177 304.506 42.5569 293.817 42.5569C293.619 43.062 293.453 43.2843 293.453 43.5065C293.417 48.671 293.401 53.8396 293.376 59.0041C293.336 67.7934 288.564 72.6266 279.879 72.671C276.982 72.6872 274.084 72.6791 271.183 72.671C261.941 72.6508 257.193 67.943 257.176 58.7576C257.164 53.391 257.176 48.0204 257.176 42.6619C202.424 42.6619 148.188 42.6619 93.6864 42.6619C93.6864 48.6912 93.7632 54.47 93.6662 60.2447C93.545 67.5308 88.5138 72.5094 81.2156 72.6549C78.0676 72.7195 74.9156 72.671 71.7635 72.667C62.0326 72.6549 57.4945 68.0803 57.4864 58.2646C57.4824 53.0314 57.4864 47.7982 57.4864 42.4437C46.5714 42.4437 36.2424 42.2457 25.9256 42.5124C18.7324 42.6983 12.4122 48.5538 12.1899 55.7187C11.7979 68.2905 12.0808 80.8825 12.0808 93.7251ZM69.739 12.2851C69.739 28.599 69.739 44.5087 69.739 60.4063C73.8205 60.4063 77.6433 60.4063 81.4379 60.4063C81.4379 44.2258 81.4379 28.3161 81.4379 12.2851C77.4493 12.2851 73.7154 12.2851 69.739 12.2851ZM281.128 60.5437C281.128 44.2339 281.128 28.3242 281.128 12.4145C277.051 12.4145 273.228 12.4145 269.421 12.4145C269.421 28.5909 269.421 44.5006 269.421 60.5437C273.405 60.5437 277.139 60.5437 281.128 60.5437Z" fill="#7033FF"/>
<path d="M212.598 234.119C213.536 233.391 214.191 232.83 214.89 232.341C217.702 230.373 220.41 230.663 222.685 233.112C225 235.598 224.988 238.426 222.746 240.932C220.228 243.74 217.258 246.165 214.89 249.083C213.601 250.671 212.477 252.93 212.441 254.906C212.223 267.373 212.344 279.843 212.324 292.314C212.316 298.521 210.384 300.461 204.221 300.465C185.329 300.477 166.441 300.481 147.549 300.461C141.778 300.457 139.863 298.542 139.855 292.775C139.839 273.754 139.839 254.732 139.855 235.711C139.859 230.025 141.884 227.992 147.602 227.984C166.114 227.956 184.63 228.053 203.142 227.92C207.773 227.891 211.439 228.756 212.598 234.119ZM176.427 271.551C183.394 264.269 190.203 256.842 197.392 249.798C200.2 247.046 200.944 244.322 199.974 240.592C184.008 240.592 168.106 240.592 152.083 240.592C152.083 244.803 152.083 248.751 152.083 251.556C162.703 255.338 167.391 265.17 176.427 271.551ZM199.845 264.306C198.471 265.542 197.59 266.265 196.786 267.066C192.506 271.329 188.243 275.604 183.983 279.884C175.719 288.18 175.194 288.148 166.975 279.884C162.15 275.035 157.187 270.315 152.136 265.389C152.136 273.176 152.136 280.732 152.136 288.172C168.219 288.172 183.992 288.172 199.849 288.172C199.845 280.308 199.845 272.776 199.845 264.306Z" fill="#7033FF"/>
<path d="M311.932 236.971C312.809 236.146 313.33 235.609 313.904 235.132C317.028 232.526 320.171 232.574 322.6 235.245C324.92 237.795 324.742 240.705 322.079 243.671C321.743 244.047 321.42 244.459 321.016 244.742C312.914 250.387 310.449 258.041 311.358 267.784C312.186 276.65 311.548 285.658 311.528 294.605C311.515 300.586 309.523 302.651 303.688 302.655C284.667 302.671 265.645 302.675 246.624 302.651C241.189 302.642 239.043 300.521 239.039 295.118C239.014 275.967 239.014 256.817 239.039 237.666C239.047 232.267 241.184 230.158 246.636 230.149C265.532 230.125 284.424 230.133 303.32 230.145C308.909 230.149 310.319 231.237 311.932 236.971ZM274.915 274.145C282.529 266.515 289.087 259.544 296.111 253.083C299.59 249.882 299.99 246.5 299.271 242.398C283.119 242.398 267.197 242.398 251.239 242.398C251.239 246.742 251.239 250.824 251.239 254.917C256.124 254.509 256.492 254.537 260.02 258.211C264.986 263.383 269.824 268.685 274.915 274.145ZM251.283 266.075C251.283 274.791 251.283 282.607 251.283 290.39C267.468 290.39 283.39 290.39 299.336 290.39C299.336 282.506 299.336 274.892 299.336 267.303C293.585 272.864 287.875 278.291 282.278 283.835C276.552 289.509 274.657 289.578 268.987 283.892C263.257 278.137 257.535 272.371 251.283 266.075Z" fill="#7033FF"/>
<path d="M111.844 169.653C111.844 179.105 111.86 188.557 111.836 198.009C111.82 203.703 109.755 205.808 104.129 205.816C85.104 205.836 66.0745 205.836 47.0491 205.816C41.4199 205.808 39.3509 203.707 39.3428 198.013C39.3266 178.983 39.3226 159.95 39.3428 140.921C39.3509 135.461 41.4563 133.319 46.8511 133.311C66.0018 133.287 85.1565 133.287 104.307 133.311C109.702 133.319 111.811 135.465 111.828 140.916C111.864 150.498 111.844 160.075 111.844 169.653ZM51.5873 145.43C51.5873 161.732 51.5873 177.65 51.5873 193.572C67.7597 193.572 83.6734 193.572 99.5913 193.572C99.5913 177.395 99.5913 161.477 99.5913 145.43C83.5118 145.43 67.6869 145.43 51.5873 145.43Z" fill="#7033FF"/>
<path d="M175.537 133.303C185.114 133.303 194.687 133.274 204.265 133.315C209.465 133.335 211.664 135.489 211.672 140.649C211.704 159.933 211.704 179.213 211.672 198.497C211.664 203.634 209.445 205.804 204.24 205.812C185.09 205.84 165.935 205.836 146.784 205.816C141.341 205.808 139.199 203.69 139.191 198.283C139.167 179.128 139.167 159.97 139.191 140.815C139.199 135.424 141.345 133.331 146.808 133.315C156.386 133.282 165.963 133.303 175.537 133.303ZM199.435 193.697C199.435 177.391 199.435 161.473 199.435 145.555C183.263 145.555 167.345 145.555 151.436 145.555C151.436 161.732 151.436 177.649 151.436 193.697C167.515 193.697 183.344 193.697 199.435 193.697Z" fill="#7033FF"/>
<path d="M239.026 169.566C239.026 159.989 239.002 150.412 239.034 140.83C239.055 135.423 241.18 133.314 246.632 133.306C265.782 133.282 284.937 133.282 304.088 133.31C309.297 133.318 311.507 135.484 311.515 140.624C311.547 159.908 311.547 179.188 311.515 198.472C311.507 203.633 309.305 205.803 304.108 205.811C284.957 205.839 265.802 205.835 246.652 205.815C241.196 205.807 239.055 203.693 239.038 198.307C238.998 188.725 239.026 179.148 239.026 169.566ZM299.238 193.663C299.238 177.313 299.238 161.391 299.238 145.595C283.026 145.595 267.108 145.595 251.315 145.595C251.315 161.812 251.315 177.729 251.315 193.663C267.435 193.663 283.264 193.663 299.238 193.663Z" fill="#7033FF"/>
<path d="M111.843 266.501C111.843 275.954 111.863 285.406 111.835 294.858C111.819 300.552 109.758 302.645 104.117 302.653C85.0913 302.673 66.0619 302.673 47.0365 302.653C41.4153 302.645 39.3463 300.54 39.3422 294.842C39.3261 275.812 39.322 256.779 39.3463 237.749C39.3544 232.298 41.4638 230.16 46.8667 230.152C66.0174 230.128 85.1721 230.128 104.323 230.152C109.71 230.16 111.815 232.31 111.831 237.769C111.863 247.347 111.843 256.924 111.843 266.501ZM99.615 290.51C99.615 274.281 99.615 258.363 99.615 242.368C83.4668 242.368 67.553 242.368 51.5625 242.368C51.5625 258.52 51.5625 274.438 51.5625 290.51C67.6217 290.51 83.4466 290.51 99.615 290.51Z" fill="#7033FF"/>
</g>
<defs>
<clipPath id="clip0_260_16383">
<rect width="351" height="342" fill="white"/>
</clipPath>
</defs>
</svg>
