<svg width="360" height="360" viewBox="0 0 360 360" fill="none" xmlns="http://www.w3.org/2000/svg">
<path d="M59.9179 35.9895C59.9179 31.5195 59.8559 27.6535 59.9289 23.7905C60.1809 10.5115 70.7579 0.0565488 83.8809 0.0615488C97.0089 0.0665488 107.553 10.5065 107.815 23.8105C107.891 27.6715 107.827 31.5365 107.827 35.6935C123.735 35.6935 139.499 35.6935 155.762 35.6935C155.762 32.1975 155.746 28.6306 155.765 25.0636C155.839 10.8286 166.042 0.122549 179.582 0.0615488C193.311 -0.000451203 203.608 10.7165 203.684 25.1575C203.702 28.6265 203.687 32.0955 203.687 35.7735C219.658 35.7735 235.334 35.7735 251.641 35.7735C251.641 31.5795 251.515 27.2695 251.665 22.9695C252.067 11.4895 260.69 2.06155 272.296 0.258549C282.999 -1.40445 294.14 5.10355 297.88 15.5005C298.873 18.2615 299.258 21.3136 299.469 24.2646C299.734 27.9766 299.533 31.7225 299.533 35.9905C301.16 35.9905 302.601 35.9675 304.04 35.9945C314.382 36.1855 324.839 35.4925 335.039 36.8015C349.118 38.6075 359.338 51.0766 359.374 65.3096C359.506 117.091 359.444 168.873 359.427 220.654C359.426 224.989 356.951 227.702 353.328 227.624C349.724 227.546 347.475 224.862 347.473 220.413C347.453 188.471 347.462 156.528 347.462 124.586C347.462 123.12 347.462 121.654 347.462 120.025C235.571 120.025 124.05 120.025 11.9869 120.025C11.9869 121.342 11.9869 122.656 11.9869 123.97C11.9869 183.737 11.9849 243.503 11.9889 303.27C11.9899 316.221 19.2019 323.482 32.0789 323.484C86.1169 323.491 140.155 323.487 194.192 323.488C195.44 323.488 196.696 323.419 197.934 323.532C201.268 323.836 203.584 326.234 203.654 329.347C203.726 332.6 201.325 335.121 197.812 335.432C196.945 335.509 196.066 335.464 195.192 335.464C140.655 335.465 86.1179 335.477 31.5809 335.458C12.8009 335.452 0.0178775 322.736 0.0138775 304.031C-0.00512247 225.173 -0.00412247 146.316 0.0138775 67.4576C0.0178775 48.7285 12.7789 36.0325 31.5419 35.9945C40.8689 35.9745 50.1969 35.9895 59.9179 35.9895ZM107.831 48.1285C107.831 52.2895 107.876 56.0275 107.823 59.7645C107.631 73.3515 97.1589 83.8896 83.8819 83.8946C70.6149 83.8986 60.1039 73.3385 59.9229 59.7855C59.8719 55.9545 59.9149 52.1225 59.9149 48.4505C59.2999 48.2035 59.0799 48.0385 58.8599 48.0375C49.3759 48.0065 39.8909 47.9225 30.4079 47.9885C19.7209 48.0635 12.0749 55.7526 12.0029 66.4786C11.9329 76.8346 11.9869 87.1916 11.9869 97.5486C11.9869 100.882 11.9869 104.214 11.9869 107.617C124 107.617 235.613 107.617 347.4 107.617C347.4 93.0386 347.695 78.6996 347.293 64.3796C347.039 55.3166 339.095 48.2455 329.925 48.0075C324.437 47.8655 318.943 47.9715 313.452 47.9695C308.884 47.9675 304.317 47.9695 299.533 47.9695C299.533 52.1965 299.793 55.9465 299.455 59.6415C299.153 62.9475 298.675 66.3896 297.433 69.4286C293.256 79.6486 282.146 85.5486 271.606 83.5466C260.082 81.3576 251.959 72.0875 251.649 60.6495C251.536 56.4685 251.631 52.2815 251.631 48.1745C235.356 48.1745 219.68 48.1745 203.687 48.1745C203.687 51.8375 203.702 55.3045 203.684 58.7705C203.611 73.2246 193.327 83.9486 179.603 83.8936C166.065 83.8396 155.84 73.1276 155.765 58.9066C155.746 55.3376 155.762 51.7695 155.762 48.1285C139.597 48.1285 123.922 48.1285 107.831 48.1285ZM95.8539 42.3545C95.8539 36.4925 95.8959 30.6295 95.8429 24.7675C95.7779 17.4355 90.7509 12.0915 83.9629 12.0415C77.1249 11.9915 71.9499 17.2855 71.9099 24.5655C71.8469 36.1656 71.8479 47.7656 71.9089 59.3656C71.9469 66.6186 77.1569 71.9616 83.9579 71.9126C90.7499 71.8646 95.7739 66.5265 95.8419 59.1925C95.8949 53.5805 95.8539 47.9675 95.8539 42.3545ZM191.701 42.0045C191.701 36.1425 191.763 30.2786 191.685 24.4176C191.591 17.3726 186.487 12.1035 179.837 12.0415C172.999 11.9785 167.802 17.2715 167.761 24.5415C167.696 36.1415 167.7 47.7415 167.759 59.3415C167.796 66.5995 172.989 71.9486 179.785 71.9126C186.58 71.8766 191.624 66.5405 191.692 59.2165C191.746 53.4805 191.703 47.7425 191.701 42.0045ZM263.593 41.9795C263.593 47.7175 263.555 53.4555 263.603 59.1925C263.664 66.5135 268.699 71.8676 275.486 71.9136C282.291 71.9596 287.494 66.6305 287.536 59.3675C287.602 47.7675 287.603 36.1675 287.535 24.5675C287.493 17.3135 282.27 11.9845 275.463 12.0425C268.647 12.1005 263.664 17.4095 263.603 24.7675C263.555 30.5045 263.593 36.2415 263.593 41.9795Z" fill="black"/>
<path d="M281.784 359.394C238.376 359.373 203.733 324.603 203.699 281.02C203.665 238.559 238.788 203.748 281.716 203.698C324.32 203.648 359.44 238.728 359.436 281.331C359.433 324.369 324.572 359.415 281.784 359.394ZM281.681 347.437C317.578 347.485 347.309 317.941 347.453 282.08C347.599 245.571 318.143 215.692 281.999 215.685C245.219 215.678 215.767 244.944 215.681 281.584C215.597 317.83 245.22 347.388 281.681 347.437Z" fill="black"/>
<path d="M71.8647 191.709C67.8727 191.709 63.8777 191.796 59.8887 191.689C53.1167 191.508 48.1017 186.543 47.9627 179.791C47.8397 173.806 47.8507 167.816 47.9587 161.83C48.0817 155.002 52.9917 149.946 59.7487 149.828C67.8557 149.687 75.9687 149.687 84.0757 149.83C90.6337 149.946 95.6437 154.955 95.8097 161.512C95.9647 167.62 95.9547 173.737 95.8177 179.846C95.6657 186.594 90.6317 191.518 83.8427 191.689C79.8507 191.792 75.8567 191.709 71.8647 191.709ZM83.6247 179.554C83.6247 173.537 83.6247 167.767 83.6247 162.048C75.6077 162.048 67.8407 162.048 60.0937 162.048C60.0937 168.011 60.0937 173.693 60.0937 179.554C67.9497 179.554 75.6267 179.554 83.6247 179.554Z" fill="black"/>
<path d="M143.719 191.712C139.727 191.71 135.732 191.8 131.743 191.69C124.983 191.503 119.982 186.52 119.848 179.76C119.729 173.775 119.732 167.784 119.846 161.799C119.979 154.829 124.995 149.897 132.041 149.814C139.9 149.721 147.761 149.713 155.62 149.817C162.583 149.909 167.59 154.941 167.715 161.92C167.82 167.781 167.816 173.646 167.717 179.507C167.596 186.693 162.585 191.583 155.322 191.702C151.455 191.766 147.587 191.714 143.719 191.712ZM155.593 162.033C147.526 162.033 139.761 162.033 132.097 162.033C132.097 168.074 132.097 173.846 132.097 179.54C140.075 179.54 147.752 179.54 155.593 179.54C155.593 173.662 155.593 167.98 155.593 162.033Z" fill="black"/>
<path d="M215.658 149.798C219.65 149.794 223.644 149.713 227.634 149.812C234.404 149.979 239.444 154.926 239.591 161.674C239.724 167.783 239.74 173.9 239.581 180.008C239.41 186.563 234.406 191.553 227.829 191.672C219.722 191.819 211.609 191.818 203.503 191.672C196.943 191.554 191.906 186.532 191.749 180.006C191.598 173.773 191.579 167.529 191.761 161.298C191.947 154.917 196.905 150.058 203.309 149.83C207.42 149.684 211.541 149.803 215.658 149.798ZM227.38 179.574C227.38 173.497 227.38 167.726 227.38 162.068C219.342 162.068 211.575 162.068 203.888 162.068C203.888 168.051 203.888 173.733 203.888 179.574C211.765 179.574 219.442 179.574 227.38 179.574Z" fill="black"/>
<path d="M287.66 191.712C283.668 191.711 279.674 191.788 275.684 191.694C268.721 191.532 263.73 186.532 263.616 179.552C263.52 173.691 263.521 167.826 263.616 161.965C263.729 154.94 268.669 149.917 275.65 149.819C283.633 149.708 291.62 149.696 299.603 149.824C306.348 149.932 311.344 154.981 311.483 161.754C311.606 167.739 311.606 173.73 311.484 179.715C311.343 186.659 306.292 191.559 299.262 191.698C295.396 191.775 291.528 191.712 287.66 191.712ZM299.252 179.59C299.252 173.464 299.252 167.692 299.252 161.952C291.29 161.952 283.613 161.952 275.791 161.952C275.791 167.905 275.791 173.675 275.791 179.59C283.685 179.59 291.361 179.59 299.252 179.59Z" fill="black"/>
<path d="M71.8967 203.703C75.8887 203.699 79.8837 203.617 83.8727 203.717C90.6397 203.887 95.6717 208.837 95.8167 215.592C95.9487 221.701 95.9666 227.819 95.8046 233.926C95.6316 240.477 90.6206 245.459 84.0396 245.577C75.9326 245.722 67.8197 245.723 59.7137 245.576C53.1527 245.457 48.1277 240.431 47.9717 233.898C47.8237 227.665 47.8017 221.421 47.9847 215.19C48.1727 208.812 53.1387 203.96 59.5447 203.735C63.6587 203.59 67.7797 203.707 71.8967 203.703ZM60.1816 215.835C60.1816 221.92 60.1816 227.691 60.1816 233.341C68.2226 233.341 75.9896 233.341 83.6686 233.341C83.6686 227.355 83.6686 221.673 83.6686 215.835C75.7886 215.835 68.1116 215.835 60.1816 215.835Z" fill="black"/>
<path d="M143.784 203.703C147.776 203.699 151.771 203.617 155.76 203.717C162.527 203.887 167.559 208.837 167.705 215.592C167.837 221.701 167.855 227.819 167.693 233.926C167.52 240.477 162.509 245.459 155.928 245.577C147.821 245.722 139.708 245.723 131.602 245.576C125.041 245.457 120.016 240.431 119.86 233.898C119.712 227.665 119.69 221.421 119.874 215.19C120.062 208.812 125.027 203.96 131.434 203.735C135.546 203.59 139.667 203.707 143.784 203.703ZM155.688 215.909C147.585 215.909 139.82 215.909 132.068 215.909C132.068 221.919 132.068 227.69 132.068 233.341C140.109 233.341 147.876 233.341 155.688 233.341C155.688 227.446 155.688 221.853 155.688 215.909Z" fill="black"/>
<path d="M71.7398 299.523C67.9968 299.525 64.2538 299.567 60.5118 299.516C53.0458 299.414 48.0398 294.495 47.9458 287.104C47.8738 281.367 47.8658 275.628 47.9488 269.891C48.0538 262.665 53.0108 257.7 60.2448 257.621C67.9788 257.536 75.7148 257.543 83.4498 257.619C90.6648 257.69 95.7118 262.665 95.8298 269.822C95.9258 275.683 95.9338 281.548 95.8268 287.409C95.6988 294.407 90.7188 299.349 83.7168 299.506C79.7258 299.595 75.7328 299.522 71.7398 299.523ZM83.6088 287.381C83.6088 281.315 83.6088 275.544 83.6088 269.875C75.5738 269.875 67.8078 269.875 60.1098 269.875C60.1098 275.854 60.1098 281.536 60.1098 287.381C67.9828 287.381 75.6598 287.381 83.6088 287.381Z" fill="black"/>
<path d="M143.82 257.602C147.812 257.603 151.807 257.518 155.796 257.622C162.556 257.798 167.563 262.762 167.707 269.532C167.835 275.516 167.828 281.508 167.71 287.493C167.573 294.455 162.545 299.411 155.519 299.499C147.66 299.597 139.799 299.604 131.94 299.496C124.969 299.4 119.959 294.358 119.842 287.393C119.743 281.532 119.747 275.667 119.84 269.806C119.954 262.605 124.942 257.727 132.218 257.612C136.084 257.551 139.953 257.601 143.82 257.602ZM155.456 287.409C155.456 281.229 155.456 275.457 155.456 269.782C147.472 269.782 139.794 269.782 132.037 269.782C132.037 275.758 132.037 281.528 132.037 287.409C139.953 287.409 147.629 287.409 155.456 287.409Z" fill="black"/>
<path d="M203.805 215.671C203.805 221.879 203.805 227.591 203.805 233.325C204.663 233.667 205.495 233.923 206.256 234.317C208.899 235.686 210.115 237.932 209.49 240.808C208.834 243.825 206.738 245.465 203.603 245.596C197.7 245.842 192.004 240.631 191.781 234.381C191.55 227.901 191.552 221.401 191.781 214.921C191.999 208.744 196.988 203.893 203.223 203.754C211.206 203.575 219.196 203.645 227.183 203.728C231.031 203.768 233.557 206.212 233.607 209.599C233.66 213.112 231.04 215.611 226.974 215.651C219.379 215.724 211.783 215.671 203.805 215.671Z" fill="black"/>
<path d="M269.624 303.072C274.81 297.854 279.626 292.989 284.464 288.145C294.686 277.911 304.904 267.674 315.158 257.472C318.535 254.112 321.973 253.878 324.633 256.673C327.187 259.356 326.919 262.642 323.679 265.891C307.389 282.225 291.078 298.539 274.739 314.824C271.062 318.489 268.109 318.464 264.424 314.807C256.546 306.99 248.702 299.14 240.884 291.264C237.666 288.023 237.393 284.743 239.964 282.061C242.629 279.281 246.053 279.531 249.44 282.889C256.069 289.463 262.646 296.088 269.624 303.072Z" fill="black"/>
</svg>
