<svg width="487" height="372" viewBox="0 0 487 372" fill="none" xmlns="http://www.w3.org/2000/svg">
<g clip-path="url(#clip0_260_16393)">
<path d="M161.455 307.102C215.844 307.102 269.89 307.102 324.204 307.102C326.965 291.374 334.49 278.612 347.41 269.354C358.025 261.749 369.995 258.353 383.063 258.867C409.309 259.9 430.117 278.607 436.198 306.658C454.932 310.764 469.177 299.495 469.197 280.513C469.21 268.382 469.162 256.253 469.125 244.123C469.123 243.819 468.928 243.514 468.623 242.619C461.638 242.619 454.452 242.635 447.266 242.617C430.515 242.578 420.705 232.683 420.674 215.815C420.665 211.466 420.673 207.117 420.673 202.4C415.304 202.4 410.311 202.4 404.907 202.4C404.907 196.933 404.907 191.822 404.907 186.008C409.078 186.008 413.39 185.936 417.698 186.021C429.303 186.252 441.062 185.456 452.476 187.069C471.22 189.718 484.972 206.255 485.272 225.159C485.585 244.867 485.609 264.588 485.271 284.294C484.904 305.636 467.415 322.828 446.047 323.452C442.873 323.545 439.695 323.465 436.306 323.465C433.438 339.403 425.983 352.196 413.04 361.453C402.411 369.056 390.465 372.476 377.39 371.948C351.133 370.884 330.317 352.164 324.184 323.818C270.067 323.818 215.879 323.818 161.273 323.818C158.315 339.757 150.596 352.917 136.946 362.199C126.591 369.241 115.095 372.419 102.58 371.954C76.4313 370.983 57.4381 353.988 48.9617 323.885C43.8223 323.516 38.5706 323.585 33.4905 322.692C14.0422 319.268 0.27504 303.094 0.122447 283.376C-0.0639065 259.116 -0.0112415 234.852 0.106242 210.591C0.173761 196.455 10.6244 186.082 24.8291 186.041C57.8554 185.948 90.8831 185.904 123.908 186.105C129.994 186.141 133.46 183.923 135.921 178.361C145.388 156.982 155.392 135.841 164.81 114.44C170.132 102.347 178.851 96.8376 192.057 96.9564C223.058 97.2346 254.065 97.0455 285.07 97.0455C286.903 97.0455 288.733 97.0455 290.908 97.0455C290.908 102.443 290.908 107.549 290.908 113.22C289.04 113.22 287.241 113.22 285.444 113.22C254.102 113.22 222.76 113.319 191.42 113.133C185.542 113.098 182.168 115.257 179.782 120.635C170.235 142.163 160.216 163.484 150.674 185.013C145.419 196.869 136.786 202.509 123.78 202.253C108.62 201.956 93.4502 202.184 78.2854 202.184C76.6393 202.184 74.9931 202.184 72.8608 202.184C72.8608 207.655 72.9122 212.663 72.8515 217.671C72.6718 232.176 62.4413 242.449 47.9517 242.603C37.8441 242.712 27.7337 242.673 17.6247 242.72C17.3304 242.721 17.0374 242.956 16.4472 243.209C16.4472 257.532 15.7788 272.009 16.6565 286.392C17.3723 298.105 27.8715 306.801 39.6347 307.273C42.6488 307.395 45.6709 307.291 49.1023 307.291C52.1217 290.716 60.1672 277.392 74.2585 268.103C84.7159 261.209 96.2901 258.243 108.78 258.899C134.63 260.254 153.756 277.688 161.455 307.102ZM64.7842 315.467C64.8112 337.582 82.8686 355.756 104.892 355.84C127.467 355.925 145.726 337.659 145.651 315.069C145.576 293.049 127.38 274.981 105.271 274.978C82.9131 274.971 64.7559 293.129 64.7842 315.467ZM380.469 274.975C358.083 274.894 339.842 292.969 339.794 315.278C339.745 337.43 357.7 355.671 379.714 355.837C402.313 356.007 420.655 337.828 420.66 315.255C420.664 293.213 402.548 275.054 380.469 274.975ZM16.2636 226.375C27.6433 226.375 38.5233 226.57 49.3898 226.274C53.5288 226.163 56.2781 223.259 56.5388 219.089C56.8791 213.62 56.6225 208.114 56.6225 202.247C45.286 202.247 34.4019 201.999 23.5381 202.365C18.9252 202.52 16.4054 205.851 16.292 210.528C16.169 215.56 16.2636 220.596 16.2636 226.375ZM436.901 202.486C436.901 208.147 436.701 213.511 436.966 218.852C437.175 223.059 439.795 226.044 443.923 226.234C452.264 226.619 460.634 226.348 468.992 226.348C468.64 210.005 456.54 200.986 436.901 202.486Z" fill="#33C5FF"/>
<path d="M388.362 161.738C344.257 161.885 307.629 125.639 307.443 81.6619C307.254 36.7048 343.316 0.0418984 387.764 3.65608e-05C432.732 -0.0418253 469.022 35.8703 469.178 80.5693C469.332 125.257 433.159 161.59 388.362 161.738ZM388.098 145.548C424.039 145.557 453.049 116.578 453.004 80.7098C452.959 45.119 424.008 16.2479 388.287 16.1736C352.83 16.1006 323.561 45.3364 323.616 80.7732C323.671 116.499 352.582 145.54 388.098 145.548Z" fill="#33C5FF"/>
<path d="M299.099 129.644C299.099 135.112 299.099 140.101 299.099 145.455C291.176 145.455 283.488 145.455 275.444 145.455C275.444 159.014 275.444 172.203 275.444 185.727C276.72 185.82 278.012 185.993 279.302 185.993C298.67 186.011 318.039 185.917 337.405 186.061C343.094 186.104 346.853 184.105 348.069 178.136C353.313 178.136 358.464 178.136 363.605 178.136C364.323 191.006 353.442 201.995 339.706 202.137C324.213 202.297 308.717 202.18 293.223 202.18C259.876 202.183 226.521 201.736 193.188 202.395C179.426 202.668 169.64 190.493 176.495 176.765C182.416 164.905 187.066 152.41 192.298 140.204C195.232 133.36 200.331 129.446 207.886 129.43C237.527 129.364 267.169 129.401 296.81 129.411C297.457 129.412 298.104 129.54 299.099 129.644ZM258.692 145.57C246.318 145.57 234.296 146.518 222.495 145.301C210.94 144.11 204.788 147.67 201.589 159.031C199.028 168.13 194.34 176.629 190.453 185.727C213.563 185.727 236.021 185.727 258.692 185.727C258.692 172.382 258.692 159.317 258.692 145.57Z" fill="#33C5FF"/>
<path d="M105.125 291.167C118.286 291.064 129.339 301.904 129.465 315.036C129.593 328.509 118.727 339.583 105.328 339.631C92.1184 339.679 81.1493 328.92 80.9859 315.757C80.8197 302.323 91.6687 291.271 105.125 291.167ZM113.268 315.567C113.375 311.247 109.853 307.512 105.51 307.341C101.201 307.171 97.3971 310.653 97.1648 314.977C96.9218 319.507 100.631 323.437 105.163 323.455C109.501 323.473 113.161 319.91 113.268 315.567Z" fill="#33C5FF"/>
<path d="M404.473 315.232C404.504 328.701 393.555 339.679 380.14 339.632C366.948 339.584 356.067 328.737 355.997 315.562C355.925 302.142 366.864 291.177 380.331 291.167C393.482 291.158 404.444 302.085 404.473 315.232ZM388.28 315.202C388.179 310.87 384.494 307.305 380.155 307.342C375.818 307.38 372.202 311.006 372.172 315.345C372.141 319.888 376.028 323.656 380.54 323.457C384.878 323.265 388.378 319.531 388.28 315.202Z" fill="#33C5FF"/>
<path d="M388.623 91.621C382.078 98.5822 376.347 104.679 370.418 110.986C366.365 106.571 362.896 102.79 359.242 98.8091C364.771 93.4886 370.811 87.6739 377.29 81.4378C370.419 75.0032 364.211 69.1898 357.769 63.1562C362.542 58.7405 366.308 55.2578 370.579 51.3067C376.005 57.139 381.712 63.2751 387.873 69.8947C394.4 63.0401 400.265 56.8769 406.38 50.4545C410.461 54.9932 413.812 58.7216 417.353 62.6593C411.775 68.0771 405.688 73.9904 398.735 80.7451C405.92 87.3025 412.208 93.043 418.612 98.8887C414.273 103.182 410.7 106.716 406.517 110.853C400.713 104.616 394.922 98.3918 388.623 91.621Z" fill="#33C5FF"/>
</g>
<defs>
<clipPath id="clip0_260_16393">
<rect width="486.545" height="372" fill="white"/>
</clipPath>
</defs>
</svg>
