<svg width="349" height="349" viewBox="0 0 349 349" fill="none" xmlns="http://www.w3.org/2000/svg">
<path d="M184.396 1.51331L184.296 1.49986H184.195C177.51 1.49986 170.824 1.49986 164.136 1.49902L164.036 1.49901L163.936 1.51249C161.92 1.78445 159.883 2.03612 157.837 2.28898C153.373 2.84065 148.863 3.398 144.421 4.18408L144.683 5.66113L144.421 4.18409C105.233 11.1213 72.2748 29.5484 45.6952 59.0429C20.6493 86.8353 6.45787 119.624 2.32817 156.754L2.32814 156.754C2.14982 158.36 1.9665 159.964 1.78286 161.57C1.69165 162.368 1.60036 163.166 1.50957 163.966L1.5 164.05V164.135V164.175V164.214V164.253V164.292V164.331V164.37V164.41V164.449V164.488V164.527V164.566V164.605V164.645V164.684V164.723V164.762V164.801V164.84V164.88V164.919V164.958V164.997V165.036V165.076V165.115V165.154V165.193V165.232V165.271V165.311V165.35V165.389V165.428V165.467V165.506V165.546V165.585V165.624V165.663V165.702V165.742V165.781V165.82V165.859V165.898V165.937V165.977V166.016V166.055V166.094V166.133V166.172V166.212V166.251V166.29V166.329V166.368V166.408V166.447V166.486V166.525V166.564V166.603V166.643V166.682V166.721V166.76V166.799V166.838V166.878V166.917V166.956V166.995V167.034V167.074V167.113V167.152V167.191V167.23V167.269V167.309V167.348V167.387V167.426V167.465V167.504V167.544V167.583V167.622V167.661V167.7V167.739V167.779V167.818V167.857V167.896V167.935V167.975V168.014V168.053V168.092V168.131V168.17V168.21V168.249V168.288V168.327V168.366V168.405V168.445V168.484V168.523V168.562V168.601V168.641V168.68V168.719V168.758V168.797V168.836V168.876V168.915V168.954V168.993V169.032V169.071V169.111V169.15V169.189V169.228V169.267V169.307V169.346V169.385V169.424V169.463V169.502V169.542V169.581V169.62V169.659V169.698V169.737V169.777V169.816V169.855V169.894V169.933V169.973V170.012V170.051V170.09V170.129V170.168V170.208V170.247V170.286V170.325V170.364V170.403V170.443V170.482V170.521V170.56V170.599V170.639V170.678V170.717V170.756V170.795V170.834V170.874V170.913V170.952V170.991V171.03V171.07V171.109V171.148V171.187V171.226V171.265V171.305V171.344V171.383V171.422V171.461V171.5V171.54V171.579V171.618V171.657V171.696V171.736V171.775V171.814V171.853V171.892V171.931V171.971V172.01V172.049V172.088V172.127V172.166V172.206V172.245V172.284V172.323V172.362V172.402V172.441V172.48V172.519V172.558V172.597V172.637V172.676V172.715V172.754V172.793V172.832V172.872V172.911V172.95V172.989V173.028V173.068V173.107V173.146V173.185V173.224V173.263V173.303V173.342V173.381V173.42V173.459V173.498V173.538V173.577V173.616V173.655V173.694V173.734V173.773V173.812V173.851V173.89V173.929V173.969V174.008V174.047V174.086V174.125V174.164V174.204V174.243V174.282V174.321V174.36V174.4V174.439V174.478V174.517V174.556V174.595V174.635V174.674V174.713V174.752V174.791V174.831V174.87V174.909V174.948V174.987V175.026V175.066V175.105V175.144V175.183V175.222V175.261V175.301V175.34V175.379V175.418V175.457V175.497V175.536V175.575V175.614V175.653V175.692V175.732V175.771V175.81V175.849V175.888V175.927V175.967V176.006V176.045V176.084V176.123V176.163V176.202V176.241V176.28V176.319V176.358V176.398V176.437V176.476V176.515V176.554V176.593V176.633V176.672V176.711V176.75V176.789V176.829V176.868V176.907V176.946V176.985V177.024V177.064V177.103V177.142V177.181V177.22V177.259V177.299V177.338V177.377V177.416V177.455V177.495V177.534V177.573V177.612V177.651V177.69V177.73V177.769V177.808V177.847V177.886V177.925V177.965V178.004V178.043V178.082V178.121V178.161V178.2V178.239V178.278V178.317V178.356V178.396V178.435V178.474V178.513V178.552V178.591V178.631V178.67V178.709V178.748V178.787V178.827V178.866V178.905V178.944V178.983V179.022V179.062V179.101V179.14V179.179V179.218V179.257V179.297V179.336V179.375V179.414V179.453V179.493V179.532V179.571V179.61V179.649V179.688V179.728V179.767V179.806V179.845V179.884V179.923V179.963V180.002V180.041V180.08V180.119V180.159V180.198V180.237V180.276V180.315V180.354V180.394V180.433V180.472V180.511V180.55V180.589V180.629V180.668V180.707V180.746V180.785V180.825V180.864V180.903V180.942V180.981V181.02V181.06V181.099V181.138V181.177V181.216V181.255V181.295V181.334V181.373V181.412V181.451V181.491V181.53V181.569V181.608V181.647V181.686V181.726V181.765V181.804V181.843V181.882V181.921V181.961V182V182.039V182.078V182.117V182.157V182.196V182.235V182.274V182.313V182.352V182.392V182.431V182.47V182.509V182.548V182.587V182.627V182.666V182.705V182.744V182.783V182.823V182.862V182.901V182.94V182.979V183.018V183.058V183.097V183.136V183.175V183.214V183.253V183.293V183.332V183.371V183.41V183.449V183.488V183.528V183.567V183.606V183.645V183.684V183.724V183.763V183.802V183.841V183.88V183.919V183.959V183.998V184.037V184.076V184.115V184.154V184.194V184.324L1.52241 184.452C1.59287 184.855 1.6643 185.245 1.73441 185.628C1.87914 186.418 2.01828 187.177 2.13189 187.96L3.61633 187.744L2.1319 187.96C2.4668 190.266 2.75948 192.613 3.05432 194.977C3.68502 200.035 4.32563 205.171 5.41058 210.16C14.4222 251.606 35.7246 285.606 69.4976 311.191C111.495 343.006 158.844 353.572 210.412 342.817C251.714 334.203 285.307 312.543 310.977 279.173C338.703 243.13 350.245 202.053 345.907 156.894C342.391 120.284 328.171 87.9447 303.782 60.3582C277.051 30.1212 243.727 11.2734 203.92 4.18686L203.658 5.66364L203.92 4.18684C199.474 3.39545 194.957 2.83863 190.488 2.28759C188.443 2.03558 186.409 1.78478 184.396 1.51331ZM174.286 15.8961C261.463 16.0122 332.473 87.0953 332.436 174.203C332.4 261.345 261.357 332.391 174.212 332.435C86.9873 332.479 15.7005 261.12 15.897 173.964C16.0936 86.7494 87.2132 15.7791 174.286 15.8961Z" fill="black" stroke="black" stroke-width="3"/>
<path d="M176.234 162.604L176.234 162.604C183.116 155.726 189.996 148.847 196.876 141.968C207.959 130.887 219.041 119.806 230.128 108.73C230.226 108.632 230.325 108.533 230.425 108.431C231.259 107.593 232.197 106.649 233.285 105.949C233.285 105.949 233.285 105.949 233.285 105.949L233.826 106.789C236.275 105.213 238.773 105.405 240.838 107.443C242.903 109.482 243.132 111.978 241.578 114.443C240.938 115.459 240.057 116.337 239.194 117.198C239.111 117.281 239.028 117.364 238.946 117.446L176.234 162.604ZM176.234 162.604C175.679 163.16 175.112 163.686 174.484 164.268C174.38 164.364 174.275 164.462 174.168 164.561C174.068 164.468 173.969 164.376 173.871 164.286C173.238 163.7 172.667 163.172 172.108 162.613L172.108 162.613C160.558 151.069 149.011 139.523 137.465 127.976C131.05 121.562 124.635 115.147 118.22 108.733L118.219 108.733M176.234 162.604L118.219 108.733M164.862 174.471C164.748 174.559 164.634 174.647 164.52 174.733C163.684 175.373 162.887 175.983 162.213 176.655C145.022 193.813 127.85 210.99 110.678 228.167L108.554 230.292C106.577 232.269 105.304 234.224 104.93 236.143C104.543 238.137 105.152 239.95 106.625 241.491C108.15 243.088 109.997 243.78 112.052 243.416C114.027 243.065 116.052 241.764 118.093 239.723C125.788 232.03 133.483 224.336 141.177 216.642C151.444 206.375 161.711 196.108 171.981 185.844C172.577 185.249 173.184 184.681 173.878 184.033C174.022 183.897 174.171 183.759 174.324 183.615C175.168 184.479 175.998 185.332 176.819 186.175C179.064 188.481 181.24 190.716 183.441 192.919C199.344 208.843 215.251 224.763 231.188 240.655C232.872 242.334 234.743 243.329 236.614 243.495C238.513 243.664 240.292 242.967 241.699 241.498C243.059 240.08 243.67 238.353 243.472 236.519C243.278 234.717 242.317 232.919 240.746 231.264C240.362 230.859 239.959 230.461 239.569 230.076C239.401 229.91 239.236 229.747 239.076 229.587C234.909 225.42 230.742 221.253 226.574 217.086C213.017 203.528 199.459 189.97 185.904 176.409L185.904 176.409C185.296 175.801 184.717 175.18 184.088 174.507C183.98 174.391 183.87 174.273 183.758 174.154C183.869 174.037 183.978 173.922 184.084 173.809C184.685 173.173 185.22 172.605 185.778 172.047L164.862 174.471ZM164.862 174.471C164.698 174.296 164.54 174.128 164.389 173.967C163.698 173.229 163.135 172.629 162.547 172.041M164.862 174.471L106.773 106.692C105.207 108.23 104.542 110.071 104.928 112.117C105.299 114.083 106.614 116.1 108.664 118.15L108.664 118.15C115.401 124.888 122.137 131.625 128.874 138.362C140.1 149.587 151.325 160.813 162.547 172.041M162.547 172.041L163.255 171.334L162.547 172.041ZM118.219 108.733C116.156 106.67 114.15 105.34 112.197 104.944M118.219 108.733L112.197 104.944M112.197 104.944C110.16 104.532 108.326 105.165 106.773 106.692L112.197 104.944Z" fill="black" stroke="black" stroke-width="2"/>
</svg>
