<svg width="299" height="344" viewBox="0 0 299 344" fill="none" xmlns="http://www.w3.org/2000/svg">
<path d="M225.725 0C228.637 1.71203 229.489 4.36741 229.628 7.59885C230.051 17.432 232.375 26.819 237.137 35.4813C244.723 49.2841 256.584 56.289 272.247 57.0729C273.587 57.1401 274.951 57.1087 276.258 57.3587C279.372 57.9544 281.23 60.2954 280.985 63.3001C280.732 66.3999 278.962 68.1657 275.872 68.5437C271.659 69.058 267.342 69.118 263.241 70.0909C247.485 73.8258 238.018 84.4169 233.295 99.2948C231.292 105.607 230.821 112.395 229.502 118.937C229.121 120.828 228.696 123.151 227.413 124.295C226.178 125.395 223.73 125.75 221.954 125.488C219.35 125.103 218.391 122.843 217.987 120.31C216.936 113.718 216.407 106.947 214.491 100.604C208.333 80.2188 195.124 70.116 173.875 68.7229C168.72 68.3852 166.431 66.6015 166.439 62.9284C166.448 59.2194 168.901 57.3022 173.891 57.106C194.188 56.3096 208.316 45.749 214.236 26.277C216.102 20.1412 216.903 13.6496 217.787 7.26558C218.213 4.19988 218.934 1.65021 221.694 0C223.038 0 224.381 0 225.725 0ZM223.288 90.5537C226.944 85.1865 229.964 79.6266 234.071 75.0344C238.237 70.3776 243.476 66.6767 248.346 62.4697C237.153 56.3419 229.055 46.9011 223.66 34.3686C218.376 47.1698 210.054 56.2997 198.345 62.9696C210.198 69.5937 218.394 78.8463 223.288 90.5537Z" fill="#F8B705"/>
<path d="M180.572 194.526C184.679 194.526 188.815 194.526 192.95 194.526C212.099 194.526 231.248 194.592 250.397 194.499C260.049 194.452 267.754 197.977 272.412 206.554C277.065 215.125 276.089 223.546 270.381 231.433C270.26 231.6 270.239 231.838 270.099 232.258C277.682 237.51 281.753 244.714 280.804 254.13C279.864 263.445 274.456 269.588 265.804 273.4C269.473 279.766 270.643 286.398 268.285 293.386C265.966 300.256 261.122 304.787 254.346 307.714C257.63 313.514 258.934 319.46 257.371 325.868C254.939 335.842 246.091 343.264 235.771 343.292C199.713 343.39 163.654 343.465 127.598 343.211C116.625 343.134 106.277 340.006 96.5034 334.734C90.6614 331.582 84.3365 329.293 78.1379 326.844C75.4601 325.786 73.7445 326.554 72.3639 329.707C68.5224 338.483 61.3679 343.066 51.7722 343.294C42.3708 343.517 32.9605 343.393 23.5537 343.335C9.96057 343.25 0.0727509 333.406 0.0378116 319.76C-0.032067 293.161 0.0163103 266.561 0.0163103 239.962C0.0163103 229.009 -0.0195251 218.056 0.0261647 207.104C0.0852927 192.867 9.86202 183.159 24.1549 183.104C31.7699 183.074 39.3839 183.098 46.9989 183.098C61.9646 183.098 67.399 186.44 74.2041 200.322C79.075 199.024 84.4323 198.388 89.0721 196.221C107.504 187.616 123.36 175.606 135.063 158.751C141.536 149.429 143.917 139.133 141.054 127.859C139.696 122.511 139.22 117.056 140.679 111.61C144.14 98.6995 159.903 91.4276 172.961 96.9373C184.768 101.918 190.92 111.677 194.036 123.517C198.174 139.243 195.45 154.61 190.432 169.616C187.649 177.94 183.991 185.972 180.572 194.526ZM74.7201 314.973C84.8292 315.389 93.3911 319.353 101.588 324.333C109.931 329.403 119.134 331.783 128.76 331.831C164.137 332.01 199.516 331.942 234.894 331.891C241.559 331.882 246.517 326.892 246.563 320.552C246.611 314.01 241.667 309.165 234.752 309.08C229.602 309.016 224.452 309.093 219.302 309.054C214.801 309.02 212.214 306.831 212.264 303.198C212.312 299.661 214.746 297.651 219.149 297.635C227.658 297.604 236.167 297.647 244.676 297.604C246.23 297.596 247.821 297.493 249.329 297.144C254.354 295.981 257.857 291.627 258.006 286.556C258.159 281.374 255.061 276.77 250.171 275.318C248.493 274.82 246.641 274.76 244.867 274.748C236.695 274.691 228.522 274.73 220.349 274.719C214.895 274.712 212.228 272.779 212.264 268.897C212.3 265.035 214.865 263.264 220.471 263.256C226.516 263.247 232.562 263.255 238.608 263.253C244.989 263.25 251.374 263.376 257.752 263.205C265.15 263.007 270.005 257.635 269.424 250.605C268.928 244.594 263.95 240.357 257.071 240.319C244.756 240.252 232.441 240.306 220.125 240.293C214.817 240.288 212.297 238.466 212.264 234.666C212.232 230.861 214.877 228.86 220.017 228.846C225.951 228.83 231.885 228.849 237.818 228.839C242.968 228.83 248.125 228.959 253.265 228.735C258.874 228.492 263.17 224.08 263.76 218.374C264.293 213.232 260.854 208.029 255.74 206.601C253.943 206.099 251.988 205.986 250.105 205.984C224.131 205.946 198.157 205.962 172.183 205.955C164.833 205.953 162.529 201.965 166.148 195.633C174.515 180.996 181.156 165.691 183.722 148.897C185.319 138.444 184.956 128.132 179.902 118.514C177.131 113.241 173.312 108.913 167.329 107.113C158.501 104.457 150.584 110.873 151.456 119.962C151.637 121.846 152.128 123.703 152.284 125.588C152.736 131.013 153.702 136.486 153.351 141.868C152.676 152.203 148.052 161.179 141.759 169.231C129.785 184.55 114.705 196.27 97.4862 204.99C90.5512 208.503 82.5832 209.982 74.7201 212.504C74.7201 246.011 74.7201 280.275 74.7201 314.973ZM63.122 263.207C63.122 244.436 63.1444 225.664 63.1113 206.893C63.0979 199.285 58.3712 194.582 50.7276 194.539C41.8834 194.489 33.0393 194.501 24.1952 194.534C16.1851 194.564 11.4854 199.241 11.4809 207.273C11.4585 244.593 11.4576 281.911 11.4818 319.231C11.4871 327.259 16.1851 331.891 24.2418 331.917C32.8619 331.945 41.483 331.938 50.1031 331.92C58.6247 331.902 63.1149 327.399 63.1203 318.852C63.131 300.303 63.1229 281.755 63.122 263.207Z" fill="#F8B705"/>
<path d="M108.899 114.371C108.934 117.507 106.852 119.714 103.543 120.094C100.993 120.386 98.3774 120.445 95.9119 121.078C84.0048 124.141 78.7621 133.129 76.0082 144.079C75.1974 147.303 74.9286 150.678 74.607 154.003C74.2424 157.766 72.1541 160.184 68.9298 160.231C65.6222 160.279 63.7176 157.692 63.0206 153.835C61.9178 147.737 60.9502 141.458 58.6559 135.765C54.6128 125.733 46.5006 120.701 35.656 120.157C35.2089 120.134 34.7601 120.139 34.3148 120.097C30.9338 119.773 28.8455 117.656 28.8043 114.522C28.764 111.455 30.8809 109.162 34.1563 108.725C37.0258 108.343 39.9947 108.305 42.7468 107.515C53.9749 104.291 58.9255 95.562 61.6194 85.1429C62.4517 81.9258 62.7644 78.552 63.0708 75.2273C63.4443 71.1699 65.4431 68.7161 68.7739 68.6677C72.1102 68.6184 74.3302 71.0839 74.5873 75.0777C75.0075 81.5881 76.268 87.8888 79.1975 93.7918C83.891 103.25 91.4522 108.27 102.059 108.665C106.459 108.828 108.861 110.856 108.899 114.371ZM56.3499 114.781C58.4032 116.733 60.9287 118.79 63.026 121.217C65.1958 123.728 66.9508 126.595 68.5401 128.822C72.7498 123.995 77.0993 119.008 81.0636 114.464C77.0277 109.801 72.7131 104.816 68.877 100.385C64.9575 104.888 60.6761 109.809 56.3499 114.781Z" fill="#F8B705"/>
<path d="M118.198 48.0187C117.358 49.866 117.077 51.2949 116.231 52.1971C113.183 55.4518 110.069 58.668 106.738 61.6262C104.395 63.7064 101.263 63.3149 99.1779 61.1702C97.1048 59.0389 96.828 55.9114 98.9387 53.6027C101.946 50.3122 105.017 47.0064 108.5 44.2614C109.837 43.2078 112.651 43.0018 114.299 43.6522C115.925 44.2945 116.93 46.5074 118.198 48.0187Z" fill="#F8B705"/>
<path d="M138.402 16.7227C139.74 17.8004 141.987 18.7635 142.645 20.3734C143.318 22.0209 143.152 24.8725 142.095 26.1966C139.265 29.7398 135.911 32.9184 132.472 35.9061C130.205 37.8762 127.476 37.6181 125.168 35.5737C123.128 33.7659 122.581 30.3481 124.408 28.3126C127.6 24.7587 131.08 21.452 134.567 18.1776C135.301 17.4877 136.586 17.3829 138.402 16.7227Z" fill="#F8B705"/>
<path d="M143.692 57.896C142.574 59.2327 141.573 61.4527 139.949 62.087C138.295 62.7338 135.48 62.5152 134.137 61.4572C130.649 58.7095 127.568 55.4019 124.564 52.1015C122.651 49.9997 122.965 46.737 124.815 44.7356C126.724 42.6697 129.981 42.0166 132.1 43.8863C135.693 47.0559 138.995 50.5642 142.281 54.059C142.968 54.7891 143.054 56.0819 143.692 57.896Z" fill="#F8B705"/>
<path d="M102.773 16.6494C104.749 17.6438 106.326 18.0739 107.405 19.0513C110.3 21.6726 113.053 24.4606 115.727 27.3095C118.135 29.8744 118.086 33.13 115.825 35.4046C113.653 37.5888 110.155 37.6605 107.682 35.3428C104.751 32.5943 101.673 29.9048 99.2742 26.7281C98.1526 25.2427 97.7727 22.4413 98.3541 20.6585C98.88 19.0477 101.173 18.012 102.773 16.6494Z" fill="#F8B705"/>
<path d="M263.908 131.552C263.908 129.544 263.809 127.53 263.93 125.529C264.121 122.391 266.036 120.685 269.011 120.224C271.684 119.809 274.687 121.667 274.915 124.499C275.295 129.244 275.35 134.077 274.872 138.805C274.568 141.809 271.99 143.217 268.903 142.9C265.964 142.598 264.216 140.841 263.964 137.908C263.783 135.805 263.929 133.673 263.929 131.553C263.921 131.552 263.914 131.552 263.908 131.552Z" fill="#F8B705"/>
<path d="M252.366 154.371C250.244 154.371 248.109 154.519 246.004 154.336C243.038 154.078 241.043 151.904 240.982 149.05C240.915 145.955 242.435 143.596 245.467 143.334C250.002 142.942 254.614 142.983 259.159 143.314C262.041 143.523 263.899 146.266 263.78 148.993C263.653 151.897 261.506 154.138 258.397 154.37C256.398 154.518 254.379 154.397 252.367 154.397C252.366 154.388 252.366 154.38 252.366 154.371Z" fill="#F8B705"/>
<path d="M286.614 154.385C284.603 154.388 282.581 154.516 280.582 154.357C277.558 154.118 275.535 152.062 275.387 149.234C275.226 146.134 276.678 143.679 279.693 143.395C284.331 142.959 289.059 143.014 293.711 143.365C296.56 143.58 298.497 146.464 298.159 149.146C297.784 152.127 296.116 154.105 292.981 154.35C290.871 154.516 288.738 154.382 286.614 154.385Z" fill="#F8B705"/>
<path d="M275.294 165.978C275.291 167.874 275.416 169.78 275.264 171.664C274.982 175.175 272.625 177.38 269.43 177.324C266.246 177.269 263.997 174.974 263.898 171.436C263.794 167.757 263.791 164.071 263.901 160.394C264.005 156.899 266.338 154.563 269.491 154.539C272.631 154.516 275.009 156.803 275.272 160.292C275.413 162.177 275.297 164.082 275.294 165.978Z" fill="#F8B705"/>
</svg>
