<svg width="155" height="337" viewBox="0 0 155 337" fill="none" xmlns="http://www.w3.org/2000/svg">
<path d="M64.6124 38.7775C64.6124 30.3451 64.5887 22.28 64.6188 14.2159C64.65 5.89225 69.8463 0.105888 77.3213 0.00142543C84.9449 -0.105191 90.3791 5.77918 90.4125 14.2503C90.4448 22.3144 90.42 30.3774 90.42 38.5126C95.3556 39.3989 100.133 39.9686 104.762 41.1339C133.899 48.4645 154.519 74.676 154.921 104.72C154.973 108.623 155.03 112.53 154.91 116.431C154.688 123.702 149.041 129.249 142.017 129.239C135.007 129.23 129.472 123.642 129.123 116.39C128.794 109.558 129.193 102.54 127.736 95.9433C123.984 78.9665 110.319 66.7197 92.6686 65.0483C82.1696 64.0542 71.3583 64.0338 60.9088 65.3444C41.7695 67.7449 28.1323 82.6906 26.0527 101.718C24.1164 119.439 34.5756 136.721 51.7807 143.743C72.278 152.109 92.9174 160.13 113.392 168.551C140.351 179.641 156.978 206.597 154.811 235.206C152.616 264.191 132.177 288.287 103.761 295.203C99.491 296.242 95.0777 296.696 90.4114 297.472C90.4114 306.062 90.5094 314.661 90.3769 323.256C90.2886 328.929 87.3712 332.943 82.1987 335.138C77.3471 337.197 71.4595 336.132 68.2944 331.859C66.3516 329.234 64.9667 325.63 64.776 322.381C64.2903 314.082 64.6145 305.736 64.6145 297.181C53.6082 296.42 43.3472 293.969 34.0554 288.432C12.5221 275.602 1.22079 256.58 0.130928 231.513C-0.0446124 227.482 -0.0101511 223.433 0.132004 219.4C0.380776 212.331 5.93237 206.906 12.8215 206.819C19.8507 206.731 25.5681 212.247 25.8815 219.472C26.1378 225.377 25.7878 231.368 26.6677 237.175C29.5797 256.396 46.0396 270.904 65.3716 271.323C75.1577 271.535 85.0752 271.889 94.731 270.631C113.078 268.24 126.359 253.75 128.901 234.921C131.197 217.909 121.306 200.048 104.863 193.104C84.2266 184.39 63.2877 176.397 42.5481 167.926C22.3955 159.695 9.00163 145.048 2.73926 124.184C-9.05317 84.9005 18.5993 43.6711 59.3935 39.4323C60.9906 39.2675 62.5834 39.0349 64.6124 38.7775Z" fill="black"/>
</svg>
