<svg width="428" height="430" viewBox="0 0 428 430" fill="none" xmlns="http://www.w3.org/2000/svg">
<path d="M428 80.4266C427.628 105.54 419.65 125.338 403.557 141.538C367.631 177.705 331.483 213.651 295.47 249.732C246.118 299.177 196.841 348.697 147.384 398.036C144.886 400.528 141.167 402.441 137.703 403.209C98.7542 411.859 59.7446 420.235 20.7487 428.673C7.94252 431.444 -2.33048 420.703 0.461129 407.942C8.9679 369.07 17.1723 330.132 25.7615 291.279C26.5615 287.658 28.582 283.777 31.1839 281.162C99.7274 212.311 168.412 143.601 237.1 74.8929C255.417 56.5708 272.882 37.2564 292.366 20.2689C340.464 -21.6684 414.791 5.01202 426.588 67.8101C427.502 72.6854 427.704 77.6927 428 80.4266ZM252.214 106.655C252.084 106.761 251.524 107.141 251.054 107.613C187.151 171.62 123.244 235.625 59.4133 299.706C57.9564 301.168 56.9021 303.382 56.4307 305.424C53.6913 317.287 51.1526 329.197 48.6043 341.104C45.1007 357.479 41.648 373.865 38.1169 390.512C39.2165 390.512 39.8858 390.627 40.503 390.495C67.6301 384.688 94.775 378.963 121.844 372.895C125.098 372.165 128.496 370.128 130.882 367.747C193.435 305.303 255.859 242.727 318.343 180.214C319.663 178.891 321.434 178.021 322.638 177.188C298.586 153.098 275.464 129.94 252.214 106.655ZM345.965 151.275C357.736 139.765 370.068 128.144 381.905 116.037C405.295 92.1126 396.189 49.3643 364.977 37.2247C344.997 29.4533 326.539 32.649 310.953 47.8812C299.339 59.2332 288.156 71.0278 277.137 82.2615C300.151 105.338 323.215 128.465 345.965 151.275Z" fill="black"/>
</svg>
