<svg width="11" height="12" viewBox="0 0 11 12" fill="none" xmlns="http://www.w3.org/2000/svg">
<path d="M3.72461 0.688086C3.72461 0.598575 3.76017 0.512731 3.82346 0.449437C3.88675 0.386144 3.9726 0.350586 4.06211 0.350586H6.76211C6.85162 0.350586 6.93746 0.386144 7.00076 0.449437C7.06405 0.512731 7.09961 0.598575 7.09961 0.688086C7.09961 0.777597 7.06405 0.863441 7.00076 0.926734C6.93746 0.990028 6.85162 1.02559 6.76211 1.02559H4.06211C3.9726 1.02559 3.88675 0.990028 3.82346 0.926734C3.76017 0.863441 3.72461 0.777597 3.72461 0.688086Z" fill="#161821"/>
<path d="M8.75409 1.65317C8.81735 1.5901 8.90304 1.55469 8.99236 1.55469C9.08169 1.55469 9.16738 1.5901 9.23064 1.65317L10.1851 2.60762C10.2173 2.63875 10.243 2.67599 10.2607 2.71717C10.2784 2.75834 10.2877 2.80263 10.2881 2.84744C10.2885 2.89226 10.28 2.9367 10.263 2.97818C10.246 3.01965 10.221 3.05734 10.1893 3.08902C10.1576 3.12071 10.1199 3.14577 10.0784 3.16274C10.0369 3.17971 9.9925 3.18825 9.94769 3.18786C9.90288 3.18747 9.85859 3.17816 9.81741 3.16048C9.77624 3.14279 9.739 3.11708 9.70786 3.08484L8.75409 2.13039C8.69082 2.0671 8.65527 1.98127 8.65527 1.89178C8.65527 1.80229 8.69082 1.71646 8.75409 1.65317V1.65317Z" fill="#161821"/>
<path d="M10.1375 6.42617C10.1375 7.67932 9.63969 8.88114 8.75358 9.76725C7.86747 10.6534 6.66565 11.1512 5.4125 11.1512C4.15935 11.1512 2.95753 10.6534 2.07142 9.76725C1.18531 8.88114 0.6875 7.67932 0.6875 6.42617C0.6875 5.17302 1.18531 3.9712 2.07142 3.08509C2.95753 2.19898 4.15935 1.70117 5.4125 1.70117C6.66565 1.70117 7.86747 2.19898 8.75358 3.08509C9.63969 3.9712 10.1375 5.17302 10.1375 6.42617V6.42617ZM5.075 3.38867V6.76367C5.075 6.85318 5.11056 6.93903 5.17385 7.00232C5.23714 7.06561 5.32299 7.10117 5.4125 7.10117C5.50201 7.10117 5.58786 7.06561 5.65115 7.00232C5.71444 6.93903 5.75 6.85318 5.75 6.76367V3.38867C5.75 3.29916 5.71444 3.21332 5.65115 3.15002C5.58786 3.08673 5.50201 3.05117 5.4125 3.05117C5.32299 3.05117 5.23714 3.08673 5.17385 3.15002C5.11056 3.21332 5.075 3.29916 5.075 3.38867Z" fill="#161821"/>
</svg>
