<svg width="12" height="13" viewBox="0 0 12 13" fill="none" xmlns="http://www.w3.org/2000/svg">
<path d="M11.2578 9.23743C11.2578 9.84045 11.2153 10.2193 11.1302 10.3739L10.7823 11.0465C10.7205 11.1625 10.5272 11.3345 10.2025 11.5626C9.87781 11.7906 9.5415 11.982 9.1936 12.1366C8.8457 12.2912 8.61764 12.3376 8.5094 12.2758L7.90637 11.8815C7.73629 11.781 7.62612 11.6283 7.57587 11.4234C7.52561 11.2185 7.55074 11.0233 7.65125 10.8378L9.40234 7.49792C9.50285 7.32011 9.64587 7.20221 9.83142 7.14423C10.017 7.08624 10.1948 7.11137 10.3649 7.2196L10.9679 7.60229C11.0066 7.62549 11.0413 7.67187 11.0723 7.74145C11.196 7.28532 11.2578 6.82918 11.2578 6.37305C11.2578 5.70044 11.1341 5.05876 10.8867 4.448C10.6393 3.83724 10.2953 3.29606 9.85461 2.82446L9.03125 3.0332C8.25814 2.29102 7.26855 1.91992 6.0625 1.91992C4.85645 1.91992 3.86686 2.29102 3.09375 3.0332L2.27039 2.82446C1.82971 3.29606 1.48568 3.83724 1.23828 4.448C0.990885 5.05876 0.867188 5.70044 0.867188 6.37305C0.867188 6.82918 0.929036 7.28532 1.05273 7.74145C1.08366 7.67187 1.11845 7.62549 1.1571 7.60229L1.76013 7.2196C1.93022 7.11137 2.10803 7.08624 2.29358 7.14423C2.47913 7.20221 2.62215 7.32011 2.72266 7.49792L4.47375 10.8378C4.57426 11.0233 4.59939 11.2185 4.54913 11.4234C4.49888 11.6283 4.38871 11.781 4.21863 11.8815L3.6156 12.2758C3.50736 12.3376 3.2793 12.2912 2.9314 12.1366C2.5835 11.982 2.24719 11.7906 1.92249 11.5626C1.59778 11.3345 1.4045 11.1625 1.34265 11.0465L0.994751 10.3739C0.909709 10.2193 0.867188 9.84045 0.867188 9.23743C0.372396 8.34835 0.125 7.39355 0.125 6.37305C0.125 5.56901 0.281555 4.79976 0.594666 4.06531C0.907776 3.33085 1.32912 2.69883 1.8587 2.16925C2.38829 1.63967 3.0203 1.21832 3.75476 0.905212C4.48922 0.592102 5.25846 0.435547 6.0625 0.435547C6.86654 0.435547 7.63578 0.592102 8.37024 0.905212C9.1047 1.21832 9.73671 1.63967 10.2663 2.16925C10.7959 2.69883 11.2172 3.33085 11.5303 4.06531C11.8434 4.79976 12 5.56901 12 6.37305C12 7.39355 11.7526 8.34835 11.2578 9.23743Z" fill="#161821"/>
</svg>
