<svg width="14" height="12" viewBox="0 0 14 12" fill="none" xmlns="http://www.w3.org/2000/svg">
<path d="M13.4209 3.0414C13.168 3.38067 12.9258 3.39513 12.6144 3.09723C12.5602 3.04533 12.4866 2.99299 12.4158 2.98257C12.1123 2.93784 11.8556 2.83341 11.6543 2.58056C11.4969 2.3828 11.2974 2.44659 11.1943 2.69497C10.9757 3.22194 10.8183 3.78863 10.5163 4.26295C10.1659 4.81334 9.87223 5.33975 9.8213 6.01411C9.7993 6.30539 9.52843 6.57761 9.37143 6.85896C9.31885 6.95315 9.23728 7.04391 9.2222 7.14423C9.09486 7.99122 8.96298 8.83815 8.86928 9.68918C8.83067 10.0401 8.86872 10.402 8.8971 10.7568C8.91732 11.01 9.03548 11.2171 9.27092 11.3547C9.39386 11.4264 9.48983 11.5444 9.59799 11.6415C9.58794 11.6764 9.57789 11.7112 9.56784 11.7461C9.34385 11.7598 9.11827 11.7932 8.89673 11.7757C8.82644 11.7701 8.7426 11.6384 8.70626 11.5478C8.43662 10.8762 8.42498 10.1701 8.44097 9.46053C8.44214 9.40985 8.39875 9.35819 8.37607 9.30702C8.342 9.30371 8.30786 9.3004 8.27379 9.29709C8.20135 9.68857 8.0441 10.0882 8.08057 10.4692C8.11666 10.8468 8.34813 11.2057 8.50213 11.5935C8.26313 11.5935 7.97988 11.5935 7.6875 11.5935C7.68039 11.5719 7.65612 11.5383 7.66433 11.5172C7.86222 11.0071 7.57174 10.4873 7.71152 9.96624C7.8483 9.45655 7.93478 8.92909 7.99244 8.40383C8.03087 8.05373 7.99949 7.69179 7.96315 7.33886C7.93428 7.05855 7.76986 6.94126 7.4564 6.94775C6.78505 6.96167 6.10855 6.95915 5.44222 6.88788C5.10185 6.85148 4.78024 6.64851 4.4476 6.52791C4.27699 6.46607 4.10393 6.39713 3.92633 6.37243C3.72857 6.34492 3.58835 6.43028 3.51163 6.64496C3.30241 7.23027 2.99103 7.79082 2.8654 8.39152C2.67787 9.28845 2.44757 10.2236 3.01321 11.0902C3.11139 11.2406 3.25626 11.3602 3.37674 11.4965C3.44526 11.574 3.50807 11.6566 3.63499 11.8124C3.28194 11.8124 3.02002 11.8313 2.76459 11.7987C2.70367 11.7909 2.65073 11.6154 2.61923 11.5095C2.58203 11.3844 2.59306 11.2429 2.54563 11.1234C2.45885 10.9048 2.30289 10.7069 2.25055 10.4829C2.15109 10.0574 2.08368 9.62158 2.04237 9.18629C2.00965 8.84164 2.03581 8.49135 2.03581 8.13468C2.00566 8.17182 1.96356 8.21901 1.92716 8.2703C1.90375 8.30327 1.89395 8.34623 1.86925 8.37785C1.30673 9.09976 1.15775 9.94418 1.10107 10.8296C1.08048 11.151 1.04824 11.428 1.33731 11.6496C1.40485 11.7013 1.41772 11.8246 1.45571 11.9149C1.3633 11.9418 1.27241 11.9788 1.1781 11.9927C1.0882 12.0061 0.994681 11.9973 0.902818 11.9953C0.601429 11.9883 0.521517 11.8667 0.563189 11.566C0.588437 11.3835 0.557183 11.1928 0.547501 11.0059C0.543333 10.9253 0.515879 10.8442 0.522252 10.7651C0.568582 10.188 0.583535 9.60455 0.685448 9.03701C0.744218 8.70976 0.887927 8.36051 1.09604 8.10477C1.58232 7.50714 1.58624 6.88175 1.35392 6.20654C1.27444 5.9755 1.17461 5.75017 1.11296 5.51466C0.996152 5.06815 1.00099 4.62826 1.22823 4.18997C1.14911 4.29384 1.04959 4.38797 0.994559 4.50331C0.821373 4.86641 0.725833 5.24281 0.791835 5.65567C0.892339 6.28467 0.930702 6.92079 0.727243 7.53582C0.638751 7.80326 0.471878 8.04472 0.345696 8.28813C0.225459 7.59441 0.11276 6.94242 0 6.29037C0 6.00431 0 5.71824 0 5.43217C0.0241454 5.34478 0.0503745 5.25794 0.0721299 5.17C0.243906 4.47616 0.62441 3.93656 1.287 3.64835C2.1419 3.27655 3.04563 3.10814 3.97511 3.20399C4.51918 3.26012 5.05044 3.44238 5.59451 3.49563C6.50137 3.58437 7.32697 3.41946 8.07781 2.79836C8.8447 2.16396 9.68495 1.60218 10.5503 1.10897C11.0771 0.808688 11.606 0.562392 11.9198 0.0155658C11.9262 0.00428978 11.956 0.00643469 11.9853 0C12.0162 0.138928 12.047 0.277427 12.088 0.462072C12.2062 0.28233 12.2924 0.151246 12.347 0.0682078C12.4321 0.424567 12.4716 0.818371 12.6216 1.16419C12.8474 1.68491 13.1506 2.17211 13.4209 2.67358C13.4209 2.79621 13.4209 2.91878 13.4209 3.0414Z" fill="black"/>
</svg>
