<svg width="349" height="277" viewBox="0 0 349 277" fill="none" xmlns="http://www.w3.org/2000/svg">
<path d="M288.404 144.526C309.723 147.231 326.49 157.108 338.039 175.125C346.185 187.834 349.745 201.893 347.877 216.874C343.725 250.179 318.139 274.409 286.137 276.044C254.844 277.644 224.787 256.989 217.604 222.209C216.144 222.209 214.567 222.209 212.991 222.209C149.252 222.209 85.5126 222.21 21.7726 222.208C7.81662 222.208 0.964617 215.301 0.964617 201.242C0.963617 141.37 0.963617 81.4969 0.964617 21.6249C0.964617 7.55486 7.81162 0.641863 21.7496 0.641863C103.7 0.640863 185.651 0.640863 267.601 0.641863C281.592 0.641863 288.402 7.50686 288.402 21.6119C288.404 61.0279 288.403 100.444 288.403 139.86C288.404 141.34 288.404 142.818 288.404 144.526ZM12.9406 200.368C14.2896 198.819 15.1076 197.946 15.8526 197.014C43.0456 163.032 70.2336 129.047 97.4186 95.0589C104.721 85.9309 112.596 86.0449 119.741 95.3919C129.358 107.973 138.972 120.556 148.599 133.13C149.25 133.98 149.999 134.755 150.87 135.759C161.503 125.103 171.885 114.682 182.287 104.281C189.045 97.5239 195.77 97.6979 202.232 104.791C216.428 120.373 230.62 135.959 244.774 151.579C245.672 152.57 246.226 153.872 246.94 155.029C247.137 154.402 247.334 153.775 247.532 153.149C257.011 149.963 266.491 146.777 276.426 143.437C276.426 143.026 276.426 141.79 276.426 140.554C276.426 100.763 276.428 60.9729 276.424 21.1819C276.423 14.3509 274.672 12.6209 267.764 12.6209C185.688 12.6189 103.612 12.6189 21.5346 12.6209C14.6696 12.6209 12.9406 14.3559 12.9406 21.2399C12.9386 79.4919 12.9396 137.743 12.9396 195.995C12.9406 197.183 12.9406 198.371 12.9406 200.368ZM20.8076 210.002C78.2686 210.002 134.939 210.002 192.272 210.002C164.203 173.286 136.491 137.037 108.6 100.554C79.1926 137.215 50.1916 173.37 20.8076 210.002ZM228.528 210.36C228.513 239.896 252.668 264.022 282.355 264.124C311.875 264.225 336.284 239.952 336.304 210.474C336.325 180.746 312.286 156.406 282.843 156.343C252.731 156.279 228.543 180.334 228.528 210.36ZM237.738 161.62C222.696 145.078 207.626 128.504 192.249 111.593C180.995 123.335 169.99 134.816 158.824 146.466C158.826 146.469 159.321 147.183 159.849 147.873C174.391 166.896 189.147 185.761 203.334 205.046C206.995 210.022 210.867 211.113 216.231 209.879C219.824 184.521 221.941 179.746 237.738 161.62Z" fill="black"/>
<path d="M252.459 54.7248C252.381 71.0848 238.949 84.4778 222.625 84.4728C205.918 84.4678 192.482 70.8968 192.597 54.1428C192.709 37.8588 206.246 24.5428 222.631 24.5998C239.173 24.6568 252.538 38.1538 252.459 54.7248ZM240.466 54.7108C240.548 44.7678 232.479 36.6228 222.513 36.5878C212.774 36.5528 204.623 44.6248 204.581 54.3458C204.537 64.3248 212.611 72.4778 222.532 72.4718C232.318 72.4668 240.386 64.4768 240.466 54.7108Z" fill="black"/>
<path d="M288.403 192.762C288.403 203.691 288.403 213.749 288.403 223.806C288.403 228.791 288.428 233.777 288.395 238.762C288.364 243.418 286.053 246.189 282.328 246.133C278.615 246.077 276.439 243.346 276.433 238.597C276.414 223.645 276.426 208.692 276.426 192.936C274.963 194.024 273.925 194.75 272.937 195.538C267.581 199.814 262.269 204.144 256.879 208.377C253.458 211.064 249.851 210.823 247.642 207.925C245.539 205.165 246.146 201.675 249.34 199.102C258.85 191.443 268.381 183.809 277.948 176.222C281.354 173.521 283.539 173.556 287.008 176.312C296.473 183.829 305.91 191.379 315.323 198.961C318.709 201.689 319.333 205.246 317.074 208.048C314.795 210.875 311.289 211.013 307.819 208.273C301.569 203.336 295.368 198.332 288.403 192.762Z" fill="black"/>
</svg>
