<svg width="296" height="341" viewBox="0 0 296 341" fill="none" xmlns="http://www.w3.org/2000/svg">
<path d="M19.5316 341C17.9634 340.491 16.341 340.104 14.8358 339.45C5.74068 335.494 0.455179 328.519 0.401898 318.599C0.199429 280.537 0.232285 242.472 0.365488 204.409C0.409889 191.697 10.3983 182.015 23.1272 181.872C32.4301 181.768 41.7375 181.715 51.0377 181.885C61.0901 182.069 68.3133 186.848 72.2526 196.167C73.0669 198.092 73.9762 198.858 75.8934 198.279C81.4835 196.592 87.4981 195.689 92.5616 192.997C107.738 184.928 121.315 174.626 131.816 160.77C139.548 150.568 143.136 139.291 139.735 126.427C139.2 124.402 138.904 122.285 138.75 120.191C138.086 111.128 140.7 103.513 148.782 98.5236C157.731 93.0002 166.832 92.8892 175.727 98.4819C185.756 104.788 190.762 114.516 192.972 125.79C196.154 142.022 192.729 157.559 187.238 172.735C184.767 179.566 181.674 186.172 178.732 193.196C180.04 193.196 181.22 193.196 182.401 193.196C204.664 193.196 226.927 193.154 249.19 193.214C261.71 193.248 271.04 201.5 272.483 213.807C273.202 219.942 271.216 225.392 267.291 230.484C274.868 235.785 278.988 242.879 278.115 252.22C277.237 261.606 271.802 267.743 263.443 271.478C271.655 287.328 263.957 300.525 252.119 305.604C252.39 306.28 252.618 306.982 252.942 307.637C259.591 321.075 253.033 336.067 238.669 340.271C238.061 340.449 237.49 340.754 236.902 341C198.79 341 160.679 341 122.567 341C119.779 340.448 116.995 339.884 114.205 339.346C106.069 337.779 98.9225 333.912 91.6389 330.156C86.6287 327.573 80.9996 326.175 75.6102 324.356C74.0197 323.82 73.1157 324.534 72.479 326.27C70.4579 331.783 66.7308 335.92 61.4578 338.537C59.5183 339.5 57.4421 340.187 55.4281 340.999C43.4629 341 31.4968 341 19.5316 341ZM74.1494 312.802C84.0934 313.218 92.5847 317.091 100.68 322.05C108.826 327.041 117.809 329.485 127.213 329.538C162.435 329.74 197.657 329.673 232.88 329.613C239.406 329.602 244.27 324.475 244.223 318.16C244.176 311.808 239.328 307.062 232.669 306.97C227.353 306.896 222.035 307.004 216.719 306.928C212.766 306.871 210.311 304.624 210.287 301.256C210.261 297.807 212.616 295.643 216.638 295.607C222.951 295.551 229.264 295.63 235.577 295.574C239.224 295.542 242.929 295.74 246.499 295.16C252.339 294.21 255.997 288.978 255.515 283.064C255.071 277.596 250.649 273.296 245 272.914C243.346 272.802 241.679 272.848 240.018 272.847C232.265 272.839 224.51 272.924 216.758 272.808C211.682 272.733 208.858 268.666 210.86 264.628C212.121 262.085 214.348 261.449 216.947 261.452C226.361 261.466 235.776 261.479 245.191 261.443C249.285 261.427 253.407 261.566 257.464 261.136C262.499 260.603 266.371 256.278 266.829 251.353C267.335 245.932 264.318 240.928 259.318 239.383C257.454 238.808 255.393 238.696 253.419 238.686C241.125 238.624 228.83 238.688 216.536 238.624C212.667 238.604 210.39 236.494 210.289 233.196C210.186 229.784 212.567 227.509 216.497 227.293C217.381 227.245 218.269 227.279 219.155 227.279C229.345 227.276 239.536 227.332 249.725 227.248C255.282 227.201 259.526 223.922 260.834 218.973C262.876 211.239 257.406 204.578 248.853 204.566C222.713 204.527 196.571 204.37 170.435 204.671C163.445 204.752 161.512 199.349 164.496 194.349C173.066 179.987 179.466 164.687 182.024 148.01C183.635 137.512 183.285 127.169 178.174 117.529C175.402 112.301 171.582 108.04 165.641 106.32C157.073 103.838 149.323 110.182 150.119 119.012C150.297 120.994 150.823 122.945 150.99 124.926C151.436 130.206 152.372 135.533 152.027 140.769C151.341 151.151 146.632 160.084 140.434 168.252C133.603 177.254 125.244 184.671 116.222 191.367C105.861 199.056 95.2035 206.199 82.217 208.733C79.545 209.255 76.8596 209.707 74.1476 210.198C74.1494 244.399 74.1494 278.345 74.1494 312.802ZM62.7392 261.409C62.7392 242.766 62.7614 224.123 62.7285 205.48C62.7152 197.924 58.0389 193.251 50.4783 193.208C41.7286 193.158 32.9781 193.171 24.2284 193.204C16.3037 193.233 11.6531 197.878 11.6487 205.853C11.6265 242.918 11.6256 279.982 11.6496 317.046C11.6549 325.02 16.3028 329.621 24.2719 329.647C32.8005 329.675 41.329 329.667 49.8567 329.65C58.2875 329.632 62.7303 325.159 62.7365 316.672C62.7481 298.251 62.7401 279.83 62.7392 261.409Z" fill="black"/>
<path d="M223.607 0C226.488 1.69967 227.33 4.33709 227.468 7.54729C227.887 17.3137 230.186 26.6362 234.896 35.2393C242.401 48.9477 254.135 55.9045 269.632 56.6833C270.957 56.7499 272.307 56.7188 273.6 56.9674C276.68 57.5597 278.519 59.8837 278.276 62.8683C278.026 65.9471 276.276 67.7009 273.218 68.0757C269.05 68.5872 264.779 68.6467 260.722 69.612C245.134 73.3212 235.768 83.8398 231.096 98.6165C229.114 104.886 228.647 111.628 227.343 118.125C226.966 120.003 226.545 122.311 225.277 123.446C224.055 124.538 221.633 124.89 219.876 124.63C217.3 124.248 216.351 122.003 215.951 119.489C214.912 112.941 214.389 106.217 212.493 99.9165C206.4 79.6706 193.333 69.6377 172.31 68.2542C167.211 67.9185 164.946 66.1469 164.954 62.4998C164.962 58.8163 167.39 56.9124 172.326 56.7179C192.408 55.9267 206.385 45.4383 212.242 26.0998C214.087 20.0062 214.88 13.5592 215.755 7.21872C216.175 4.17281 216.889 1.64017 219.619 0.00177604C220.948 0 222.278 0 223.607 0ZM246.782 62.5131C234.949 55.9276 226.881 46.6016 221.566 34.1302C216.339 46.844 208.108 55.9151 196.495 62.5522C208.32 69.0978 216.363 78.4362 221.666 90.9138C226.9 78.2586 234.986 69.1671 246.782 62.5131Z" fill="black"/>
<path d="M55.4287 341C57.4427 340.188 59.518 339.5 61.4584 338.538C66.7314 335.921 70.4585 331.784 72.4796 326.271C73.1163 324.534 74.0203 323.82 75.6108 324.357C81.0002 326.176 86.6293 327.573 91.6395 330.157C98.9231 333.912 106.07 337.779 114.206 339.347C116.996 339.884 119.781 340.449 122.568 341.001C100.188 341 77.8077 341 55.4287 341Z" fill="white"/>
<path d="M108.028 113.564C108.076 116.687 106.031 119.187 102.755 119.221C84.3263 119.41 76.9424 133.044 74.7205 146.976C74.3724 149.16 74.2659 151.382 74.0492 153.587C73.7304 156.822 71.4802 159.077 68.5124 159.136C65.4425 159.196 63.3352 156.798 62.6896 153.473C61.4748 147.212 60.6445 140.728 58.3241 134.865C54.3751 124.887 46.3216 119.927 35.5961 119.292C34.0083 119.198 31.8238 119.001 31.0326 117.981C29.8249 116.424 28.952 114.059 29.1029 112.127C29.2974 109.637 31.5139 108.322 34.0563 107.986C36.8962 107.609 39.8355 107.578 42.5564 106.79C53.797 103.533 58.7024 94.7586 61.3097 84.2622C62.1053 81.0591 62.3851 77.7104 62.703 74.4087C63.0635 70.6586 65.1059 68.2654 68.3046 68.2015C71.608 68.1358 73.8281 70.5858 74.0812 74.5384C74.4959 81.0041 75.7391 87.2611 78.6323 93.1265C83.2677 102.523 90.7404 107.521 101.234 107.922C105.601 108.089 107.975 110.08 108.028 113.564ZM80.4909 113.688C76.4886 109.044 72.2243 104.096 68.4342 99.6987C64.5438 104.186 60.3062 109.072 56.3305 113.657C60.2449 118.17 64.5447 123.128 68.4067 127.583C72.2661 123.146 76.5721 118.194 80.4909 113.688Z" fill="black"/>
<path d="M117.344 47.7154C116.268 49.7223 115.747 51.3492 114.705 52.5063C112.191 55.2982 109.491 57.9312 106.758 60.5136C103.994 63.1252 100.859 63.1776 98.4923 60.8359C96.1187 58.4871 96.1382 55.3124 98.7401 52.564C101.476 49.6717 104.13 46.6151 107.276 44.2361C108.744 43.1261 111.511 42.7478 113.277 43.3179C114.881 43.8339 115.929 46.0868 117.344 47.7154Z" fill="black"/>
<path d="M142.817 22.1589C141.814 24.1143 141.372 25.6764 140.394 26.7491C137.719 29.6849 134.897 32.499 131.985 35.1995C129.483 37.519 126.132 37.408 123.963 35.1951C121.801 32.9901 121.766 29.6432 124.104 27.162C126.905 24.1898 129.64 21.0693 132.863 18.6211C134.328 17.5084 137.134 17.154 138.898 17.7481C140.494 18.2854 141.501 20.5809 142.817 22.1589Z" fill="black"/>
<path d="M142.535 57.337C141.368 58.7712 140.403 60.9868 138.803 61.6359C137.174 62.2966 134.372 62.1163 133.049 61.0747C129.594 58.3529 126.543 55.0699 123.569 51.794C121.58 49.6032 121.945 46.2359 123.96 44.2378C126.042 42.1741 129.198 41.8712 131.465 43.9412C134.733 46.9232 137.817 50.1192 140.832 53.3613C141.59 54.1765 141.785 55.5183 142.535 57.337Z" fill="black"/>
<path d="M102.175 16.5156C104.101 17.5715 105.612 18.0705 106.685 19.0509C109.46 21.5871 112.104 24.2787 114.684 27.0174C117.113 29.5935 117.153 32.7433 114.977 35.0584C112.793 37.3806 109.255 37.425 106.679 34.9785C103.87 32.3117 101.148 29.5473 98.4869 26.7323C96.7277 24.8719 96.1008 22.468 97.5651 20.343C98.6361 18.7907 100.548 17.8192 102.175 16.5156Z" fill="black"/>
<path d="M261.404 130.734C261.404 128.63 261.267 126.514 261.438 124.422C261.672 121.563 263.921 119.397 266.676 119.38C269.518 119.363 271.988 120.709 272.242 123.57C272.66 128.276 272.705 133.079 272.258 137.778C271.974 140.754 269.476 142.157 266.404 141.945C263.596 141.751 261.681 139.719 261.382 136.717C261.36 136.497 261.347 136.275 261.346 136.054C261.343 134.28 261.344 132.508 261.344 130.734C261.364 130.734 261.385 130.734 261.404 130.734Z" fill="black"/>
<path d="M249.986 153.318C247.887 153.318 245.775 153.463 243.691 153.283C240.749 153.03 238.77 150.887 238.702 148.052C238.627 144.981 240.116 142.625 243.118 142.361C247.604 141.966 252.167 142.006 256.663 142.327C259.513 142.53 261.362 145.248 261.255 147.953C261.141 150.837 259.019 153.078 255.951 153.312C253.973 153.462 251.974 153.34 249.985 153.34C249.986 153.332 249.986 153.325 249.986 153.318Z" fill="black"/>
<path d="M283.994 153.313C281.894 153.313 279.78 153.462 277.696 153.277C274.737 153.015 272.799 150.879 272.729 148.03C272.653 144.933 274.199 142.618 277.175 142.354C281.662 141.958 286.228 142.01 290.727 142.338C293.561 142.545 295.424 145.298 295.305 147.984C295.176 150.858 293.039 153.086 289.963 153.316C287.984 153.464 285.985 153.344 283.994 153.344C283.994 153.334 283.994 153.323 283.994 153.313Z" fill="black"/>
<path d="M272.618 164.747C272.623 166.741 272.778 168.75 272.588 170.725C272.258 174.164 269.786 176.285 266.61 176.101C263.602 175.927 261.473 173.706 261.378 170.359C261.272 166.595 261.26 162.823 261.392 159.061C261.506 155.795 263.805 153.565 266.811 153.486C269.793 153.409 272.244 155.538 272.577 158.771C272.779 160.743 272.614 162.754 272.618 164.747Z" fill="black"/>
</svg>
