<svg width="333" height="346" viewBox="0 0 333 346" fill="none" xmlns="http://www.w3.org/2000/svg">
<path d="M192.001 346C188.316 342.591 183.396 339.83 181.199 335.641C176.42 326.528 182.426 315.571 192.538 313.081C193.799 312.771 195.087 312.571 196.834 312.228C196.834 306.785 196.913 301.492 196.82 296.202C196.407 272.651 206.809 255.726 227.87 245.282C228.907 244.768 229.907 244.179 231.982 243.048C200.434 230.062 193.94 204.671 197.314 174.57C195.115 173.997 193.557 173.61 192.01 173.186C184.135 171.028 179.297 164.207 179.784 155.965C180.243 148.195 186.037 141.934 193.919 140.846C196.054 140.551 198.237 140.517 200.398 140.515C237.39 140.496 274.383 140.619 311.374 140.425C321.56 140.372 328.754 143.955 332.002 154C332.002 156.333 332.002 158.667 332.002 161C328.847 168.54 323.695 173.609 314.7 174.031C314.7 178.866 314.577 183.178 314.72 187.481C315.551 212.339 305.916 231.004 282.807 241.785C282.04 242.143 281.423 242.82 280.687 243.385C281.087 243.749 281.193 243.891 281.334 243.966C282.213 244.434 283.093 244.9 283.986 245.342C303.684 255.077 314.047 270.868 314.666 292.882C314.847 299.315 314.694 305.758 314.694 312.422C324.054 313.15 329.272 318.09 332.001 326C332.001 328.333 332.001 330.667 332.001 333C329.905 339.09 325.425 342.981 320.001 346C277.334 346 234.668 346 192.001 346ZM301.368 174.393C270.627 174.393 240.974 174.393 210.631 174.393C211.108 184.078 211.543 193.345 212.033 202.609C212.214 206.04 213.909 207.187 217.509 207.163C242.97 206.991 268.433 206.998 293.895 207.158C297.397 207.18 299.39 206.176 299.63 202.728C300.282 193.345 300.791 183.953 301.368 174.393ZM300.304 291.209C270.301 291.209 240.799 291.209 211.285 291.209C211.285 298.34 211.285 305.092 211.285 311.907C241.084 311.907 270.596 311.907 300.304 311.907C300.304 304.888 300.304 298.262 300.304 291.209ZM214.942 276.194C242.34 276.194 269.084 276.194 296.483 276.194C294.266 269.946 290.261 266.011 285.206 262.936C279.527 259.481 274.115 255.441 268.108 252.708C260.213 249.116 251.772 248.474 243.666 252.482C238.904 254.836 234.38 257.676 229.778 260.348C223.488 264 218.195 268.611 214.942 276.194ZM287.168 222.918C287.002 222.488 286.836 222.057 286.669 221.627C266.335 221.627 246.002 221.627 225.668 221.627C231.337 226.47 237.523 230.2 243.551 234.172C250.768 238.928 258.852 237.381 265.71 235.176C273.383 232.71 280.058 227.139 287.168 222.918ZM255.83 159.833C274.159 159.833 292.489 159.891 310.818 159.765C313.285 159.748 317.12 161.44 317.388 157.03C317.431 156.319 313.232 154.618 310.989 154.608C274.164 154.454 237.339 154.498 200.514 154.503C199.349 154.503 198.057 154.26 197.052 154.679C195.883 155.166 194.965 156.256 193.938 157.085C195.073 157.995 196.094 159.165 197.381 159.731C198.36 160.162 199.677 159.832 200.843 159.832C219.172 159.833 237.501 159.832 255.83 159.833ZM255.902 326.699C237.405 326.699 218.908 326.695 200.412 326.707C198.916 326.708 197.332 326.544 195.958 326.984C195.112 327.254 194.051 328.534 194.064 329.344C194.078 330.186 195.115 331.413 195.982 331.743C197.161 332.191 198.603 331.993 199.932 331.994C237.092 332.002 274.252 332.002 311.413 331.996C312.744 331.996 314.226 332.27 315.36 331.777C316.346 331.348 317.328 330.095 317.548 329.046C317.665 328.49 316.27 327.199 315.359 326.94C313.961 326.543 312.391 326.707 310.894 326.706C292.562 326.695 274.232 326.699 255.902 326.699Z" fill="black"/>
<path d="M192 0C201.334 8.95 210.793 17.773 219.974 26.877C236.889 43.65 253.601 60.629 270.497 77.422C273.652 80.557 275.24 83.909 275.157 88.457C274.954 99.614 275.171 110.778 275.149 121.939C275.137 128.037 272.859 130.997 268.354 131.048C263.635 131.101 261.217 128.033 261.183 121.701C261.131 112.048 261.169 102.395 261.169 92.001C259.173 92.001 257.415 92.001 255.657 92.001C239.164 92.001 222.672 92.026 206.179 91.993C191.334 91.964 183.309 84.097 183.201 69.173C183.069 51.027 183.17 32.878 183.17 14.001C181.159 14.001 179.4 14.001 177.641 14.001C128.163 14.001 78.685 13.997 29.208 14.004C17.13 14.006 14.072 17.046 14.072 29.01C14.069 125.133 14.069 221.257 14.072 317.38C14.072 328.731 17.307 331.993 28.618 331.996C73.098 332.006 117.578 331.992 162.058 332.009C168.408 332.011 172.287 335.553 170.884 340.397C170.285 342.466 168.337 344.144 167.002 346C117.669 346 68.335 346 19.002 346C9.56 342.286 2.891 335.939 0.002 326C0 224 0 122 0 20C3.225 9.892 9.696 3.03 20 0C77.333 0 134.667 0 192 0ZM197.296 26.698C197.296 41.932 197.2 56.695 197.355 71.456C197.401 75.872 200.238 77.969 204.585 77.982C211.416 78.003 218.247 77.997 225.077 77.999C232.829 78.002 240.58 78 248.424 78C231.354 60.872 214.61 44.072 197.296 26.698Z" fill="black"/>
<path d="M89.9927 91.9992C73.8277 92.0002 57.6607 92.1012 41.4977 91.8922C39.0427 91.8602 36.0367 91.0252 34.2817 89.4522C30.7207 86.2592 32.5137 80.0822 37.1547 78.5952C38.8487 78.0532 40.7567 78.0272 42.5667 78.0252C74.3977 77.9932 106.228 78.0082 138.059 77.9922C142.125 77.9902 145.912 78.5072 146.994 83.2912C148.212 88.6742 145.019 91.9542 138.488 91.9782C122.324 92.0392 106.158 91.9982 89.9927 91.9992Z" fill="black"/>
<path d="M89.4998 58.9984C73.5018 58.9984 57.5018 59.0984 41.5058 58.8924C39.0448 58.8604 36.0868 58.0304 34.2648 56.4944C31.0218 53.7594 32.3038 47.8034 36.1998 46.0114C37.6518 45.3434 39.3998 45.0474 41.0138 45.0444C73.5108 44.9904 106.007 44.9814 138.504 45.0234C144.264 45.0304 147.048 47.3304 147.144 51.7634C147.25 56.6104 144.556 58.9604 138.493 58.9804C122.163 59.0344 105.831 58.9984 89.4998 58.9984Z" fill="black"/>
</svg>
