<svg width="297" height="343" viewBox="0 0 297 343" fill="none" xmlns="http://www.w3.org/2000/svg">
<path d="M195.379 0C198.622 0.716784 201.916 1.25616 205.1 2.17897C224.204 7.71437 232.667 24.1274 226.473 43.6036C222.986 54.5664 216.571 63.7702 208.716 71.981C206.706 74.0834 206.672 75.4934 208.076 77.9155C235.287 124.861 262.432 171.843 289.528 218.854C301.976 240.452 298.667 265.872 281.122 282.602C277.77 285.797 273.853 288.538 269.843 290.882C247.818 303.758 225.723 316.517 203.548 329.134C199.423 331.481 194.896 333.193 190.421 334.832C186.904 336.121 183.773 334.538 182.774 331.533C181.684 328.254 183.467 325.53 186.976 323.959C192.948 321.285 198.933 318.561 204.616 315.334C224.476 304.055 244.232 292.591 263.984 281.124C285.481 268.644 291.685 245.473 279.282 223.966C252.677 177.83 226.027 131.72 199.391 85.6013C198.892 84.7379 198.355 83.8966 197.762 82.9216C191.33 87.4004 184.99 91.8148 178.38 96.4181C182.878 103.042 182.786 110.612 182.779 118.244C182.723 175.685 182.79 233.126 182.728 290.567C182.7 315.945 166.131 336.413 141.51 341.571C137.94 342.319 134.213 342.6 130.557 342.613C104.458 342.698 78.3584 342.697 52.2587 342.648C22.7432 342.592 0.0622382 320.016 0.0321934 290.537C-0.0286117 231.312 0.0257565 172.086 3.78244e-06 112.861C-0.00357298 104.816 2.52949 97.8238 7.87819 91.7762C28.4188 68.5523 48.8429 45.2253 69.4501 22.0615C81.4852 8.53273 100.72 8.49983 113.117 21.7331C114.632 23.3506 116.088 25.0238 117.702 26.8164C120.614 24.7891 123.369 22.7432 126.248 20.889C142.754 10.2589 160.447 2.74195 180.136 0.507185C180.546 0.460687 180.929 0.175977 181.323 0.00214606C186.01 0 190.695 0 195.379 0ZM120.18 101.23C132.354 101.794 152.167 97.273 159.773 92.1797C159.62 91.9057 159.511 91.5874 159.306 91.3542C141.017 70.6125 122.815 49.7921 104.379 29.1828C97.0112 20.947 85.3302 21.3411 77.9084 29.7222C57.5058 52.763 37.1948 75.8854 16.7779 98.914C13.0173 103.155 11.3856 107.933 11.3906 113.559C11.4435 172.217 11.4135 230.875 11.4278 289.533C11.4342 313.902 28.7894 331.24 53.1572 331.254C78.4714 331.267 103.786 331.26 129.1 331.256C154.257 331.251 171.333 314.221 171.337 289.113C171.344 233.577 171.34 178.041 171.339 122.506C171.339 118.603 171.648 114.663 171.211 110.808C170.853 107.643 169.597 104.58 168.658 101.177C166.537 102.106 165.325 102.625 164.123 103.165C150.011 109.516 135.226 112.952 119.745 112.768C116.645 112.73 114.819 113.342 112.805 115.758C105.214 124.864 92.7033 127.934 81.5317 123.848C70.6933 119.883 62.979 109.213 62.8917 98.0642C62.8609 94.0832 64.9619 91.5745 68.4056 91.4786C71.7635 91.3856 73.8616 93.5861 74.3137 97.376C74.562 99.4577 74.8452 101.62 75.6221 103.539C80.8063 116.346 96.6306 116.625 102.231 109.702C101.602 109.415 101.014 109.146 100.426 108.876C86.7494 102.595 80.0916 89.5794 83.0267 74.8617C83.8365 70.8028 85.3173 69.3413 89.0636 68.9042C102.659 67.3183 115.826 76.517 119 90.0994C119.822 93.6197 119.792 97.3374 120.18 101.23ZM200.345 64.4533C207.781 56.1602 213.976 47.6754 216.429 37.0188C218.954 26.0553 214.32 17.5333 203.754 13.7319C197.351 11.4278 190.699 10.9943 183.975 11.6424C163.382 13.6275 145.107 21.5987 128.305 33.3297C127.349 33.9979 126.462 34.7662 125.417 35.586C140.723 52.9347 155.752 69.9694 171.157 87.4305C178.169 82.5274 185.038 77.7245 191.871 72.946C189.306 67.3319 185.798 63.8517 180.629 62.1148C173.565 59.7413 166.501 57.3656 159.456 54.9334C155.581 53.595 153.961 50.8266 155.022 47.5974C156.139 44.1967 159.165 42.8747 163.138 44.1831C169.054 46.1317 174.897 48.3214 180.857 50.1212C188.926 52.557 195.728 56.6152 200.345 64.4533ZM108.101 99.1572C109.677 90.118 102.625 80.8106 94.0847 80.6575C92.9744 89.2281 99.467 97.7966 108.101 99.1572Z" fill="black"/>
<path d="M206.514 269.043C204.999 267.654 202.785 266.507 202.142 264.776C201.539 263.154 202.408 260.852 203.017 258.976C203.268 258.204 204.482 257.677 205.34 257.18C221.13 248.038 236.9 238.861 252.78 229.878C254.425 228.947 256.928 228.54 258.708 229.042C262.673 230.16 263.538 235.399 260.494 238.266C259.777 238.942 258.879 239.447 258.016 239.947C242.51 248.913 227.003 257.878 211.476 266.807C210.156 267.566 208.691 268.072 206.514 269.043Z" fill="black"/>
<path d="M199.163 233.581C197.727 232.256 195.441 231.095 194.904 229.386C194.357 227.64 195.347 225.291 196.037 223.338C196.306 222.579 197.561 222.124 198.422 221.625C210.734 214.497 223.063 207.397 235.369 200.256C237.593 198.965 239.801 198.14 242.275 199.508C246.329 201.75 246.129 207.191 241.748 209.772C232.747 215.075 223.667 220.244 214.617 225.464C210.959 227.575 207.315 229.711 203.621 231.759C202.486 232.386 201.208 232.757 199.163 233.581Z" fill="black"/>
<path d="M204.395 197.246C203.151 196.069 201.156 194.9 200.266 193.164C199.07 190.832 199.685 188.133 202.074 186.688C208.919 182.551 215.842 178.533 222.849 174.677C225.688 173.116 228.752 174.343 230.236 177.112C231.675 179.795 230.957 182.917 228.092 184.634C221.515 188.574 214.835 192.341 208.162 196.118C207.327 196.591 206.285 196.697 204.395 197.246Z" fill="black"/>
<path d="M97.0512 189.105C107.072 192.494 112.924 199.124 114.2 209.495C114.739 213.869 112.36 216.915 108.573 216.926C105.326 216.934 103.375 214.964 102.9 211.195C102.034 204.332 97.9061 200.145 91.8385 199.975C85.5841 199.801 80.5216 204.295 80.1195 210.377C79.6896 216.875 84.0483 221.969 90.6338 222.739C93.2763 223.048 96.0032 223.152 98.5213 223.914C107.583 226.657 113.929 235.129 114.324 244.611C114.718 254.073 109.151 262.943 100.202 266.462C97.6722 267.456 96.6649 268.694 97.0612 271.296C97.21 272.275 97.1235 273.303 97.0477 274.301C96.8073 277.455 94.7349 279.584 91.7912 279.762C88.7467 279.947 85.5691 277.792 85.8974 274.721C86.4797 269.281 83.9431 267.053 79.4614 264.704C72.755 261.19 69.3184 254.892 68.7275 247.247C68.3963 242.965 70.2992 240.278 73.7572 239.936C77.2095 239.595 79.5322 241.879 80.0845 246.16C81.0452 253.608 87.1014 258.277 93.805 256.739C99.4162 255.45 103.365 250.188 102.833 244.709C102.25 238.696 97.7115 234.511 91.4264 234.189C76.9677 233.448 67.2375 222.48 68.8899 208.401C69.91 199.708 74.856 193.611 82.8915 190.311C85.1993 189.363 85.9346 188.251 85.7064 185.976C85.5741 184.656 85.5949 183.283 85.8023 181.974C86.2816 178.948 88.7031 177.029 91.6696 177.148C94.6662 177.268 96.8273 179.329 97.0262 182.469C97.1593 184.577 97.0512 186.698 97.0512 189.105Z" fill="black"/>
<path d="M91.5014 154.147C86.0497 154.146 80.598 154.196 75.147 154.13C71.0552 154.08 68.7117 151.982 68.681 148.545C68.6502 145.116 71.0195 142.785 75.014 142.753C85.9167 142.668 96.8201 142.675 107.723 142.748C111.683 142.775 114.225 145.118 114.273 148.413C114.323 151.841 111.736 154.091 107.522 154.134C102.182 154.188 96.8415 154.148 91.5014 154.147Z" fill="black"/>
<path d="M91.2395 314.043C85.8987 314.043 80.5578 314.084 75.2177 314.031C71.1145 313.99 68.7531 311.941 68.6823 308.52C68.6093 304.958 71.0551 302.67 75.2735 302.646C86.066 302.587 96.8586 302.586 107.651 302.648C111.739 302.671 114.4 305.174 114.267 308.576C114.137 311.897 111.642 313.993 107.595 314.031C102.144 314.081 96.6912 314.043 91.2395 314.043Z" fill="black"/>
</svg>
