<svg width="355" height="348" viewBox="0 0 355 348" fill="none" xmlns="http://www.w3.org/2000/svg">
<mask id="path-1-outside-1_200_16593" maskUnits="userSpaceOnUse" x="-1" y="0" width="356" height="348" fill="black">
<rect fill="white" x="-1" width="356" height="348"/>
<path d="M2.00275 335.178C6.2261 331.275 6.33414 326.304 6.31143 320.96C6.15453 284.06 6.2261 247.159 6.23023 210.258C6.23161 200.059 10.4013 195.865 20.5436 195.859C34.7098 195.85 48.8759 195.856 63.0421 195.856C64.2739 195.856 65.5057 195.856 67.1181 195.856C67.1181 194.287 67.1181 193.067 67.1181 191.849C67.1181 176.083 67.1044 160.318 67.1243 144.551C67.1353 135.787 71.5885 131.251 80.4117 131.207C94.8063 131.135 109.201 131.186 123.596 131.186C124.929 131.186 126.262 131.186 127.985 131.186C127.985 129.5 127.985 128.273 127.985 127.046C127.985 111.623 127.979 96.2007 127.988 80.7773C127.994 70.8125 132.227 66.5485 142.114 66.5423C156.281 66.5334 170.447 66.5403 184.613 66.5403C185.84 66.5403 187.067 66.5403 188.701 66.5403C188.701 64.8583 188.701 63.5253 188.701 62.1923C188.701 46.8838 188.69 31.5753 188.705 16.2668C188.715 6.35016 193.031 2.00982 202.843 2.00638C217.351 2.00156 231.86 1.9933 246.369 2.00982C255.33 2.02014 259.806 6.50912 259.809 15.5105C259.822 46.0133 259.815 76.5168 259.811 107.02C259.811 107.933 259.858 108.857 259.739 109.758C259.381 112.47 257.855 114.186 255.091 114.399C252.129 114.627 250.342 113.001 249.728 110.192C249.463 108.985 249.536 107.694 249.536 106.442C249.527 76.5099 249.474 46.5776 249.604 16.6467C249.619 13.1879 248.697 12.1591 245.197 12.2086C231.376 12.4041 217.551 12.2878 203.727 12.2891C198.999 12.2898 198.989 12.2926 198.989 16.9963C198.986 74.232 198.987 131.468 198.987 188.704C198.987 210.639 198.987 232.574 198.987 254.508C198.987 255.749 198.987 256.989 198.987 258.743C200.115 258.17 200.933 257.894 201.587 257.4C216.987 245.791 232.4 234.198 247.69 222.446C248.775 221.612 249.447 219.579 249.453 218.101C249.556 190.797 249.527 163.493 249.53 136.189C249.531 130.934 251.178 128.37 254.587 128.281C258.102 128.189 259.812 130.808 259.813 136.306C259.815 159.841 259.813 183.375 259.813 206.909C259.813 208.144 259.813 209.379 259.813 210.614C260.085 210.811 260.356 211.007 260.628 211.203C270.05 201.445 279.473 191.687 289.122 181.694C283.889 176.272 278.981 171.211 274.111 166.115C273.091 165.048 272.031 163.954 271.295 162.693C268.873 158.544 271.089 153.265 275.738 152.088C277.156 151.728 278.675 151.651 280.148 151.65C301.055 151.623 321.961 151.624 342.868 151.636C350.362 151.64 352.995 154.265 352.997 161.682C353.002 183.617 352.999 205.552 352.999 227.486C352.999 228.058 352.998 228.629 352.993 229.2C352.962 232.591 351.588 235.157 348.39 236.551C345.288 237.904 342.545 237.067 340.18 234.915C335.038 230.236 329.966 225.48 325.171 221.04C313.506 230.345 302.317 239.741 290.642 248.487C266.733 266.395 241.046 281.446 214.299 294.706C210.767 296.456 207.694 295.673 206.358 292.804C205.036 289.964 206.258 287.242 209.937 285.43C229.415 275.833 248.187 265.015 266.288 253.028C284.217 241.154 301.315 228.21 317.137 213.612C323.462 207.776 326.122 207.856 332.529 213.793C335.704 216.734 338.874 219.68 342.443 222.993C342.443 202.482 342.443 182.472 342.443 162.19C323.453 162.19 304.373 162.19 284.657 162.19C288.775 166.485 292.535 170.399 296.287 174.32C301.508 179.776 301.475 182.799 296.538 188.41C264.801 224.481 228.097 254.514 186.633 278.72C149.368 300.473 109.738 316.551 68.0527 327.606C63.2292 328.885 58.3776 330.055 53.6319 331.981C58.136 331.398 62.6546 330.913 67.1409 330.218C107.572 323.944 146.669 312.952 184.357 296.995C184.777 296.817 185.209 296.665 185.636 296.505C189.61 295.012 192.513 295.928 193.659 299.034C194.735 301.95 193.239 304.465 189.416 306.066C162.429 317.365 134.743 326.514 106.231 333.121C75.004 340.358 43.3616 344.474 11.3406 345.793C6.47522 345.993 3.84982 343.275 2 339.294C2.00275 337.92 2.00275 336.55 2.00275 335.178ZM138.272 291.894C139.958 291.173 141.029 290.798 142.023 290.278C156.568 282.664 171.078 274.985 185.664 267.449C188.023 266.23 188.767 264.753 188.763 262.116C188.683 201.694 188.701 141.272 188.701 80.8502C188.701 79.6315 188.701 78.4127 188.701 76.823C187.048 76.823 185.818 76.823 184.589 76.823C170.768 76.823 156.947 76.8216 143.127 76.8237C138.277 76.8244 138.272 76.8278 138.272 81.7277C138.272 150.373 138.272 219.019 138.272 287.665C138.272 288.906 138.272 290.148 138.272 291.894ZM127.826 141.661C126.498 141.591 125.385 141.482 124.273 141.481C110.111 141.47 95.948 141.569 81.788 141.405C78.3836 141.366 77.3183 142.289 77.3259 145.822C77.4367 200.758 77.403 255.693 77.4105 310.628C77.4105 311.712 77.511 312.796 77.5743 314.087C78.6506 313.827 79.4338 313.707 80.1687 313.449C95.0045 308.239 109.818 302.963 124.684 297.838C127.256 296.951 128.062 295.665 128.057 292.913C127.961 243.688 127.988 194.464 127.981 145.239C127.979 144.128 127.887 143.018 127.826 141.661ZM67.0135 206.306C65.7253 206.242 64.7212 206.15 63.7165 206.15C49.3294 206.14 34.9417 206.224 20.5567 206.079C17.4207 206.048 16.4428 206.96 16.451 210.147C16.5488 248.284 16.5123 286.421 16.5254 324.557C16.5261 325.605 16.694 326.652 16.8385 328.337C33.928 324.668 50.4835 321.113 67.0135 317.563C67.0135 280.207 67.0135 243.463 67.0135 206.306Z"/>
</mask>
<path d="M2.00275 335.178C6.2261 331.275 6.33414 326.304 6.31143 320.96C6.15453 284.06 6.2261 247.159 6.23023 210.258C6.23161 200.059 10.4013 195.865 20.5436 195.859C34.7098 195.85 48.8759 195.856 63.0421 195.856C64.2739 195.856 65.5057 195.856 67.1181 195.856C67.1181 194.287 67.1181 193.067 67.1181 191.849C67.1181 176.083 67.1044 160.318 67.1243 144.551C67.1353 135.787 71.5885 131.251 80.4117 131.207C94.8063 131.135 109.201 131.186 123.596 131.186C124.929 131.186 126.262 131.186 127.985 131.186C127.985 129.5 127.985 128.273 127.985 127.046C127.985 111.623 127.979 96.2007 127.988 80.7773C127.994 70.8125 132.227 66.5485 142.114 66.5423C156.281 66.5334 170.447 66.5403 184.613 66.5403C185.84 66.5403 187.067 66.5403 188.701 66.5403C188.701 64.8583 188.701 63.5253 188.701 62.1923C188.701 46.8838 188.69 31.5753 188.705 16.2668C188.715 6.35016 193.031 2.00982 202.843 2.00638C217.351 2.00156 231.86 1.9933 246.369 2.00982C255.33 2.02014 259.806 6.50912 259.809 15.5105C259.822 46.0133 259.815 76.5168 259.811 107.02C259.811 107.933 259.858 108.857 259.739 109.758C259.381 112.47 257.855 114.186 255.091 114.399C252.129 114.627 250.342 113.001 249.728 110.192C249.463 108.985 249.536 107.694 249.536 106.442C249.527 76.5099 249.474 46.5776 249.604 16.6467C249.619 13.1879 248.697 12.1591 245.197 12.2086C231.376 12.4041 217.551 12.2878 203.727 12.2891C198.999 12.2898 198.989 12.2926 198.989 16.9963C198.986 74.232 198.987 131.468 198.987 188.704C198.987 210.639 198.987 232.574 198.987 254.508C198.987 255.749 198.987 256.989 198.987 258.743C200.115 258.17 200.933 257.894 201.587 257.4C216.987 245.791 232.4 234.198 247.69 222.446C248.775 221.612 249.447 219.579 249.453 218.101C249.556 190.797 249.527 163.493 249.53 136.189C249.531 130.934 251.178 128.37 254.587 128.281C258.102 128.189 259.812 130.808 259.813 136.306C259.815 159.841 259.813 183.375 259.813 206.909C259.813 208.144 259.813 209.379 259.813 210.614C260.085 210.811 260.356 211.007 260.628 211.203C270.05 201.445 279.473 191.687 289.122 181.694C283.889 176.272 278.981 171.211 274.111 166.115C273.091 165.048 272.031 163.954 271.295 162.693C268.873 158.544 271.089 153.265 275.738 152.088C277.156 151.728 278.675 151.651 280.148 151.65C301.055 151.623 321.961 151.624 342.868 151.636C350.362 151.64 352.995 154.265 352.997 161.682C353.002 183.617 352.999 205.552 352.999 227.486C352.999 228.058 352.998 228.629 352.993 229.2C352.962 232.591 351.588 235.157 348.39 236.551C345.288 237.904 342.545 237.067 340.18 234.915C335.038 230.236 329.966 225.48 325.171 221.04C313.506 230.345 302.317 239.741 290.642 248.487C266.733 266.395 241.046 281.446 214.299 294.706C210.767 296.456 207.694 295.673 206.358 292.804C205.036 289.964 206.258 287.242 209.937 285.43C229.415 275.833 248.187 265.015 266.288 253.028C284.217 241.154 301.315 228.21 317.137 213.612C323.462 207.776 326.122 207.856 332.529 213.793C335.704 216.734 338.874 219.68 342.443 222.993C342.443 202.482 342.443 182.472 342.443 162.19C323.453 162.19 304.373 162.19 284.657 162.19C288.775 166.485 292.535 170.399 296.287 174.32C301.508 179.776 301.475 182.799 296.538 188.41C264.801 224.481 228.097 254.514 186.633 278.72C149.368 300.473 109.738 316.551 68.0527 327.606C63.2292 328.885 58.3776 330.055 53.6319 331.981C58.136 331.398 62.6546 330.913 67.1409 330.218C107.572 323.944 146.669 312.952 184.357 296.995C184.777 296.817 185.209 296.665 185.636 296.505C189.61 295.012 192.513 295.928 193.659 299.034C194.735 301.95 193.239 304.465 189.416 306.066C162.429 317.365 134.743 326.514 106.231 333.121C75.004 340.358 43.3616 344.474 11.3406 345.793C6.47522 345.993 3.84982 343.275 2 339.294C2.00275 337.92 2.00275 336.55 2.00275 335.178ZM138.272 291.894C139.958 291.173 141.029 290.798 142.023 290.278C156.568 282.664 171.078 274.985 185.664 267.449C188.023 266.23 188.767 264.753 188.763 262.116C188.683 201.694 188.701 141.272 188.701 80.8502C188.701 79.6315 188.701 78.4127 188.701 76.823C187.048 76.823 185.818 76.823 184.589 76.823C170.768 76.823 156.947 76.8216 143.127 76.8237C138.277 76.8244 138.272 76.8278 138.272 81.7277C138.272 150.373 138.272 219.019 138.272 287.665C138.272 288.906 138.272 290.148 138.272 291.894ZM127.826 141.661C126.498 141.591 125.385 141.482 124.273 141.481C110.111 141.47 95.948 141.569 81.788 141.405C78.3836 141.366 77.3183 142.289 77.3259 145.822C77.4367 200.758 77.403 255.693 77.4105 310.628C77.4105 311.712 77.511 312.796 77.5743 314.087C78.6506 313.827 79.4338 313.707 80.1687 313.449C95.0045 308.239 109.818 302.963 124.684 297.838C127.256 296.951 128.062 295.665 128.057 292.913C127.961 243.688 127.988 194.464 127.981 145.239C127.979 144.128 127.887 143.018 127.826 141.661ZM67.0135 206.306C65.7253 206.242 64.7212 206.15 63.7165 206.15C49.3294 206.14 34.9417 206.224 20.5567 206.079C17.4207 206.048 16.4428 206.96 16.451 210.147C16.5488 248.284 16.5123 286.421 16.5254 324.557C16.5261 325.605 16.694 326.652 16.8385 328.337C33.928 324.668 50.4835 321.113 67.0135 317.563C67.0135 280.207 67.0135 243.463 67.0135 206.306Z" fill="black"/>
<path d="M2.00275 335.178C6.2261 331.275 6.33414 326.304 6.31143 320.96C6.15453 284.06 6.2261 247.159 6.23023 210.258C6.23161 200.059 10.4013 195.865 20.5436 195.859C34.7098 195.85 48.8759 195.856 63.0421 195.856C64.2739 195.856 65.5057 195.856 67.1181 195.856C67.1181 194.287 67.1181 193.067 67.1181 191.849C67.1181 176.083 67.1044 160.318 67.1243 144.551C67.1353 135.787 71.5885 131.251 80.4117 131.207C94.8063 131.135 109.201 131.186 123.596 131.186C124.929 131.186 126.262 131.186 127.985 131.186C127.985 129.5 127.985 128.273 127.985 127.046C127.985 111.623 127.979 96.2007 127.988 80.7773C127.994 70.8125 132.227 66.5485 142.114 66.5423C156.281 66.5334 170.447 66.5403 184.613 66.5403C185.84 66.5403 187.067 66.5403 188.701 66.5403C188.701 64.8583 188.701 63.5253 188.701 62.1923C188.701 46.8838 188.69 31.5753 188.705 16.2668C188.715 6.35016 193.031 2.00982 202.843 2.00638C217.351 2.00156 231.86 1.9933 246.369 2.00982C255.33 2.02014 259.806 6.50912 259.809 15.5105C259.822 46.0133 259.815 76.5168 259.811 107.02C259.811 107.933 259.858 108.857 259.739 109.758C259.381 112.47 257.855 114.186 255.091 114.399C252.129 114.627 250.342 113.001 249.728 110.192C249.463 108.985 249.536 107.694 249.536 106.442C249.527 76.5099 249.474 46.5776 249.604 16.6467C249.619 13.1879 248.697 12.1591 245.197 12.2086C231.376 12.4041 217.551 12.2878 203.727 12.2891C198.999 12.2898 198.989 12.2926 198.989 16.9963C198.986 74.232 198.987 131.468 198.987 188.704C198.987 210.639 198.987 232.574 198.987 254.508C198.987 255.749 198.987 256.989 198.987 258.743C200.115 258.17 200.933 257.894 201.587 257.4C216.987 245.791 232.4 234.198 247.69 222.446C248.775 221.612 249.447 219.579 249.453 218.101C249.556 190.797 249.527 163.493 249.53 136.189C249.531 130.934 251.178 128.37 254.587 128.281C258.102 128.189 259.812 130.808 259.813 136.306C259.815 159.841 259.813 183.375 259.813 206.909C259.813 208.144 259.813 209.379 259.813 210.614C260.085 210.811 260.356 211.007 260.628 211.203C270.05 201.445 279.473 191.687 289.122 181.694C283.889 176.272 278.981 171.211 274.111 166.115C273.091 165.048 272.031 163.954 271.295 162.693C268.873 158.544 271.089 153.265 275.738 152.088C277.156 151.728 278.675 151.651 280.148 151.65C301.055 151.623 321.961 151.624 342.868 151.636C350.362 151.64 352.995 154.265 352.997 161.682C353.002 183.617 352.999 205.552 352.999 227.486C352.999 228.058 352.998 228.629 352.993 229.2C352.962 232.591 351.588 235.157 348.39 236.551C345.288 237.904 342.545 237.067 340.18 234.915C335.038 230.236 329.966 225.48 325.171 221.04C313.506 230.345 302.317 239.741 290.642 248.487C266.733 266.395 241.046 281.446 214.299 294.706C210.767 296.456 207.694 295.673 206.358 292.804C205.036 289.964 206.258 287.242 209.937 285.43C229.415 275.833 248.187 265.015 266.288 253.028C284.217 241.154 301.315 228.21 317.137 213.612C323.462 207.776 326.122 207.856 332.529 213.793C335.704 216.734 338.874 219.68 342.443 222.993C342.443 202.482 342.443 182.472 342.443 162.19C323.453 162.19 304.373 162.19 284.657 162.19C288.775 166.485 292.535 170.399 296.287 174.32C301.508 179.776 301.475 182.799 296.538 188.41C264.801 224.481 228.097 254.514 186.633 278.72C149.368 300.473 109.738 316.551 68.0527 327.606C63.2292 328.885 58.3776 330.055 53.6319 331.981C58.136 331.398 62.6546 330.913 67.1409 330.218C107.572 323.944 146.669 312.952 184.357 296.995C184.777 296.817 185.209 296.665 185.636 296.505C189.61 295.012 192.513 295.928 193.659 299.034C194.735 301.95 193.239 304.465 189.416 306.066C162.429 317.365 134.743 326.514 106.231 333.121C75.004 340.358 43.3616 344.474 11.3406 345.793C6.47522 345.993 3.84982 343.275 2 339.294C2.00275 337.92 2.00275 336.55 2.00275 335.178ZM138.272 291.894C139.958 291.173 141.029 290.798 142.023 290.278C156.568 282.664 171.078 274.985 185.664 267.449C188.023 266.23 188.767 264.753 188.763 262.116C188.683 201.694 188.701 141.272 188.701 80.8502C188.701 79.6315 188.701 78.4127 188.701 76.823C187.048 76.823 185.818 76.823 184.589 76.823C170.768 76.823 156.947 76.8216 143.127 76.8237C138.277 76.8244 138.272 76.8278 138.272 81.7277C138.272 150.373 138.272 219.019 138.272 287.665C138.272 288.906 138.272 290.148 138.272 291.894ZM127.826 141.661C126.498 141.591 125.385 141.482 124.273 141.481C110.111 141.47 95.948 141.569 81.788 141.405C78.3836 141.366 77.3183 142.289 77.3259 145.822C77.4367 200.758 77.403 255.693 77.4105 310.628C77.4105 311.712 77.511 312.796 77.5743 314.087C78.6506 313.827 79.4338 313.707 80.1687 313.449C95.0045 308.239 109.818 302.963 124.684 297.838C127.256 296.951 128.062 295.665 128.057 292.913C127.961 243.688 127.988 194.464 127.981 145.239C127.979 144.128 127.887 143.018 127.826 141.661ZM67.0135 206.306C65.7253 206.242 64.7212 206.15 63.7165 206.15C49.3294 206.14 34.9417 206.224 20.5567 206.079C17.4207 206.048 16.4428 206.96 16.451 210.147C16.5488 248.284 16.5123 286.421 16.5254 324.557C16.5261 325.605 16.694 326.652 16.8385 328.337C33.928 324.668 50.4835 321.113 67.0135 317.563C67.0135 280.207 67.0135 243.463 67.0135 206.306Z" stroke="black" stroke-width="4" mask="url(#path-1-outside-1_200_16593)"/>
</svg>
