<svg width="8" height="13" viewBox="0 0 8 13" fill="none" xmlns="http://www.w3.org/2000/svg">
<path d="M3.88731 0.719999C4.97531 0.719999 5.84465 1.01867 6.49531 1.616C7.15665 2.21333 7.48731 3.02933 7.48731 4.064C7.48731 5.14133 7.14598 5.952 6.46331 6.496C5.78065 7.04 4.87398 7.312 3.74331 7.312L3.67931 8.576H2.09531L2.01531 6.064H2.54331C3.57798 6.064 4.36731 5.92533 4.91131 5.648C5.46598 5.37067 5.74331 4.84267 5.74331 4.064C5.74331 3.49867 5.57798 3.056 5.24731 2.736C4.92731 2.416 4.47931 2.256 3.90331 2.256C3.32731 2.256 2.87398 2.41067 2.54331 2.72C2.21265 3.02933 2.04731 3.46133 2.04731 4.016H0.335313C0.335313 3.376 0.479313 2.80533 0.767313 2.304C1.05531 1.80267 1.46598 1.41333 1.99931 1.136C2.54331 0.858666 3.17265 0.719999 3.88731 0.719999ZM2.86331 12.112C2.53265 12.112 2.25531 12 2.03131 11.776C1.80731 11.552 1.69531 11.2747 1.69531 10.944C1.69531 10.6133 1.80731 10.336 2.03131 10.112C2.25531 9.888 2.53265 9.776 2.86331 9.776C3.18331 9.776 3.45531 9.888 3.67931 10.112C3.90331 10.336 4.01531 10.6133 4.01531 10.944C4.01531 11.2747 3.90331 11.552 3.67931 11.776C3.45531 12 3.18331 12.112 2.86331 12.112Z" fill="#F4534D"/>
</svg>
