<svg width="342" height="337" viewBox="0 0 342 337" fill="none" xmlns="http://www.w3.org/2000/svg">
<path d="M341.473 130.333C341.473 133 341.473 135.667 341.473 138.333C339.546 142.396 338.016 146.717 335.571 150.442C333.357 153.811 330.233 156.607 327.358 159.505C317.986 168.952 308.539 178.32 299.134 187.729C291.06 195.803 283.014 203.905 274.935 211.97C271.807 215.094 270.549 218.694 271.303 223.154C275.966 250.727 280.472 278.327 285.168 305.895C288.172 323.526 274.769 335.39 261.366 336.481C256.25 336.897 252.215 334.313 248.088 332.118C233.336 324.271 218.69 316.22 203.966 308.317C195.263 303.644 186.431 299.207 177.78 294.452C172.918 291.78 168.412 291.85 163.605 294.558C153.493 300.252 143.312 305.83 133.079 311.302C119.963 318.313 106.782 325.195 93.6014 332.081C90.9856 333.444 88.342 334.891 85.5459 335.741C79.9399 337.451 74.7452 335.963 69.6845 333.227C60.7601 328.393 55.5423 321.045 56.2448 310.933C56.9242 301.121 58.9023 291.388 60.4875 281.65C63.6949 261.934 67.0178 242.237 70.3084 222.53C70.8954 219.022 70.0773 215.907 67.7527 213.236C65.7284 210.907 63.718 208.55 61.532 206.382C46.3361 191.293 31.0708 176.268 15.8796 161.169C12.4318 157.744 9.07655 154.209 5.89688 150.535C-6.20715 136.563 1.31685 114.139 19.4105 110.354C26.8559 108.797 34.3568 107.447 41.8808 106.319C61.971 103.302 82.0843 100.431 102.193 97.5615C107.115 96.859 110.627 94.4511 112.642 89.8618C114.066 86.6175 115.517 83.3777 117.061 80.1888C127.566 58.4256 137.9 36.5792 148.788 15.0101C151.03 10.5641 154.708 6.09034 158.891 3.52996C169.345 -2.87099 183.742 -1.0131 191.672 12.7917C195.36 19.2111 198.235 26.0973 201.456 32.7802C210.602 51.7566 219.781 70.7145 228.835 89.7324C231.048 94.3864 234.51 96.8174 239.557 97.5753C264.865 101.379 290.159 105.293 315.462 109.157C320.847 109.98 326.189 110.779 330.866 113.987C336.703 117.989 339.559 123.826 341.473 130.333Z" fill="black"/>
</svg>
