<svg width="303" height="346" viewBox="0 0 303 346" fill="none" xmlns="http://www.w3.org/2000/svg">
<path d="M140.3 1L140.365 1.0088C142.39 1.27922 144.429 1.52995 146.474 1.78141C150.931 2.32938 155.415 2.88085 159.845 3.64731C196.137 9.92544 227.173 26.3882 252.915 52.6267C279.268 79.4877 295.486 111.642 300.326 148.994C307.248 202.401 292.724 249.56 256.347 289.441C230.988 317.243 199.473 334.569 162.491 341.672C158.291 342.478 153.998 342.96 149.75 343.436C147.687 343.668 145.635 343.898 143.609 344.164C142.899 344.257 142.218 344.393 141.501 344.537C141.15 344.607 140.79 344.679 140.414 344.749L140.324 344.766H140.232H140.193H140.154H140.115H140.076H140.037H139.998H139.959H139.919H139.88H139.841H139.802H139.763H139.724H139.685H139.646H139.607H139.567H139.528H139.489H139.45H139.411H139.372H139.333H139.294H139.255H139.215H139.176H139.137H139.098H139.059H139.02H138.981H138.942H138.903H138.863H138.824H138.785H138.746H138.707H138.668H138.629H138.59H138.551H138.511H138.472H138.433H138.394H138.355H138.316H138.277H138.238H138.199H138.159H138.12H138.081H138.042H138.003H137.964H137.925H137.886H137.847H137.807H137.768H137.729H137.69H137.651H137.612H137.573H137.534H137.495H137.455H137.416H137.377H137.338H137.299H137.26H137.221H137.182H137.143H137.103H137.064H137.025H136.986H136.947H136.908H136.869H136.83H136.791H136.751H136.712H136.673H136.634H136.595H136.556H136.517H136.478H136.438H136.399H136.36H136.321H136.282H136.243H136.204H136.165H136.126H136.086H136.047H136.008H135.969H135.93H135.891H135.852H135.813H135.774H135.734H135.695H135.656H135.617H135.578H135.539H135.5H135.461H135.422H135.382H135.343H135.304H135.265H135.226H135.187H135.148H135.109H135.07H135.03H134.991H134.952H134.913H134.874H134.835H134.796H134.757H134.718H134.678H134.639H134.6H134.561H134.522H134.483H134.444H134.405H134.366H134.326H134.287H134.248H134.209H134.17H134.131H134.092H134.053H134.014H133.974H133.935H133.896H133.857H133.818H133.779H133.74H133.701H133.662H133.622H133.583H133.544H133.505H133.466H133.427H133.388H133.349H133.31H133.27H133.231H133.192H133.153H133.114H133.075H133.036H132.997H132.958H132.918H132.879H132.84H132.801H132.762H132.723H132.684H132.645H132.606H132.566H132.527H132.488H132.449H132.41H132.371H132.332H132.293H132.254H132.214H132.175H132.136H132.097H132.058H132.019H131.98H131.941H131.902H131.862H131.823H131.784H131.745H131.706H131.667H131.628H131.589H131.549H131.51H131.471H131.432H131.393H131.354H131.315H131.276H131.237H131.197H131.158H131.119H131.08H131.041H131.002H130.963H130.924H130.885H130.845H130.806H130.767H130.728H130.689H130.65H130.611H130.572H130.533H130.493H130.454H130.415H130.376H130.337H130.298H130.259H130.22H130.181H130.141H130.102H130.063H130.024H129.985H129.946H129.907H129.868H129.829H129.789H129.75H129.711H129.672H129.633H129.594H129.555H129.516H129.477H129.437H129.398H129.359H129.32H129.281H129.242H129.203H129.164H129.125H129.085H129.046H129.007H128.968H128.929H128.89H128.851H128.812H128.773H128.733H128.694H128.655H128.616H128.577H128.538H128.499H128.46H128.421H128.381H128.342H128.303H128.264H128.225H128.186H128.147H128.108H128.069H128.029H127.99H127.951H127.912H127.873H127.834H127.795H127.756H127.717H127.677H127.638H127.599H127.56H127.521H127.482H127.443H127.404H127.365H127.325H127.286H127.247H127.208H127.169H127.13H127.091H127.052H127.012H126.973H126.934H126.895H126.856H126.817H126.778H126.739H126.7H126.66H126.621H126.582H126.543H126.504H126.465H126.426H126.387H126.348H126.308H126.269H126.23H126.191H126.152H126.113H126.074H126.035H125.996H125.956H125.917H125.878H125.839H125.8H125.761H125.722H125.683H125.644H125.604H125.565H125.526H125.487H125.448H125.409H125.37H125.331H125.292H125.252H125.213H125.174H125.135H125.096H125.057H125.018H124.979H124.94H124.9H124.861H124.822H124.783H124.744H124.705H124.666H124.627H124.588H124.548H124.509H124.47H124.431H124.392H124.353H124.314H124.275H124.236H124.196H124.157H124.118H124.079H124.04H124.001H123.962H123.923H123.884H123.844H123.805H123.766H123.727H123.688H123.649H123.61H123.571H123.532H123.492H123.453H123.414H123.375H123.336H123.297H123.258H123.219H123.18H123.14H123.101H123.062H123.023H122.984H122.945H122.906H122.867H122.828H122.788H122.749H122.71H122.671H122.632H122.593H122.554H122.515H122.475H122.436H122.397H122.358H122.319H122.28H122.241H122.202H122.163H122.123H122.084H122.045H122.006H121.967H121.928H121.889H121.85H121.811H121.771H121.732H121.693H121.654H121.615H121.576H121.537H121.498H121.459H121.419H121.38H121.341H121.302H121.263H121.224H121.185H121.146H121.107H121.067H121.028H120.989H120.95H120.911H120.872H120.833H120.794H120.755H120.715H120.676H120.637H120.598H120.559H120.52H120.481H120.442H120.403H120.363H120.324H120.285H120.246H120.207H120.141L120.075 344.757C117.982 344.478 115.873 344.223 113.757 343.968C109.147 343.41 104.504 342.849 99.9262 342.033L100.084 341.147L99.9261 342.033C64.8833 335.789 34.7544 319.96 9.38897 295.058C7.56829 293.271 6.53099 291.205 6.37629 289.105C6.22081 286.995 6.96572 284.953 8.51734 283.26C10.1079 281.525 12.1048 280.671 14.2577 280.719C16.384 280.766 18.5653 281.689 20.5949 283.316C23.3017 285.487 25.9542 287.707 28.5977 289.919C34.9916 295.27 41.3324 300.577 48.2603 305.026C101.514 339.229 174.288 335.689 224.263 296.881C257.049 271.421 277.826 238.416 283.78 197.339C291.923 141.151 274.741 93.319 232.176 55.5374C199.38 26.4272 160.315 14.4036 116.71 17.8983C82.0078 20.6795 51.7031 34.2377 25.7488 57.5119L25.7488 57.5119C25.6694 57.583 25.5996 57.644 25.5365 57.699C25.4765 57.7514 25.4226 57.7984 25.3725 57.8437C25.9393 57.877 26.4936 57.9034 27.0602 57.9041C32.0996 57.9087 37.141 57.9079 42.183 57.9071C49.4902 57.9059 56.7987 57.9047 64.1047 57.9201C66.6594 57.9253 68.8024 58.3819 70.4604 59.3632C72.1464 60.361 73.2581 61.8597 73.7901 63.7817C75.0865 68.463 72.5189 72.8262 67.7315 73.8337L67.7314 73.8337C66.3568 74.1228 64.9368 74.2335 63.5633 74.2349C46.3199 74.2589 29.0767 74.2589 11.8331 74.2476C8.11221 74.2452 5.31375 73.6296 3.4899 71.7977C1.66713 69.9668 1.05803 67.162 1.05735 63.4373C1.05601 58.4864 1.06192 53.5366 1.06784 48.5877C1.08254 36.2947 1.09722 24.0069 1.00064 11.7175L1.00064 11.717C0.983642 9.40978 1.30396 7.28611 2.23879 5.45807C3.18547 3.60684 4.72014 2.14129 6.97685 1.09306L7.1772 1H7.39811H7.40463H7.41115H7.41767H7.42419H7.43071H7.43723H7.44375H7.45027H7.45679H7.46331H7.46983H7.47635H7.48287H7.48939H7.49591H7.50243H7.50895H7.51547H7.52199H7.52851H7.53503H7.54155H7.54807H7.55459H7.56111H7.56763H7.57415H7.58067H7.58719H7.59371H7.60023H7.60675H7.61327H7.61978H7.6263H7.63282H7.63934H7.64586H7.65238H7.6589H7.66542H7.67194H7.67846H7.68498H7.6915H7.69802H7.70454H7.71106H7.71758H7.7241H7.73061H7.73713H7.74365H7.75017H7.75669H7.76321H7.76973H7.77625H7.78277H7.78929H7.79581H7.80233H7.80885H7.81536H7.82188H7.8284H7.83492H7.84144H7.84796H7.85448H7.861H7.86752H7.87404H7.88055H7.88707H7.89359H7.90011H7.90663H7.91315H7.91967H7.92619H7.93271H7.93923H7.94574H7.95226H7.95878H7.9653H7.97182H7.97834H7.98486H7.99138H7.9979H8.00441H8.01093H8.01745H8.02397H8.03049H8.03701H8.04353H8.05005H8.05656H8.06308H8.0696H8.07612H8.08264H8.08916H8.09568H8.1022H8.10871H8.11523H8.12175H8.12827H8.13479H8.14131H8.14783H8.15434H8.16086H8.16738H8.1739H8.18042H8.18694H8.19346H8.19997H8.20649H8.21301H8.21953H8.22605H8.23257H8.23909H8.2456H8.25212H8.25864H8.26516H8.27168H8.2782H8.28471H8.29123H8.29775H8.30427H8.31079H8.31731H8.32383H8.33034H8.33686H8.34338H8.3499H8.35642H8.36294H8.36945H8.37597H8.38249H8.38901H8.39553H8.40205H8.40856H8.41508H8.4216H8.42812H8.43464H8.44116H8.44767H8.45419H8.46071H8.46723H8.47375H8.48027H8.48678H8.4933H8.49982H8.50634H8.51286H8.51937H8.52589H8.53241H8.53893H8.54545H8.55197H8.55848H8.565H8.57152H8.57804H8.58456H8.59108H8.59759H8.60411H8.61063H8.61715H8.62367H8.63018H8.6367H8.64322H8.64974H8.65626H8.66278H8.66929H8.67581H8.68233H8.68885H8.69537H8.70188H8.7084H8.71492H8.72144H8.72796H8.73447H8.74099H8.74751H8.75403H8.76055H8.76706H8.77358H8.7801H8.78662H8.79314H8.79965H8.80617H8.81269H8.81921H8.82573H8.83225H8.83876H8.84528H8.8518H8.85832H8.86484H8.87135H8.87787H8.88439H8.89091H8.89743H8.90394H8.91046H8.91698H8.9235H8.93002H8.93653H8.94305H8.94957H8.95609H8.96261H8.96912H8.97564H8.98216H8.98868H8.9952H9.00171H9.00823H9.01475H9.02127H9.02779H9.0343H9.04082H9.04734H9.05386H9.06038H9.06689H9.07341H9.07993H9.08645H9.09297H9.09948H9.106H9.11252H9.11904H9.12556H9.13207H9.13859H9.14511H9.15163H9.15815H9.16467H9.17118H9.1777H9.18422H9.19074H9.19726H9.20377H9.21029H9.21681H9.22333H9.22985H9.23636H9.24288H9.2494H9.25592H9.26244H9.26895H9.27547H9.28199H9.28851H9.29503H9.30154H9.30806H9.31458H9.3211H9.32762H9.33413H9.34065H9.34717H9.35369H9.36021H9.36672H9.37324H9.37976H9.38628H9.3928H9.39932H9.40583H9.41235H9.41887H9.42539H9.43191H9.43842H9.44494H9.45146H9.45798H9.4645H9.47101H9.47753H9.48405H9.49057H9.49709H9.50361H9.51012H9.51664H9.52316H9.52968H9.5362H9.54271H9.54923H9.55575H9.56227H9.56879H9.5753H9.58182H9.58834H9.59486H9.60138H9.6079H9.61441H9.62093H9.62745H9.63397H9.64049H9.64701H9.65352H9.66004H9.66656H9.67308H9.6796H9.68612H9.69263H9.69915H9.70567H9.71219H9.71871H9.72522H9.73174H9.73826H9.74478H9.7513H9.75782H9.76434H9.77085H9.77737H9.78389H9.79041H9.79693H9.80345H9.80996H9.81648H9.823H9.82952H9.83604H9.84256H9.84907H9.85559H9.86211H9.86863H9.87515H9.88167H9.88819H9.8947H9.90122H9.90774H9.91426H9.92078H9.9273H9.93382H9.94033H9.94685H9.95337H9.95989H9.96641H9.97293H9.97944H9.98596H9.99248H9.999H10.0055H10.012H10.0186H10.0251H10.0316H10.0381H10.0446H10.0512H10.0577H10.0642H10.0707H10.0772H10.0837H10.0903H10.0968H10.1033H10.1098H10.1163H10.1229H10.1294H10.1359H10.1424H10.1489H10.1555H10.162H10.1685H10.175H10.1815H10.188H10.1946H10.2011H10.2076H10.2141H10.2206H10.2272H10.2337H10.2402H10.2467H10.2532H10.2598H10.2663H10.2728H10.2793H10.2858H10.2923H10.2989H10.3054H10.3119H10.3184H10.3249H10.3315H10.338H10.3445H10.351H10.3575H10.3641H10.3706H10.3771H10.3836H10.3901H10.3967H10.4032H10.4097H10.4162H10.4227H10.4293H10.4358H10.4423H10.4488H10.4553H10.4618H10.4684H10.4749H10.4814H10.4879H10.4944H10.501H10.5075H10.514H10.5205H10.527H10.5336H10.5401H10.5466H10.5531H10.5596H10.5662H10.5727H10.5792H10.5857H10.5922H10.5988H10.6053H10.6118H10.6183H10.6248H10.6314H10.6379H10.6444H10.6509H10.6574H10.664H10.6705H10.677H10.6835H10.69H10.6966H10.7031H10.7096H10.7161H10.7226H10.7292H10.7357H10.9359L11.1206 1.07705C13.3263 1.99696 14.9406 3.31424 15.9686 5.065C16.9902 6.80473 17.3768 8.87702 17.3049 11.215C17.1599 15.9449 17.1918 20.6697 17.2239 25.4162C17.2376 27.4422 17.2513 29.4721 17.2513 31.508V31.5338V31.5595V31.5853V31.611V31.6367V31.6625V31.6882V31.7139V31.7397V31.7654V31.7911V31.8169V31.8426V31.8684V31.8941V31.9198V31.9456V31.9713V31.9971V32.0228V32.0486V32.0743V32.1V32.1258V32.1515V32.1773V32.203V32.2288V32.2545V32.2803V32.306V32.3318V32.3575V32.3833V32.4091V32.4348V32.4606V32.4863V32.5121V32.5379V32.5636V32.5894V32.6152V32.6409V32.6667V32.6925V32.7183V32.744V32.7698V32.7956V32.8214V32.8472V32.873V32.8988V32.9245V32.9503V32.9761V33.0019V33.0277V33.0535V33.0793V33.1051V33.131V33.1568V33.1826V33.2084V33.2342V33.26V33.2859V33.3117V33.3375V33.3633V33.3892V33.415V33.4408V33.4667V33.4925V33.5184V33.5442V33.5701V33.5959V33.6218V33.6477V33.6735V33.6994V33.7253V33.7511V33.777V33.8029V33.8288V33.8547V33.8806V33.9065V33.9324V33.9583V33.9842V34.0101V34.036V34.0619V34.0878V34.1138V34.1397V34.1656V34.1916V34.2175V34.2434V34.2694V34.2953V34.3213V34.3472V34.3732V34.3992V34.4251V34.4511V34.4771V34.5031V34.5291V34.5551V34.5811V34.6071V34.6331V34.6591V34.6851V34.7111V34.7371V34.7632V34.7892V34.8152V34.8413V34.8673V34.8934V34.9194V34.9455V34.9716V34.9977V35.0237V35.0498V35.0759V35.102V35.1281V35.1542V35.1803V35.2064V35.2325V35.2587V35.2848V35.3109V35.3371V35.3632V35.3894V35.4155V35.4417V35.4679V35.494V35.5202V35.5464V35.5726V35.5988V35.625V35.6512V35.6774V35.7036V35.7299V35.7561V35.7823V35.8086V35.8348V35.8611V35.8874V35.9136V35.9399V35.9662V35.9925V36.0188V36.0451V36.0714V36.0977V36.124V36.1504V36.1767V36.203V36.2294V36.2558V36.2821V36.3085V36.3349V36.3612V36.3876V36.414V36.4404V36.4669V36.4933V36.5197V36.5461V36.5726V36.599V36.6255V36.6519V36.6784V36.7049V36.7314V36.7579V36.7844V36.8109V36.8374V36.8639V36.8904V36.917V36.9435V36.9701V36.9966V37.0232V37.0498V37.0764V37.103V37.1296V37.1562V37.1828V37.2094V37.236V37.2627V37.2893V37.316V37.3427V37.3693V37.396V37.4227V37.4494V37.4761V37.5028V37.5296V37.5563V37.583V37.6098V37.6366V37.6633V37.6901V37.7169V37.7437V37.7705V37.7973V37.8241V37.851V37.8778V37.9046V37.9315V37.9584V37.9853V38.0121V38.039V38.0659V38.0929V38.1198V38.1467V38.1737V38.2006V38.2276V38.2545V38.2815V38.3085V38.3355V38.3625V38.3895V38.4166V38.4436V38.4707V38.4977V38.5248V38.5519V38.579V38.6061V38.6332V38.6603V38.6874V38.7146V38.7417V38.7689V38.796V38.8232V38.8504V38.8776V38.9048V38.932V38.9593V38.9865V39.0138V39.041V39.0683V39.0956V39.1229V39.1502V39.1775V39.2049V39.2322V39.2596V39.2869V39.3143V39.3417V39.3691V39.3965V39.4239V39.4513V39.4788V39.5062V39.5337V39.5612V39.5886V39.6161V39.6437V39.6712V39.6987V39.7262V39.7538V39.7814V39.809V39.8365V39.8641V39.8918V39.9194V39.947V39.9747V40.0023V40.03V40.0577V40.0854V40.1131V40.1408V40.1686V40.1963V40.2241V40.2518V40.2796V40.3074V40.3352V40.363V40.3909V40.4187V40.4466V40.4745V40.5023V40.5302V40.5581V40.5861V40.614V40.6419V40.6699V40.6979V40.7259V40.7539V40.7819V40.8099V40.8379V40.866V40.8941V40.9221V40.9502V40.9783V41.0064V41.0346V41.0627V41.0909V41.119V41.1472V41.1754V41.2036V41.2319V41.2601V41.2884V41.3166V41.3449V41.3732V41.4015V41.4298V41.4582V41.4865V41.5149V41.5433V41.5716V41.6001V41.6285V41.6569V41.6854V41.7138V41.7423V41.7708V41.7993V41.8278V41.8563V41.8849V41.9135V41.942V41.9706V41.9992V42.0278V42.0565V42.0851V42.1138V42.1425V42.1712V42.1999V42.2286V42.2574V42.2861V42.3149V42.3437V42.3725V42.4013V42.4301V42.459V42.4878V42.5167V42.5456V42.5745V42.6034V42.6323V42.6613V42.6903V42.7192V42.7482V42.7773V42.8063V42.8353V42.8644V42.8935V42.9226V42.9517V42.9808V43.01V43.0391V43.0683V43.0975V43.1267V43.1559V43.1851V43.2144V43.2437V43.2729V43.3022V43.3316V43.3609V43.3722C17.9849 42.7562 18.5769 42.2589 19.1682 41.759C42.8756 21.7088 69.9856 8.86428 100.626 3.64221C105.056 2.88704 109.536 2.33266 113.99 1.78161C116.026 1.52961 118.057 1.2783 120.075 1.0088L120.141 1H120.208H140.3ZM140.3 1H140.233M140.3 1H140.233M140.233 1H140.194M140.233 1H140.194M140.194 1H140.155M140.194 1H140.155M140.155 1H140.116M140.155 1H140.116M140.116 1H140.077M140.116 1H140.077M140.077 1H140.037M140.077 1H140.037M140.037 1H139.998M140.037 1H139.998M139.998 1H139.959M139.998 1H139.959M139.959 1H139.92M139.959 1H139.92M139.92 1H139.881M139.92 1H139.881M139.881 1H139.842M139.881 1H139.842M139.842 1H139.803M139.842 1H139.803M139.803 1H139.764M139.803 1H139.764M139.764 1H139.725M139.764 1H139.725M139.725 1H139.685M139.725 1H139.685M139.685 1H139.646M139.685 1H139.646M139.646 1H139.607M139.646 1H139.607M139.607 1H139.568M139.607 1H139.568M139.568 1H139.529M139.568 1H139.529M139.529 1H139.49M139.529 1H139.49M139.49 1H139.451M139.49 1H139.451M139.451 1H139.412M139.451 1H139.412M139.412 1H139.373M139.412 1H139.373M139.373 1H139.333M139.373 1H139.333M139.333 1H139.294M139.333 1H139.294M139.294 1H139.255M139.294 1H139.255M139.255 1H139.216M139.255 1H139.216M139.216 1H139.177M139.216 1H139.177M139.177 1H139.138M139.177 1H139.138M139.138 1H139.099M139.138 1H139.099M139.099 1H139.06M139.099 1H139.06M139.06 1H139.021M139.06 1H139.021M139.021 1H138.981M139.021 1H138.981M138.981 1H138.942M138.981 1H138.942M138.942 1H138.903M138.942 1H138.903M138.903 1H138.864M138.903 1H138.864M138.864 1H138.825M138.864 1H138.825M138.825 1H138.786M138.825 1H138.786M138.786 1H138.747M138.786 1H138.747M138.747 1H138.708M138.747 1H138.708M138.708 1H138.669M138.708 1H138.669M138.669 1H138.629M138.669 1H138.629M138.629 1H138.59M138.629 1H138.59M138.59 1H138.551M138.59 1H138.551M138.551 1H138.512M138.551 1H138.512M138.512 1H138.473M138.512 1H138.473M138.473 1H138.434M138.473 1H138.434M138.434 1H138.395M138.434 1H138.395M138.395 1H138.356M138.395 1H138.356M138.356 1H138.317M138.356 1H138.317M138.317 1H138.277M138.317 1H138.277M138.277 1H138.238M138.277 1H138.238M138.238 1H138.199M138.238 1H138.199M138.199 1H138.16M138.199 1H138.16M138.16 1H138.121M138.16 1H138.121M138.121 1H138.082M138.121 1H138.082M138.082 1H138.043M138.082 1H138.043M138.043 1H138.004M138.043 1H138.004M138.004 1H137.965M138.004 1H137.965M137.965 1H137.925M137.965 1H137.925M137.925 1H137.886M137.925 1H137.886M137.886 1H137.847M137.886 1H137.847M137.847 1H137.808M137.847 1H137.808M137.808 1H137.769M137.808 1H137.769M137.769 1H137.73M137.769 1H137.73M137.73 1H137.691M137.73 1H137.691M137.691 1H137.652M137.691 1H137.652M137.652 1H137.613M137.652 1H137.613M137.613 1H137.573M137.613 1H137.573M137.573 1H137.534M137.573 1H137.534M137.534 1H137.495M137.534 1H137.495M137.495 1H137.456M137.495 1H137.456M137.456 1H137.417M137.456 1H137.417M137.417 1H137.378M137.417 1H137.378M137.378 1H137.339M137.378 1H137.339M137.339 1H137.3M137.339 1H137.3M137.3 1H137.261M137.3 1H137.261M137.261 1H137.221M137.261 1H137.221M137.221 1H137.182M137.221 1H137.182M137.182 1H137.143M137.182 1H137.143M137.143 1H137.104M137.143 1H137.104M137.104 1H137.065M137.104 1H137.065M137.065 1H137.026M137.065 1H137.026M137.026 1H136.987M137.026 1H136.987M136.987 1H136.948M136.987 1H136.948M136.948 1H136.909M136.948 1H136.909M136.909 1H136.869M136.909 1H136.869M136.869 1H136.83M136.869 1H136.83M136.83 1H136.791M136.83 1H136.791M136.791 1H136.752M136.791 1H136.752M136.752 1H136.713M136.752 1H136.713M136.713 1H136.674M136.713 1H136.674M136.674 1H136.635M136.674 1H136.635M136.635 1H136.596M136.635 1H136.596M136.596 1H136.557M136.596 1H136.557M136.557 1H136.517M136.557 1H136.517M136.517 1H136.478M136.517 1H136.478M136.478 1H136.439M136.478 1H136.439M136.439 1H136.4M136.439 1H136.4M136.4 1H136.361M136.4 1H136.361M136.361 1H136.322M136.361 1H136.322M136.322 1H136.283M136.322 1H136.283M136.283 1H136.244M136.283 1H136.244M136.244 1H136.204M136.244 1H136.204M136.204 1H136.165M136.204 1H136.165M136.165 1H136.126M136.165 1H136.126M136.126 1H136.087M136.126 1H136.087M136.087 1H136.048M136.087 1H136.048M136.048 1H136.009M136.048 1H136.009M136.009 1H135.97M136.009 1H135.97M135.97 1H135.931M135.97 1H135.931M135.931 1H135.892M135.931 1H135.892M135.892 1H135.852M135.892 1H135.852M135.852 1H135.813M135.852 1H135.813M135.813 1H135.774M135.813 1H135.774M135.774 1H135.735M135.774 1H135.735M135.735 1H135.696M135.735 1H135.696M135.696 1H135.657M135.696 1H135.657M135.657 1H135.618M135.657 1H135.618M135.618 1H135.579M135.618 1H135.579M135.579 1H135.54M135.579 1H135.54M135.54 1H135.5M135.54 1H135.5M135.5 1H135.461M135.5 1H135.461M135.461 1H135.422M135.461 1H135.422M135.422 1H135.383M135.422 1H135.383M135.383 1H135.344M135.383 1H135.344M135.344 1H135.305M135.344 1H135.305M135.305 1H135.266M135.305 1H135.266M135.266 1H135.227M135.266 1H135.227M135.227 1H135.188M135.227 1H135.188M135.188 1H135.148M135.188 1H135.148M135.148 1H135.109M135.148 1H135.109M135.109 1H135.07M135.109 1H135.07M135.07 1H135.031M135.07 1H135.031M135.031 1H134.992M135.031 1H134.992M134.992 1H134.953M134.992 1H134.953M134.953 1H134.914M134.953 1H134.914M134.914 1H134.875M134.914 1H134.875M134.875 1H134.836M134.875 1H134.836M134.836 1H134.796M134.836 1H134.796M134.796 1H134.757M134.796 1H134.757M134.757 1H134.718M134.757 1H134.718M134.718 1H134.679M134.718 1H134.679M134.679 1H134.64M134.679 1H134.64M134.64 1H134.601M134.64 1H134.601M134.601 1H134.562M134.601 1H134.562M134.562 1H134.523M134.562 1H134.523M134.523 1H134.484M134.523 1H134.484M134.484 1H134.444M134.484 1H134.444M134.444 1H134.405M134.444 1H134.405M134.405 1H134.366M134.405 1H134.366M134.366 1H134.327M134.366 1H134.327M134.327 1H134.288M134.327 1H134.288M134.288 1H134.249M134.288 1H134.249M134.249 1H134.21M134.249 1H134.21M134.21 1H134.171M134.21 1H134.171M134.171 1H134.132M134.171 1H134.132M134.132 1H134.092M134.132 1H134.092M134.092 1H134.053M134.092 1H134.053M134.053 1H134.014M134.053 1H134.014M134.014 1H133.975M134.014 1H133.975M133.975 1H133.936M133.975 1H133.936M133.936 1H133.897M133.936 1H133.897M133.897 1H133.858M133.897 1H133.858M133.858 1H133.819M133.858 1H133.819M133.819 1H133.78M133.819 1H133.78M133.78 1H133.74M133.78 1H133.74M133.74 1H133.701M133.74 1H133.701M133.701 1H133.662M133.701 1H133.662M133.662 1H133.623M133.662 1H133.623M133.623 1H133.584M133.623 1H133.584M133.584 1H133.545M133.584 1H133.545M133.545 1H133.506M133.545 1H133.506M133.506 1H133.467M133.506 1H133.467M133.467 1H133.428M133.467 1H133.428M133.428 1H133.388M133.428 1H133.388M133.388 1H133.349M133.388 1H133.349M133.349 1H133.31M133.349 1H133.31M133.31 1H133.271M133.31 1H133.271M133.271 1H133.232M133.271 1H133.232M133.232 1H133.193M133.232 1H133.193M133.193 1H133.154M133.193 1H133.154M133.154 1H133.115M133.154 1H133.115M133.115 1H133.076M133.115 1H133.076M133.076 1H133.036M133.076 1H133.036M133.036 1H132.997M133.036 1H132.997M132.997 1H132.958M132.997 1H132.958M132.958 1H132.919M132.958 1H132.919M132.919 1H132.88M132.919 1H132.88M132.88 1H132.841M132.88 1H132.841M132.841 1H132.802M132.841 1H132.802M132.802 1H132.763M132.802 1H132.763M132.763 1H132.724M132.763 1H132.724M132.724 1H132.684M132.724 1H132.684M132.684 1H132.645M132.684 1H132.645M132.645 1H132.606M132.645 1H132.606M132.606 1H132.567M132.606 1H132.567M132.567 1H132.528M132.567 1H132.528M132.528 1H132.489M132.528 1H132.489M132.489 1H132.45M132.489 1H132.45M132.45 1H132.411M132.45 1H132.411M132.411 1H132.372M132.411 1H132.372M132.372 1H132.332M132.372 1H132.332M132.332 1H132.293M132.332 1H132.293M132.293 1H132.254M132.293 1H132.254M132.254 1H132.215M132.254 1H132.215M132.215 1H132.176M132.215 1H132.176M132.176 1H132.137M132.176 1H132.137M132.137 1H132.098M132.137 1H132.098M132.098 1H132.059M132.098 1H132.059M132.059 1H132.02M132.059 1H132.02M132.02 1H131.98M132.02 1H131.98M131.98 1H131.941M131.98 1H131.941M131.941 1H131.902M131.941 1H131.902M131.902 1H131.863M131.902 1H131.863M131.863 1H131.824M131.863 1H131.824M131.824 1H131.785M131.824 1H131.785M131.785 1H131.746M131.785 1H131.746M131.746 1H131.707M131.746 1H131.707M131.707 1H131.667M131.707 1H131.667M131.667 1H131.628M131.667 1H131.628M131.628 1H131.589M131.628 1H131.589M131.589 1H131.55M131.589 1H131.55M131.55 1H131.511M131.55 1H131.511M131.511 1H131.472M131.511 1H131.472M131.472 1H131.433M131.472 1H131.433M131.433 1H131.394M131.433 1H131.394M131.394 1H131.355M131.394 1H131.355M131.355 1H131.315M131.355 1H131.315M131.315 1H131.276M131.315 1H131.276M131.276 1H131.237M131.276 1H131.237M131.237 1H131.198M131.237 1H131.198M131.198 1H131.159M131.198 1H131.159M131.159 1H131.12M131.159 1H131.12M131.12 1H131.081M131.12 1H131.081M131.081 1H131.042M131.081 1H131.042M131.042 1H131.003M131.042 1H131.003M131.003 1H130.963M131.003 1H130.963M130.963 1H130.924M130.963 1H130.924M130.924 1H130.885M130.924 1H130.885M130.885 1H130.846M130.885 1H130.846M130.846 1H130.807M130.846 1H130.807M130.807 1H130.768M130.807 1H130.768M130.768 1H130.729M130.768 1H130.729M130.729 1H130.69H130.729ZM1.99964 11.7096H1.99964H1.99964Z" fill="black" stroke="black" stroke-width="2"/>
</svg>
