<svg width="378" height="341" viewBox="0 0 378 341" fill="none" xmlns="http://www.w3.org/2000/svg">
<path d="M0 230.31C0 213.854 0 197.399 0 180.943C1.9992 175.911 5.1576 171.745 9.8868 169.091C14.2464 166.646 18.7488 164.387 23.3772 162.497C27.9804 160.623 32.8104 159.321 37.8252 157.683C37.8252 142.051 37.8252 126.519 37.8252 111.063C31.6848 108.585 25.3512 106.301 19.2528 103.503C11.0124 99.7233 3.7128 94.7253 0 85.8969C0 69.4413 0 52.9857 0 36.5301C2.9988 28.8105 8.9376 23.8713 16.3044 21.0993C26.0232 17.4453 35.8848 13.8417 45.99 11.6157C80.052 4.10613 114.761 2.17413 149.503 1.20813C183.288 0.26733 217.022 1.47693 250.656 4.92933C269.951 6.91173 289.237 9.26373 307.759 15.2613C315.722 17.8401 323.408 21.5697 330.784 25.5849C336.134 28.4997 339.52 33.5649 339.553 40.0497C339.637 56.1861 339.578 72.3309 339.578 88.7781C341.712 89.3913 344.669 90.1725 347.575 91.1049C355.538 93.6585 363.367 96.5229 370.012 101.832C374.909 105.746 377.429 110.669 377.311 117.128C377.101 129.039 376.757 140.976 377.404 152.853C377.966 163.169 373.582 170.283 365.106 174.887C357.823 178.843 350.036 181.909 342.367 185.126C340.385 185.958 339.503 186.714 339.52 188.99C339.629 203.673 339.578 218.357 339.578 233.241C342.107 234.636 345.299 236.223 348.314 238.097C355.186 242.372 358.764 248.252 358.445 256.745C358.016 268.269 357.798 279.861 358.495 291.361C359.117 301.592 354.472 308.144 346.466 313.251C337.47 318.989 327.55 322.533 317.369 325.364C281.056 335.461 243.81 338.787 206.338 340.073C174.871 341.156 143.489 339.569 112.258 335.587C91.3164 332.916 70.518 329.363 50.484 322.407C41.4204 319.266 32.5584 315.629 25.3176 309.035C21.6804 305.725 18.9588 301.827 18.9504 296.645C18.9252 280.584 18.942 264.523 18.942 248.084C11.298 244.094 3.5028 239.491 0 230.31ZM169.806 13.5225C130.964 13.5729 92.2488 15.2865 53.9784 22.5777C41.8152 24.8961 29.6688 27.5421 18.5808 33.3885C11.088 37.3365 10.7604 40.9401 18.186 44.7705C25.9728 48.7941 34.1712 52.3305 42.5712 54.8085C75.7428 64.6113 109.914 68.1561 144.304 69.4833C184.75 71.0373 225.061 69.3993 265.012 62.2929C281.568 59.3445 298.007 55.8165 313.488 49.0041C317.587 47.1981 321.376 44.5857 325.055 41.9901C327.424 40.3185 327.331 37.8069 324.912 36.1689C321.888 34.1277 318.73 32.1201 315.353 30.7845C298.679 24.2073 281.114 21.2925 263.483 18.9405C232.403 14.7993 201.146 13.3965 169.806 13.5225ZM51.114 114.465C50.9124 114.759 50.7108 115.062 50.5176 115.356C51.534 116.49 52.374 117.901 53.6004 118.699C56.6748 120.698 59.7912 122.706 63.126 124.193C77.0952 130.417 91.9128 133.844 106.848 136.717C134.14 141.967 161.742 144.47 189.496 145.184C234.167 146.335 278.544 143.781 322.241 133.693C334.79 130.795 347.256 127.435 358.462 120.782C366.366 116.087 366.517 112.617 358.109 108.997C348.936 105.049 339.184 102.453 329.641 99.3789C328.86 99.1269 327.676 99.4881 326.911 99.9501C316.277 106.326 304.634 110.097 292.74 113.18C258.812 121.975 224.154 125.209 189.277 126.267C149.444 127.477 109.788 125.369 70.4844 118.321C64.0164 117.162 57.5736 115.759 51.114 114.465ZM314.429 193.425C314.353 193.165 314.269 192.905 314.194 192.644C313.144 192.762 312.077 192.812 311.044 193.014C289.33 197.231 267.389 199.557 245.33 200.893C215.998 202.674 186.69 202.371 157.408 200.07C132.426 198.113 107.638 194.786 83.3952 188.293C69.4092 184.547 55.5156 180.38 44.1336 170.687C43.5036 170.149 42.2184 169.779 41.5044 170.048C33.1548 173.148 24.6372 175.937 16.6068 179.733C11.4324 182.178 11.4408 185.336 16.464 188.259C22.4532 191.745 28.77 194.979 35.3304 197.147C70.3584 208.705 106.705 212.367 143.296 214.056C176.215 215.576 209.068 214.434 241.786 210.393C262.987 207.781 283.979 204.06 304.298 197.231C307.717 196.088 311.052 194.702 314.429 193.425ZM32.3232 253.83C32.1636 254.057 32.004 254.283 31.8444 254.51C33.684 256.014 35.3388 257.912 37.4136 258.937C42.8904 261.642 48.4008 264.447 54.18 266.363C80.1696 275.006 107.075 278.946 134.257 281.323C184.624 285.716 234.797 284.557 284.676 275.922C301.123 273.074 317.411 269.437 332.758 262.625C336.739 260.861 340.393 258.273 343.972 255.737C346.24 254.132 346.172 251.755 343.745 250.327C339.436 247.799 334.967 245.539 330.456 243.38C329.759 243.044 328.457 243.75 327.524 244.178C320.956 247.169 314.622 250.823 307.826 253.133C275.486 264.137 241.828 267.782 208.001 270.042C183.238 271.697 158.441 271.587 133.652 270.151C106.42 268.572 79.38 265.598 52.8024 259.223C45.9312 257.568 39.144 255.627 32.3232 253.83ZM201.062 82.5621C192.57 82.5621 184.43 82.5621 176.366 82.5621C176.366 93.3309 176.366 103.554 176.366 113.273C184.792 113.273 192.914 113.273 201.062 113.273C201.062 102.588 201.062 92.5581 201.062 82.5621ZM138.617 113.432C147 113.432 155.123 113.432 163.38 113.432C163.38 103.285 163.38 93.1629 163.38 82.5369C155.114 82.5369 146.975 82.5369 138.617 82.5369C138.617 92.4657 138.617 102.571 138.617 113.432ZM219.962 296.426C211.42 296.426 203.28 296.426 195.224 296.426C195.224 307.178 195.224 317.292 195.224 327.019C203.641 327.019 211.764 327.019 219.962 327.019C219.962 316.351 219.962 306.33 219.962 296.426ZM182.078 327.179C182.078 317.023 182.078 306.893 182.078 296.283C173.712 296.283 165.581 296.283 157.374 296.283C157.374 306.447 157.374 316.569 157.374 327.179C165.656 327.179 173.704 327.179 182.078 327.179ZM176.24 257.879C184.758 257.879 192.889 257.879 200.987 257.879C200.987 247.143 200.987 237.021 200.987 227.135C192.646 227.135 184.523 227.135 176.24 227.135C176.24 237.794 176.24 247.916 176.24 257.879ZM138.566 227.067C138.566 237.215 138.566 247.345 138.566 258.005C146.849 258.005 154.972 258.005 163.279 258.005C163.279 247.933 163.279 237.727 163.279 227.067C155.005 227.067 146.966 227.067 138.566 227.067ZM200.928 188.847C200.928 178.717 200.928 168.494 200.928 157.835C192.545 157.835 184.405 157.835 176.24 157.835C176.24 168.049 176.24 178.196 176.24 188.847C184.523 188.847 192.662 188.847 200.928 188.847ZM213.94 157.843C213.94 168.679 213.94 178.793 213.94 188.805C222.272 188.805 230.404 188.805 238.627 188.805C238.627 178.079 238.627 167.856 238.627 157.843C230.336 157.843 222.298 157.843 213.94 157.843ZM163.397 156.684C157.046 156.155 150.998 155.642 144.74 155.121C144.74 165.672 144.74 175.802 144.74 186.378C150.982 186.89 157.097 187.386 163.397 187.898C163.397 177.197 163.397 167.175 163.397 156.684ZM125.588 225.824C119.255 225.32 113.224 224.833 107.033 224.346C107.033 234.955 107.033 245.085 107.033 255.535C113.224 256.047 119.272 256.543 125.588 257.064C125.588 246.513 125.588 236.408 125.588 225.824ZM213.965 225.816C213.965 236.45 213.965 246.564 213.965 257.131C220.273 256.577 226.33 256.039 232.52 255.493C232.52 245.018 232.52 234.896 232.52 224.329C226.254 224.833 220.206 225.312 213.965 225.816ZM232.478 110.862C232.478 100.362 232.478 90.2481 232.478 79.7397C226.17 80.2269 220.114 80.6973 213.973 81.1761C213.973 91.7601 213.973 101.991 213.973 112.508C220.198 111.962 226.153 111.425 232.478 110.862ZM107.125 79.7229C107.125 90.2061 107.125 100.412 107.125 110.837C113.324 111.391 119.364 111.92 125.53 112.475C125.53 101.84 125.53 91.6425 125.53 81.1845C119.423 80.6973 113.585 80.2353 107.125 79.7229ZM270.178 186.361C270.178 175.617 270.178 165.495 270.178 155.147C263.886 155.667 257.838 156.18 251.656 156.692C251.656 167.117 251.656 177.222 251.656 187.898C257.947 187.377 263.987 186.873 270.178 186.361ZM75.558 75.7077C75.558 86.1993 75.558 96.2037 75.558 106.553C81.7572 107.493 87.8556 108.426 94.1556 109.383C94.1556 98.8329 94.1556 88.7109 94.1556 78.3117C88.032 77.4549 82.0092 76.6149 75.558 75.7077ZM282.828 289.547C277.427 290.252 272.345 291.017 267.238 291.554C264.827 291.806 263.936 292.713 263.978 295.233C264.13 303.558 264.029 311.891 264.054 320.223C264.054 321.131 264.272 322.029 264.424 323.163C270.749 322.189 276.755 321.257 282.828 320.324C282.828 309.942 282.828 299.921 282.828 289.547ZM113.215 323.222C113.215 313.142 113.274 303.6 113.106 294.057C113.089 293.251 111.611 291.941 110.662 291.781C105.361 290.882 100.019 290.269 94.5 289.53C94.5 299.786 94.5 309.917 94.5 320.324C100.573 321.265 106.588 322.197 113.215 323.222ZM75.4068 220.314C75.4068 230.293 75.3564 239.609 75.4908 248.916C75.4992 249.773 76.5912 251.226 77.3724 251.369C82.8744 252.385 88.4268 253.133 94.164 253.989C94.164 243.447 94.164 233.3 94.164 222.935C88.0152 222.078 81.984 221.229 75.4068 220.314ZM283.114 184.849C289.027 183.95 294.487 183.236 299.888 182.195C300.695 182.035 301.72 180.397 301.778 179.397C301.997 175.365 301.871 171.308 301.871 167.268C301.871 162.043 301.871 156.818 301.871 151.165C295.294 152.089 289.279 152.929 283.122 153.794C283.114 164.093 283.114 174.215 283.114 184.849ZM295.688 287.228C295.688 297.493 295.688 307.481 295.688 317.863C301.039 316.553 306.113 315.217 311.237 314.1C313.664 313.571 314.588 312.529 314.521 309.891C314.32 302.063 314.462 294.225 314.437 286.388C314.437 285.363 314.244 284.33 314.11 283.011C307.784 284.456 301.854 285.817 295.688 287.228ZM81.6144 287.153C75.4068 285.8 69.2664 284.456 62.8152 283.045C62.8152 292.991 62.7732 302.046 62.8824 311.093C62.8908 311.924 63.6972 313.293 64.3944 313.487C70.014 315.057 75.7008 316.401 81.6144 317.88C81.6144 307.413 81.6144 297.409 81.6144 287.153ZM100.447 148.847C94.164 147.427 88.1412 146.066 81.9672 144.68C81.9672 154.979 81.9672 164.865 81.9672 174.912C88.1328 176.432 94.1472 177.919 100.447 179.473C100.447 169.049 100.447 159.153 100.447 148.847ZM276.797 248.731C283.349 247.101 289.355 245.615 295.252 244.153C295.252 233.863 295.252 224.001 295.252 213.829C288.918 215.291 282.878 216.685 276.797 218.096C276.797 228.277 276.797 238.189 276.797 248.731ZM295.495 69.1305C288.876 70.6845 282.836 72.0957 276.872 73.4901C276.872 83.6625 276.872 93.5325 276.872 104.024C282.878 102.529 288.548 101.177 294.168 99.6393C294.773 99.4713 295.436 98.1945 295.445 97.4301C295.529 88.1313 295.495 78.8325 295.495 69.1305ZM126.067 293.511C126.067 304.238 126.067 314.343 126.067 324.692C132.3 325.23 138.314 325.751 144.346 326.271C144.346 315.469 144.346 305.339 144.346 294.965C138.214 294.469 132.275 294.007 126.067 293.511ZM251.202 324.717C251.202 314.075 251.202 303.969 251.202 293.503C244.919 294.015 238.913 294.511 232.932 294.998C232.932 305.641 232.932 315.755 232.932 326.28C239.123 325.751 245.053 325.238 251.202 324.717ZM113.249 151.19C113.249 161.127 113.215 170.661 113.316 180.187C113.324 180.876 114.257 182.035 114.904 182.153C120.422 183.135 125.975 183.933 131.72 184.815C131.72 174.215 131.72 163.992 131.72 153.693C125.572 152.862 119.658 152.064 113.249 151.19ZM245.398 254.006C250.816 253.183 255.864 252.284 260.954 251.705C263.516 251.411 264.104 250.251 264.071 247.883C263.953 240.054 264.037 232.225 264.02 224.388C264.02 223.103 263.911 221.826 263.844 220.339C257.384 221.263 251.395 222.111 245.398 222.968C245.398 233.418 245.398 243.422 245.398 254.006ZM263.71 106.536C263.71 95.9853 263.71 85.9221 263.71 75.7749C258.174 76.5057 252.974 77.2785 247.758 77.8497C245.658 78.0849 245.213 79.1013 245.246 80.9913C245.339 86.7453 245.28 92.4993 245.28 98.2533C245.28 101.874 245.28 105.494 245.28 109.358C251.74 108.375 257.653 107.468 263.71 106.536ZM314.588 179.481C318.074 178.675 321.166 177.986 324.248 177.255C333.186 175.13 333.186 175.122 333.186 165.798C333.186 158.851 333.186 151.896 333.186 144.605C326.659 146.125 320.645 147.519 314.588 148.931C314.588 159.128 314.588 169.032 314.588 179.481ZM31.4916 95.2629C31.4916 85.3425 31.5336 76.2873 31.4244 67.2321C31.416 66.3669 30.702 65.0565 29.9628 64.7205C24.3348 62.1333 18.6144 59.7393 12.6 57.1437C12.6 65.7369 12.5244 74.2545 12.6924 82.7721C12.7176 83.9229 13.734 85.2669 14.6496 86.1489C19.2444 90.5589 25.0404 92.7429 31.4916 95.2629ZM345.778 171.585C351.851 168.066 357.118 165.143 362.216 161.951C363.325 161.253 364.493 159.624 364.518 158.397C364.72 149.804 364.627 141.203 364.627 132.618C358.672 135.197 353.069 137.574 347.525 140.077C346.794 140.405 345.853 141.371 345.845 142.051C345.744 151.434 345.778 160.808 345.778 171.585ZM31.4916 239.667C31.4916 229.865 31.5252 220.793 31.4412 211.721C31.4328 210.931 30.8532 209.73 30.2064 209.436C24.4608 206.823 18.6312 204.371 12.5664 201.758C12.5664 210.217 12.4656 218.541 12.6672 226.849C12.7008 228.235 13.734 229.898 14.8008 230.906C19.3536 235.165 24.9816 237.475 31.4916 239.667ZM44.2596 213.829C44.2596 224.178 44.2596 234.056 44.2596 244.203C50.3664 245.699 56.364 247.16 62.6304 248.689C62.6304 238.214 62.6304 228.218 62.6304 218.021C56.5992 216.643 50.6688 215.291 44.2596 213.829ZM44.0832 69.2145C44.0832 78.9669 44.0496 88.2489 44.142 97.5309C44.1504 98.2953 44.8308 99.5637 45.4356 99.7317C51.03 101.269 56.6832 102.613 62.7984 104.133C62.7984 93.9273 62.832 84.4017 62.7228 74.8845C62.7144 74.2377 61.7232 73.1961 61.026 73.0281C55.5744 71.7009 50.0892 70.5417 44.0832 69.2145ZM308.062 240.566C314.034 237.038 319.318 234.266 324.156 230.864C325.71 229.772 326.785 227.059 326.894 225.018C327.247 218.777 327.02 212.502 327.02 206.244C327.02 204.749 327.02 203.245 327.02 201.733C320.956 204.354 315.445 206.681 309.994 209.159C309.187 209.528 308.154 210.603 308.146 211.359C308.02 220.641 308.062 229.915 308.062 240.566ZM50.2404 132.567C50.2404 140.841 50.19 148.805 50.2908 156.759C50.3076 157.885 50.7528 159.254 51.4836 160.077C56.1624 165.344 62.4372 167.847 69.1908 170.351C69.1908 160.733 69.2328 151.669 69.1236 142.614C69.1152 141.774 68.3844 140.505 67.6536 140.169C62.0424 137.591 56.3304 135.188 50.2404 132.567ZM327.012 57.1857C320.813 59.8317 315.084 62.2173 309.431 64.7625C308.776 65.0565 308.129 66.2325 308.12 66.9969C308.028 76.1529 308.062 85.3089 308.062 94.9101C314.773 92.6841 320.552 89.6433 325.576 85.3005C326.382 84.6033 326.928 83.1585 326.945 82.0497C327.062 73.8597 327.012 65.6697 327.012 57.1857ZM50.232 308.984C50.232 299.123 50.2656 289.95 50.1732 280.769C50.1648 279.979 49.5516 278.778 48.8964 278.484C43.26 275.939 37.548 273.561 31.5 270.983C31.5 276.476 32.1888 281.945 31.3572 287.169C29.652 297.93 35.0784 303.323 44.2428 306.565C46.0656 307.203 47.8296 308.001 50.232 308.984ZM327.037 308.959C333.43 306.557 339.301 304.255 343.988 299.736C344.736 299.013 345.568 297.905 345.576 296.955C345.702 288.329 345.652 279.702 345.652 271.033C339.738 273.578 334.135 275.939 328.6 278.45C327.902 278.769 327.113 279.836 327.104 280.567C326.995 289.857 327.037 299.148 327.037 308.959Z" fill="#FF9066"/>
</svg>
