<svg width="750" height="343" viewBox="0 0 750 343" fill="none" xmlns="http://www.w3.org/2000/svg">
<path d="M0 77.7862C4.62618 67.0875 12.8134 62.305 24.4091 61.3278C36.7612 60.286 49.041 58.0834 61.2407 55.7908C63.9847 55.2749 67.2741 52.8279 68.5914 50.3555C74.9941 38.3259 80.8848 26.0187 86.8146 13.7428C90.8486 5.39146 96.8468 0.0890455 106.562 0.00109535C116.612 -0.0888093 122.771 5.36215 126.91 13.9774C132.5 25.6083 138.437 37.075 143.879 48.7724C146.015 53.3654 148.524 55.9237 154.028 56.3811C163.961 57.2059 173.844 58.8593 183.667 60.6203C187.51 61.3102 189.38 60.3564 190.987 56.8658C194.749 48.6845 198.92 40.6927 202.913 32.6189C207.306 23.7359 214.284 18.8048 224.355 18.8439C234.43 18.883 241.341 23.9235 245.709 32.7909C253.67 48.9522 261.452 65.2074 269.774 81.1811C271.184 83.886 274.682 86.6907 277.616 87.2145C292.233 89.8295 307.003 91.5807 321.677 93.8987C326.174 94.6081 328.683 93.5058 330.708 89.1435C336.753 76.1171 343.363 63.3565 349.653 50.4415C354.666 40.1474 362.452 33.9635 374.201 33.8482C386.265 33.729 394.294 39.9363 399.448 50.506C405.636 63.1982 412.262 75.689 418.051 88.5591C420.339 93.6465 423.232 94.6042 428.19 93.8166C442.382 91.5611 456.61 89.5265 470.854 87.6249C475.119 87.0561 477.693 85.2209 479.59 81.2397C487.133 65.4184 495.14 49.818 502.719 34.0144C507.234 24.6017 514.028 18.8772 524.787 18.8459C535.581 18.8146 542.436 24.6369 546.9 33.985C550.466 41.4549 554.293 48.8017 557.764 56.3146C559.383 59.815 561.077 61.4783 565.479 60.6476C575.761 58.7088 586.237 57.7961 596.509 55.8162C599.285 55.2807 602.658 52.9784 603.965 50.5295C610.378 38.5057 616.263 26.1966 622.181 13.9129C626.334 5.28984 632.512 -0.122038 642.564 0.00695547C652.281 0.130086 658.252 5.48528 662.282 13.8171C668.218 26.091 674.097 38.4041 680.504 50.4337C681.815 52.8963 685.149 55.3159 687.899 55.8045C701.32 58.1909 714.855 59.9557 728.358 61.8633C737.773 63.1923 744.926 67.3768 747.95 76.9458C750.881 86.2274 747.574 93.5781 740.886 99.9496C735.768 104.826 730.862 109.929 725.687 114.745C720.167 119.883 713.974 120.149 709.416 115.742C704.708 111.188 705.12 104.609 710.508 98.9665C715.172 94.0843 719.868 89.2353 725.167 83.7297C711.364 81.6931 698.244 79.2892 685.018 77.9504C673.458 76.7796 665.65 71.8075 660.877 60.9467C655.446 48.5906 648.984 36.688 642.255 23.1457C635.504 36.7252 629.059 48.6454 623.596 60.9994C618.94 71.53 611.453 76.7836 600.15 77.88C590.511 78.8142 580.954 80.6143 571.359 82.0312C571.193 82.8111 571.027 83.5909 570.861 84.3727C573.863 85.4945 576.779 87.1675 579.881 87.6503C597.209 90.3474 614.57 92.8472 631.945 95.2277C641.802 96.5782 648.826 101.554 652.076 110.941C655.336 120.356 652.723 128.569 645.886 135.736C634.515 147.656 623.315 159.74 613.679 170.013C617.613 167.953 624.051 164.72 630.356 161.243C638.278 156.875 646.017 156.877 654.003 161.167C666.832 168.058 679.786 174.723 693.79 182.062C692.516 174 691.267 167.134 690.378 160.223C689.32 152.002 692.609 146.978 699.253 146.079C705.876 145.183 710.504 149.038 712.005 157.115C713.43 164.777 714.546 172.493 715.793 180.188C717.165 188.654 714.564 195.665 707.663 200.75C700.511 206.021 692.836 206.363 684.966 202.24C672.455 195.686 659.849 189.307 647.491 182.478C643.57 180.313 640.613 180.444 636.804 182.617C628.351 187.44 619.705 191.961 610.933 196.181C607.165 197.994 606.16 200.082 606.958 204.13C608.981 214.4 610.403 224.788 612.362 235.074C614.291 245.2 612.641 254.118 604.102 260.642C595.341 267.336 586.092 266.768 576.674 261.762C560.977 253.421 545.297 245.038 529.396 237.105C526.909 235.864 522.766 235.84 520.276 237.062C506.73 243.713 493.514 251.036 480.063 257.887C476.522 259.691 475.115 261.536 475.935 265.779C478.762 280.359 481.06 295.043 483.679 309.664C485.704 320.972 482.899 330.631 473.547 337.556C464.226 344.459 454.177 344.566 443.965 339.184C428.454 331.01 412.887 322.944 397.398 314.73C389.707 310.653 387.305 304.862 390.503 298.805C393.78 292.594 399.679 291.282 407.448 295.303C421.936 302.802 436.299 310.547 450.864 317.896C453.643 319.297 457.106 319.338 460.255 320.007C460.663 316.85 461.848 313.567 461.359 310.555C457.571 287.239 453.428 263.981 449.468 240.691C447.705 230.327 450.616 221.553 458.295 214.171C475.167 197.95 491.935 181.616 508.551 165.132C510.752 162.949 511.821 159.623 513.414 156.828C510.299 155.391 507.306 153.158 504.044 152.645C480.945 149.03 457.804 145.668 434.646 142.435C424.066 140.96 416.837 135.437 412.191 125.936C401.819 104.718 391.359 83.544 380.715 62.4613C379.423 59.901 376.786 58.0189 374.775 55.8221C372.559 58.0873 369.61 59.9792 368.245 62.6744C357.906 83.0905 347.704 103.583 337.822 124.224C332.651 135.026 324.821 141.202 312.739 142.766C290.036 145.705 267.398 149.159 244.771 152.651C241.644 153.134 238.738 155.061 235.73 156.318C237.346 159.328 238.359 162.945 240.675 165.252C257.084 181.597 273.638 197.803 290.408 213.779C298.831 221.804 301.255 231.214 299.275 242.353C295.143 265.611 291.127 288.892 287.28 312.199C286.888 314.579 287.208 318.666 288.555 319.374C290.58 320.435 294.191 319.975 296.457 318.832C311.451 311.259 326.248 303.294 341.147 295.529C349.348 291.255 355.395 292.517 358.641 299.004C361.688 305.092 359.218 310.706 351.449 314.831C336.179 322.936 320.848 330.93 305.56 339.002C295.145 344.502 284.851 344.602 275.317 337.411C265.756 330.201 263.329 320.29 265.541 308.722C268.283 294.372 270.779 279.966 272.847 265.507C273.169 263.259 271.305 259.427 269.335 258.326C255.949 250.845 242.361 243.699 228.586 236.962C226.116 235.754 221.973 235.93 219.459 237.185C203.779 245.017 188.295 253.251 172.842 261.526C163.488 266.535 154.278 267.499 145.372 260.945C136.446 254.376 134.689 245.292 136.739 234.867C138.666 225.073 139.976 215.156 141.957 205.374C142.917 200.641 142.1 197.875 137.32 195.677C128.483 191.613 120.154 186.452 111.314 182.398C108.753 181.223 104.674 181.243 102.145 182.474C89.8909 188.437 77.8711 194.893 65.8805 201.384C57.6992 205.814 49.6723 206.623 41.8135 201.038C34.0035 195.487 31.7656 187.788 33.4504 178.518C35.8465 165.342 37.6896 152.059 40.33 138.933C41.3307 133.963 40.162 130.803 36.5462 127.462C27.7727 119.359 19.1536 111.061 10.9117 102.424C6.78194 98.0968 3.60987 92.855 0.00586334 88.0255C0 84.6131 0 81.1986 0 77.7862ZM277.094 237.353C277.645 236.896 278.196 236.44 278.745 235.983C277.098 233.425 275.855 230.458 273.742 228.371C256.75 211.578 239.631 194.914 222.475 178.292C214.397 170.466 211.295 161.218 214.626 150.396C218.044 139.285 225.917 133.222 237.422 131.588C260.569 128.299 283.71 124.963 306.817 121.421C310.366 120.878 313.734 119.138 317.185 117.952C316.978 117.074 316.773 116.195 316.566 115.317C301.71 113.101 286.88 110.693 271.989 108.735C262.142 107.439 255.507 102.449 251.235 93.5801C243.733 78.0109 235.964 62.5708 228.281 47.0896C227.244 44.9983 226.044 42.9853 224.289 39.7858C222.543 42.9169 221.322 44.9124 220.286 46.9997C212.71 62.262 205.004 77.4617 197.685 92.8471C193.215 102.242 186.37 107.525 175.9 108.835C159.229 110.916 142.63 113.56 126.007 116.025C123.298 116.426 120.634 117.129 116.864 117.921C119.524 120.706 121.125 122.482 122.829 124.152C135.195 136.261 147.504 148.432 159.993 160.412C167.146 167.274 169.462 175.335 167.682 184.982C164.854 200.305 162.27 215.674 159.647 231.034C158.977 234.965 158.555 238.936 157.845 244.161C161.289 242.509 163.46 241.549 165.559 240.451C180.226 232.774 195.052 225.374 209.476 217.265C219.641 211.551 229.028 211.603 239.135 217.328C251.577 224.374 264.421 230.708 277.094 237.353ZM629.794 117.157C611.361 114.424 591.93 111.385 572.448 108.725C562.92 107.425 556.242 102.764 552.053 94.1762C544.476 78.6422 536.803 63.1571 529.139 47.6662C528 45.3639 526.696 43.1436 524.828 39.7077C523.026 42.9716 521.822 44.973 520.786 47.0583C513.099 62.5376 505.336 77.9816 497.827 93.5468C493.557 102.4 486.953 107.521 477.087 108.719C466.693 109.98 456.344 111.616 445.991 113.183C441.367 113.883 436.78 114.823 432.177 115.654C432.082 116.514 431.986 117.374 431.89 118.233C435.56 119.349 439.161 120.933 442.915 121.503C465.303 124.914 487.707 128.236 510.146 131.291C522.135 132.923 530.769 138.558 534.401 150.363C538.04 162.193 533.727 171.602 525.066 179.865C508.313 195.85 491.8 212.09 475.33 228.369C473.213 230.46 471.948 233.415 470.289 235.969C470.842 236.435 471.395 236.898 471.948 237.363C485.266 230.388 498.664 223.561 511.872 216.386C520.552 211.672 528.85 211.605 537.565 216.31C552.988 224.636 568.574 232.659 584.114 240.766C586.086 241.794 588.191 242.564 591.18 243.863C590.793 240.594 590.65 238.69 590.333 236.816C587.615 220.731 585.476 204.517 581.937 188.613C578.99 175.37 583 165.873 592.555 156.707C605.519 144.275 617.273 130.578 629.794 117.157ZM55.0822 182.208C67.4734 175.692 78.6196 170.683 88.857 164.231C101.27 156.412 112.826 156.333 124.903 164.382C128.958 167.085 133.528 169.016 137.861 171.299C125.825 159.785 114.753 147.796 103.445 136.035C96.3953 128.701 93.5712 120.378 97.0403 110.678C100.388 101.316 107.495 96.5176 117.326 95.1905C134.446 92.8804 151.544 90.3884 168.612 87.7245C171.878 87.2144 174.966 85.5571 178.134 84.4274C177.937 83.6319 177.738 82.8365 177.54 82.043C168.679 80.6729 159.86 78.6481 150.948 78.0911C138.105 77.2878 129.787 71.5476 124.694 59.6215C119.593 47.674 113.299 36.2366 106.799 23.1027C100.152 36.4828 93.7881 48.1606 88.4837 60.2997C83.666 71.3267 75.9772 76.8129 64.0316 77.9816C50.8117 79.2774 37.7033 81.7283 25.6013 83.5186C34.924 93.5156 43.9243 104.052 53.892 113.574C62.0068 121.329 64.4655 129.812 62.2844 140.577C59.5931 153.888 57.6191 167.345 55.0822 182.208Z" fill="black"/>
</svg>
