<svg width="342" height="343" viewBox="0 0 342 343" fill="none" xmlns="http://www.w3.org/2000/svg">
<path d="M0 181.066C0 174.387 0 167.707 0 161.028C0.206611 159.846 0.443334 158.669 0.615649 157.482C1.68467 150.119 2.2953 142.658 3.8729 135.407C12.8032 94.3449 33.8933 60.6924 67.345 35.3555C108.959 3.83608 155.825 -6.62159 206.927 4.03432C247.831 12.5639 281.086 33.9987 306.524 67.0606C333.991 102.76 345.418 143.415 341.12 188.157C337.638 224.411 323.561 256.42 299.4 283.745C272.914 313.7 239.921 332.357 200.484 339.376C194.048 340.521 187.523 341.162 181.038 342.037C174.358 342.037 167.677 342.037 160.997 342.037C160.138 341.848 159.288 341.549 158.419 341.487C131.667 339.6 106.641 331.949 83.8052 317.957C39.4994 290.81 12.2335 251.67 2.66168 200.466C1.46551 194.057 0.873285 187.535 0 181.066ZM194.145 170.32C192.488 172.076 191.685 172.971 190.837 173.82C172.032 192.63 153.22 211.432 134.418 230.246C133.319 231.346 132.219 232.464 131.27 233.691C125.935 240.582 127.978 250.398 135.592 254.657C141.727 258.089 148.102 256.849 153.963 250.996C176.642 228.349 199.307 205.688 221.971 183.026C230.121 174.877 230.111 167.209 221.943 159.042C199.437 136.538 176.925 114.039 154.407 91.546C153.385 90.5255 152.34 89.5134 151.203 88.6275C143.245 82.4242 131.74 86.1457 128.906 95.8372C127.104 101.999 129.383 106.864 133.708 111.176C152.702 130.111 171.643 149.098 190.642 168.028C191.57 168.949 192.866 169.498 194.145 170.32Z" fill="black"/>
<path d="M194.146 170.32C192.867 169.497 191.569 168.949 190.644 168.027C171.644 149.097 152.703 130.11 133.71 111.175C129.386 106.863 127.106 101.999 128.908 95.8362C131.742 86.1447 143.247 82.4232 151.205 88.6266C152.341 89.5124 153.387 90.5245 154.409 91.545C176.927 114.038 199.439 136.537 221.945 159.041C230.113 167.208 230.123 174.876 221.973 183.025C199.309 205.687 176.644 228.347 153.965 250.995C148.104 256.848 141.729 258.088 135.594 254.656C127.979 250.397 125.938 240.581 131.272 233.69C132.221 232.463 133.321 231.345 134.42 230.245C153.221 211.431 172.033 192.629 190.839 173.819C191.687 172.97 192.489 172.075 194.146 170.32Z" fill="white"/>
</svg>
