<svg width="11" height="13" viewBox="0 0 11 13" fill="none" xmlns="http://www.w3.org/2000/svg">
<path d="M3.21875 1.26465C3.21875 1.15276 3.2632 1.04545 3.34231 0.966338C3.42143 0.887221 3.52874 0.842773 3.64062 0.842773H7.01562C7.12751 0.842773 7.23482 0.887221 7.31394 0.966338C7.39305 1.04545 7.4375 1.15276 7.4375 1.26465C7.4375 1.37654 7.39305 1.48384 7.31394 1.56296C7.23482 1.64208 7.12751 1.68652 7.01562 1.68652H3.64062C3.52874 1.68652 3.42143 1.64208 3.34231 1.56296C3.2632 1.48384 3.21875 1.37654 3.21875 1.26465Z" fill="#161821"/>
<path d="M5.32813 4.21777C5.21624 4.21777 5.10893 4.26222 5.02981 4.34134C4.9507 4.42045 4.90625 4.52776 4.90625 4.63965V8.01465C4.90625 8.12654 4.9507 8.23384 5.02981 8.31296C5.10893 8.39208 5.21624 8.43653 5.32813 8.43653C5.44001 8.43653 5.54732 8.39208 5.62644 8.31296C5.70555 8.23384 5.75 8.12654 5.75 8.01465V4.63965C5.75 4.52776 5.70555 4.42045 5.62644 4.34134C5.54732 4.26222 5.44001 4.21777 5.32813 4.21777Z" fill="#161821"/>
<path d="M10.3906 7.59277C10.3906 8.93543 9.85726 10.2231 8.90785 11.1725C7.95845 12.1219 6.67078 12.6553 5.32813 12.6553C3.98547 12.6553 2.6978 12.1219 1.7484 11.1725C0.798994 10.2231 0.265625 8.93543 0.265625 7.59277C0.265625 6.25011 0.798994 4.96245 1.7484 4.01305C2.6978 3.06364 3.98547 2.53027 5.32813 2.53027C6.67078 2.53027 7.95845 3.06364 8.90785 4.01305C9.85726 4.96245 10.3906 6.25011 10.3906 7.59277V7.59277ZM9.54688 7.59277C9.54688 6.47389 9.1024 5.40084 8.31123 4.60967C7.52006 3.8185 6.44701 3.37402 5.32813 3.37402C4.20924 3.37402 3.13619 3.8185 2.34502 4.60967C1.55385 5.40084 1.10938 6.47389 1.10938 7.59277C1.10938 8.71166 1.55385 9.78471 2.34502 10.5759C3.13619 11.367 4.20924 11.8115 5.32813 11.8115C6.44701 11.8115 7.52006 11.367 8.31123 10.5759C9.1024 9.78471 9.54688 8.71166 9.54688 7.59277Z" fill="#161821"/>
<path d="M9.50755 2.2284C9.46864 2.18811 9.42208 2.15597 9.37061 2.13386C9.31914 2.11175 9.26378 2.10011 9.20777 2.09963C9.15175 2.09914 9.0962 2.10981 9.04435 2.13102C8.99251 2.15224 8.9454 2.18356 8.90579 2.22317C8.86618 2.26278 8.83485 2.30989 8.81364 2.36173C8.79243 2.41358 8.78176 2.46913 8.78224 2.52515C8.78273 2.58117 8.79437 2.63652 8.81648 2.688C8.83859 2.73947 8.87073 2.78602 8.91102 2.82493L10.0948 4.00872C10.1337 4.04901 10.1803 4.08115 10.2317 4.10326C10.2832 4.12537 10.3386 4.13701 10.3946 4.13749C10.4506 4.13798 10.5062 4.12731 10.558 4.10609C10.6098 4.08488 10.657 4.05356 10.6966 4.01394C10.7362 3.97433 10.7675 3.92723 10.7887 3.87538C10.8099 3.82354 10.8206 3.76798 10.8201 3.71197C10.8196 3.65595 10.808 3.60059 10.7859 3.54912C10.7638 3.49765 10.7316 3.4511 10.6913 3.41218L9.50755 2.2284Z" fill="#161821"/>
</svg>
