<svg width="99" height="38" viewBox="0 0 99 38" fill="none" xmlns="http://www.w3.org/2000/svg">
<path d="M0 12.5154C0.889376 9.96946 2.7611 8.85903 5.37706 8.81333C5.76055 8.80661 6.14067 8.69066 6.52519 8.66225C10.8481 8.34281 14.9536 7.30159 18.7616 5.15511C20.4407 4.20866 22.2029 3.40967 23.9287 2.54663C26.9341 1.04342 30.1112 0.106269 33.472 0.0579781C38.7212 -0.0174277 43.9735 -0.0243995 49.2225 0.0675337C53.2092 0.137517 56.8506 1.44808 60.2008 3.60102C63.7211 5.8632 67.2484 8.11505 70.801 10.3261C71.3156 10.6466 71.9822 10.8529 72.5877 10.8774C78.8157 11.13 84.9778 11.7988 90.9527 13.6798C92.146 14.0556 93.3303 14.4943 94.4624 15.0245C97.3583 16.3803 98.8452 18.7238 98.9568 21.8991C99.0224 23.7651 99.0074 25.6368 98.9511 27.5037C98.8716 30.1289 97.2571 32.0179 94.9319 32.3121C93.9 32.4427 93.1593 32.0014 93.001 31.1619C92.8427 30.3223 93.3732 29.6388 94.4185 29.4776C95.4174 29.3235 95.845 28.6949 96.0134 27.7996C96.0666 27.5173 96.0679 27.2227 96.0687 26.9337C96.0733 25.1697 96.071 23.4057 96.071 21.5146C95.0471 21.5146 94.1233 21.5311 93.2006 21.5104C92.051 21.4846 91.4206 20.9423 91.4348 20.0338C91.449 19.1323 92.0765 18.6401 93.2479 18.6182C93.6239 18.6112 94.0004 18.6171 94.3767 18.6171C94.4033 18.5355 94.4301 18.4537 94.4567 18.3721C93.9821 18.0952 93.5296 17.7678 93.0294 17.5498C89.0686 15.8243 84.889 14.8654 80.6195 14.485C76.0719 14.0796 71.4977 13.8394 66.9325 13.7906C57.3981 13.6886 47.8616 13.7596 38.3261 13.7596C38.0684 13.7596 37.8106 13.7633 37.5529 13.7584C36.3255 13.7351 35.6567 13.2297 35.6481 12.3223C35.6396 11.4066 36.3172 10.873 37.5266 10.8627C38.5895 10.8534 39.6527 10.8604 40.7158 10.8601C41.0335 10.8601 41.3511 10.8601 41.7488 10.8601C41.7488 8.19846 41.7488 5.61219 41.7488 3.01895C41.6401 2.97918 41.551 2.91617 41.4637 2.91875C37.9594 3.02076 34.4484 3.02799 30.9536 3.27254C28.7921 3.42387 28.7978 3.58501 28.3221 5.64886C27.94 7.30676 27.573 8.96853 27.1712 10.7545C27.6492 10.7943 28.0451 10.8462 28.4422 10.856C29.3112 10.878 30.1851 10.8294 31.0492 10.9025C31.8174 10.9673 32.2758 11.4549 32.305 12.2456C32.3336 13.0255 31.9507 13.6228 31.1744 13.6853C27.4955 13.9822 23.9328 13.8157 21.1671 10.8408C20.4223 10.0397 19.7096 8.86033 18.8032 8.65864C17.9301 8.46444 16.8202 9.29572 15.8241 9.70115C12.953 10.8692 9.90658 11.1752 6.87227 11.5465C6.07353 11.6444 5.27041 11.718 4.47839 11.8551C3.37803 12.0457 2.92869 12.5906 2.90261 13.6961C2.88918 14.2684 2.90029 14.8411 2.90029 15.4142C4.13467 15.682 5.96404 15.009 5.93202 16.9987C5.90154 18.8996 4.12202 18.23 2.94419 18.4632C2.94419 20.0914 2.82901 21.7008 2.97982 23.2848C3.10533 24.6052 4.01769 25.4667 5.30759 25.8447C7.09668 26.369 8.89221 26.8712 10.7983 27.4153C11.1601 24.1372 12.593 21.5321 15.4672 19.843C17.3503 18.7364 19.3935 18.4023 21.5209 18.7403C24.0196 19.1372 26.0186 20.4124 27.511 22.4628C29.0085 24.5202 29.4251 26.8495 29.1361 29.3968C43.2236 29.3968 57.2212 29.3968 71.3017 29.3968C71.3017 28.8212 71.2968 28.2572 71.3025 27.6929C71.3528 22.5956 75.5676 18.5056 80.6409 18.629C85.8429 18.7555 89.8991 23.0622 89.6672 28.2125C89.4921 32.0975 86.793 35.5439 83.0759 36.6278C79.2908 37.7315 75.2871 36.3589 73.0037 33.1121C72.6022 32.5409 72.1942 32.3456 71.5096 32.3467C57.3351 32.3666 43.1603 32.3671 28.9858 32.3454C28.2899 32.3444 27.9051 32.5809 27.5009 33.1307C25.4792 35.8804 22.7282 37.2362 19.3197 36.9451C15.6764 36.634 13.0783 34.709 11.6001 31.3618C11.3346 30.7606 10.9984 30.4644 10.3918 30.3035C8.83798 29.8916 7.31721 29.3366 5.74815 29.0038C2.76032 28.3698 0.762581 26.7426 0 23.7269C0 19.9897 0 16.2524 0 12.5154ZM65.7415 10.7974C65.7679 10.7393 65.7942 10.6814 65.8206 10.6233C63.4471 9.11056 61.0666 7.6089 58.7025 6.08218C56.3762 4.58001 53.8788 3.47888 51.1234 3.16331C49.0391 2.92469 46.9283 2.92159 44.7846 2.81132C44.7846 5.61529 44.7846 8.17522 44.7846 10.7974C51.8072 10.7974 58.7745 10.7974 65.7415 10.7974ZM26.319 27.8185C26.326 24.342 23.5788 21.5595 20.1044 21.5236C16.6138 21.4875 13.7474 24.3108 13.7414 27.7908C13.7355 31.2561 16.6236 34.1376 20.0763 34.1112C23.5202 34.0849 26.312 31.2706 26.319 27.8185ZM80.4235 21.5236C76.9125 21.5525 74.162 24.3735 74.201 27.9052C74.2389 31.3403 77.111 34.1575 80.5286 34.1117C84.0071 34.065 86.8314 31.1688 86.7775 27.7043C86.7238 24.2604 83.881 21.4952 80.4235 21.5236ZM25.4678 5.03373C24.0351 5.74931 22.8005 6.36625 21.988 6.7722C22.7679 7.6905 23.5742 8.6403 24.4403 9.66035C24.7796 8.13312 25.1014 6.68362 25.4678 5.03373Z" fill="#34395E"/>
<path d="M50.3118 26.153C45.1268 26.153 39.9417 26.154 34.7567 26.1507C34.404 26.1504 34.0422 26.1592 33.7 26.089C32.9253 25.9304 32.5304 25.3868 32.5645 24.632C32.5963 23.927 32.9986 23.425 33.7429 23.3085C34.059 23.2589 34.3843 23.2558 34.7056 23.2558C45.0755 23.2532 55.4456 23.2535 65.8154 23.2553C66.1047 23.2553 66.3967 23.2556 66.6829 23.292C67.5175 23.3981 67.9645 23.9244 67.9596 24.7249C67.9549 25.4821 67.5103 25.9875 66.7332 26.1112C66.4179 26.1613 66.0915 26.1517 65.7702 26.152C60.6173 26.1538 55.4644 26.153 50.3118 26.153Z" fill="#34395E"/>
<path d="M25.47 5.03125C25.1036 6.68114 24.7815 8.1309 24.4425 9.65761C23.5763 8.63757 22.7699 7.68776 21.9902 6.76946C22.8029 6.36351 24.0376 5.74683 25.47 5.03125Z" fill="white"/>
<path d="M22.58 26.3801C22.6175 27.6455 19.8011 30.458 18.8565 30.2909C18.4172 30.2132 17.8599 29.8586 17.6879 29.479C17.5136 29.0945 17.5766 28.3856 17.8374 28.0623C18.5595 27.1675 19.384 26.3308 20.2843 25.6175C20.6223 25.3498 21.341 25.3234 21.7743 25.4853C22.171 25.6336 22.4168 26.1846 22.58 26.3801Z" fill="#34395E"/>
<path d="M82.9951 28.7926C82.9628 30.044 81.7248 30.7878 80.8561 30.1021C79.8572 29.3137 78.9655 28.365 78.1425 27.3883C77.6795 26.8388 77.8301 26.0465 78.433 25.6891C78.8767 25.4259 79.7397 25.2705 80.0669 25.5217C81.0748 26.2959 81.9278 27.2762 82.8089 28.2072C82.9639 28.3709 82.9628 28.6821 82.9951 28.7926Z" fill="#34395E"/>
</svg>
