<svg width="7" height="10" viewBox="0 0 7 10" fill="none" xmlns="http://www.w3.org/2000/svg">
<path d="M5.56397 7.45603H1.70254C1.24111 7.45603 0.852539 7.05097 0.852539 6.56995V1.00033C0.852539 0.519321 1.24111 0.114258 1.70254 0.114258H5.56397C6.0254 0.114258 6.41397 0.519321 6.41397 1.00033V6.56995C6.41397 7.05097 6.0254 7.45603 5.56397 7.45603ZM1.70254 0.924384C1.67825 0.924384 1.65397 0.949701 1.65397 0.975017V6.54464C1.65397 6.56995 1.67825 6.59527 1.70254 6.59527H5.56397C5.58825 6.59527 5.61254 6.56995 5.61254 6.54464V0.975017C5.61254 0.949701 5.58825 0.924384 5.56397 0.924384H1.70254V0.924384Z" fill="#161821"/>
<path d="M4.95756 0.796875H2.28613V1.17662H4.95756V0.796875Z" fill="#161821"/>
<path d="M3.69411 4.1393C2.94126 4.1393 2.3584 3.50639 2.3584 2.7469C2.3584 1.9874 2.96554 1.35449 3.69411 1.35449C4.42268 1.35449 5.02983 1.9874 5.02983 2.7469C5.02983 3.50639 4.44697 4.1393 3.69411 4.1393ZM3.69411 1.58234C3.08697 1.58234 2.60126 2.08867 2.60126 2.72158C2.60126 3.35449 3.08697 3.86082 3.69411 3.86082C4.30126 3.86082 4.78697 3.35449 4.78697 2.72158C4.78697 2.08867 4.30126 1.58234 3.69411 1.58234Z" fill="#161821"/>
<path d="M3.6946 6.34232C3.20888 6.34232 2.82031 5.93725 2.82031 5.43092C2.82031 4.9246 3.20888 4.51953 3.6946 4.51953C4.18031 4.51953 4.56889 4.9246 4.56889 5.43092C4.56889 5.93725 4.2046 6.34232 3.6946 6.34232ZM3.6946 4.7727C3.3546 4.7727 3.06317 5.07649 3.06317 5.43092C3.06317 5.78536 3.3546 6.08915 3.6946 6.08915C4.0346 6.08915 4.32603 5.78536 4.32603 5.43092C4.32603 5.07649 4.05888 4.7727 3.6946 4.7727Z" fill="#161821"/>
<path d="M4.39995 6.95835L3.84082 7.31543L5.29981 9.79797L5.85894 9.44089L4.39995 6.95835Z" fill="#161821"/>
<path d="M2.95411 6.94226L1.49512 9.4248L2.05424 9.78189L3.51323 7.29934L2.95411 6.94226Z" fill="#161821"/>
<path d="M3.98579 7.12598H3.33008V9.80952H3.98579V7.12598Z" fill="#161821"/>
</svg>
