<svg width="422" height="422" viewBox="0 0 422 422" fill="none" xmlns="http://www.w3.org/2000/svg">
<path d="M0.00110071 410.362C3.32855 405.696 3.32855 405.696 17.2921 403.999C17.3637 402.504 17.5046 400.921 17.5046 399.339C17.5178 369.816 17.5101 340.292 17.5178 310.768C17.52 301.672 20.2531 298.919 29.2778 298.913C45.0718 298.902 60.8659 298.896 76.66 298.915C85.098 298.925 87.9731 301.837 87.9764 310.39C87.9896 339.913 87.9819 369.437 87.9819 398.961C87.9819 400.587 87.9819 402.214 87.9819 404.111C99.6902 404.111 111.018 404.111 123.01 404.111C123.01 402.327 123.01 400.609 123.01 398.891C123.01 340.393 123.009 281.896 123.011 223.397C123.011 213.62 125.693 210.943 135.459 210.942C150.841 210.941 166.224 210.939 181.605 210.943C190.539 210.945 193.472 213.843 193.473 222.744C193.481 281.378 193.477 340.014 193.477 398.649C193.477 400.398 193.477 402.147 193.477 404.141C205.269 404.141 216.595 404.141 228.505 404.141C228.505 402.253 228.505 400.523 228.505 398.792C228.505 352.103 228.504 305.416 228.506 258.727C228.506 248.618 230.985 246.173 241.219 246.171C256.739 246.169 272.258 246.155 287.778 246.178C295.97 246.19 298.963 249.166 298.966 257.366C298.981 304.467 298.974 351.567 298.975 398.668C298.975 400.415 298.975 402.161 298.975 404.146C310.781 404.146 322.108 404.146 334.003 404.146C334.003 402.24 334.003 400.507 334.003 398.773C334.003 317.069 334.003 235.364 334.005 153.659C334.005 152.149 333.933 150.627 334.086 149.131C334.616 143.978 337.817 140.787 343.009 140.756C360.45 140.653 377.893 140.653 395.334 140.75C400.732 140.779 403.938 144.022 404.411 149.418C404.542 150.918 404.468 152.437 404.468 153.947C404.47 235.514 404.47 317.082 404.47 398.649C404.47 400.398 404.47 402.147 404.47 404.388C406.813 404.388 408.698 404.383 410.581 404.389C417.217 404.414 420.647 406.506 421.761 411.202C422.755 415.388 420.652 418.919 415.39 421.898C279.125 421.898 142.859 421.898 6.59325 421.898C4.39513 419.701 2.19812 417.503 0 415.306C0.00110071 413.657 0.00110071 412.01 0.00110071 410.362ZM386.426 403.947C386.426 321.841 386.426 240.144 386.426 158.435C374.765 158.435 363.431 158.435 352.044 158.435C352.044 240.378 352.044 322.088 352.044 403.947C363.6 403.947 374.83 403.947 386.426 403.947ZM140.967 228.701C140.967 287.297 140.967 345.453 140.967 403.756C152.624 403.756 164.041 403.756 175.526 403.756C175.526 345.26 175.526 287.104 175.526 228.701C163.969 228.701 152.644 228.701 140.967 228.701ZM280.956 403.847C280.956 357.053 280.956 310.511 280.956 263.888C269.326 263.888 257.995 263.888 246.526 263.888C246.526 310.647 246.526 357.198 246.526 403.847C258.149 403.847 269.469 403.847 280.956 403.847ZM69.9523 403.936C69.9523 374.614 69.9523 345.649 69.9523 316.634C58.3101 316.634 46.9838 316.634 35.5485 316.634C35.5485 345.826 35.5485 374.801 35.5485 403.936C47.0839 403.936 58.3068 403.936 69.9523 403.936Z" fill="#B8B4CC"/>
<path d="M0.00109863 415.307C2.19922 417.504 4.39623 419.702 6.59435 421.899C4.39623 421.899 2.19922 421.899 0.00109863 421.899C0.00109863 419.702 0.00109863 417.504 0.00109863 415.307Z" fill="white"/>
<path d="M228.861 134.753C216.001 131.066 203.504 127.425 190.949 123.987C189.912 123.703 188.033 124.431 187.325 125.314C173.765 142.208 156.111 145.283 137.064 133.674C129.352 139.8 121.528 146.004 113.718 152.223C104.587 159.493 95.5173 166.84 86.3077 174.008C84.2252 175.629 83.8212 176.876 84.901 179.425C93.0198 198.578 83.4084 220.152 64.0536 226.614C44.3321 233.198 23.422 221.811 18.6548 201.481C15.3472 187.377 19.5056 175.2 30.7296 166.127C42.0988 156.936 54.9309 155.719 68.1999 161.888C70.7239 163.061 72.1867 162.957 74.3232 161.234C91.4183 147.449 108.626 133.803 126.046 119.918C123.13 112.343 122.14 104.612 124.266 96.6336C128.543 80.582 143.748 69.2634 159.734 70.3377C177.419 71.5264 191.08 83.9986 192.932 101.186C193.372 105.263 194.818 106.966 198.721 107.98C210.264 110.977 221.673 114.487 233.187 117.601C234.581 117.977 236.818 117.714 237.788 116.81C251.102 104.399 264.707 102.193 280.728 109.788C299.938 90.5863 319.024 71.5088 338.39 52.1506C333.861 43.6014 332.562 33.9317 335.986 23.8745C342.364 5.14925 362.781 -4.62505 381.254 2.15092C399.803 8.95551 409.157 29.6004 401.988 47.914C394.752 66.3971 373.62 75.3184 355.377 67.2898C352.165 65.8765 350.447 66.2188 348.065 68.6283C330.978 85.9182 313.75 103.069 296.53 120.228C294.98 121.773 294.075 122.886 295.26 125.411C301.882 139.537 299.114 155.049 288.402 165.624C277.913 175.979 262.264 178.64 248.777 172.36C235.189 166.033 227.51 152.282 228.854 136.699C228.901 136.163 228.861 135.622 228.861 134.753ZM386.719 34.9378C386.638 25.2361 378.664 17.3858 369.039 17.5322C359.333 17.6797 351.681 25.5597 351.756 35.3285C351.83 45.0214 359.751 52.81 369.434 52.7098C379.095 52.6096 386.8 44.6867 386.719 34.9378ZM246.26 140.743C246.307 150.455 254.171 158.25 263.86 158.189C273.522 158.127 281.272 150.232 281.226 140.496C281.18 130.839 273.203 122.919 263.614 123.01C253.95 123.102 246.211 131.009 246.26 140.743ZM70.2307 193.148C70.1471 183.501 62.1009 175.59 52.5324 175.75C42.8231 175.913 35.1852 183.795 35.2678 193.568C35.3504 203.27 43.2567 211.033 52.9529 210.929C62.6138 210.825 70.3155 202.899 70.2307 193.148ZM175.724 105.441C175.732 95.6573 168.034 87.9765 158.228 87.982C148.415 87.9875 140.761 95.6507 140.763 105.467C140.765 115.268 148.456 122.946 158.262 122.938C168.043 122.931 175.716 115.243 175.724 105.441Z" fill="#B8B4CC"/>
</svg>
