<svg width="296" height="343" viewBox="0 0 296 343" fill="none" xmlns="http://www.w3.org/2000/svg">
<path d="M258.124 0C265.992 3.01822 268.842 8.80681 268.414 17.0678C267.976 25.5059 268.317 33.9843 268.317 42.8994C272.685 42.8994 276.769 42.8878 280.853 42.9021C290.499 42.9334 295.78 48.16 295.781 57.7811C295.792 147.855 295.791 237.928 295.782 328.002C295.781 337.836 290.557 342.996 280.663 342.997C220.269 343.001 159.875 343.001 99.4808 342.997C89.5868 342.996 84.3995 337.848 84.3727 327.983C84.3468 318.85 84.3673 309.716 84.3673 300.1C80.0167 300.1 75.9381 300.112 71.8596 300.097C62.2125 300.065 56.9134 294.845 56.9116 285.228C56.8973 195.155 56.9376 105.08 56.8418 15.007C56.8346 7.34378 60.3692 2.6943 67.1662 0C130.819 0 194.471 0 258.124 0ZM64.5498 149.92C64.5498 194.682 64.5489 239.444 64.5507 284.206C64.5507 290.704 66.1077 292.251 72.6559 292.251C132.609 292.252 192.563 292.252 252.515 292.251C259.209 292.251 260.689 290.741 260.689 283.919C260.691 194.618 260.691 105.318 260.689 16.0164C260.689 9.29091 259.153 7.75003 252.397 7.74913C192.556 7.74466 132.714 7.74466 72.8734 7.74913C66.0817 7.75003 64.5525 9.27032 64.5516 15.968C64.5489 60.6186 64.5498 105.269 64.5498 149.92ZM268.317 50.8642C268.317 52.6019 268.317 54.0247 268.317 55.4484C268.317 131.575 268.322 207.702 268.296 283.829C268.295 286.044 268.316 288.349 267.752 290.458C266.084 296.69 260.878 300.093 253.425 300.095C201.065 300.103 148.705 300.099 96.3445 300.099C94.9539 300.099 93.5625 300.099 92.0171 300.099C92.0171 309.353 92.0154 318.052 92.018 326.749C92.0198 333.768 93.4658 335.248 100.398 335.248C160.126 335.253 219.855 335.252 279.583 335.249C286.735 335.249 288.161 333.802 288.161 326.591C288.161 237.516 288.161 148.441 288.158 59.3659C288.158 58.1391 288.244 56.8899 288.047 55.6908C287.632 53.1684 286.274 51.0718 283.618 50.9367C278.646 50.6843 273.652 50.8642 268.317 50.8642Z" fill="black"/>
<path d="M0.693169 214.876C0.692274 182.619 0.66364 150.361 0.752227 118.104C0.75849 115.728 1.25153 113.212 2.13114 111.005C6.96048 98.8967 11.8954 86.8274 17.0415 74.8511C17.6956 73.3281 19.7385 71.611 21.2525 71.4964C22.4847 71.4034 24.4918 73.3165 25.1208 74.7831C30.5685 87.4797 35.805 100.268 41.0289 113.059C41.5157 114.25 41.6625 115.653 41.6625 116.959C41.666 182.032 41.6472 247.105 41.5971 312.178C41.59 321.553 35.6654 327.464 26.3628 327.56C22.9026 327.595 19.4414 327.592 15.9811 327.561C6.51933 327.478 0.717328 321.75 0.707485 312.319C0.673482 279.838 0.693169 247.357 0.693169 214.876ZM8.51925 119.179C8.51925 176.683 8.51925 233.963 8.51925 291.362C16.9968 291.362 25.2721 291.362 33.5339 291.362C33.5339 233.8 33.5339 176.514 33.5339 119.179C25.0967 119.179 16.8957 119.179 8.51925 119.179ZM8.36714 299.601C8.36714 304.498 8.19891 309.056 8.41993 313.595C8.59889 317.269 11.065 319.554 14.706 319.66C19.0459 319.787 23.3965 319.786 27.7364 319.64C30.9157 319.532 33.4722 317.336 33.6145 314.323C33.8435 309.473 33.6762 304.604 33.6762 299.601C25.1763 299.601 16.9762 299.601 8.36714 299.601ZM31.8526 111.036C28.2661 102.382 24.8327 94.0969 21.0825 85.0485C17.3109 94.1855 13.8926 102.464 10.3536 111.036C17.6214 111.036 24.4748 111.036 31.8526 111.036Z" fill="black"/>
<path d="M105.442 224.425C119.349 224.492 130.761 236.001 130.689 249.886C130.618 263.752 119.073 275.237 105.238 275.204C91.1739 275.171 79.7811 263.631 79.8795 249.516C79.978 235.609 91.4406 224.357 105.442 224.425ZM122.851 249.758C122.838 239.954 115.024 232.163 105.231 232.188C95.4512 232.213 87.5866 240.072 87.5982 249.807C87.6108 259.54 95.4888 267.364 105.276 267.367C115.061 267.367 122.865 259.549 122.851 249.758Z" fill="black"/>
<path d="M79.8809 50.3321C79.8567 36.389 91.1825 24.9577 105.114 24.8629C119.109 24.768 130.773 36.4025 130.692 50.3769C130.612 64.2707 119.112 75.6967 105.237 75.668C91.2934 75.6394 79.9051 64.26 79.8809 50.3321ZM122.853 50.4449C122.918 40.5965 115.231 32.7713 105.429 32.7087C95.5805 32.646 87.7267 40.3057 87.6005 50.0968C87.4752 59.81 95.295 67.7533 105.079 67.8527C114.89 67.9511 122.787 60.2163 122.853 50.4449Z" fill="black"/>
<path d="M105.33 208.61C91.3096 208.634 79.9373 197.385 79.8791 183.436C79.821 169.282 91.1646 157.942 105.346 157.978C119.315 158.013 130.7 169.379 130.696 183.286C130.691 197.168 119.254 208.586 105.33 208.61ZM122.851 183.455C122.915 173.667 115.167 165.724 105.433 165.6C95.7944 165.476 87.7348 173.385 87.5987 183.097C87.4645 192.743 95.3881 200.833 105.074 200.938C114.776 201.043 122.787 193.164 122.851 183.455Z" fill="black"/>
<path d="M105.395 142.098C91.35 142.144 79.9545 130.934 79.8793 116.999C79.8023 102.855 91.1889 91.3788 105.281 91.3985C119.195 91.4181 130.651 102.832 130.692 116.716C130.732 130.617 119.334 142.053 105.395 142.098ZM122.854 116.844C122.879 107.06 115.066 99.1744 105.322 99.1503C95.5771 99.1252 87.6481 106.979 87.598 116.704C87.5479 126.368 95.4858 134.38 105.186 134.457C114.857 134.535 122.829 126.588 122.854 116.844Z" fill="black"/>
<path d="M193.51 39.4027C178.232 39.4027 162.954 39.409 147.675 39.3902C146.459 39.3884 144.933 39.6345 144.103 39.0197C142.925 38.1482 141.626 36.6127 141.568 35.3089C141.518 34.1886 142.934 32.6862 144.083 31.9319C144.973 31.3476 146.451 31.5802 147.667 31.5802C178.112 31.5659 208.557 31.5686 239.002 31.5731C240.004 31.5731 241.276 31.2518 241.95 31.7368C243.263 32.6808 245.195 34.16 245.113 35.2901C245.011 36.6932 243.275 38.1509 241.949 39.2175C241.325 39.7204 240.011 39.3974 239.009 39.3983C223.844 39.4045 208.676 39.4027 193.51 39.4027Z" fill="black"/>
<path d="M193.181 54.1789C177.902 54.1789 162.623 54.1842 147.344 54.1681C146.239 54.1672 144.809 54.4106 144.101 53.8371C142.945 52.9002 141.63 51.4139 141.568 50.103C141.515 48.9889 142.933 47.4892 144.079 46.734C144.97 46.1461 146.445 46.3591 147.66 46.3582C178.106 46.3429 208.552 46.3456 238.998 46.3465C239.779 46.3465 240.566 46.2991 241.338 46.3814C243.756 46.6391 245.401 47.8659 245.311 50.4278C245.228 52.7892 243.647 53.9802 241.358 54.1449C240.027 54.2406 238.683 54.1771 237.345 54.178C222.623 54.1798 207.903 54.1789 193.181 54.1789Z" fill="black"/>
<path d="M193.195 105.847C177.918 105.847 162.642 105.849 147.366 105.844C146.364 105.844 145.033 106.182 144.429 105.676C143.202 104.649 141.683 103.2 141.589 101.835C141.512 100.723 143.144 99.1835 144.378 98.3951C145.274 97.8225 146.757 98.1088 147.978 98.1088C178.197 98.0981 208.414 98.0981 238.632 98.1079C239.854 98.1079 241.376 97.7911 242.228 98.3844C243.517 99.2819 245.18 100.886 245.126 102.123C245.072 103.388 243.282 104.769 241.973 105.712C241.305 106.193 240.026 105.845 239.023 105.845C223.747 105.848 208.471 105.847 193.195 105.847Z" fill="black"/>
<path d="M193.499 245.884C208.664 245.884 223.83 245.881 238.996 245.89C240.108 245.891 241.542 245.557 242.261 246.112C243.522 247.087 245.05 248.587 245.133 249.948C245.202 251.069 243.511 252.555 242.274 253.407C241.494 253.945 240.116 253.668 239.005 253.668C208.563 253.678 178.12 253.678 147.677 253.668C146.566 253.668 145.186 253.949 144.408 253.41C143.185 252.565 141.528 251.084 141.594 249.961C141.672 248.597 143.158 247.085 144.403 246.105C145.111 245.548 146.555 245.89 147.667 245.889C162.945 245.881 178.222 245.884 193.499 245.884Z" fill="black"/>
<path d="M193.432 231.122C208.708 231.122 223.983 231.12 239.259 231.127C240.26 231.127 241.575 230.802 242.197 231.305C243.449 232.314 245.024 233.735 245.134 235.093C245.224 236.203 243.531 237.668 242.33 238.588C241.669 239.094 240.393 238.86 239.396 238.861C208.622 238.871 177.847 238.869 147.074 238.867C146.405 238.867 145.731 238.887 145.069 238.809C142.759 238.533 141.315 237.313 141.392 234.887C141.468 232.489 142.936 231.254 145.264 231.155C147.491 231.061 149.723 231.123 151.953 231.122C165.781 231.121 179.607 231.122 193.432 231.122Z" fill="black"/>
<path d="M193.471 120.609C178.173 120.609 162.876 120.61 147.578 120.607C146.574 120.607 145.278 120.959 144.627 120.47C143.349 119.51 141.622 118.09 141.594 116.828C141.567 115.597 143.278 114.131 144.526 113.151C145.17 112.645 146.467 112.931 147.469 112.931C178.065 112.924 208.661 112.923 239.256 112.932C240.257 112.932 241.56 112.657 242.197 113.166C243.448 114.166 245.171 115.659 245.126 116.891C245.081 118.149 243.29 119.536 241.984 120.478C241.315 120.96 240.034 120.607 239.029 120.608C223.844 120.61 208.657 120.609 193.471 120.609Z" fill="black"/>
<path d="M193.472 172.29C178.176 172.29 162.879 172.292 147.583 172.288C146.579 172.288 145.291 172.626 144.632 172.137C143.356 171.191 141.612 169.779 141.596 168.54C141.58 167.295 143.276 165.83 144.527 164.851C145.163 164.352 146.47 164.683 147.474 164.682C178.067 164.677 208.659 164.678 239.252 164.678C239.476 164.678 239.698 164.676 239.922 164.679C243.571 164.72 245.558 166.078 245.329 168.598C245.037 171.8 242.771 172.319 240.032 172.312C224.512 172.267 208.992 172.289 193.472 172.29Z" fill="black"/>
<path d="M193.467 187.074C178.17 187.074 162.874 187.076 147.577 187.068C146.463 187.068 145.059 187.397 144.3 186.855C143.095 185.996 141.583 184.541 141.57 183.323C141.558 182.09 143.017 180.586 144.203 179.692C144.935 179.139 146.359 179.46 147.473 179.46C178.066 179.452 208.659 179.454 239.252 179.455C240.145 179.455 241.328 179.132 241.872 179.576C243.191 180.651 244.97 182.014 245.111 183.409C245.221 184.492 243.28 185.995 241.975 186.924C241.299 187.407 240.025 187.07 239.021 187.07C223.837 187.075 208.652 187.074 193.467 187.074Z" fill="black"/>
<path d="M174.81 68.9771C165.451 68.9771 156.091 68.9914 146.731 68.97C143.088 68.9619 141.241 67.5991 141.393 64.9728C141.583 61.6996 143.913 61.134 146.586 61.134C165.418 61.1314 184.248 61.1376 203.08 61.126C205.817 61.1242 208.041 61.8821 208.318 65.0041C208.539 67.5007 206.457 68.9628 202.891 68.9709C193.53 68.9905 184.17 68.9771 174.81 68.9771Z" fill="black"/>
<path d="M174.534 268.515C165.508 268.515 156.482 268.524 147.456 268.504C146.351 268.501 144.947 268.729 144.211 268.163C143.034 267.256 141.567 265.766 141.582 264.539C141.597 263.3 143.13 261.925 144.271 260.921C144.803 260.453 145.981 260.66 146.866 260.659C165.476 260.647 184.085 260.65 202.695 260.651C203.252 260.651 203.812 260.629 204.365 260.681C206.664 260.897 208.237 262.125 208.298 264.443C208.364 266.958 206.717 268.301 204.286 268.461C202.178 268.6 200.053 268.514 197.936 268.515C190.134 268.517 182.334 268.515 174.534 268.515Z" fill="black"/>
<path d="M174.736 135.402C165.022 135.397 155.309 135.405 145.595 135.392C143.112 135.389 141.458 134.248 141.4 131.649C141.342 129.042 142.935 127.853 145.436 127.761C146.328 127.728 147.222 127.733 148.115 127.733C159.168 127.732 170.222 127.733 181.276 127.733C188.198 127.733 195.121 127.726 202.044 127.735C206.415 127.741 208.301 128.875 208.357 131.497C208.415 134.158 206.47 135.404 202.204 135.407C193.047 135.411 183.891 135.407 174.736 135.402Z" fill="black"/>
<path d="M174.372 201.938C165.551 201.938 156.73 201.941 147.908 201.935C146.904 201.934 145.893 201.949 144.898 201.842C142.695 201.605 141.394 200.363 141.395 198.12C141.395 195.725 142.764 194.347 145.128 194.279C148.921 194.17 152.719 194.228 156.516 194.228C171.59 194.225 186.665 194.226 201.739 194.228C202.632 194.228 203.527 194.214 204.418 194.253C206.818 194.356 208.256 195.733 208.299 198.013C208.342 200.318 206.892 201.791 204.518 201.851C200.054 201.961 195.587 201.928 191.121 201.936C185.539 201.946 179.956 201.938 174.372 201.938Z" fill="black"/>
<path d="M102.676 250.043C105.039 247.478 107.306 244.899 109.703 242.447C112.019 240.077 114.461 239.768 116.045 241.621C117.972 243.874 117.18 245.889 115.269 247.765C112.009 250.966 108.839 254.259 105.558 257.438C103.075 259.843 101.466 259.808 98.9539 257.44C97.5759 256.142 96.2695 254.767 94.9282 253.428C93.083 251.586 92.5578 249.53 94.555 247.584C96.5344 245.655 98.5933 246.232 100.443 248.02C100.999 248.557 101.587 249.058 102.676 250.043Z" fill="black"/>
<path d="M102.451 50.3801C105.124 47.6187 107.587 45.0434 110.085 42.5021C111.897 40.6588 113.989 40.1022 115.95 42.069C117.891 44.0153 117.396 46.0984 115.558 47.9417C112.173 51.3367 108.795 54.737 105.393 58.1149C103.238 60.2544 101.089 60.1318 98.9843 58.0075C97.6501 56.6608 96.3043 55.3267 94.9647 53.9862C93.1411 52.1617 92.5407 50.1144 94.495 48.1198C96.443 46.1315 98.5046 46.6693 100.377 48.4482C100.937 48.9815 101.509 49.5041 102.451 50.3801Z" fill="black"/>
<path d="M102.779 183.621C105.117 181.011 107.329 178.393 109.706 175.934C111.969 173.593 114.488 173.312 116.055 175.15C117.977 177.405 117.165 179.418 115.274 181.282C112.029 184.481 108.862 187.758 105.589 190.929C103.187 193.256 101.369 193.23 98.9684 190.959C97.5161 189.585 96.1148 188.154 94.7278 186.714C93.0062 184.928 92.6823 182.932 94.5167 181.126C96.3144 179.356 98.3107 179.617 100.149 181.275C100.799 181.862 101.456 182.441 102.779 183.621Z" fill="black"/>
<path d="M102.459 116.937C105.16 114.121 107.596 111.526 110.094 108.995C111.896 107.168 113.986 106.622 115.954 108.592C117.918 110.559 117.361 112.641 115.56 114.462C112.195 117.866 108.822 121.264 105.402 124.612C103.269 126.699 101.085 126.62 98.9758 124.503C97.6399 123.163 96.2905 121.837 94.9563 120.495C93.1452 118.673 92.5394 116.612 94.4838 114.628C96.4131 112.659 98.4837 113.139 100.349 114.954C100.901 115.49 101.47 116.009 102.459 116.937Z" fill="black"/>
</svg>
