<svg width="335" height="335" viewBox="0 0 335 335" fill="none" xmlns="http://www.w3.org/2000/svg">
<g clip-path="url(#clip0_288_16490)">
<path d="M335 104.43C335 170.835 335 237.242 335 303.648C334.79 304.24 334.51 304.817 334.38 305.426C331.39 319.457 323.05 328.738 309.532 333.39C307.616 334.049 305.616 334.47 303.655 335C213.101 335 122.546 335 31.9925 335C31.7212 334.835 31.4638 334.561 31.1751 334.523C15.506 332.483 0.474603 318.126 0.556608 297.161C0.805241 234.039 0.646465 170.916 0.646465 107.793C0.646465 106.643 0.646465 105.492 0.646465 104.144C2.42354 104.144 3.72253 104.144 5.0224 104.144C113.723 104.144 222.423 104.143 331.123 104.157C332.415 104.157 333.708 104.334 335 104.43ZM109.451 251.483C109.451 245.069 109.487 238.654 109.441 232.24C109.389 224.799 105.578 220.947 98.1882 220.924C85.145 220.884 72.1009 220.882 59.0569 220.925C51.6947 220.949 47.8291 224.869 47.8134 232.264C47.7864 245.202 47.7899 258.14 47.8117 271.078C47.8248 278.655 51.6938 282.557 59.2444 282.575C72.1794 282.605 85.1144 282.606 98.0495 282.575C105.611 282.556 109.405 278.704 109.444 271.054C109.479 264.53 109.452 258.007 109.451 251.483ZM287.839 251.681C287.839 245.049 287.889 238.416 287.825 231.785C287.761 224.996 283.846 220.977 277.087 220.938C263.717 220.859 250.347 220.862 236.978 220.935C230.19 220.973 226.255 224.926 226.218 231.74C226.147 245.112 226.138 258.486 226.223 271.858C226.265 278.62 230.272 282.532 237.095 282.564C250.355 282.625 263.617 282.623 276.878 282.565C283.823 282.534 287.771 278.532 287.828 271.577C287.882 264.946 287.839 258.313 287.839 251.681ZM137.08 251.67C137.08 258.41 137.052 265.151 137.087 271.891C137.121 278.302 140.971 282.483 147.291 282.539C160.985 282.659 174.682 282.659 188.376 282.538C194.584 282.483 198.526 278.357 198.549 272.195C198.598 258.605 198.594 245.016 198.552 231.427C198.532 225.036 194.637 220.999 188.191 220.95C174.605 220.846 161.017 220.845 147.432 220.951C140.997 221.002 137.133 225.054 137.091 231.45C137.046 238.19 137.08 244.93 137.08 251.67ZM78.7128 137.04C71.8654 137.04 65.0171 136.997 58.1696 137.053C52.0201 137.103 47.8919 141.056 47.8448 147.242C47.7393 160.939 47.7393 174.638 47.8448 188.336C47.8928 194.509 52.0314 198.497 58.1775 198.519C71.7642 198.569 85.3509 198.565 98.9376 198.523C105.33 198.503 109.357 194.628 109.411 188.165C109.522 174.576 109.525 160.985 109.41 147.397C109.354 140.797 105.315 137.075 98.6034 137.045C91.9732 137.015 85.343 137.038 78.7128 137.04ZM256.929 198.535C263.777 198.535 270.625 198.579 277.473 198.522C283.619 198.47 287.748 194.523 287.799 188.329C287.911 174.631 287.912 160.932 287.799 147.235C287.748 141.042 283.615 137.075 277.467 137.055C263.881 137.007 250.294 137.012 236.707 137.051C230.305 137.07 226.284 140.944 226.234 147.404C226.129 160.992 226.129 174.583 226.234 188.172C226.284 194.621 230.313 198.48 236.713 198.524C243.451 198.572 250.19 198.536 256.929 198.535ZM160.099 169.249C157.282 166.166 154.896 163.181 152.123 160.614C148.113 156.9 142.263 157.179 138.591 160.925C135.024 164.563 134.69 170.405 138.284 174.233C143.343 179.619 148.581 184.852 153.987 189.889C157.75 193.396 163.112 193.485 166.734 189.962C177.098 179.88 187.331 169.659 197.42 159.302C201.058 155.567 200.588 149.609 196.968 146.019C193.235 142.319 187.366 142.135 183.424 145.836C179.542 149.481 175.852 153.333 172.097 157.111C168.275 160.955 164.476 164.819 160.099 169.249Z" fill="#B8B4CC"/>
<path d="M335 52.8281C335 63.4966 335 74.1651 335 84.8337C333.49 84.7386 331.98 84.5606 330.471 84.5606C222.093 84.5475 113.714 84.5484 5.33643 84.5484C3.84289 84.5484 2.35022 84.5484 0.761589 84.5484C0.761589 74.2288 0.226811 64.3001 0.881108 54.4499C1.9908 37.7339 14.9267 24.0233 31.5781 22.1669C40.8281 21.1357 50.2552 21.6853 59.6029 21.5283C60.8618 21.5073 62.1207 21.5256 63.561 21.5256C63.561 17.6618 63.5305 14.2926 63.5689 10.9234C63.6133 7.05783 65.12 3.92593 68.5188 1.93338C75.1804 -1.97146 83.0233 2.70807 83.1035 10.7917C83.2353 24.1777 83.1192 37.5655 83.1585 50.9524C83.1777 57.6568 87.0764 62.0397 92.9128 62.0737C98.7997 62.1078 102.695 57.7955 102.726 51.092C102.766 42.4937 102.737 33.8962 102.738 25.2979C102.738 24.1359 102.738 22.9729 102.738 21.3913C110.928 21.3913 118.685 21.3913 126.613 21.3913C126.613 17.3879 126.551 13.8049 126.63 10.2255C126.724 5.99351 128.827 2.96804 132.679 1.34189C139.318 -1.46024 146.122 3.45833 146.168 11.1485C146.248 24.5345 146.174 37.9223 146.201 51.3092C146.214 57.7641 150.109 62.0467 155.888 62.0711C161.651 62.0955 165.73 57.7658 165.768 51.4226C165.822 42.7161 165.782 34.0088 165.783 25.3022C165.783 24.1428 165.783 22.9843 165.783 21.4864C173.844 21.4864 181.509 21.4864 189.043 21.4864C189.248 20.9507 189.385 20.7579 189.388 20.5634C189.421 17.4079 189.229 14.2333 189.531 11.1049C189.732 9.00938 190.25 6.76122 191.293 4.96932C193.408 1.33317 197.883 -0.173457 201.78 0.942337C206.283 2.23261 209.002 5.71783 209.022 10.6024C209.078 24.3156 209 38.0296 209.071 51.7428C209.103 57.8339 213.29 62.0973 218.938 62.072C224.605 62.0467 228.591 57.8112 228.624 51.6407C228.671 42.8252 228.637 34.0096 228.638 25.1932C228.638 24.0451 228.638 22.8962 228.638 21.448C236.807 21.448 244.485 21.448 252.503 21.448C252.503 18.0169 252.484 14.885 252.507 11.7531C252.558 5.02253 256.372 0.628275 262.178 0.581165C267.953 0.534056 271.979 5.00334 272.089 11.5952C272.107 12.683 272.092 13.7718 272.092 14.8605C272.093 27.0505 272.128 39.2405 272.077 51.4296C272.06 55.3179 273.338 58.4882 276.676 60.5872C279.767 62.5309 283.072 62.6731 286.307 60.9946C290.064 59.0448 291.658 55.7218 291.671 51.5997C291.699 42.7842 291.675 33.9686 291.693 25.1522C291.695 24.0085 291.813 22.8656 291.884 21.6111C295.165 21.6111 298.106 21.393 301.005 21.6478C315.449 22.9154 325.879 30.1065 331.944 43.3059C333.325 46.313 333.999 49.6456 335 52.8281Z" fill="#B8B4CC"/>
<path d="M89.7006 240.76C89.7006 248.194 89.7006 255.334 89.7006 262.732C82.3263 262.732 75.1124 262.732 67.6447 262.732C67.6447 255.464 67.6447 248.242 67.6447 240.76C74.8969 240.76 82.1195 240.76 89.7006 240.76Z" fill="#B8B4CC"/>
<path d="M268.062 240.72C268.062 248.282 268.062 255.425 268.062 262.776C260.654 262.776 253.436 262.776 246 262.776C246 255.381 246 248.159 246 240.72C253.404 240.72 260.622 240.72 268.062 240.72Z" fill="#B8B4CC"/>
<path d="M178.869 240.759C178.869 248.162 178.869 255.323 178.869 262.736C171.562 262.736 164.347 262.736 156.9 262.736C156.9 255.474 156.9 248.246 156.9 240.759C164.087 240.759 171.301 240.759 178.869 240.759Z" fill="#B8B4CC"/>
<path d="M89.6613 156.913C89.6613 164.199 89.6613 171.426 89.6613 178.764C82.2259 178.764 74.9946 178.764 67.5793 178.764C67.5793 171.459 67.5793 164.326 67.5793 156.913C74.8908 156.913 82.1893 156.913 89.6613 156.913Z" fill="#B8B4CC"/>
<path d="M268.09 156.883C268.09 164.174 268.09 171.306 268.09 178.689C260.788 178.689 253.567 178.689 246.063 178.689C246.063 171.55 246.063 164.343 246.063 156.883C253.263 156.883 260.483 156.883 268.09 156.883Z" fill="#B8B4CC"/>
</g>
<defs>
<clipPath id="clip0_288_16490">
<rect width="335" height="335" fill="white"/>
</clipPath>
</defs>
</svg>
