<svg width="330" height="368" viewBox="0 0 330 368" fill="none" xmlns="http://www.w3.org/2000/svg">
<path d="M171.754 0C181.014 2.246 190.745 3.349 199.449 6.94C232.461 20.562 252.569 45.226 258.718 80.563C265.545 119.795 246.279 159.79 210.745 178.857C176.151 197.419 141.696 195.52 109.436 173.071C83.532 155.045 69.891 129.285 69.301 97.753C68.646 62.709 83.787 35.187 112.782 15.519C125.581 6.837 139.925 2.075 155.323 0.52C156.02 0.45 156.696 0.178 157.382 0C162.173 0 166.964 0 171.754 0Z" fill="#B8B4CC"/>
<path d="M169.882 367.927C122.328 367.531 84.403 355.331 50.929 330.381C31.191 315.669 14.671 297.747 1.84702 276.581C-0.0879781 273.388 -0.696978 270.193 0.964022 266.718C17.622 231.879 44.548 209.545 82.079 200.156C84.975 199.432 87.95 199.028 90.873 198.408C96.67 197.177 101.611 198.918 106.354 202.256C125.213 215.529 146.282 221.474 169.263 220.511C186.947 219.77 203.961 215.485 218.196 205.023C228.808 197.224 238.999 197.723 250.34 200.881C282.345 209.792 306.466 228.88 323.508 257.199C330.898 269.479 331.176 269.716 323.274 281.603C304.137 310.392 279.404 333.116 248.192 348.242C219.944 361.933 192.755 367.975 169.882 367.927Z" fill="#B8B4CC"/>
</svg>
