<svg width="144" height="143" viewBox="0 0 144 143" fill="none" xmlns="http://www.w3.org/2000/svg">
<path d="M0.00255051 32.4313C0.00255051 24.1097 -0.00233151 15.7885 0.0041777 7.46684C0.00783913 2.61748 2.59322 0.00687554 7.40556 0.00524823C24.1525 -0.000447327 40.8995 -0.000447327 57.6465 0.00524823C62.3929 0.00687554 65.032 2.61585 65.0344 7.32811C65.0434 24.1231 65.0434 40.9185 65.0344 57.7135C65.032 62.3615 62.397 65.0221 57.7852 65.0249C40.9369 65.0355 24.0883 65.0359 7.23998 65.0249C2.6461 65.0221 0.0110938 62.3427 0.00539828 57.7005C-0.00477236 49.2771 0.00255051 40.8542 0.00255051 32.4313ZM13.0934 51.902C26.1191 51.902 39.0261 51.902 51.8956 51.902C51.8956 38.8896 51.8956 25.9843 51.8956 13.1038C38.904 13.1038 26.0325 13.1038 13.0934 13.1038C13.0934 26.0523 13.0934 38.9218 13.0934 51.902Z" fill="black"/>
<path d="M110.418 65.029C102.095 65.029 93.7726 65.0335 85.4502 65.0274C80.6057 65.0237 77.989 62.4322 77.9874 57.6227C77.9813 40.8782 77.9813 24.1341 77.9874 7.38953C77.989 2.64228 80.6 0.00767987 85.3131 0.00564574C102.111 -0.00167713 118.908 -0.00208395 135.706 0.00564574C140.35 0.00767987 143.013 2.64025 143.016 7.25243C143.027 24.0983 143.027 40.9441 143.016 57.79C143.012 62.3948 140.343 65.0197 135.69 65.0258C127.267 65.0367 118.842 65.029 110.418 65.029ZM129.93 13.1303C116.905 13.1303 103.997 13.1303 91.1278 13.1303C91.1278 26.1426 91.1278 39.0479 91.1278 51.9288C104.119 51.9288 116.991 51.9288 129.93 51.9288C129.93 38.98 129.93 26.1108 129.93 13.1303Z" fill="black"/>
<path d="M0.00209949 110.412C0.00209949 102.142 -0.000341528 93.8709 0.00291308 85.6002C0.00494721 80.538 2.53744 77.9754 7.54709 77.9746C24.1928 77.9714 40.838 77.9714 57.4837 77.9746C62.5068 77.9754 65.0364 80.5262 65.0373 85.592C65.0405 102.184 65.0405 118.776 65.0373 135.368C65.0364 140.489 62.5023 142.998 57.3393 142.999C40.7953 143 24.2514 143 7.70738 142.999C2.49391 142.998 0.00372695 140.485 0.00250648 135.224C0.000879172 126.954 0.00209949 118.683 0.00209949 110.412ZM51.907 129.913C51.907 116.883 51.907 103.978 51.907 91.1167C38.8902 91.1167 25.9832 91.1167 13.1068 91.1167C13.1068 104.109 13.1068 116.978 13.1068 129.913C26.0597 129.913 38.9308 129.913 51.907 129.913Z" fill="black"/>
<path d="M78.0093 111.37C77.6492 93.5694 91.2885 78.8065 109.381 78.0099C127.086 77.2305 142.258 91.2179 142.948 109.443C143.625 127.349 129.6 142.39 111.463 142.946C94.0313 143.481 78.7151 130.04 78.0093 111.37ZM110.566 90.9954C99.7936 90.9966 91.0297 99.686 91.0098 110.386C90.9895 121.214 99.6972 129.957 110.516 129.972C121.291 129.987 130.024 121.193 129.997 110.354C129.97 99.7348 121.197 90.9942 110.566 90.9954Z" fill="black"/>
</svg>
