<svg width="335" height="441" viewBox="0 0 335 441" fill="none" xmlns="http://www.w3.org/2000/svg">
<path d="M280.012 440.182C278.272 428.098 273.347 417.195 267.225 406.825C239.616 360.059 184.323 339.144 132.672 355.961C129.445 357.011 127.574 356.407 125.282 354.076C112.345 340.917 99.2356 327.929 86.1913 314.875C85.3024 313.985 84.4708 313.039 83.1908 311.667C84.8986 311.547 86.0961 311.39 87.2935 311.389C148.238 311.377 209.185 311.314 270.129 311.402C306.462 311.455 334.831 339.903 334.961 376.242C335.038 397.555 334.976 418.868 334.976 440.181C316.655 440.182 298.333 440.182 280.012 440.182Z" fill="#B8B4CC"/>
<path d="M0.0315074 440.181C0.0315074 418.865 -0.0522196 397.548 0.0533009 376.231C0.196671 347.524 18.8027 322.254 45.3296 314.734C46.7828 314.322 49.1868 314.565 50.1503 315.515C67.872 332.998 85.4423 350.635 103.034 368.249C103.223 368.437 103.278 368.757 103.392 369.016C98.1747 373.383 92.7232 377.499 87.789 382.162C71.7006 397.365 60.9914 415.813 55.4309 437.238C55.1832 438.193 55.1373 439.2 54.9974 440.181C36.6758 440.181 18.3531 440.181 0.0315074 440.181Z" fill="#B8B4CC"/>
<path d="M211.305 440.181C192.018 420.826 172.744 401.457 153.409 382.149C152.127 380.868 150.368 380.062 149.265 378.491C165.004 374.412 179.961 375.173 194.577 379.985C223.688 389.571 243.308 408.906 253.039 438.081C253.26 438.747 253.276 439.48 253.387 440.181C239.36 440.181 225.333 440.181 211.305 440.181Z" fill="#B8B4CC"/>
<path d="M81.6206 440.182C88.0964 418.777 100.931 402.197 119.629 390.05C121.513 388.826 122.927 387.95 125.101 390.153C141.068 406.341 157.203 422.36 173.267 438.451C173.74 438.925 174.01 439.6 174.374 440.18C143.457 440.182 112.539 440.182 81.6206 440.182Z" fill="#B8B4CC"/>
<path d="M167.16 103.576C132.538 103.576 97.9155 103.514 63.2945 103.673C59.8892 103.689 58.1286 102.621 56.758 99.6795C47.3964 79.5824 50.8901 60.8732 63.3243 43.5128C75.0589 27.1296 91.5648 16.8012 110.282 10.4241C154.87 -4.76741 198.822 -3.55622 241.336 17.9034C255.869 25.2394 268.041 35.6756 275.995 50.1973C284.66 66.0185 286.319 82.3386 278.505 99.137C277.004 102.362 275.213 103.69 271.453 103.672C236.69 103.507 201.924 103.576 167.16 103.576Z" fill="#B8B4CC"/>
<path d="M257.19 171.766C261.253 214.542 250.006 253.604 206.989 275.947C158.061 301.359 98.5096 275.079 81.8122 221.373C79.134 212.759 78.322 203.47 77.4744 194.415C76.785 187.049 77.3344 179.569 77.3344 171.476C105.293 188.728 135.899 193.682 167.573 193.674C199.127 193.665 229.634 188.798 257.19 171.766Z" fill="#B8B4CC"/>
<path d="M76.1163 129.512C137.599 129.512 197.483 129.512 257.661 129.512C257.326 136.646 253.666 141.745 248.735 146.089C241.42 152.534 232.725 156.516 223.579 159.524C198.018 167.934 171.797 169.518 145.207 166.697C129.064 164.986 113.187 161.82 98.7826 154.09C92.62 150.783 87.0125 146.083 81.9865 141.165C79.2682 138.506 78.3047 134.055 76.1163 129.512Z" fill="#B8B4CC"/>
</svg>
