<svg width="251" height="251" viewBox="0 0 251 251" fill="none" xmlns="http://www.w3.org/2000/svg">
<path d="M0 250.511C0 184.622 0 118.732 0 52.8424C10.3237 41.5241 20.6622 30.2193 30.9644 18.8814C36.6573 12.6162 42.2895 6.29584 47.9492 0C99.4863 0 151.024 0 202.561 0C203.065 0.629338 203.536 1.2887 204.077 1.88373C218.994 18.29 233.939 34.6718 248.795 51.1339C249.717 52.1566 250.439 53.7977 250.441 55.152C250.521 119.395 250.511 183.638 250.511 247.881C250.511 248.734 250.511 249.586 250.511 250.369C238.076 250.369 226.042 250.369 213.773 250.369C213.773 191.654 213.773 133.08 213.773 74.4556C154.649 74.4556 95.7618 74.4556 36.6352 74.4556C36.6352 133.192 36.6352 191.763 36.6352 250.511C24.2648 250.511 12.1321 250.511 0 250.511Z" fill="#B8B4CC"/>
<path d="M199.001 89.1282C199.001 94.0311 199.001 98.7214 199.001 103.535C149.837 103.535 100.807 103.535 51.5751 103.535C51.5751 98.7882 51.5751 94.0403 51.5751 89.1282C100.651 89.1282 149.742 89.1282 199.001 89.1282Z" fill="#B8B4CC"/>
<path d="M199.007 118.502C199.007 123.406 199.007 128.1 199.007 132.915C149.841 132.915 100.804 132.915 51.5708 132.915C51.5708 128.172 51.5708 123.421 51.5708 118.502C100.645 118.502 149.741 118.502 199.007 118.502Z" fill="#B8B4CC"/>
<path d="M51.5837 147.802C100.729 147.802 149.77 147.802 198.974 147.802C198.974 152.628 198.974 157.382 198.974 162.272C149.868 162.272 100.831 162.272 51.5837 162.272C51.5837 157.573 51.5837 152.821 51.5837 147.802Z" fill="#B8B4CC"/>
<path d="M198.959 191.674C149.736 191.674 100.692 191.674 51.5108 191.674C51.5108 186.872 51.5108 182.176 51.5108 177.281C100.576 177.281 149.678 177.281 198.959 177.281C198.959 181.961 198.959 186.717 198.959 191.674Z" fill="#B8B4CC"/>
<path d="M198.976 221.101C149.759 221.101 100.771 221.101 51.5794 221.101C51.5794 216.324 51.5794 211.57 51.5794 206.636C100.609 206.636 149.712 206.636 198.976 206.636C198.976 211.371 198.976 216.125 198.976 221.101Z" fill="#B8B4CC"/>
<path d="M51.4819 250.336C51.4819 245.482 51.4819 240.785 51.4819 235.957C100.694 235.957 149.799 235.957 199.02 235.957C199.02 240.767 199.02 245.464 199.02 250.336C149.903 250.336 100.798 250.336 51.4819 250.336Z" fill="#B8B4CC"/>
</svg>
