<svg width="343" height="342" viewBox="0 0 343 342" fill="none" xmlns="http://www.w3.org/2000/svg">
<path d="M0.00525241 164.571C0.00525241 129.341 -0.00637485 94.111 0.00842639 58.882C0.0232276 24.7545 24.8269 0.017444 59.0558 0.0100434C129.639 -0.0037006 200.221 -0.00264279 270.803 0.00898676C305.249 0.0153301 329.922 24.726 329.928 59.2055C329.937 105.915 329.931 152.625 329.928 199.333C329.928 200.652 330.015 201.987 329.852 203.287C329.424 206.705 326.616 209.206 323.362 208.958C319.879 208.692 317.814 206.688 317.317 203.239C317.131 201.944 317.243 200.605 317.242 199.286C317.239 152.182 317.286 105.077 317.219 57.9706C317.188 36.253 303.508 18.76 282.784 13.9116C279.095 13.0489 275.201 12.7254 271.403 12.7222C200.423 12.6545 129.445 12.645 58.4659 12.6862C31.9833 12.7021 12.7227 31.9585 12.7079 58.4284C12.6677 129.284 12.6656 200.14 12.7089 270.995C12.7248 297.425 32.0246 316.649 58.5367 316.675C105.592 316.724 152.646 316.688 199.701 316.691C201.023 316.691 202.369 316.568 203.661 316.77C207.099 317.308 209.099 319.378 209.321 322.867C209.527 326.127 207.015 328.871 203.574 329.288C202.401 329.43 201.198 329.354 200.009 329.354C152.954 329.357 105.899 329.373 58.8444 329.35C24.8893 329.334 0.0285126 304.523 0.0105397 270.655C-0.0095477 235.295 0.00525241 199.932 0.00525241 164.571Z" fill="black"/>
<path d="M279.297 342C243.963 341.973 215.639 313.545 215.739 278.209C215.837 243.527 244.383 215.363 279.444 215.356C314.152 215.35 342.75 244.056 342.614 278.763C342.477 313.685 314.1 342.026 279.297 342ZM329.926 278.871C329.945 250.895 307.274 228.054 279.457 228.024C251.228 227.994 228.46 250.597 228.425 278.688C228.39 306.542 251.101 329.26 279.072 329.354C306.896 329.446 329.907 306.604 329.926 278.871Z" fill="black"/>
<path d="M203.039 82.344C180.701 82.344 158.364 82.3451 136.027 82.3408C134.839 82.3408 133.619 82.4582 132.466 82.2415C129.059 81.6029 126.983 79.518 126.982 76.0123C126.98 72.5097 129.038 70.4111 132.454 69.7767C133.607 69.5632 134.826 69.6795 136.014 69.6784C180.689 69.6752 225.363 69.6752 270.037 69.6784C271.226 69.6784 272.445 69.5621 273.598 69.7735C277.016 70.4015 279.08 72.5033 279.085 75.9996C279.092 79.5011 277.015 81.5944 273.61 82.2394C272.458 82.4582 271.238 82.3398 270.049 82.3398C247.713 82.3451 225.376 82.344 203.039 82.344Z" fill="black"/>
<path d="M203.037 171.015C180.7 171.015 158.363 171.016 136.026 171.012C134.838 171.012 133.618 171.129 132.465 170.913C129.058 170.274 126.983 168.189 126.982 164.682C126.981 161.18 129.038 159.081 132.455 158.448C133.608 158.234 134.827 158.351 136.015 158.351C180.69 158.348 225.364 158.348 270.038 158.351C271.227 158.351 272.446 158.233 273.599 158.446C277.016 159.075 279.08 161.176 279.086 164.672C279.092 168.173 277.015 170.266 273.61 170.912C272.458 171.129 271.238 171.012 270.049 171.012C247.711 171.017 225.375 171.015 203.037 171.015Z" fill="black"/>
<path d="M101.51 75.9412C101.565 89.9094 90.1111 101.362 76.1081 101.34C62.2467 101.318 50.8741 90.069 50.7684 76.2753C50.6595 62.2385 61.9824 50.7379 75.9664 50.6819C90.0202 50.6237 101.454 61.9308 101.51 75.9412ZM88.8128 76.1759C88.8794 69.2468 83.329 63.5177 76.4052 63.3697C69.3376 63.2185 63.4583 68.9794 63.4731 76.0406C63.4879 82.9401 69.142 88.6005 76.0774 88.6587C82.942 88.7168 88.7462 83.0268 88.8128 76.1759Z" fill="black"/>
<path d="M101.511 164.708C101.526 178.661 90.0239 190.076 76.0135 190.012C62.1648 189.948 50.8345 178.657 50.7679 164.852C50.7002 150.826 62.0644 139.368 76.0611 139.353C90.1053 139.338 101.496 150.686 101.511 164.708ZM88.8134 164.533C88.713 157.612 83.0166 152.017 76.0896 152.035C69.0358 152.053 63.2876 157.975 63.4747 165.03C63.6566 171.916 69.4618 177.444 76.3952 177.334C83.2492 177.224 88.9128 171.387 88.8134 164.533Z" fill="black"/>
<path d="M76.0149 278.683C62.0013 278.62 50.6678 267.149 50.7682 253.131C50.8676 239.153 62.4126 227.87 76.4537 228.025C90.4472 228.18 101.668 239.711 101.509 253.773C101.355 267.519 89.8657 278.746 76.0149 278.683ZM88.8127 253.499C88.8687 246.57 83.3077 240.85 76.3839 240.713C69.3152 240.573 63.4455 246.344 63.474 253.406C63.5015 260.308 69.1619 265.956 76.0984 266.004C82.963 266.049 88.7577 260.351 88.8127 253.499Z" fill="black"/>
<path d="M162.193 247.02C171.049 247.02 179.903 247 188.758 247.027C193.758 247.043 196.66 249.404 196.659 253.354C196.658 257.292 193.742 259.673 188.75 259.678C170.776 259.699 152.802 259.699 134.828 259.678C129.828 259.672 126.929 257.296 126.934 253.345C126.938 249.389 129.826 247.042 134.835 247.027C143.955 247 153.075 247.02 162.193 247.02Z" fill="black"/>
<path d="M272.829 272.354C272.829 266.273 272.808 260.634 272.836 254.994C272.86 249.973 275.156 247.095 279.102 247.049C283.059 247.004 285.479 249.913 285.51 254.859C285.545 260.511 285.518 266.163 285.518 272.356C291.754 272.356 297.775 272.289 303.792 272.377C308.686 272.45 311.904 276.17 310.646 280.271C309.628 283.591 307.178 285.049 303.73 285.028C297.815 284.992 291.898 285.019 285.508 285.019C285.508 291.467 285.602 297.618 285.474 303.765C285.391 307.746 282.618 310.407 279.033 310.324C275.599 310.244 273.083 307.667 272.86 303.884C272.759 302.175 272.831 300.457 272.83 298.744C272.828 294.296 272.829 289.849 272.829 285.02C266.814 285.02 261.172 285.039 255.531 285.015C250.468 284.992 247.585 282.757 247.483 278.842C247.378 274.778 250.36 272.378 255.608 272.358C261.147 272.337 266.685 272.354 272.829 272.354Z" fill="black"/>
</svg>
