<svg width="345" height="345" viewBox="0 0 345 345" fill="none" xmlns="http://www.w3.org/2000/svg">
<path d="M158.591 345C150.961 343.243 144.373 339.762 141.174 332.273C139.595 328.575 138.762 324.337 138.597 320.302C138.224 311.248 138.565 302.168 138.388 293.103C138.362 291.726 137.462 289.944 136.381 289.08C130.279 284.201 127.201 277.934 127.088 270.188C127.017 265.29 127.075 260.389 127.075 254.559C124.092 257.526 121.709 259.933 119.285 262.302C115.877 265.631 113.747 265.854 109.816 263.209C105.092 260.03 100.413 256.782 95.2459 253.243C94.1403 258.372 93.1161 263.116 92.0972 267.862C91.8157 269.174 91.6441 270.516 91.2652 271.798C90.4152 274.672 88.5339 276.422 85.4398 276.443C78.0513 276.492 70.6609 276.526 63.2724 276.436C59.7466 276.393 57.9359 274.727 57.102 271.002C55.8168 265.258 54.6219 259.496 53.2733 253.2C48.4766 256.493 44.0892 259.508 39.6992 262.52C34.528 266.068 32.8129 265.918 28.4005 261.512C23.6477 256.765 18.8787 252.034 14.1597 247.253C10.8261 243.877 10.6402 241.74 13.3044 237.782C16.4817 233.063 19.7161 228.383 23.2383 223.229C17.9662 222.101 13.1069 221.023 8.23157 220.028C0.846611 218.522 0.0127524 217.537 0.0127524 210.002C0.0127524 203.956 -0.0238909 197.91 0.0270522 191.865C0.0610142 187.802 1.56964 185.932 5.52533 185.051C11.1872 183.789 16.8695 182.617 23.0819 181.292C22.3687 180.147 21.8486 179.242 21.2632 178.383C18.4282 174.221 15.5754 170.073 12.7306 165.919C10.8046 163.106 11.029 160.385 13.3715 157.998C18.8608 152.406 24.3787 146.838 30.0075 141.386C32.6324 138.844 34.9606 138.806 38.2013 140.979C43.099 144.264 47.926 147.653 53.2456 151.317C54.5111 145.393 55.6354 139.967 56.8348 134.559C57.9743 129.421 59.003 128.522 63.9597 127.886C65.2217 120.922 66.0528 113.91 67.7965 107.133C75.3611 77.7325 92.4154 55.3283 118.521 39.897C134.757 30.2992 152.457 25.7241 171.272 25.3193C171.943 25.305 172.644 25.2004 173.281 25.3532C180.8 27.1622 186.972 24.8429 192.405 19.5574C194.633 17.39 197.342 15.7071 199.878 13.8687C203.826 11.0079 206.731 11.3886 209.674 15.2343C213.619 20.3894 217.492 25.5981 221.367 30.8059C223.053 33.0725 224.968 34.8921 228.079 34.2209C231.347 33.5158 232.399 31.0338 232.821 28.0541C233.746 21.5209 234.649 14.9832 235.706 8.47054C236.489 3.64346 238.861 2.04367 243.685 2.73095C253.761 4.1663 263.835 5.62309 273.919 7.00123C279.801 7.8047 281.58 10.1517 280.703 16.1245C279.792 22.3208 278.963 28.5296 278.036 34.7241C277.604 37.6064 278.003 40.1544 280.726 41.7212C283.478 43.304 285.864 42.177 288.138 40.4574C293.227 36.6108 298.33 32.7838 303.456 28.9872C307.856 25.7268 310.614 26.1326 313.949 30.5521C320.083 38.6824 326.198 46.8262 332.282 54.9932C335.644 59.5065 335.287 62.1225 330.861 65.4874C325.783 69.3484 320.669 73.162 315.543 76.9586C313.117 78.755 311.474 80.8946 312.398 84.0825C313.278 87.1177 315.736 87.9846 318.575 88.3635C324.894 89.2063 331.189 90.2395 337.517 91.0019C340.417 91.3513 342.42 92.8036 344.045 95.038C344.045 96.6056 344.045 98.1741 344.045 99.7417C342.926 106.783 341.789 113.822 340.697 120.867C340.183 124.183 339.814 127.522 339.277 130.834C338.587 135.09 335.962 136.966 331.65 136.357C325.004 135.418 318.36 134.466 311.722 133.484C308.985 133.079 306.547 133.425 304.942 135.973C303.248 138.66 304.065 141.069 305.826 143.392C309.747 148.567 313.652 153.753 317.52 158.966C320.796 163.381 320.384 166.129 315.956 169.462C307.819 175.589 299.671 181.7 291.502 187.786C287.025 191.12 284.325 190.745 280.994 186.356C277.137 181.273 273.294 176.18 269.503 171.048C267.788 168.726 265.748 167.061 262.718 167.784C259.515 168.549 258.493 171.12 258.084 174.079C257.196 180.506 256.28 186.929 255.356 193.352C254.687 198.01 252.446 199.907 247.821 199.293C237.176 197.882 226.54 196.388 215.926 194.765C211.153 194.036 209.618 191.861 210.213 187.046C210.953 181.051 211.873 175.079 212.708 169.097C212.847 168.1 213.29 166.98 212.995 166.122C212.312 164.132 211.695 161.805 210.257 160.467C208.371 158.712 205.818 159.371 203.759 160.894C198.63 164.688 193.532 168.524 188.425 172.349C182.912 176.479 180.582 176.163 176.492 170.717C170.577 162.841 164.647 154.976 158.755 147.081C155.343 142.509 155.749 139.789 160.296 136.359C165.389 132.517 170.48 128.67 175.613 124.881C177.976 123.136 179.437 120.981 178.636 117.998C177.874 115.156 175.619 114.08 172.839 113.71C166.519 112.87 160.209 111.948 153.901 111.02C148.212 110.183 146.479 108.033 147.252 102.393C148.664 92.0869 150.155 81.7901 151.733 71.5077C152.474 66.6743 154.923 64.961 159.678 65.6304C166.213 66.551 172.754 67.4394 179.272 68.4815C182.082 68.931 184.462 68.4698 186.038 66.0076C187.726 63.3702 186.919 60.9249 185.14 58.5905C181.274 53.5158 177.399 48.4439 173.69 43.2548C172.439 41.5049 171.677 39.4055 170.692 37.4652C170.813 37.0648 170.936 36.6644 171.057 36.2631C163.828 37.3249 156.485 37.8933 149.389 39.5306C111.16 48.3527 81.1963 80.588 76.3022 119.486C71.4367 158.156 85.076 189.451 116.558 212.783C121.03 216.097 125.593 219.462 129.378 223.495C135.316 229.821 138.146 237.749 138.385 246.426C138.598 254.147 138.427 261.877 138.49 269.604C138.555 277.372 142.993 282.025 150.751 282.087C165.419 282.206 180.088 282.204 194.756 282.089C202.569 282.028 206.95 277.434 206.993 269.642C207.03 262.812 206.911 255.98 207.022 249.151C207.246 235.371 212.805 224.314 224.076 216.217C228.522 213.024 232.906 209.747 237.651 206.263C240.001 208.892 242.412 211.589 245.153 214.655C241.486 217.471 238.265 220.457 234.581 222.681C222.748 229.825 217.47 240.121 218.357 253.873C218.71 259.337 218.433 264.843 218.407 270.329C218.371 278.129 215.143 284.298 209.056 289.161C207.979 290.021 207.127 291.83 207.094 293.223C206.911 301.28 206.632 309.366 207.09 317.403C207.814 330.112 202.61 341.6 186.812 344.998C177.405 345 167.998 345 158.591 345ZM328.593 124.37C329.701 116.72 330.754 109.452 331.857 101.841C326.822 101.113 321.983 100.386 317.134 99.7185C312.824 99.125 308.865 97.7844 305.72 94.6081C298.193 87.0069 299.132 75.4195 307.929 68.4716C312.113 65.1666 316.442 62.0448 320.833 58.7424C316.116 52.4666 311.645 46.5178 307.181 40.5799C301.93 44.3845 297.204 48.1856 292.112 51.4102C284.317 56.3472 274.17 53.7616 269.13 46.0468C266.005 41.2645 266.224 36.1121 267.013 30.8247C267.65 26.5589 268.228 22.285 268.859 17.8262C261.177 16.7457 253.901 15.7223 246.35 14.6606C245.558 19.9256 244.739 24.8644 244.088 29.8246C243.05 37.7342 238.928 43.2083 231.178 45.2192C223.22 47.2838 216.992 44.1316 212.238 37.6475C209.332 33.6829 206.329 29.7898 203.217 25.6625C197.114 30.2402 191.155 34.7098 185.003 39.3233C188.423 43.8929 191.711 48.1167 194.815 52.4719C199.274 58.7272 199.835 65.4276 195.784 71.976C191.813 78.3966 185.697 80.8544 178.21 79.8248C173.023 79.1116 167.838 78.3939 162.355 77.6369C161.276 85.2265 160.23 92.5811 159.154 100.156C164.594 100.948 169.77 101.283 174.703 102.561C178.362 103.508 182.309 104.995 185.068 107.439C192.527 114.046 192.068 125.731 184.402 132.336C179.946 136.176 175.103 139.568 170.22 143.328C174.856 149.498 179.31 155.429 183.867 161.495C188.332 158.16 192.451 155.086 196.567 152.008C200.8 148.844 205.488 147.328 210.751 148.443C220.537 150.518 225.847 158.9 224.242 169.476C223.511 174.293 222.871 179.124 222.158 184.167C229.907 185.261 237.16 186.284 244.6 187.334C244.87 185.72 245.086 184.525 245.266 183.325C245.945 178.79 246.387 174.206 247.336 169.729C248.756 163.028 252.95 158.598 259.575 156.815C266.208 155.029 272.116 156.734 276.603 161.902C280.546 166.443 284.014 171.397 287.782 176.286C293.917 171.679 299.876 167.203 305.948 162.642C304.215 160.319 302.682 158.259 301.145 156.203C299.536 154.051 297.881 151.933 296.321 149.748C291.765 143.366 291.348 135.985 295.152 129.926C298.965 123.854 305.795 121.013 313.501 122.209C318.365 122.961 323.241 123.607 328.593 124.37ZM24.7335 163.189C27.3477 167.017 30.0271 170.736 32.4912 174.591C37.2906 182.102 33.8506 190.454 25.1473 192.509C20.7028 193.558 16.2234 194.457 11.6153 195.456C11.6153 199.999 11.6153 204.428 11.6153 209.01C15.8453 209.929 19.9842 210.791 24.1061 211.73C34.4619 214.087 37.6606 222.397 31.6323 231.226C29.3139 234.621 26.9884 238.011 25.016 240.892C28.6159 244.609 31.9281 248.03 35.3654 251.58C38.7232 249.279 42.2034 246.853 45.7248 244.489C54.0303 238.914 62.4243 242.218 64.6461 251.942C65.6328 256.259 66.5381 260.595 67.4488 264.776C72.2223 264.776 76.64 264.776 81.0274 264.776C82.0034 260.261 82.8712 255.989 83.857 251.744C86.0654 242.229 94.4621 238.938 102.6 244.388C106.206 246.803 109.758 249.299 113.88 252.134C116.867 248.949 119.509 245.552 122.738 242.858C125.741 240.352 125.632 238.061 123.748 235.22C123.439 234.754 123.242 234.178 122.847 233.811C116.995 228.385 111.118 222.985 105.188 217.527C92.4387 234.169 79.0085 239.822 64.4977 235.188C49.9066 230.528 40.1416 217.916 39.7814 203.088C39.5964 195.458 41.9014 188.526 46.3495 182.358C52.1257 174.348 60.0898 169.788 69.7422 168.228C68.2854 162.114 66.8947 156.279 65.4415 150.178C65.1645 150.968 64.9062 151.568 64.7435 152.192C62.0015 162.7 54.1366 165.705 45.218 159.637C41.8173 157.324 38.422 155.004 35.0955 152.735C31.5948 156.267 28.3022 159.588 24.7335 163.189ZM75.8241 224.894C83.0097 224.672 89.8495 220.708 94.3539 212.669C95.4523 210.709 95.3692 209.438 93.7444 207.748C86.733 200.46 80.7512 192.354 76.5194 183.16C74.8588 179.553 72.6835 179.186 69.4142 179.932C58.1263 182.511 50.4946 192.783 51.551 204.091C52.6584 215.952 61.9059 224.549 75.8241 224.894ZM195.538 316.658C180.11 316.658 165.1 316.658 149.951 316.658C149.951 318.838 149.832 320.74 149.972 322.621C150.432 328.781 154.916 333.327 161.08 333.48C168.898 333.673 176.729 333.677 184.546 333.474C190.58 333.317 195.141 328.738 195.517 322.883C195.646 320.888 195.538 318.879 195.538 316.658ZM195.423 293.778C180.239 293.778 165.213 293.778 150.089 293.778C150.089 297.521 150.089 301.045 150.089 304.749C165.276 304.749 180.279 304.749 195.423 304.749C195.423 300.996 195.423 297.47 195.423 293.778Z" fill="black"/>
<path d="M178.278 242.043C174.539 242.043 170.993 242.043 167.2 242.043C166.919 239.81 166.797 237.583 166.341 235.426C163.653 222.695 156.344 213.62 144.358 208.56C132.76 203.663 122.524 196.947 113.852 187.738C83.8193 155.845 86.5166 102.56 119.749 74.0422C122.964 71.2832 126.401 68.7843 130.02 65.9404C132.154 69.3098 134.098 72.3798 136.033 75.4355C132.164 78.6789 128.315 81.5469 124.876 84.8439C90.5616 117.735 100.698 176.39 144.114 195.818C153.848 200.173 162.938 205.158 169.27 214.085C175.18 222.417 178.352 231.608 178.278 242.043Z" fill="black"/>
<path d="M271.895 252.311C274.381 249.31 276.648 246.573 279.172 243.526C290.563 253.011 301.854 262.412 313.398 272.024C310.953 274.981 308.636 277.781 306.125 280.817C294.711 271.312 283.478 261.958 271.895 252.311Z" fill="black"/>
<path d="M247.172 299.132C247.172 285.807 247.172 272.842 247.172 259.602C250.819 259.602 254.33 259.602 258.132 259.602C258.132 272.709 258.132 285.836 258.132 299.132C254.515 299.132 250.988 299.132 247.172 299.132Z" fill="black"/>
<path d="M281.457 224.824C281.457 221.173 281.457 217.649 281.457 213.899C294.689 213.899 307.731 213.899 320.988 213.899C320.988 217.465 320.988 221.004 320.988 224.824C307.901 224.824 294.778 224.824 281.457 224.824Z" fill="black"/>
<path d="M167.432 253.715C171.134 253.715 174.582 253.715 178.277 253.715C178.277 259.229 178.277 264.651 178.277 270.394C174.756 270.394 171.251 270.394 167.432 270.394C167.432 265.026 167.432 259.52 167.432 253.715Z" fill="black"/>
<path d="M61.9158 60.5793C59.6099 63.8012 57.5436 66.688 55.2699 69.8644C41.9586 60.3559 28.8072 50.9618 15.3359 41.338C17.5327 38.2555 19.6375 35.3008 21.9505 32.0557C35.2985 41.582 48.4579 50.9743 61.9158 60.5793Z" fill="black"/>
<path d="M86.9619 46.6359C83.1796 47.6226 79.7647 48.5127 75.9404 49.5101C72.0553 34.3443 68.2185 19.3653 64.2637 3.92772C67.8994 2.9598 71.3778 2.033 75.2665 0.998047C79.1498 16.1523 82.9911 31.1403 86.9619 46.6359Z" fill="black"/>
<path d="M8.63744 110.707C7.69008 106.933 6.83031 103.508 5.86328 99.6543C21.0979 95.8416 36.1154 92.0826 51.4609 88.2422C52.3886 91.9351 53.2716 95.452 54.2386 99.3031C38.9209 103.134 23.9123 106.887 8.63744 110.707Z" fill="black"/>
<path d="M199.787 101.03C199.755 75.8976 220.337 55.3435 245.517 55.3613C270.733 55.3801 291.108 75.8485 291.07 101.122C291.032 126.19 270.695 146.57 245.606 146.684C220.548 146.8 199.819 126.144 199.787 101.03ZM279.649 100.979C279.64 82.1744 264.325 66.8119 245.558 66.7833C226.858 66.7547 211.376 82.0993 211.209 100.828C211.043 119.43 226.901 135.332 245.564 135.278C264.193 135.224 279.658 119.662 279.649 100.979Z" fill="black"/>
</svg>
