<svg width="415" height="343" viewBox="0 0 415 343" fill="none" xmlns="http://www.w3.org/2000/svg">
<path d="M0 149.058C0.710595 147.341 1.32803 145.577 2.14803 143.915C6.41052 135.275 13.3052 130.474 22.9849 130.27C32.1436 130.077 41.3088 130.229 50.7393 130.229C52.7671 118.726 54.757 107.577 56.6949 96.4174C61.0906 71.1003 65.404 45.7691 69.8626 20.4639C72.2456 6.93656 83.9586 -1.85056 97.5747 0.332133C118.36 3.66413 139.051 7.58649 159.777 11.2846C209.067 20.0815 258.354 28.8968 307.643 37.7001C336.739 42.8974 365.854 47.9897 394.924 53.3213C409.253 55.9503 417.12 68.0445 414.501 83.2595C405.508 135.506 396.474 187.744 387.303 239.959C384.313 256.975 372.944 264.63 355.985 261.61C354.262 261.304 352.526 261.077 350.275 260.734C350.275 262.411 350.275 263.854 350.275 265.296C350.275 282.359 350.292 299.421 350.269 316.484C350.249 332.339 340.63 342.187 324.812 342.194C225.09 342.241 125.367 342.201 25.6443 342.238C12.1949 342.243 3.98627 335.502 0 322.983C0 265.008 0 207.033 0 149.058ZM175.043 328.702C224.635 328.702 274.227 328.704 323.82 328.701C333.452 328.7 336.757 325.423 336.758 315.821C336.766 262.737 336.766 209.652 336.759 156.568C336.758 146.818 333.377 143.473 323.546 143.473C224.631 143.469 125.717 143.469 26.8033 143.473C16.7564 143.473 13.4114 146.8 13.4092 156.844C13.4017 209.658 13.4017 262.471 13.4092 315.285C13.4103 325.515 16.5733 328.701 26.6711 328.701C76.1279 328.703 125.585 328.702 175.043 328.702ZM394.715 119.029C288.372 100.027 182.533 81.1158 76.2297 62.1214C72.2879 84.8204 68.3915 107.254 64.4042 130.217C66.7916 130.217 68.5194 130.217 70.2471 130.217C154.966 130.217 239.687 130.395 324.405 130.054C339.656 129.992 350.634 141.046 350.394 156.184C349.966 183.124 350.274 210.076 350.274 237.022C350.274 247.982 350.274 247.982 361.306 248.575C368.986 248.987 372.614 246.117 373.93 238.604C377.638 217.423 381.37 196.248 385.054 175.064C388.272 156.555 391.439 138.037 394.715 119.029ZM397.075 105.82C398.629 96.6806 400.307 88.0636 401.504 79.3804C402.483 72.2756 398.929 67.6556 391.82 66.3741C362.599 61.1032 333.361 55.9286 304.131 50.7064C256.435 42.1847 208.741 33.6543 161.045 25.1239C139.523 21.2741 118.005 17.3994 96.4795 13.5702C90.6735 12.5368 85.0624 15.1593 83.8231 20.4411C81.6448 29.7287 80.2333 39.1961 78.4471 48.8822C184.809 67.8885 290.659 86.8038 397.075 105.82Z" fill="black"/>
<path d="M77.6432 267.003C69.6772 267.002 61.7101 267.074 53.7451 266.985C43.9452 266.875 36.9183 259.995 36.6551 250.163C36.4851 243.808 36.4796 237.441 36.654 231.087C36.9227 221.319 43.9788 214.304 53.782 214.222C69.713 214.088 85.6472 214.084 101.578 214.223C111.446 214.309 118.361 221.291 118.563 231.127C118.694 237.483 118.696 243.847 118.563 250.204C118.356 260.087 111.455 266.875 101.541 266.987C93.5764 267.075 85.6093 267.003 77.6432 267.003ZM77.8241 253.696C85.3872 253.696 92.9492 253.677 100.512 253.704C103.611 253.715 105.359 252.438 105.339 249.138C105.304 243.454 105.329 237.769 105.329 232.085C105.329 229.351 104.209 227.741 101.243 227.745C85.5779 227.767 69.9123 227.771 54.2467 227.738C51.3252 227.732 50.1055 229.125 50.1293 231.973C50.1781 237.521 50.2658 243.074 50.0968 248.618C49.9842 252.302 51.556 253.766 55.1371 253.725C62.698 253.636 70.2611 253.697 77.8241 253.696Z" fill="black"/>
<path d="M211.492 301.876C205.409 301.876 199.326 301.936 193.245 301.857C188.682 301.797 185.709 299.022 185.758 295.088C185.806 291.298 188.604 288.58 193.026 288.544C205.46 288.443 217.896 288.444 230.33 288.543C234.761 288.579 237.55 291.276 237.605 295.072C237.662 299.018 234.707 301.797 230.144 301.857C223.928 301.937 217.709 301.876 211.492 301.876Z" fill="black"/>
<path d="M284.748 301.878C278.666 301.877 272.585 301.931 266.505 301.86C261.939 301.805 258.907 299.064 258.897 295.18C258.886 291.281 261.814 288.565 266.497 288.533C278.659 288.448 290.822 288.451 302.984 288.526C308.027 288.557 310.809 291.166 310.69 295.384C310.575 299.407 307.785 301.818 302.991 301.865C296.91 301.924 290.829 301.879 284.748 301.878Z" fill="black"/>
<path d="M138.573 301.879C132.491 301.88 126.409 301.928 120.328 301.865C115.56 301.815 112.767 299.363 112.676 295.33C112.585 291.246 115.29 288.576 120.041 288.539C132.339 288.445 144.638 288.449 156.934 288.536C161.597 288.568 164.527 291.336 164.48 295.238C164.434 299.118 161.404 301.811 156.815 301.862C150.736 301.929 144.654 301.878 138.573 301.879Z" fill="black"/>
<path d="M65.0815 301.877C59.1379 301.879 53.1942 301.923 47.2506 301.864C42.4411 301.817 39.6723 299.436 39.5456 295.404C39.4124 291.188 42.1952 288.557 47.2127 288.526C59.3697 288.45 71.5278 288.449 83.6848 288.529C88.3849 288.56 91.2674 291.226 91.2728 295.158C91.2782 299.082 88.3037 301.804 83.7227 301.858C77.5094 301.932 71.2949 301.876 65.0815 301.877Z" fill="black"/>
</svg>
