<svg width="417" height="417" viewBox="0 0 417 417" fill="none" xmlns="http://www.w3.org/2000/svg">
<path d="M282.789 83.87C291.772 87.8924 300.458 91.6683 309.048 95.6503C336.696 108.467 348.469 138.957 336.694 167.089C334.708 171.834 332.667 176.555 330.385 181.914C339.111 181.451 347.313 182.389 352.214 189.933C354.592 193.593 356.113 198.362 356.364 202.724C356.767 209.727 353.396 215.995 347.048 218.883C341.421 221.442 334.907 222.049 328.162 223.665C324.031 241.12 313.958 255.641 297.87 265.942C297.027 266.482 296.319 267.898 296.286 268.93C296.124 273.948 296.213 278.974 296.213 284.211C309.402 287.895 322.415 291.543 335.437 295.163C353.852 300.282 372.286 305.332 390.688 310.501C407.701 315.28 416.971 327.602 416.988 345.309C417.007 366.142 417 386.976 416.988 407.809C416.985 414.708 414.832 416.905 408.045 416.906C311.188 416.913 214.331 416.913 117.475 416.907C110.411 416.907 108.336 414.785 108.333 407.595C108.325 386.622 108.304 365.648 108.338 344.676C108.367 327.664 118.033 315.084 134.426 310.54C164.81 302.119 195.175 293.63 225.591 285.321C228.463 284.536 228.984 283.28 229.232 280.495C230.002 271.842 228.242 265.645 220.087 260.062C207.377 251.358 200.438 237.85 196.86 222.232C194.195 222.232 191.444 222.29 188.697 222.222C177.486 221.949 168.744 213.125 168.734 202.117C168.724 191.114 177.484 182.248 188.659 181.973C190.438 181.929 192.219 181.967 194.671 181.967C191.379 175.342 188.429 169.215 185.242 163.214C184.823 162.424 183.203 161.886 182.136 161.882C163.129 161.804 144.121 161.79 125.113 161.891C123.546 161.899 121.89 162.639 120.436 163.363C96.0685 175.479 71.7269 187.647 47.3797 199.801C46.3813 200.3 45.3718 201.208 44.3757 201.197C41.8917 201.171 39.0458 201.393 37.0212 200.283C34.3758 198.832 34.0273 195.817 35.0268 192.835C37.9959 183.968 40.9214 175.085 43.8525 166.205C44.2828 164.902 44.6491 163.578 45.0783 162.155C39.3976 161.828 33.9153 162.016 28.6178 161.113C12.5171 158.369 1.08294 144.828 1.01347 128.449C0.881256 96.9892 0.861088 65.5283 1.01795 34.0696C1.11095 15.4927 15.8168 0.791349 34.4352 0.764459C105.995 0.660257 177.554 0.66698 249.113 0.757736C267.986 0.781265 282.56 15.4199 282.751 34.2859C282.905 49.385 282.787 64.4874 282.789 79.5876C282.789 81.1148 282.789 82.6409 282.789 83.87ZM269.255 81.5182C269.255 64.8841 269.7 48.3923 269.093 31.9386C268.712 21.6193 259.512 14.1661 248.741 14.1605C177.46 14.1246 106.179 14.119 34.8979 14.165C23.1366 14.1728 14.4476 22.8293 14.4173 34.5615C14.3389 65.7423 14.3333 96.9231 14.4218 128.104C14.4543 139.618 23.1142 148.187 34.6122 148.375C40.4811 148.47 46.3522 148.383 52.2222 148.4C60.1998 148.422 62.7521 152.023 60.2166 159.676C57.8222 166.904 55.4099 174.125 52.7892 182.003C54.7847 181.049 56.0351 180.475 57.2664 179.859C76.7442 170.124 96.1783 160.3 115.739 150.735C118.616 149.327 122.084 148.54 125.292 148.498C142.062 148.281 158.835 148.396 175.607 148.396C177.108 148.396 178.608 148.396 180.521 148.396C179.733 138.804 181.49 130.061 186.265 121.398C173.311 121.398 161.08 121.398 148.911 121.398C148.911 116.754 148.911 112.514 148.911 108.12C160.828 108.12 172.421 108.102 184.014 108.125C192.333 108.142 200.728 108.966 208.223 103.902C212.489 101.019 217.043 98.5624 221.467 95.9125C221.295 95.4711 221.122 95.0296 220.95 94.5881C196.894 94.5881 172.837 94.5881 148.798 94.5881C148.798 89.9372 148.798 85.796 148.798 81.5159C188.936 81.5182 228.861 81.5182 269.255 81.5182ZM350.075 403.352C350.075 387.511 350.075 372.086 350.075 356.717C354.669 356.717 358.807 356.717 363.388 356.717C363.388 372.357 363.388 387.782 363.388 403.174C377.021 403.174 390.199 403.174 403.57 403.174C403.57 383.589 403.584 364.314 403.564 345.039C403.552 333.681 398.273 326.645 387.382 323.597C357.97 315.363 328.49 307.361 299.168 298.819C293.253 297.096 288.998 297.534 285.801 302.795C285.008 304.1 284.524 306.057 284.857 307.493C285.67 311.011 286.799 314.507 288.251 317.813C290.166 322.174 289.393 325.81 286.609 329.496C283.92 333.055 281.733 336.992 279.081 340.581C277.422 342.827 277.141 344.72 278.287 347.395C281.802 355.599 285.119 363.897 288.174 372.281C289.026 374.618 289.225 377.466 288.828 379.937C287.581 387.705 285.909 395.404 284.358 403.351C306.37 403.352 327.849 403.352 350.075 403.352ZM175.575 356.704C175.575 372.426 175.575 387.854 175.575 403.202C197.606 403.202 219.179 403.202 241.049 403.202C239.453 395.078 237.784 387.305 236.475 379.471C236.106 377.265 236.3 374.702 237.074 372.615C240.228 364.113 243.604 355.687 247.132 347.332C248.171 344.874 248.192 343.071 246.56 340.858C243.494 336.704 240.831 332.255 237.866 328.022C235.945 325.28 235.452 322.539 236.652 319.348C238.125 315.432 239.55 311.473 240.569 307.425C240.923 306.018 240.402 304.04 239.596 302.751C236.354 297.562 231.877 296.067 226.251 299.012C225.886 299.202 225.454 299.264 225.051 299.376C195.881 307.477 166.705 315.553 137.546 323.691C127.202 326.578 121.774 333.819 121.757 344.605C121.728 362.92 121.745 381.236 121.758 399.55C121.759 400.763 121.895 401.974 121.968 403.185C135.432 403.185 148.613 403.185 162.101 403.185C162.101 387.561 162.101 372.233 162.101 356.704C166.542 356.704 170.681 356.704 175.575 356.704ZM307.188 165.285C293.99 176.074 279.348 181.94 262.667 181.931C245.988 181.922 231.355 176.017 218.122 165.281C213.739 174.804 207.341 182.832 208.857 193.818C209.576 199.033 208.931 204.43 209.001 209.743C209.366 236.92 230.116 259.34 257.633 262.326C283.476 265.131 308.861 247.483 314.492 221.713C316.461 212.704 315.316 203.062 316.466 193.817C317.835 182.828 311.597 174.8 307.188 165.285ZM202.348 166.755C204.636 162.169 206.551 158.319 208.476 154.474C211.971 147.493 215.466 146.622 221.634 151.18C225.23 153.837 228.719 156.654 232.44 159.12C246.672 168.547 262.006 170.889 278.449 166.118C287.394 163.522 294.616 158.065 301.855 152.562C310.382 146.081 312.982 146.701 317.683 156.174C319.191 159.213 320.712 162.247 322.407 165.647C332.408 147.033 328.404 124.547 311.922 113.235C298.481 104.01 283.652 96.7147 266.97 95.0778C255.602 93.9618 244.932 96.7147 234.31 103.03C246.385 107.071 255.262 113.927 261.322 124.649C257.549 127.156 254.089 129.456 250.489 131.85C248.905 129.768 247.597 127.786 246.03 126.037C237.694 116.738 227.342 112.768 215.131 115.843C203.692 118.722 196.682 126.492 194.224 138.049C191.972 148.628 197.119 157.265 202.348 166.755ZM262.84 403.485C263.817 403.485 264.825 403.327 265.765 403.513C269.677 404.287 271.071 402.499 271.625 398.773C272.527 392.712 274.003 386.74 275.133 380.711C275.408 379.247 275.752 377.529 275.261 376.232C272.105 367.891 268.766 359.617 265.347 351.379C265.039 350.637 263.72 349.87 262.898 349.899C261.891 349.935 260.318 350.561 260.011 351.337C254.67 364.83 246.073 377.796 252.667 393.384C252.935 394.017 253.016 394.733 253.158 395.415C254.848 403.485 254.847 403.485 262.84 403.485ZM242.53 272.829C242.53 276.232 242.441 279.151 242.563 282.062C242.637 283.812 242.408 286.144 243.398 287.195C249.594 293.77 256.094 300.06 262.78 306.73C269.253 300.206 275.451 293.986 281.603 287.719C282.145 287.165 282.699 286.325 282.718 285.605C282.824 281.504 282.769 277.399 282.769 272.865C269.229 276.884 256.27 276.887 242.53 272.829ZM252.331 315.791C249.821 319.622 249.802 323.024 252.849 326.474C254.681 328.549 256.005 331.072 257.567 333.387C260.484 337.71 264.836 337.729 267.735 333.426C269.452 330.878 271.145 328.315 272.85 325.759C275.923 321.155 275.922 321.053 272.739 316.011C262.537 324.458 262.537 324.458 252.331 315.791ZM195.371 195.393C190.619 195.681 185.487 193.849 183.126 199.109C182.278 200.997 182.541 204.273 183.684 205.992C186.57 210.33 191.219 208.618 195.371 208.622C195.371 204.061 195.371 199.937 195.371 195.393ZM329.975 195.499C329.975 199.995 329.975 204.219 329.975 208.701C334.354 208.606 339.179 210.312 341.81 205.707C342.876 203.839 342.872 200.338 341.802 198.471C339.162 193.868 334.341 195.605 329.975 195.499Z" fill="#B8B4CC"/>
<path d="M48.1998 60.6837C53.327 60.6837 59.6216 62.4966 63.2463 60.1616C66.7006 57.9364 67.3796 51.3885 69.2586 46.7331C71.1376 42.0765 73.0154 37.4189 74.8496 32.7455C76.016 29.773 77.9286 27.7046 81.2843 27.6172C84.8462 27.5242 86.8843 29.6307 88.1302 32.7601C91.4299 41.0547 94.8663 49.2956 98.0136 57.6462C98.9839 60.2221 100.128 61.3067 103.06 61.216C111.014 60.9706 118.98 61.1902 126.941 61.105C130.473 61.0669 133.311 62.0283 134.683 65.542C136.006 68.9257 134.409 71.4378 132.09 73.7436C125.45 80.3408 118.945 87.0769 112.177 93.5385C109.978 95.6382 109.753 97.3827 110.9 100.075C114.29 108.028 117.372 116.112 120.66 124.109C122.049 127.487 122.387 130.674 119.36 133.288C116.319 135.915 113.239 135.078 110.113 133.165C101.662 127.995 93.0982 123.005 84.6949 117.761C82.3465 116.296 80.6187 116.346 78.2737 117.811C69.8714 123.059 61.2933 128.025 52.8329 133.182C49.7001 135.092 46.6189 135.906 43.587 133.272C40.564 130.645 40.936 127.464 42.322 124.087C45.6598 115.96 48.7892 107.743 52.2121 99.6528C53.2385 97.2259 52.9808 95.6718 51.0715 93.8242C44.3478 87.3156 37.82 80.603 31.1657 74.0215C28.7501 71.6327 26.8868 69.1117 28.2907 65.5241C29.7506 61.793 32.8285 60.9986 36.4666 61.1061C40.3735 61.2216 44.2872 61.1319 48.1987 61.1319C48.1987 60.9829 48.1987 60.8328 48.1998 60.6837ZM62.1348 111.015C62.3891 111.166 62.6435 111.317 62.8967 111.468C67.3224 108.82 71.8714 106.356 76.137 103.471C79.9084 100.92 83.263 101.078 86.9795 103.49C91.3201 106.308 95.8545 108.827 101.302 112.07C99.3111 107.042 98.0035 103.073 96.1974 99.3469C94.0114 94.8393 95.003 91.4164 98.5873 88.1615C103.08 84.0808 107.337 79.7402 111.696 75.5106C106.317 74.556 101.477 74.4249 96.6478 74.5952C92.2792 74.7498 89.5644 72.9694 88.0473 68.8316C86.156 63.6753 83.9599 58.6311 81.4826 52.5213C78.9818 58.7073 76.8115 63.7919 74.8742 68.9638C73.4042 72.8887 70.816 74.7117 66.602 74.5896C61.6575 74.4461 56.7062 74.556 51.7584 74.556C51.6161 74.8921 51.4738 75.2271 51.3315 75.5632C55.3315 79.4131 59.3707 83.2215 63.3213 87.1217C69.0412 92.7688 69.1376 93.4421 66.09 101.047C64.7589 104.365 63.4513 107.692 62.1348 111.015Z" fill="#B8B4CC"/>
<path d="M202.69 27.5681C217.507 27.5681 232.323 27.5557 247.14 27.5737C253.714 27.5815 255.927 29.8022 255.945 36.3803C255.966 44.2111 255.993 52.043 255.933 59.8727C255.892 65.3472 253.445 67.8211 247.968 67.8267C217.497 67.8592 187.024 67.8592 156.552 67.8267C151.077 67.8211 148.643 65.3472 148.606 59.8615C148.55 51.7517 148.549 43.6397 148.606 35.5299C148.644 30.0442 151.073 27.5994 156.563 27.5837C171.937 27.54 187.314 27.5692 202.69 27.5681ZM162.166 54.0934C189.199 54.0934 215.783 54.0934 242.302 54.0934C242.302 49.6262 242.302 45.4884 242.302 41.2453C215.49 41.2453 188.905 41.2453 162.166 41.2453C162.166 45.633 162.166 49.7696 162.166 54.0934Z" fill="#B8B4CC"/>
</svg>
