<svg width="473" height="335" viewBox="0 0 473 335" fill="none" xmlns="http://www.w3.org/2000/svg">
<path d="M472.428 114.816C470.291 124.386 468.064 133.936 466.039 143.53C463.964 153.352 460.301 156.434 450.194 156.45C446.845 156.454 443.495 156.45 439.353 156.45C441.618 159.565 443.557 162.048 445.302 164.663C467.321 197.668 463.481 240.565 436.123 269.18C434.737 270.628 433.822 273.14 433.789 275.174C433.582 288.42 433.719 301.669 433.673 314.919C433.628 327.703 426.434 334.905 413.634 334.959C400.718 335.012 387.802 335.016 374.887 334.955C362.33 334.897 355.206 327.765 355.086 315.208C355.037 309.825 355.078 304.441 355.078 298.629C275.901 298.629 196.989 298.629 117.309 298.629C117.309 303.583 117.317 308.587 117.309 313.591C117.284 328.284 110.601 334.955 95.8831 334.967C83.4294 334.979 70.9758 335.016 58.5222 334.955C46.0068 334.889 38.7714 327.657 38.7177 315.162C38.66 301.451 38.792 287.739 38.6022 274.031C38.5775 272.142 37.6906 269.754 36.3665 268.462C7.77967 240.676 4.888 191.27 30.1665 159.478C30.7233 158.781 31.1771 157.997 32.2125 156.467C27.7945 156.467 24.0531 156.516 20.3117 156.454C12.7916 156.331 8.46031 153.064 6.83091 145.754C4.45899 135.095 2.2397 124.398 0.239034 113.665C-1.25012 105.662 4.36824 99.2932 12.9236 99.2065C26.4539 99.0663 39.9841 99.0292 53.5103 99.2602C56.996 99.3179 58.6419 98.2206 59.8918 95.0113C66.7889 77.3684 74.4615 60.1297 85.4961 44.5493C93.2348 33.6219 103.543 26.2793 115.547 20.9332C137.951 10.9505 161.649 6.04169 185.81 3.06751C216.133 -0.66156 246.531 -0.962693 276.929 2.01149C302.529 4.51541 327.572 9.38712 351.77 18.6355C371.801 26.2917 386.26 39.6528 395.731 58.5374C401.79 70.6115 407.186 83.028 412.652 95.3908C413.877 98.167 415.18 99.3097 418.365 99.256C431.124 99.0374 443.891 99.4004 456.646 99.0786C464.087 98.8889 469.458 101.339 472.424 108.352C472.428 110.501 472.428 112.658 472.428 114.816ZM382.044 118.091C379.651 107.898 367.309 80.3921 360.816 70.0381C357.054 64.0403 352.372 59.2964 345.978 55.9881C331.755 48.6331 316.542 44.5616 300.945 41.7525C266.385 35.5236 231.598 34.7192 196.721 38.1966C174.977 40.3664 153.572 44.1574 133.211 52.6715C123.228 56.8461 114.71 62.6419 110.04 72.6287C103.279 87.0871 96.9927 101.772 90.5452 116.379C90.3472 116.833 90.6112 117.493 90.6607 118.091C187.819 118.091 284.754 118.091 382.044 118.091ZM406.089 214.383C405.965 194.813 390.055 178.866 370.58 178.792C351.089 178.717 334.787 195.139 334.911 214.733C335.03 234.257 350.994 250.205 370.469 250.267C390.092 250.329 406.217 234.088 406.089 214.383ZM103.803 250.122C123.929 248.65 139.081 232.071 137.963 213.335C136.709 192.355 120.027 178.222 101.361 178.961C79.2425 179.839 65.869 197.606 66.859 215.777C67.9852 236.448 84.7536 251.517 103.803 250.122Z" fill="#B8B4CC"/>
</svg>
