<svg width="421" height="432" viewBox="0 0 421 432" fill="none" xmlns="http://www.w3.org/2000/svg">
<path d="M256.184 0C267.586 3.74743 271.141 12.5386 272.291 23.5728C273.673 36.8351 275.871 50.0181 277.984 63.1928C278.254 64.8694 279.82 66.805 281.331 67.7368C288.613 72.2291 296.142 76.3167 303.444 80.7783C305.576 82.081 307.222 82.3525 309.596 81.3752C323.356 75.7103 337.189 70.2228 351.013 64.7141C362.801 60.0169 371.774 63.1135 378.164 74.1361C391.197 96.6185 404.201 119.119 417.184 141.631C423.751 153.018 421.857 162.25 411.383 170.437C399.863 179.44 388.391 188.507 376.796 197.413C374.769 198.971 374.162 200.546 374.217 203.056C374.41 211.756 374.154 220.467 374.39 229.166C374.438 230.934 375.42 233.244 376.761 234.321C388.375 243.657 400.176 252.759 411.908 261.949C421.663 269.591 423.609 279.153 417.462 289.817C404.275 312.698 391.055 335.559 377.787 358.393C371.616 369.014 362.734 372.003 351.268 367.43C337.445 361.919 323.623 356.407 309.857 350.758C307.437 349.765 305.656 349.756 303.317 351.216C296.059 355.746 288.627 360.009 281.146 364.166C279.104 365.301 278.109 366.52 277.786 368.894C275.756 383.786 273.47 398.643 271.414 413.531C269.789 425.296 262.548 431.94 250.735 431.962C224.014 432.014 197.291 432.011 170.57 431.963C158.752 431.941 151.473 425.308 149.855 413.552C147.825 398.801 145.603 384.077 143.605 369.323C143.248 366.689 142.16 365.241 139.794 363.958C132.397 359.946 125.105 355.719 117.956 351.28C115.639 349.841 113.863 349.756 111.417 350.758C97.776 356.344 84.07 361.77 70.3755 367.223C58.5036 371.951 49.5592 368.936 43.1885 357.956C30.0772 335.356 16.9956 312.738 3.96149 290.094C-2.37015 279.095 -0.479007 269.646 9.44581 261.876C20.9596 252.864 32.4364 243.803 44.0316 234.898C46.2481 233.196 47.1747 231.523 47.0838 228.619C46.8176 220.064 46.844 211.49 47.068 202.932C47.1356 200.356 46.3591 198.862 44.3792 197.34C32.6784 188.341 21.0748 179.215 9.44792 170.12C-0.48746 162.347 -2.37121 152.922 3.95832 141.932C17.0674 119.169 30.2178 96.4294 43.4072 73.7124C49.6226 63.0068 58.4391 59.9736 69.8705 64.5229C83.827 70.078 97.7845 75.631 111.675 81.3435C114.016 82.306 115.675 82.1592 117.834 80.8343C125.127 76.3568 132.516 72.022 140.032 67.9323C142.298 66.6993 143.222 65.2625 143.555 62.8378C145.448 49.061 147.892 35.3443 149.302 21.521C150.384 10.9243 154.895 3.59212 165.048 0C195.427 0 225.805 0 256.184 0ZM251.789 413.99C252.172 412.419 252.512 411.347 252.688 410.25C255.328 393.891 258.058 377.544 260.507 361.156C261.338 355.597 264.055 352.388 269.138 349.817C278.63 345.017 287.884 339.638 296.768 333.788C301.762 330.499 306.027 329.661 311.616 332.026C326.48 338.313 341.565 344.077 356.499 350.202C359.075 351.257 360.345 350.95 361.807 348.458C374.889 326.168 388.069 303.936 401.353 281.766C402.975 279.059 402.855 277.614 400.245 275.617C387.075 265.536 374.14 255.145 360.966 245.067C356.852 241.92 355.44 238.29 355.625 233.122C356.028 221.782 356.056 210.406 355.629 199.068C355.428 193.737 356.872 190.018 361.128 186.776C374.212 176.814 387.028 166.499 400.107 156.529C402.868 154.423 402.975 152.87 401.305 150.016C388.602 128.32 376.061 106.531 363.458 84.7761C362.781 83.6097 362.012 82.4972 361.24 81.2865C344.065 87.7544 327.223 93.9984 310.469 100.473C305.803 102.275 302.08 101.584 297.864 98.8995C288.651 93.0327 279.291 87.2948 269.533 82.418C263.946 79.6257 261.217 76.0674 260.443 70.0263C258.442 54.4248 255.9 38.8921 253.962 23.2843C253.493 19.5063 252.041 18.8449 248.684 18.8206C223.233 18.6378 197.783 18.2807 172.333 17.9965C171.387 17.986 170.44 18.1561 169.368 18.2532C169.048 19.7757 168.706 21.1322 168.483 22.5099C165.855 38.7283 163.141 54.9351 160.688 71.18C159.868 76.6083 157.071 79.6352 152.196 82.1507C142.493 87.1564 133.047 92.7348 123.862 98.6438C119.239 101.618 115.195 102.309 110.11 100.186C95.345 94.0216 80.4155 88.252 65.635 82.1232C62.5141 80.829 60.9188 80.9114 59.0244 84.1676C46.3812 105.899 33.4739 127.478 20.6617 149.111C19.9644 150.288 19.3453 151.51 18.6004 152.874C20.0056 154.045 21.172 155.035 22.3574 156.002C34.9953 166.308 47.5656 176.698 60.3176 186.862C64.3281 190.059 65.8273 193.663 65.635 198.846C65.2156 210.187 65.1649 221.566 65.6361 232.902C65.8674 238.462 64.1411 242.164 59.8052 245.463C46.8292 255.335 34.1268 265.569 21.1561 275.449C18.386 277.559 18.2951 279.115 19.9602 281.962C32.7206 303.787 45.3237 325.704 57.9912 347.583C58.5997 348.633 59.3509 349.601 60.1042 350.708C77.0442 344.312 93.7454 338.092 110.371 331.676C115.282 329.781 119.28 330.442 123.771 333.329C132.96 339.232 142.393 344.829 152.107 349.809C157.152 352.396 159.952 355.531 160.693 361.154C162.784 377.028 165.351 392.839 167.335 408.725C167.811 412.528 169.277 413.173 172.634 413.195C197.944 413.366 223.254 413.707 248.564 413.992C249.538 413.999 250.509 413.99 251.789 413.99Z" fill="#B8B4CC"/>
<path d="M210.621 306.008C161.207 305.959 120.799 265.603 120.586 216.083C120.373 166.776 161.688 125.534 210.857 125.972C260.567 126.414 300.932 166.919 300.681 216.107C300.429 265.647 259.948 306.056 210.621 306.008ZM282.529 216.185C282.708 176.54 250.748 144.357 210.934 144.089C171.33 143.822 139.075 175.761 138.729 215.583C138.385 255.32 170.641 287.797 210.543 287.89C250.217 287.983 282.35 255.976 282.529 216.185Z" fill="#B8B4CC"/>
</svg>
