<svg width="422" height="470" viewBox="0 0 422 470" fill="none" xmlns="http://www.w3.org/2000/svg">
<path d="M6.44252 469.489C1.14057 466.507 -0.371325 461.938 0.073281 456.037C4.09082 402.708 28.0341 361.995 76.6754 338.086C91.8919 330.607 108.734 326.378 124.958 321.042C129.365 319.592 132.151 317.461 134.082 313.178C137.963 304.57 142.431 296.227 146.071 288.944C139.834 279.259 134.158 270.263 128.215 261.447C127.44 260.297 125.341 259.782 123.758 259.484C118.553 258.508 112.918 258.705 108.152 256.744C97.5673 252.386 92.4606 243.618 91.815 232.296C91.607 228.648 91.7828 224.978 91.7828 221.294C78.1057 215.33 72.9462 204.738 73.3184 190.402C73.8848 168.562 72.821 146.631 74.3662 124.875C76.7994 90.5992 91.3232 61.3781 116.335 37.8244C146.86 9.07775 183.428 -3.36778 225.084 0.77728C263.07 4.55816 294.235 21.9185 318.238 51.5669C339.231 77.4965 348.754 107.536 348.605 140.785C348.53 157.902 348.604 175.022 348.589 192.139C348.572 211.393 337.339 222.697 318.208 222.736C313.786 222.745 309.364 222.737 304.242 222.737C301.636 247.496 292.862 269.517 275.234 287.513C280.256 297.582 285.065 307.454 290.162 317.175C290.866 318.518 292.888 319.447 294.494 319.996C307.632 324.486 320.892 328.624 333.97 333.276C372.421 346.954 397.61 374.165 412.666 411.403C418.436 425.676 421.11 440.659 421.956 456.036C422.281 461.935 420.857 466.506 415.556 469.488C279.184 469.489 142.813 469.489 6.44252 469.489ZM293.078 155.985C290.565 155.547 288.647 155.225 286.733 154.879C279.076 153.493 271.33 152.472 263.781 150.644C236.535 144.047 212.539 131.213 191.691 112.445C190.383 111.268 188.221 110.232 186.567 110.379C174.754 111.423 164.103 115.633 154.469 122.607C144.715 129.668 138.326 139.63 131.324 149.045C130.017 150.804 129.164 153.515 129.354 155.677C131.117 175.756 132.968 195.831 135.203 215.861C136.142 224.279 138.063 232.587 139.562 241.083C147.988 241.083 155.617 240.991 163.241 241.137C165.686 241.184 166.914 240.479 168.083 238.172C173.157 228.148 181.582 223.092 192.762 222.781C198.872 222.61 204.995 222.59 211.104 222.791C226.691 223.306 238.507 235.281 238.484 250.352C238.461 265.378 226.538 277.29 210.946 277.734C205.448 277.89 199.94 277.755 194.439 277.776C182.325 277.824 173.307 272.756 167.748 261.807C167.27 260.865 166.206 259.59 165.374 259.56C159.855 259.359 154.324 259.457 148.15 259.457C156.631 273.271 167.156 283.525 181.083 289.698C224.735 309.042 270.172 284.106 282.221 239.193C286.31 223.951 287.745 207.955 289.807 192.226C291.37 180.303 292.005 168.257 293.078 155.985ZM132.216 337.836C120.276 341.83 109.357 345.728 98.2887 349.139C69.5042 358.009 48.4377 376.213 33.7691 402.139C25.2573 417.185 20.2092 433.353 18.9168 450.911C77.3589 450.911 135.475 450.911 194.916 450.911C170.147 414.849 145.833 379.504 132.216 337.836ZM227.65 450.842C286.623 450.842 344.763 450.842 403.221 450.842C402.713 447.033 402.45 443.522 401.756 440.098C393.913 401.411 373.806 371.562 337.51 354.61C323.493 348.064 308.223 344.197 293.517 339.132C292.428 338.757 291.275 338.567 291.363 338.588C281.649 358.274 273.052 377.87 262.545 396.383C252.031 414.907 239.609 432.347 227.65 450.842ZM292.999 137.091C293.161 136.764 293.386 136.503 293.415 136.22C296.69 104.493 276.641 72.105 246.91 60.2408C232.537 54.5045 217.649 54.5137 202.688 54.9308C173.367 55.7488 151.457 69.1559 137.154 94.7236C132.784 102.537 129.965 110.972 129.299 120.078C129.914 120.078 130.122 120.142 130.202 120.067C130.869 119.445 131.538 118.819 132.162 118.152C146.907 102.416 165.135 93.9745 186.505 91.7699C192.928 91.107 197.853 92.8027 202.603 97.3005C227.957 121.309 258.512 133.735 292.999 137.091ZM329.371 128.048C326.921 74.3073 280.113 18.5937 211.443 18.3019C142.975 18.0112 95.2753 73.0321 92.5812 128.014C98.3186 128.014 104.044 128.014 109.955 128.014C110.104 126.295 110.21 124.798 110.363 123.306C114.366 84.3299 134.429 57.24 170.691 42.4094C188.306 35.205 206.948 35.7817 225.401 36.8788C264.637 39.2133 298.274 66.9007 308.329 104.821C310.338 112.396 311.23 120.268 312.644 128.048C318.154 128.048 323.759 128.048 329.371 128.048ZM210.464 357.255C209.777 357.67 209.324 357.828 209.031 358.137C199.149 368.547 189.349 379.036 179.361 389.342C177.19 391.583 178.371 393.008 179.569 394.833C189.447 409.879 199.294 424.948 209.171 439.994C209.705 440.805 210.437 441.484 211.057 442.2C220.467 428.081 229.768 414.306 238.872 400.401C244.741 391.437 244.616 391.348 236.967 383.705C228.136 374.883 219.296 366.07 210.464 357.255ZM254.061 373.735C254.009 373.779 254.346 373.63 254.454 373.38C260.877 358.582 267.292 343.78 273.661 328.959C273.999 328.173 274.33 327.029 274.009 326.368C270.132 318.387 266.132 310.466 261.95 302.102C248.593 316.237 235.765 329.813 223.318 342.986C233.812 353.482 243.924 363.597 254.061 373.735ZM167.421 375.36C178.047 364.117 187.527 354.088 196.117 345C182.995 331.889 170.336 319.242 157.755 306.67C154.951 312.26 151.755 318.498 148.718 324.812C148.18 325.93 147.78 327.58 148.203 328.626C154.361 343.856 160.67 359.023 167.421 375.36ZM114.543 204.355C113.002 184.888 111.504 165.947 110 146.945C103.94 146.945 97.9452 146.945 91.7713 146.945C91.7713 163.129 91.6656 178.971 91.8276 194.813C91.885 200.438 95.4373 203.989 100.954 204.305C105.34 204.556 109.753 204.355 114.543 204.355ZM312.005 146.74C310.482 166.018 308.985 184.957 307.45 204.391C311.34 204.391 315.113 204.422 318.885 204.384C326.868 204.306 330.213 200.944 330.235 192.859C330.273 178.683 330.253 164.507 330.232 150.332C330.231 149.17 330.038 148.01 329.925 146.74C323.872 146.74 318.117 146.74 312.005 146.74ZM201.376 259.39C204.584 259.39 207.805 259.569 210.998 259.35C216.33 258.984 220.106 255.075 220.097 250.25C220.088 245.418 216.321 241.407 210.979 241.181C204.879 240.921 198.751 240.922 192.651 241.182C187.315 241.409 183.541 245.438 183.552 250.261C183.564 255.095 187.331 258.968 192.67 259.353C195.559 259.563 198.473 259.391 201.376 259.39ZM210.33 329.971C215.123 324.894 220.137 319.581 225.635 313.757C214.16 313.757 203.681 313.757 194.161 313.757C199.017 318.627 204.554 324.179 210.33 329.971ZM110.606 222.926C108.759 232.873 110.774 241.935 120.686 240.457C120.185 237.617 119.694 234.777 119.181 231.941C118.643 228.966 118.085 225.995 117.517 222.926C115.029 222.926 112.799 222.926 110.606 222.926Z" fill="#B8B4CC"/>
<path d="M365.59 427.217C364.342 426.244 361.114 424.856 359.691 422.416C354.012 412.683 347.094 404.154 338.516 396.821C334.087 393.035 333.939 387.707 337.351 383.819C340.786 379.906 345.907 379.538 350.47 383.166C360.881 391.444 369.211 401.493 375.236 413.359C378.612 420.009 374.455 427.203 365.59 427.217Z" fill="#B8B4CC"/>
<path d="M311.842 381.356C307.032 381.317 302.763 376.994 302.801 372.199C302.839 367.39 307.161 363.122 311.958 363.158C316.765 363.194 321.036 367.52 321 372.315C320.962 377.123 316.636 381.394 311.842 381.356Z" fill="#B8B4CC"/>
</svg>
