<svg width="418" height="426" viewBox="0 0 418 426" fill="none" xmlns="http://www.w3.org/2000/svg">
<path d="M88.9486 119.792C89.0252 53.4704 143.019 -0.194583 209.477 0.00053036C275.484 0.195644 329.057 54.0662 328.98 120.17C328.904 186.47 274.862 240.187 208.447 239.98C142.453 239.774 88.8737 185.883 88.9486 119.792ZM208.963 208.676C257.971 208.676 297.672 168.981 297.67 119.978C297.67 70.9627 257.989 31.3006 208.956 31.3041C159.926 31.3076 120.256 70.9714 120.257 119.987C120.261 168.986 159.956 208.676 208.963 208.676Z" fill="black"/>
<path d="M218.492 281.556C297.617 284.979 366.44 322.8 413.747 398.318C415.339 400.86 416.874 403.635 417.557 406.509C419.351 414.058 415.552 421.346 408.808 424.256C401.334 427.479 393.307 424.895 388.661 417.146C378.548 400.276 366.681 384.851 352.532 371.155C256.813 278.485 99.1537 299.763 31.4265 414.519C25.2613 424.965 17.6188 428.226 9.05988 424.064C-0.0843393 419.617 -2.66263 409.955 2.96257 400.302C20.974 369.389 44.764 343.761 74.3132 323.631C114.935 295.958 159.939 282.067 218.492 281.556Z" fill="black"/>
</svg>
