<svg width="12" height="13" viewBox="0 0 12 13" fill="none" xmlns="http://www.w3.org/2000/svg">
<path d="M3.71875 1.26492C3.71875 1.15303 3.7632 1.04573 3.84231 0.966612C3.92143 0.887495 4.02874 0.843048 4.14062 0.843048H7.51562C7.62751 0.843048 7.73482 0.887495 7.81394 0.966612C7.89305 1.04573 7.9375 1.15303 7.9375 1.26492C7.9375 1.37681 7.89305 1.48412 7.81394 1.56323C7.73482 1.64235 7.62751 1.6868 7.51562 1.6868H4.14062C4.02874 1.6868 3.92143 1.64235 3.84231 1.56323C3.7632 1.48412 3.71875 1.37681 3.71875 1.26492Z" fill="#161821"/>
<path d="M5.82813 4.21808C5.71624 4.21808 5.60893 4.26253 5.52981 4.34164C5.4507 4.42076 5.40625 4.52807 5.40625 4.63995V8.01496C5.40625 8.12684 5.4507 8.23415 5.52981 8.31327C5.60893 8.39238 5.71624 8.43683 5.82813 8.43683C5.94001 8.43683 6.04732 8.39238 6.12644 8.31327C6.20555 8.23415 6.25 8.12684 6.25 8.01496V4.63995C6.25 4.52807 6.20555 4.42076 6.12644 4.34164C6.04732 4.26253 5.94001 4.21808 5.82813 4.21808Z" fill="#161821"/>
<path d="M10.8906 7.59305C10.8906 8.93571 10.3573 10.2234 9.40786 11.1728C8.45845 12.1222 7.17078 12.6555 5.82813 12.6555C4.48547 12.6555 3.1978 12.1222 2.2484 11.1728C1.29899 10.2234 0.765625 8.93571 0.765625 7.59305C0.765625 6.25039 1.29899 4.96272 2.2484 4.01332C3.1978 3.06392 4.48547 2.53055 5.82813 2.53055C7.17078 2.53055 8.45845 3.06392 9.40786 4.01332C10.3573 4.96272 10.8906 6.25039 10.8906 7.59305ZM10.0469 7.59305C10.0469 6.47417 9.6024 5.40111 8.81123 4.60994C8.02006 3.81877 6.94701 3.3743 5.82813 3.3743C4.70924 3.3743 3.63619 3.81877 2.84502 4.60994C2.05385 5.40111 1.60938 6.47417 1.60938 7.59305C1.60938 8.71193 2.05385 9.78499 2.84502 10.5762C3.63619 11.3673 4.70924 11.8118 5.82813 11.8118C6.94701 11.8118 8.02006 11.3673 8.81123 10.5762C9.6024 9.78499 10.0469 8.71193 10.0469 7.59305Z" fill="#161821"/>
<path d="M10.0073 2.22874C9.96839 2.18845 9.92184 2.15631 9.87037 2.1342C9.8189 2.11209 9.76354 2.10045 9.70752 2.09996C9.65151 2.09947 9.59595 2.11015 9.54411 2.13136C9.49226 2.15257 9.44516 2.1839 9.40555 2.22351C9.36594 2.26312 9.33461 2.31022 9.3134 2.36207C9.29219 2.41392 9.28151 2.46947 9.282 2.52549C9.28249 2.5815 9.29412 2.63686 9.31623 2.68833C9.33834 2.7398 9.37048 2.78635 9.41078 2.82527L10.5946 4.00905C10.6335 4.04934 10.68 4.08148 10.7315 4.10359C10.783 4.1257 10.8383 4.13734 10.8943 4.13783C10.9504 4.13832 11.0059 4.12764 11.0578 4.10643C11.1096 4.08522 11.1567 4.05389 11.1963 4.01428C11.2359 3.97467 11.2673 3.92757 11.2885 3.87572C11.3097 3.82387 11.3204 3.76832 11.3199 3.7123C11.3194 3.65629 11.3077 3.60093 11.2856 3.54946C11.2635 3.49799 11.2314 3.45144 11.1911 3.41252L10.0073 2.22874Z" fill="#161821"/>
</svg>
