<svg width="10" height="12" viewBox="0 0 10 12" fill="none" xmlns="http://www.w3.org/2000/svg">
<path d="M3.2251 0.687933C3.2251 0.598423 3.26066 0.512578 3.32395 0.449285C3.38724 0.385991 3.47309 0.350433 3.5626 0.350433H6.2626C6.35211 0.350433 6.43795 0.385991 6.50125 0.449285C6.56454 0.512578 6.6001 0.598423 6.6001 0.687933C6.6001 0.777444 6.56454 0.863288 6.50125 0.926582C6.43795 0.989875 6.35211 1.02543 6.2626 1.02543H3.5626C3.47309 1.02543 3.38724 0.989875 3.32395 0.926582C3.26066 0.863288 3.2251 0.777444 3.2251 0.687933Z" fill="#161821"/>
<path d="M8.25384 1.65304C8.31711 1.58998 8.40279 1.55457 8.49212 1.55457C8.58145 1.55457 8.66713 1.58998 8.73039 1.65304L9.68484 2.60749C9.71708 2.63863 9.74279 2.67587 9.76048 2.71704C9.77817 2.75822 9.78748 2.80251 9.78787 2.84732C9.78826 2.89213 9.77972 2.93658 9.76275 2.97805C9.74578 3.01953 9.72072 3.05721 9.68903 3.0889C9.65734 3.12059 9.61966 3.14565 9.57818 3.16262C9.5367 3.17959 9.49226 3.18813 9.44745 3.18774C9.40263 3.18735 9.35835 3.17804 9.31717 3.16035C9.27599 3.14266 9.23875 3.11695 9.20762 3.08472L8.25384 2.13027C8.19057 2.06698 8.15503 1.98115 8.15503 1.89166C8.15503 1.80216 8.19057 1.71633 8.25384 1.65304Z" fill="#161821"/>
<path d="M9.6375 6.42578C9.6375 7.67892 9.13969 8.88075 8.25358 9.76685C7.36747 10.653 6.16565 11.1508 4.9125 11.1508C3.65935 11.1508 2.45753 10.653 1.57142 9.76685C0.685311 8.88075 0.1875 7.67892 0.1875 6.42578C0.1875 5.17263 0.685311 3.9708 1.57142 3.0847C2.45753 2.19859 3.65935 1.70078 4.9125 1.70078C6.16565 1.70078 7.36747 2.19859 8.25358 3.0847C9.13969 3.9708 9.6375 5.17263 9.6375 6.42578ZM4.575 3.38828V6.76328C4.575 6.85279 4.61056 6.93863 4.67385 7.00192C4.73714 7.06522 4.82299 7.10078 4.9125 7.10078C5.00201 7.10078 5.08786 7.06522 5.15115 7.00192C5.21444 6.93863 5.25 6.85279 5.25 6.76328V3.38828C5.25 3.29876 5.21444 3.21292 5.15115 3.14963C5.08786 3.08633 5.00201 3.05078 4.9125 3.05078C4.82299 3.05078 4.73714 3.08633 4.67385 3.14963C4.61056 3.21292 4.575 3.29876 4.575 3.38828Z" fill="#161821"/>
</svg>
