<svg width="860" height="1208" viewBox="0 0 860 1208" fill="none" xmlns="http://www.w3.org/2000/svg">
<path d="M830.125 116.036C830.125 118.443 830.125 120.43 830.125 122.418C830.125 221.935 830.259 321.451 830.069 420.968C829.972 471.337 822.763 520.947 812.487 570.136C792.749 664.619 759.622 754.09 711.402 837.811C651.609 941.626 572.909 1028.3 475.019 1097.42C461.551 1106.93 447.604 1115.76 433.938 1124.99C431.652 1126.54 429.955 1126.92 427.316 1125.28C303.993 1048.43 207.243 946.505 138.082 818.623C89.2069 728.246 57.3719 632.05 40.7969 530.73C34.1129 489.869 30.5219 448.803 30.6829 407.326C31.0519 312.145 30.8299 216.961 30.7059 121.779C30.6999 117.353 31.6559 115.588 36.3909 114.707C149.374 93.669 262.317 72.415 375.27 51.217C392.458 47.991 409.654 44.802 426.868 41.715C429.098 41.315 431.527 41.253 433.746 41.668C526.092 58.903 618.425 76.209 710.759 93.508C748.905 100.655 787.051 107.801 825.196 114.956C826.658 115.23 828.105 115.591 830.125 116.036ZM783.083 356.238C781.474 355.595 780.11 354.993 778.707 354.498C680.598 319.892 579.516 300.561 475.621 296.276C382.778 292.446 290.84 299.973 200.012 319.979C159.955 328.802 120.598 340.045 82.0589 354.121C79.5999 355.019 77.7599 355.771 77.7849 359.154C78.1239 403.96 76.8679 448.761 82.7089 493.432C91.9109 563.812 108.701 632.202 134.222 698.398C186.338 833.578 267.887 947.255 382.461 1036.59C397.937 1048.65 414.088 1059.85 429.757 1071.33C431.613 1070.19 432.77 1069.55 433.864 1068.81C489.21 1031.34 539.108 987.678 583.075 937.317C656.46 853.26 708.634 757.31 742.758 651.336C763.055 588.304 776.791 523.852 781.323 457.742C783.28 429.189 782.591 400.454 783.072 371.801C783.158 366.652 783.083 361.497 783.083 356.238ZM782.826 305.873C782.826 286.785 782.826 268.004 782.826 249.098C779.515 248.402 776.435 247.693 773.331 247.112C660.225 225.919 547.118 204.729 433.998 183.612C431.619 183.168 429.009 183.212 426.623 183.656C365.557 195.031 304.506 206.487 243.453 217.933C189.93 227.967 136.414 238.045 82.8689 247.959C79.0529 248.666 77.6289 249.928 77.7599 253.991C78.0809 263.98 77.8649 273.987 77.8649 283.987C77.8649 290.94 77.8649 297.893 77.8649 304.841C313.171 228.785 547.837 229.148 782.826 305.873ZM782.834 155.159C781.308 154.777 779.89 154.343 778.442 154.071C663.54 132.522 548.636 110.982 433.724 89.488C431.801 89.128 429.707 88.991 427.802 89.342C406.183 93.316 384.586 97.411 362.98 101.461C280.158 116.987 197.335 132.506 114.513 148.035C102.426 150.301 90.3459 152.608 78.1429 154.919C78.1429 170.42 78.1429 185.521 78.1429 200.766C79.0809 200.698 79.7409 200.713 80.3769 200.594C192.981 179.469 305.579 158.313 418.198 137.267C423.516 136.273 429.215 135.087 434.397 135.973C461.478 140.605 488.451 145.867 515.457 150.93C584.364 163.848 653.267 176.783 722.175 189.697C742.29 193.467 762.415 197.19 782.833 200.989C782.834 185.561 782.834 170.455 782.834 155.159Z" fill="black"/>
<path d="M523.832 511.523C510.123 514.546 497.959 515.41 485.652 511.905C487.08 520.406 492.156 524.657 518.053 539.426C511.758 543.422 495.44 542.312 479.587 536.809C481.053 541.25 486.382 546.911 496.923 554.297C503.82 559.129 511.076 563.449 519.152 568.627C503.221 571.094 489.146 566.998 475.117 562.534C474.832 562.891 474.547 563.248 474.262 563.605C482.468 570.276 490.674 576.947 498.83 583.578C490.652 585.562 479.102 583.606 467.564 577.997C467.564 581.075 467.171 583.849 467.635 586.471C469.248 595.583 473.497 603.733 479.82 610.161C487.7 618.171 496.404 625.447 505.246 632.414C516.077 640.947 527.938 648.222 538.404 657.154C550.388 667.382 557.251 680.693 557.175 697.003C557.169 698.278 558.872 700.696 559.569 700.62C561.461 700.416 563.988 699.655 564.936 698.232C569.456 691.447 571.803 683.773 572.052 675.632C572.751 652.818 573.116 629.993 573.927 607.184C574.21 599.229 574.882 591.208 576.336 583.395C577.922 574.871 582.032 567.409 589.25 562.084C590.515 561.151 591.929 560.419 594.474 558.858C587.813 574.011 582.039 587.992 587.459 603.732C591.806 590.332 601.201 581.403 612.905 574.263C610.813 579.796 608.268 585.207 606.729 590.89C604.04 600.823 601.881 610.905 599.708 620.969C599.227 623.196 599.408 625.633 599.647 627.936C600.111 632.401 602.114 633.429 606.007 630.951C608.791 629.179 611.216 626.832 613.753 624.685C614.984 623.643 616.107 622.473 618.202 620.484C617.07 628.952 616.241 636.273 615.087 643.541C612.843 657.673 611.33 672.005 607.865 685.841C601.672 710.567 585.781 724.065 553.48 722.858C549.518 722.71 547.285 723.836 544.529 726.56C534.127 736.839 523.35 746.745 512.548 756.61C508.376 760.421 503.552 763.519 499.392 767.341C487.663 778.119 485.808 791.565 493.924 805.161C496.213 808.996 498.602 812.772 501.018 816.692C487.841 829.766 481.654 846.253 476.068 863.076C473.901 869.602 469.875 871.825 463.228 870.469C461.131 870.041 459.027 869.644 456.577 869.165C456.221 872.361 455.859 875.278 455.581 878.203C455.198 882.222 453.091 884.797 449.084 885.25C442.65 885.977 436.182 886.835 429.728 886.845C422.293 886.856 414.857 886.004 406.835 885.49C411.683 871.944 420.481 862.973 431.957 856.521C435.516 854.52 437.803 852.717 437.086 848.153C436.828 846.512 438.194 844.416 439.244 842.804C443.972 835.547 448.688 828.272 453.73 821.234C457.578 815.862 458.511 809.991 456.279 804.166C451.762 792.374 446.764 780.754 441.619 769.217C434.728 753.764 433.592 738.001 438.826 721.981C443.642 707.242 453.851 697.937 468.912 694.044C469.878 693.794 470.84 693.527 471.8 693.254C472.271 693.12 472.734 692.956 473.277 692.78C464.346 691.493 459.37 693.844 439.467 708.764C422.138 698.108 406.423 685.261 392.875 670.027C383.603 659.6 375.309 648.29 366.831 637.181C365.015 634.802 363.365 633.712 360.351 633.755C348.561 633.921 336.768 633.823 324.098 633.823C324.983 637.527 325.485 640.589 326.454 643.495C329.194 651.709 332.142 659.853 334.969 668.038C335.507 669.596 336.459 671.322 336.201 672.792C335.095 679.084 338.095 681.703 343.673 683.935C354.344 688.205 355.963 692.315 350.688 702.419C346.12 711.17 340.33 719.283 334.64 728.382C326.879 719.532 323.081 710.405 321.233 700.53C320.105 694.499 319.459 688.859 312.496 686.289C310.654 685.609 309.091 682.52 308.538 680.258C303.955 661.526 299.632 642.73 295.258 623.946C294.995 622.817 294.935 621.636 294.84 620.474C293.785 607.519 296.618 603.677 309.358 602.443C335.264 599.934 357.007 588.218 376.568 572.029C380.89 568.452 384.074 563.081 386.737 557.99C398.321 535.839 405.419 512.08 410.722 487.759C411.381 484.737 412.137 483.16 415.655 483.087C428.368 482.824 436.478 476.156 440.362 464.232C441.774 459.896 442.844 455.449 443.222 450.712C440.317 454.514 437.377 458.29 434.515 462.123C427.92 470.956 419.181 473.567 408.863 470.476C402.346 468.524 395.861 466.246 389.693 463.397C380.883 459.328 372.513 458.919 363.896 463.788C361.206 465.308 358.043 466.509 354.999 466.79C344.995 467.714 337.97 460.929 338.145 450.861C338.267 443.853 339.497 436.988 345.282 432.375C348.382 429.903 352.267 427.943 356.107 426.962C367.837 423.965 379.746 421.679 391.511 418.808C393.777 418.255 396.422 416.788 397.667 414.923C405.883 402.616 416.98 395.851 432.579 396.454C433.055 387.599 435.251 379.748 442.094 373.131C444.584 377.98 446.82 382.53 449.235 386.984C451.775 391.668 454.226 396.319 460.353 397.537C462.408 397.946 464.341 399.943 465.923 401.602C475.723 411.882 486.668 419.884 503.032 419.859C496.694 425.646 490.415 428.177 481.627 429.672C493.3 437.458 503.846 444.492 514.392 451.525C514.169 452.071 513.946 452.616 513.723 453.162C503.919 453.162 494.115 453.162 483.213 453.162C497.82 464.692 514.636 472.17 523.548 488.769C511.445 483.813 498.913 481.697 484.841 481.029C495.295 494.839 507.786 504.268 523.832 511.523Z" fill="black"/>
<path d="M317.365 784.365C329.051 774.859 341.795 772.655 355.482 774.57C358.541 774.998 360.587 775.175 362.576 772.113C363.524 770.653 366.658 769.851 368.703 770.012C374.326 770.456 379.881 772.1 385.493 772.269C391.577 772.452 397.7 771.562 403.796 771.03C406.944 770.755 408.518 768.726 408.679 765.703C408.892 761.715 409.003 757.718 409.011 753.724C409.046 736.92 409.026 720.116 409.026 701.827C415.719 707.703 421.599 712.679 427.172 717.977C427.934 718.701 427.4 721.082 427.075 722.613C423.639 738.775 423.629 754.772 430.115 770.213C432.283 775.374 435.428 780.172 438.51 784.886C441.282 789.126 441.36 796.104 437.835 799.665C436.947 800.562 435.195 800.829 433.799 800.966C420.151 802.298 406.732 804.592 394.154 810.368C391.599 811.542 389.088 812.922 386.799 814.547C378.073 820.74 372.497 819.19 368.197 809.209C367.807 808.304 367.426 807.396 366.826 805.985C364.126 808.277 361.598 810.287 359.228 812.467C356.069 815.373 352.589 815.799 349.243 813.318C343.511 809.067 337.787 804.746 332.511 799.957C327.353 795.273 322.759 789.97 317.365 784.365Z" fill="black"/>
<path d="M352.973 565.578C344.392 554.554 336.039 543.824 327.114 532.358C319.452 539.274 312.131 545.711 305.017 552.368C300.909 556.213 297.552 560.998 291.046 561.08C290.297 561.089 289.274 562.737 288.887 563.809C287.59 567.403 286.774 571.184 285.316 574.703C282.761 580.867 280.456 582.221 274.063 580.944C263.47 578.827 254.215 573.602 244.728 567.914C250.755 558.476 259.224 552.836 269 549.121C272.99 547.605 275.999 545.923 276.98 541.412C277.34 539.758 278.621 538.059 279.937 536.894C294.644 523.873 309.473 510.988 324.193 497.98C328.28 494.369 332.48 494.532 336.41 497.625C341.494 501.626 346.619 505.719 350.991 510.451C359.013 519.132 366.544 528.271 374.142 537.336C375.005 538.366 375.76 540.558 375.25 541.5C369.951 551.293 362.799 559.433 352.973 565.578Z" fill="black"/>
</svg>
