<svg width="98" height="134" viewBox="0 0 98 134" fill="none" xmlns="http://www.w3.org/2000/svg">
<path d="M97.9615 30.5863C97.9615 37.1676 98.0133 43.7495 97.9368 50.33C97.9049 53.0749 97.4996 55.8056 97.1067 58.5272C96.6322 61.8138 96.0107 65.0725 95.249 68.3028C94.4587 71.6536 93.5193 74.9644 92.4286 78.2303C91.1114 82.1745 89.587 86.0376 87.8369 89.8102C84.2538 97.5342 79.8218 104.729 74.4575 111.35C71.5662 114.918 68.4389 118.264 65.0879 121.397C60.2976 125.876 55.0889 129.816 49.5338 133.301C49.1854 133.52 48.9285 133.481 48.5914 133.27C41.2755 128.711 34.6057 123.357 28.6698 117.099C24.4666 112.668 20.7087 107.887 17.3882 102.76C14.0575 97.6164 11.2133 92.2181 8.82798 86.5764C6.31624 80.6355 4.34434 74.5176 2.86569 68.2417C1.78125 63.6392 0.980357 58.9837 0.514495 54.2792C0.266036 51.7694 0.0998664 49.2514 0.105613 46.7201C0.133002 34.7594 0.117718 22.7988 0.117963 10.8381C0.117963 9.77031 0.12102 9.78205 1.14261 9.59045C4.42394 8.97493 7.70209 8.34241 10.984 7.73055C16.0464 6.78684 21.1121 5.86087 26.1741 4.91545C28.9155 4.40349 31.6508 3.85852 34.3916 3.34314C39.1929 2.44039 43.9944 1.53875 48.8006 0.662783C49.6165 0.514098 50.4099 0.854385 51.2034 0.999524C56.5502 1.97685 61.8911 2.98598 67.2325 3.99265C71.1533 4.73155 75.0702 5.49075 78.9917 6.22561C83.3535 7.04301 87.7191 7.83937 92.0816 8.65237C93.8426 8.98055 95.5954 9.3552 97.3615 9.65244C97.9489 9.75124 98.0006 10.058 98 10.5366C97.9911 17.2199 97.994 23.9032 97.994 30.5865C97.9832 30.5861 97.9724 30.5863 97.9615 30.5863ZM92.1552 44.4095C92.1552 42.5333 92.1417 41.1883 92.1631 39.8439C92.1697 39.4298 92.0256 39.2321 91.6311 39.0937C86.7061 37.3655 81.695 35.9417 76.5964 34.8302C72.3371 33.9017 68.0404 33.2023 63.7074 32.7055C59.6375 32.2389 55.556 31.9855 51.4638 31.9128C49.1841 31.8723 46.9033 31.909 44.6214 31.9722C41.7283 32.0524 38.8476 32.258 35.9691 32.5201C32.7851 32.81 29.6157 33.237 26.4682 33.7899C22.4767 34.4912 18.5185 35.3583 14.6148 36.4584C11.9092 37.2209 9.23051 38.0671 6.59136 39.0371C6.26195 39.1581 6.02951 39.2905 6.03171 39.713C6.0547 44.2739 5.93597 48.8371 6.38288 53.3883C6.93519 59.0138 7.93685 64.5589 9.38738 70.0184C11.2758 77.1261 13.8504 83.9761 17.1714 90.5463C21.2703 98.6553 26.4039 106.038 32.6185 112.661C37.305 117.656 42.4952 122.072 48.1693 125.912C49.2102 126.616 48.8885 126.674 50.0068 125.904C56.9712 121.104 63.2357 115.519 68.6952 109.052C74.5542 102.113 79.3011 94.4689 83.016 86.1843C84.9518 81.8672 86.5757 77.4353 87.9206 72.8975C89.5035 67.5569 90.6776 62.1289 91.4087 56.611C91.9679 52.3888 92.261 48.1431 92.1552 44.4095ZM92.1554 29.6399C92.1554 28.8249 92.1556 28.01 92.1554 27.1949C92.1552 26.2094 92.1557 26.2063 91.2097 26.0289C86.0079 25.053 80.8054 24.0809 75.604 23.1031C71.7428 22.3773 67.8836 21.6404 64.0221 20.9161C59.9609 20.1546 55.9009 19.3863 51.8341 18.6556C50.5457 18.4241 49.2917 18.0398 47.9169 18.3246C44.1296 19.1094 40.3201 19.7878 36.5179 20.5007C33.1571 21.1307 29.7936 21.7466 26.4327 22.3761C23.6914 22.8895 20.9532 23.419 18.2119 23.9316C14.35 24.6539 10.487 25.3712 6.62242 26.079C6.17636 26.1607 6.02377 26.3734 6.02939 26.8245C6.05054 28.5357 6.03758 30.2473 6.03758 31.9588C6.03758 32.9601 6.03807 32.961 6.96845 32.6381C11.3023 31.134 15.7244 29.9477 20.207 28.9847C24.3687 28.0905 28.563 27.4029 32.7933 26.9063C37.1041 26.4003 41.425 26.0823 45.7611 25.9904C49.8342 25.9039 53.9079 25.9422 57.9743 26.2352C59.6386 26.3551 61.306 26.4598 62.9624 26.6531C65.9336 26.9999 68.9015 27.3653 71.8507 27.8917C74.9987 28.4536 78.1279 29.0879 81.233 29.8475C84.7365 30.7045 88.1942 31.7197 91.6111 32.8715C92.0849 33.0312 92.1723 32.892 92.1619 32.4513C92.14 31.5147 92.1553 30.5771 92.1554 29.6399ZM92.1554 17.4213C92.1554 16.8101 92.1558 16.1988 92.1553 15.5875C92.1546 14.711 92.1548 14.7084 91.2794 14.5455C86.7771 13.7071 82.2734 12.8767 77.7727 12.0309C73.8509 11.294 69.9335 10.5338 66.0119 9.79562C61.2707 8.90315 56.53 8.00738 51.7825 7.14877C50.6696 6.94751 49.5717 6.52995 48.4063 6.74613C46.6245 7.07651 44.8427 7.40677 43.0624 7.74486C39.1424 8.48938 35.2247 9.24686 31.3033 9.98417C25.942 10.9922 20.5781 11.9868 15.2152 12.9866C12.4134 13.5089 9.61334 14.0406 6.80815 14.5436C6.26085 14.6418 6.00249 14.8312 6.0234 15.4458C6.06974 16.8093 6.0503 18.1758 6.03159 19.5407C6.02511 20.0135 6.19849 20.1572 6.65494 20.0706C10.1746 19.402 13.6962 18.7444 17.2167 18.0804C21.2172 17.3258 25.2167 16.5658 29.2174 15.8127C34.5188 14.8147 39.8152 13.7882 45.1262 12.8434C46.9834 12.513 48.8292 11.7849 50.774 12.4016C51.1786 12.5299 51.6112 12.5705 52.0313 12.6494C56.7929 13.5432 61.5543 14.4377 66.3161 15.3296C71.5377 16.3077 76.7601 17.2807 81.9813 18.2606C85.1626 18.8577 88.343 19.4608 91.5222 20.0685C91.956 20.1514 92.1792 20.0584 92.1613 19.5605C92.1358 18.8483 92.1548 18.1344 92.1554 17.4213Z" fill="black"/>
<path d="M52.7413 80.7516C51.9391 80.9451 51.3165 81.4401 50.7616 81.9942C50.3567 82.3985 50.0517 82.3721 49.6101 82.077C46.4024 79.9332 43.702 77.2758 41.5495 74.0792C41.1225 73.4451 40.6711 73.1748 39.9103 73.2261C38.957 73.2905 37.9959 73.2407 37.0381 73.2419C36.1817 73.243 36.1342 73.2706 36.3912 74.1032C36.7273 75.1922 37.127 76.2615 37.4993 77.3392C37.5524 77.4929 37.6731 77.6582 37.6485 77.7982C37.4834 78.7393 38.0825 79.0292 38.8011 79.3476C39.8109 79.7949 39.9596 80.3019 39.5458 81.3181C39.0877 82.4432 38.3719 83.4091 37.6512 84.3729C37.3574 84.7659 37.1451 84.6547 36.9059 84.3169C36.1722 83.2806 35.7314 82.1285 35.5693 80.8773C35.5025 80.3624 35.3095 79.9984 34.8145 79.798C34.4017 79.6308 34.2098 79.2636 34.0927 78.8622C33.4028 76.4982 32.6973 74.1381 32.4189 71.6769C32.3529 71.0927 32.42 70.5325 32.6342 69.9982C32.8679 69.4154 33.4314 69.346 33.9541 69.2749C35.4712 69.0682 36.9765 68.8215 38.3775 68.1617C39.8975 67.4459 41.3206 66.5589 42.5688 65.4436C43.496 64.6149 43.9453 63.4324 44.4182 62.3074C45.3274 60.1442 46.0588 57.9181 46.5077 55.6119C46.6305 54.9815 46.8559 54.6858 47.5445 54.6136C49.2596 54.4338 50.3553 53.1674 50.4489 51.3442C50.1739 51.4698 50.071 51.7168 49.9235 51.9091C48.7498 53.4405 47.7638 53.7606 45.9241 53.1603C45.3251 52.965 44.724 52.7529 44.1616 52.4726C43.0754 51.931 42.0225 51.8908 40.9494 52.4892C40.5179 52.7298 40.0504 52.8607 39.5415 52.817C38.4437 52.7227 37.7127 52.0128 37.6923 50.9161C37.6622 49.2982 38.6101 47.7716 40.4192 47.716C41.7063 47.6764 42.947 47.3108 44.1619 46.8764C44.6657 46.6962 45.0572 46.3876 45.3514 45.9604C46.1603 44.7858 47.2861 44.1783 48.6913 44.0927C49.094 44.0681 49.2513 43.9166 49.3163 43.5229C49.4298 42.8371 49.6416 42.179 50.0939 41.6212C50.3956 41.2491 50.6273 41.2174 50.8341 41.7C50.9702 42.0178 51.1192 42.3319 51.2869 42.6341C51.6585 43.3039 51.9562 44.0244 52.836 44.2416C53.2237 44.3373 53.5055 44.6944 53.7858 44.9917C54.8108 46.0796 55.9907 46.8584 57.5457 46.904C57.6651 46.9075 57.8089 46.9064 57.8656 47.0365C57.9412 47.2105 57.7868 47.2955 57.6817 47.3779C57.2437 47.721 56.7438 47.9471 56.2207 48.1278C56.0727 48.1789 55.8384 48.1509 55.8096 48.3323C55.7754 48.5481 56.0206 48.6087 56.1657 48.7018C56.8003 49.1085 57.4481 49.4945 58.0821 49.902C58.4071 50.1108 58.719 50.3415 59.0253 50.5772C59.1788 50.6953 59.4206 50.8054 59.3393 51.0447C59.2707 51.2464 59.029 51.1867 58.8545 51.2226C58.1429 51.3684 57.4332 51.215 56.7228 51.219C56.5086 51.2202 56.2814 51.1409 56.0115 51.3195C56.6769 51.7941 57.3115 52.252 57.952 52.7017C58.7048 53.2303 59.4236 53.798 60.0128 54.5104C60.1801 54.7126 60.3146 54.9432 60.4532 55.1675C60.5153 55.268 60.6061 55.3966 60.5221 55.5048C60.4004 55.6618 60.2581 55.5245 60.1406 55.4702C59.0703 54.976 57.9266 54.7882 56.77 54.661C56.5614 54.6381 56.2709 54.5177 56.1556 54.7536C56.0549 54.9594 56.3247 55.0943 56.455 55.2351C57.5037 56.3677 58.6966 57.307 60.1161 57.9415C60.2648 58.0079 60.5498 58.0058 60.4886 58.2519C60.4382 58.4542 60.1807 58.4005 60.0059 58.426C58.7975 58.6027 57.5898 58.8418 56.3741 58.4647C56.2635 58.4305 56.1068 58.3998 56.0418 58.5269C55.9548 58.6973 56.086 58.837 56.1792 58.9671C56.877 59.9426 57.8712 60.538 58.906 61.0784C59.1405 61.2009 59.3858 61.3025 59.6256 61.4149C59.7488 61.4726 59.9381 61.4939 59.9087 61.6758C59.882 61.842 59.7001 61.8471 59.5626 61.874C58.3365 62.1148 57.1311 61.9638 55.9339 61.6764C55.7411 61.6302 55.5525 61.5664 55.2156 61.4678C55.8062 62.2744 56.4652 62.797 57.14 63.2937C57.9273 63.8733 58.733 64.4294 59.624 64.8465C59.7476 64.9043 59.9332 64.9454 59.9213 65.1117C59.9064 65.3212 59.6891 65.3243 59.5408 65.3471C58.408 65.5213 57.3119 65.2632 56.216 65.0347C55.8007 64.9481 55.3931 64.8255 54.9448 64.7685C55.491 65.4398 56.1953 65.9273 56.8684 66.4517C57.1238 66.6506 57.6475 66.7502 57.5353 67.1066C57.4512 67.3739 56.9472 67.2124 56.6319 67.2137C55.7672 67.2176 54.9226 67.0743 54.141 66.695C53.7349 66.4979 53.6793 66.6782 53.6893 67.0117C53.7155 67.8794 54.0907 68.6234 54.5358 69.3355C55.5062 70.8883 56.829 72.0784 58.3863 73.0194C60.1178 74.0657 61.7833 75.1918 63.1168 76.746C64.0977 77.8894 64.5659 79.2283 64.694 80.7061C64.7134 80.9283 64.6763 81.1842 64.9809 81.2341C65.2385 81.2763 65.3905 81.1107 65.5184 80.9091C66.1288 79.9464 66.2961 78.8629 66.3678 77.7581C66.5478 74.9907 66.4781 72.2187 66.5171 69.4486C66.5367 68.0554 66.7183 66.6841 67.4488 65.4487C67.7659 64.9125 68.1825 64.473 68.718 64.1527C68.8356 64.0824 68.9813 63.9431 69.1041 64.0402C69.275 64.1755 69.1143 64.338 69.047 64.4732C68.4203 65.7332 68.0201 67.0444 68.1247 68.4724C68.1365 68.6348 68.1492 68.7975 68.1732 68.9583C68.1847 69.0355 68.2233 69.1086 68.2913 69.3018C68.5559 68.6626 68.8117 68.1311 69.1722 67.6567C69.6839 66.9831 70.3042 66.4306 70.9912 65.9487C71.1267 65.8537 71.2717 65.6223 71.454 65.7909C71.5866 65.9135 71.4259 66.0911 71.3648 66.235C70.7265 67.7395 70.2145 69.2823 69.9265 70.8952C69.8361 71.4011 69.8357 71.9095 69.8615 72.4182C69.8844 72.8697 70.0996 72.9994 70.5057 72.7616C70.9696 72.4901 71.3303 72.1007 71.707 71.7285C71.7907 71.6459 71.8764 71.5254 72.0138 71.5779C72.1629 71.6348 72.1259 71.7773 72.1051 71.8945C71.6707 74.3385 71.5615 76.8309 70.9706 79.2529C70.1906 82.4502 68.1837 84.1318 64.9216 84.1027C63.918 84.0938 63.2334 84.3343 62.5877 85.1334C61.3002 86.7272 59.6269 87.9207 58.0128 89.1636C56.8695 90.044 56.2178 91.1377 56.3744 92.6331C56.466 93.5084 56.97 94.1882 57.4298 94.8738C57.7514 95.3532 57.7181 95.6358 57.3332 96.0755C56.3871 97.1564 55.7142 98.4149 55.2509 99.7798C55.0545 100.358 54.8639 100.939 54.6536 101.512C54.4556 102.051 53.7937 102.345 53.1346 102.207C52.3729 102.047 52.3454 102.067 52.2621 102.824C52.1668 103.692 51.9556 103.929 51.1112 104.054C49.6082 104.278 48.1048 104.183 46.6014 104.044C46.1293 104 46.1375 103.758 46.2967 103.415C46.9284 102.054 47.9405 101.05 49.2277 100.313C49.5947 100.102 49.9487 99.9438 49.8036 99.3959C49.7349 99.1365 49.9373 98.8979 50.087 98.676C50.6335 97.8652 51.1449 97.0285 51.7279 96.2451C52.3554 95.4018 52.3656 94.5273 52.0555 93.5823C51.6154 92.2411 50.9799 90.9873 50.3658 89.7238C49.1229 87.1659 49.467 83.8309 51.1718 81.9582C51.6226 81.4632 52.1652 81.0876 52.7413 80.7516Z" fill="black"/>
<path d="M46.4192 88.267C46.2755 86.3634 46.3231 84.4905 46.3409 82.6185C46.3443 82.2564 46.2788 81.7336 46.5424 81.5921C46.8278 81.439 47.0643 81.9402 47.3409 82.13C48.3659 82.8337 48.9458 83.5547 48.652 85.0554C48.1932 87.3984 48.6421 89.7073 50.191 91.6929C50.7913 92.4622 50.2857 93.5397 49.3446 93.6857C47.7376 93.935 46.1158 94.1227 44.6253 94.8543C44.3124 95.0078 44.0132 95.173 43.7342 95.3789C42.8209 96.0528 41.9828 95.8821 41.5017 94.8609C41.2876 94.4063 41.137 94.4486 40.8153 94.7303C39.8676 95.5599 39.545 95.5666 38.5367 94.8216C37.4178 93.9949 36.455 93.0046 35.5315 91.9689C35.1986 91.5956 35.2969 91.3811 35.6628 91.1537C36.9378 90.3608 38.3106 90.023 39.8044 90.2628C40.1747 90.3222 40.4855 90.3841 40.7613 89.9878C41.0017 89.6424 41.4346 89.679 41.8328 89.7326C42.7975 89.8626 43.7481 90.1805 44.735 90.0411C46.4485 89.7991 46.2935 89.9082 46.4192 88.267Z" fill="black"/>
<path d="M42.4746 61.7758C42.4478 61.8446 42.4197 61.9668 42.3577 62.0683C41.7484 63.0678 41.0116 63.953 40.061 64.6523C39.7298 64.896 39.5082 64.8627 39.2527 64.5245C38.4556 63.4692 37.6135 62.4476 36.822 61.3882C36.5135 60.9753 36.2805 61.0224 35.941 61.3301C35.0666 62.1231 34.1667 62.8885 33.3608 63.7535C33.1007 64.0325 32.8014 64.2484 32.4235 64.2763C32.0145 64.3065 31.8778 64.5457 31.7898 64.8921C31.6748 65.3448 31.553 65.7966 31.324 66.2126C31.0432 66.7224 30.6265 66.948 30.0569 66.8279C28.8051 66.564 27.6846 65.9863 26.5931 65.3446C26.2429 65.1387 26.4005 64.907 26.573 64.689C27.2729 63.8051 28.1661 63.1769 29.2127 62.7802C29.7108 62.5912 30.122 62.3783 30.2523 61.796C30.3241 61.4747 30.6024 61.2514 30.8373 61.0274C32.4872 59.454 34.1552 57.9007 35.9962 56.5474C36.7101 56.0225 37.0107 56.0155 37.7597 56.5118C38.5481 57.0342 39.1886 57.7228 39.8105 58.4215C40.6355 59.3484 41.4266 60.3056 42.2276 61.2537C42.3429 61.3899 42.4885 61.519 42.4746 61.7758Z" fill="black"/>
</svg>
