<svg width="11" height="11" viewBox="0 0 11 11" fill="none" xmlns="http://www.w3.org/2000/svg">
<path d="M10.1172 7.94061C10.1172 8.45477 10.0809 8.77777 10.0084 8.90961L9.71179 9.48309C9.65906 9.58197 9.49426 9.72864 9.21741 9.92309C8.94055 10.1176 8.65381 10.2807 8.35718 10.4125C8.06055 10.5444 7.86609 10.5839 7.7738 10.5312L7.25964 10.195C7.11462 10.1093 7.02069 9.97913 6.97784 9.80444C6.935 9.62976 6.95642 9.46332 7.04211 9.30511L8.53516 6.45746C8.62085 6.30585 8.7428 6.20532 8.901 6.15588C9.0592 6.10644 9.21082 6.12787 9.35583 6.22015L9.87 6.54645C9.90295 6.56622 9.93262 6.60577 9.95898 6.6651C10.0645 6.27618 10.1172 5.88727 10.1172 5.49835C10.1172 4.92487 10.0117 4.37775 9.80078 3.85699C9.58984 3.33624 9.29651 2.87482 8.92078 2.47272L8.21875 2.6507C7.55957 2.01788 6.71582 1.70148 5.6875 1.70148C4.65918 1.70148 3.81543 2.01788 3.15625 2.6507L2.45422 2.47272C2.07849 2.87482 1.78516 3.33624 1.57422 3.85699C1.36328 4.37775 1.25781 4.92487 1.25781 5.49835C1.25781 5.88727 1.31055 6.27618 1.41602 6.6651C1.44238 6.60577 1.47205 6.56622 1.505 6.54645L2.01917 6.22015C2.16418 6.12787 2.3158 6.10644 2.474 6.15588C2.6322 6.20532 2.75415 6.30585 2.83984 6.45746L4.33289 9.30511C4.41858 9.46332 4.44 9.62976 4.39716 9.80444C4.35431 9.97913 4.26038 10.1093 4.11536 10.195L3.6012 10.5312C3.50891 10.5839 3.31445 10.5444 3.01782 10.4125C2.72119 10.2807 2.43445 10.1176 2.15759 9.92309C1.88074 9.72864 1.71594 9.58197 1.66321 9.48309L1.36658 8.90961C1.29407 8.77777 1.25781 8.45477 1.25781 7.94061C0.835937 7.18256 0.625 6.36847 0.625 5.49835C0.625 4.8128 0.758484 4.15692 1.02545 3.5307C1.29242 2.90448 1.65167 2.3656 2.10321 1.91406C2.55475 1.46252 3.09363 1.10327 3.71985 0.836304C4.34607 0.569336 5.00195 0.435852 5.6875 0.435852C6.37305 0.435852 7.02893 0.569336 7.65515 0.836304C8.28137 1.10327 8.82025 1.46252 9.27179 1.91406C9.72333 2.3656 10.0826 2.90448 10.3495 3.5307C10.6165 4.15692 10.75 4.8128 10.75 5.49835C10.75 6.36847 10.5391 7.18256 10.1172 7.94061Z" fill="#161821"/>
</svg>
