<svg width="54" height="52" viewBox="0 0 54 52" fill="none" xmlns="http://www.w3.org/2000/svg">
<path d="M7.00107 4.49958C7.18501 4.4503 7.36833 4.39817 7.55315 4.35209C9.70948 3.81455 11.8812 3.34956 14.0779 3.01024C15.26 2.82763 16.4446 2.65782 17.6318 2.51338C18.5932 2.39641 19.5596 2.31807 20.5249 2.23646C22.5572 2.06465 24.5942 1.99551 26.6332 2.00022C28.3368 2.00417 30.0386 2.06657 31.7385 2.18828C33.21 2.29363 34.6773 2.43876 36.1391 2.63531C39.4325 3.07812 42.6791 3.74662 45.869 4.68242C45.916 4.6962 45.9609 4.71678 46.0195 4.73899C45.9999 5.04629 45.9818 5.35128 45.9606 5.65606C45.9102 6.38107 45.8578 7.10598 45.807 7.83099C45.7391 8.79767 45.6717 9.76435 45.6047 10.7311C45.5436 11.6125 45.4838 12.4939 45.4227 13.3753C45.3553 14.3491 45.2865 15.3229 45.2195 16.2967C45.1568 17.2067 45.0965 18.1167 45.0336 19.0266C44.9687 19.9649 44.9014 20.903 44.8363 21.8413C44.7874 22.5451 44.741 23.249 44.6923 23.9527C44.6267 24.8981 44.5594 25.8434 44.4937 26.7888C44.4458 27.4783 44.3997 28.1679 44.352 28.8575C44.2855 29.8171 44.2178 30.7766 44.1514 31.7362C44.1248 32.1201 44.1028 32.5043 44.0744 32.888C44.0101 33.7552 43.7856 34.5876 43.4815 35.3957C42.2469 38.6759 40.3236 41.4754 37.6261 43.73C36.9974 44.2555 36.3873 44.8039 35.7475 45.3153C34.4592 46.3454 33.0775 47.2411 31.6406 48.0467C30.0878 48.9172 28.5157 49.7532 26.9545 50.6087C26.8339 50.6748 26.7386 50.669 26.6174 50.6138C22.6888 48.8248 19.0283 46.5982 15.6564 43.9013C13.8631 42.467 12.3885 40.7482 11.1623 38.8128C10.4164 37.6355 9.78766 36.4001 9.34732 35.0737C9.08555 34.2853 8.93039 33.4794 8.88514 32.6474C8.82247 31.4949 8.72933 30.3441 8.6512 29.1924C8.58754 28.254 8.52769 27.3154 8.46436 26.3769C8.39957 25.4171 8.33196 24.4576 8.2668 23.4979C8.21853 22.787 8.17289 22.0758 8.12484 21.3649C8.05905 20.3909 7.99166 19.4171 7.92575 18.4431C7.87765 17.7322 7.83135 17.0211 7.78328 16.3102C7.71691 15.3292 7.64927 14.3482 7.58282 13.3671C7.53562 12.6704 7.48982 11.9736 7.44273 11.2769C7.37542 10.2816 7.3073 9.28636 7.23991 8.29109C7.1937 7.60859 7.14757 6.92609 7.1025 6.24353C7.0678 5.71737 7.03457 5.19112 7.00148 4.66487C6.99841 4.61583 7.00107 4.56655 7.00107 4.49958ZM9.40339 6.46638C9.40339 6.55324 9.40005 6.60992 9.40391 6.6661C9.44678 7.2917 9.49094 7.91723 9.53436 8.5428C9.59651 9.43853 9.65771 10.3343 9.72049 11.23C9.78728 12.1825 9.85579 13.1349 9.92301 14.0873C9.97016 14.7555 10.0158 15.4238 10.0632 16.092C10.1288 17.016 10.1961 17.9399 10.2612 18.864C10.3243 19.7596 10.3843 20.6555 10.4477 21.5511C10.5262 22.66 10.608 23.7686 10.6862 24.8774C10.7504 25.7873 10.8105 26.6974 10.8741 27.6074C10.9561 28.7803 11.0389 29.9531 11.123 31.1259C11.1536 31.5523 11.1755 31.9799 11.2246 32.4043C11.3426 33.4239 11.6423 34.3956 12.0439 35.3364C13.1089 37.8318 14.6927 39.9542 16.7321 41.7293C18.8331 43.5581 21.0993 45.1647 23.4941 46.5877C24.4561 47.1593 25.4465 47.6768 26.4852 48.0987C26.6359 48.1599 26.7551 48.1577 26.902 48.0819C29.6637 46.6557 32.2672 44.9838 34.7201 43.0752C36.0116 42.0702 37.2352 40.996 38.2809 39.7293C39.4546 38.3076 40.4371 36.7719 41.1129 35.0499C41.4342 34.2312 41.6903 33.3918 41.7765 32.5154C41.8727 31.5371 41.9278 30.5547 41.9984 29.5739C42.0481 28.8845 42.0928 28.1947 42.1413 27.5052C42.2204 26.3821 42.3018 25.2592 42.3804 24.136C42.4441 23.2261 42.5038 22.316 42.5677 21.4061C42.646 20.2901 42.7279 19.1743 42.8061 18.0583C42.8703 17.1413 42.9295 16.224 42.994 15.307C43.1005 13.7929 43.2101 12.2791 43.3172 10.765C43.4027 9.55668 43.4872 8.3482 43.5703 7.13967C43.5775 7.03522 43.5713 6.92981 43.5713 6.82117C43.5177 6.80197 43.4721 6.78249 43.4247 6.76904C42.4799 6.50097 41.54 6.21351 40.5888 5.9702C38.5587 5.45086 36.5004 5.07363 34.4227 4.79937C33.0092 4.61276 31.591 4.47835 30.1685 4.39006C28.7951 4.30481 27.4199 4.27583 26.0438 4.28005C24.6321 4.2844 23.2212 4.32651 21.814 4.43567C20.6707 4.52437 19.5282 4.63276 18.3894 4.76677C17.3429 4.8899 16.2992 5.04226 15.2592 5.21158C13.6777 5.46907 12.1093 5.79538 10.553 6.17804C10.1736 6.27136 9.79506 6.36806 9.40339 6.46638Z" fill="black"/>
<path d="M10.2061 7.17176C10.5518 7.08287 10.8806 6.99474 11.2112 6.91396C12.9688 6.48443 14.741 6.12668 16.5283 5.84593C17.8161 5.64363 19.1093 5.48259 20.4071 5.35628C22.7647 5.12686 25.1274 5.03202 27.4953 5.06794C28.9993 5.09073 30.5002 5.17356 31.9984 5.31097C34.691 5.55789 37.3532 5.98632 39.9748 6.65003C40.8645 6.87525 41.7438 7.1416 42.6275 7.39027C42.6951 7.40931 42.7603 7.4375 42.8359 7.46478C42.8241 7.66911 42.815 7.8673 42.8008 8.06507C42.7024 9.42958 42.6036 10.7941 42.5034 12.1584C42.396 13.6223 42.2853 15.0859 42.1789 16.5498C42.0854 17.8361 41.9977 19.1228 41.9042 20.4091C41.7837 22.0649 41.6588 23.7204 41.5381 25.3761C41.4589 26.4634 41.3862 27.5512 41.3064 28.6385C41.2251 29.747 41.1579 30.857 41.0499 31.9629C40.9071 33.4248 40.4715 34.8056 39.807 36.1143C39.0948 37.5173 38.1523 38.7542 37.0909 39.9087C36.2089 40.8679 35.21 41.6928 34.1878 42.4928C32.1755 44.0677 30.069 45.5006 27.8124 46.7057C27.4984 46.8734 27.1765 47.0262 26.8618 47.1925C26.7529 47.25 26.6561 47.256 26.5381 47.2158C25.7326 46.9415 24.9728 46.5684 24.2319 46.1555C22.7414 45.3246 21.3411 44.357 19.9817 43.3291C18.7592 42.4046 17.5549 41.4567 16.4487 40.3926C15.1608 39.1537 14.0599 37.771 13.2489 36.17C12.5054 34.7026 12.0731 33.151 11.9641 31.5068C11.8671 30.0423 11.749 28.5792 11.6426 27.1153C11.5636 26.0279 11.4901 24.9402 11.4112 23.8529C11.3188 22.5809 11.2219 21.3091 11.1296 20.0371C11.0506 18.9498 10.9769 17.8621 10.898 16.7748C10.8057 15.5027 10.7092 14.2309 10.6167 12.9589C10.5521 12.0706 10.4924 11.1819 10.4281 10.2935C10.3649 9.41942 10.298 8.54558 10.2339 7.67154C10.2219 7.50927 10.2156 7.34663 10.2061 7.17176ZM18.0393 19.4422C18.312 19.3912 18.5496 19.3523 18.7839 19.2989C18.839 19.2864 18.8917 19.2322 18.9299 19.1847C18.9739 19.1301 19.0003 19.0615 19.0346 18.9991C19.2291 18.6452 19.4798 18.3373 19.7935 18.0828C19.9916 17.9221 20.2199 17.8261 20.4729 17.7939C20.5388 17.7855 20.6066 17.7926 20.6735 17.7926C20.2651 18.1902 19.936 18.6071 19.797 19.1636C20.0051 19.1636 20.1922 19.1636 20.4054 19.1636C20.4054 18.9617 20.4054 18.7816 20.4054 18.5812C22.3673 18.5812 24.3029 18.5812 26.2427 18.5812C26.2427 15.8993 26.2427 13.2388 26.2427 10.5631C21.1951 10.5526 16.2408 11.1138 11.3932 12.4739C11.4144 13.4408 12.4482 27.3456 12.5123 27.5432C15.1315 27.5432 17.751 27.5432 20.3919 27.5432C20.3919 27.4524 20.3919 27.3756 20.3919 27.2989C20.3919 26.4792 20.392 25.6594 20.3918 24.8397C20.3918 24.5774 20.3894 24.574 20.1438 24.4966C20.0963 24.4816 20.048 24.4687 19.9993 24.458C19.4938 24.3467 18.982 24.3163 18.4696 24.381C18.21 24.4137 17.9455 24.4617 17.7014 24.5521C17.1253 24.7655 16.5768 25.037 16.1084 25.4479C15.9693 25.57 15.8251 25.6884 15.672 25.7918C15.4856 25.9176 15.3946 26.0725 15.3901 26.3054C15.3849 26.5759 15.1286 26.7425 14.8639 26.6959C14.7185 26.6703 14.5672 26.6587 14.4202 26.6674C14.2638 26.6766 14.1611 26.6132 14.0793 26.4934C13.9901 26.3628 14.0066 26.226 14.0485 26.0836C14.0844 25.9616 14.1157 25.8372 14.1359 25.7118C14.1892 25.3802 14.3873 25.2466 14.71 25.3325C14.8914 25.3808 15.0139 25.2897 15.0219 25.0998C15.0233 25.0642 15.0223 25.0285 15.0211 24.9929C15.0006 24.3544 15.1779 23.7686 15.4967 23.2218C15.6431 22.9706 15.8413 22.7681 16.0985 22.6291C16.1955 22.5767 16.2954 22.5208 16.4407 22.5562C16.2241 22.8848 16.0632 23.2238 15.9552 23.5855C15.8484 23.9429 15.7396 24.3008 15.7553 24.7133C15.9272 24.6057 16.0649 24.506 16.2145 24.4297C16.3594 24.3559 16.4241 24.2491 16.4705 24.0942C16.5622 23.7885 16.6724 23.486 16.8042 23.1954C16.96 22.8522 17.2387 22.6171 17.5745 22.454C17.6658 22.4096 17.7708 22.393 17.8694 22.3637C17.8792 22.3767 17.889 22.3897 17.8988 22.4026C17.5494 22.85 17.2843 23.3338 17.1965 23.9077C17.2379 23.9077 17.2525 23.9108 17.2652 23.9072C17.4221 23.8621 17.6138 23.8564 17.726 23.7592C17.8447 23.6563 17.8871 23.4658 17.9637 23.314C18.1417 22.9611 18.3994 22.6816 18.742 22.4841C18.8639 22.4139 18.9913 22.3501 19.1641 22.3587C18.8852 22.7491 18.63 23.1329 18.5568 23.612C18.6819 23.612 18.7885 23.6039 18.8933 23.6139C19.0667 23.6304 19.1899 23.5613 19.2971 23.4291C19.5333 23.1379 19.8211 22.9067 20.1534 22.7318C20.2284 22.6924 20.3033 22.653 20.3778 22.6138C20.3778 21.783 20.3778 20.9597 20.3778 20.1289C20.0126 20.0521 19.6566 20.0439 19.3037 20.101C18.5558 20.2219 17.8375 20.4538 17.1281 20.7141C16.6194 20.9008 16.1223 21.1126 15.6534 21.3876C15.5442 21.4517 15.4835 21.5282 15.4842 21.6579C15.4846 21.7353 15.4735 21.815 15.4535 21.8899C15.3574 22.2502 15.0608 22.385 14.7346 22.2102C14.6077 22.1423 14.493 22.1103 14.3506 22.1646C14.2749 22.1934 14.1808 22.1891 14.0974 22.1794C13.7224 22.1356 13.5248 21.7035 13.7588 21.4076C13.8854 21.2475 13.9734 21.0834 14.0363 20.891C14.1137 20.6545 14.3116 20.5493 14.5585 20.5875C14.6555 20.6025 14.7498 20.6404 14.8427 20.6749C14.9971 20.7324 15.0517 20.7115 15.0884 20.5548C15.1258 20.3955 15.1562 20.2342 15.1829 20.0727C15.2998 19.3657 15.6123 18.7493 16.0534 18.1934C16.309 17.8714 16.6415 17.6573 17.0314 17.5344C17.1551 17.4954 17.2824 17.4504 17.4515 17.487C17.3623 17.5761 17.296 17.6479 17.224 17.7133C16.5854 18.2933 16.2684 19.0469 16.063 19.8606C16.0408 19.9486 16.0156 20.0402 16.0948 20.1155C16.2885 20.0442 16.4709 19.9567 16.6633 19.9111C16.9198 19.8503 17.0585 19.7155 17.119 19.4526C17.1961 19.1173 17.3632 18.8136 17.5647 18.535C17.934 18.0242 18.3997 17.6417 19.0264 17.4883C19.0741 17.4767 19.1261 17.4826 19.2202 17.4784C18.6227 18.0339 18.1733 18.6255 18.0393 19.4422ZM32.8065 28.2207C32.7976 28.2375 32.786 28.2496 32.7852 28.2624C32.7772 28.3975 32.7708 28.5327 32.7641 28.6678C32.7251 29.4572 32.5661 30.2209 32.2683 30.9537C31.8768 31.9172 31.2744 32.7265 30.4781 33.3938C30.4202 33.4423 30.3463 33.5002 30.3303 33.5659C30.2482 33.9048 30.2124 34.2511 30.195 34.6234C30.361 34.5615 30.5028 34.4911 30.6529 34.4571C30.8335 34.4162 30.9269 34.309 30.997 34.1476C31.1681 33.753 31.3921 33.3893 31.6857 33.0725C32.0604 32.6682 32.493 32.3523 33.0354 32.21C33.193 32.1687 33.3514 32.1544 33.5327 32.2208C33.4871 32.2561 33.4625 32.2795 33.4341 32.2966C33.0306 32.5384 32.7097 32.8713 32.4132 33.2295C32.2579 33.4171 32.1314 33.6239 32.0597 33.8593C32.0468 33.9017 32.0508 33.9492 32.0469 33.9956C32.3746 33.9435 32.6832 33.8892 32.9935 33.8476C33.1315 33.8292 33.221 33.7747 33.2953 33.6503C33.5294 33.2581 33.8435 32.9418 34.2487 32.7221C34.4456 32.6153 34.655 32.5499 34.8786 32.5355C34.92 32.5328 34.9627 32.5498 35.0344 32.5633C34.9511 32.6295 34.8954 32.6728 34.8408 32.7175C34.5725 32.9368 34.3573 33.2008 34.1916 33.504C34.1537 33.5733 34.1381 33.6547 34.0995 33.768C34.311 33.768 34.4819 33.7593 34.6513 33.7708C34.7851 33.78 34.8975 33.7515 35.015 33.6854C35.1817 33.5916 35.3577 33.51 35.5375 33.4446C35.8755 33.3216 36.221 33.3138 36.5647 33.4278C36.6129 33.4437 36.6547 33.4786 36.7416 33.5293C36.3336 33.5602 35.9983 33.643 35.715 33.9251C35.7902 33.9648 35.8383 33.991 35.8871 34.0159C36.253 34.2029 36.5726 34.4494 36.8443 34.758C37.1534 35.1092 37.2705 35.5243 37.2475 35.9836C37.2437 36.0601 37.214 36.1354 37.1907 36.2349C37.1546 36.1938 37.1419 36.1849 37.1369 36.1728C36.8406 35.4443 36.2761 35.0231 35.549 34.7908C34.9266 34.5919 34.2867 34.5652 33.6453 34.6417C32.8232 34.7397 32.0217 34.9426 31.2315 35.1862C30.6585 35.3628 30.1057 35.5894 29.5914 35.9029C29.4675 35.9784 29.3784 36.0558 29.3512 36.2211C29.3065 36.4929 29.1628 36.5803 28.8951 36.5401C28.7789 36.5227 28.6733 36.5354 28.5601 36.563C28.3692 36.6095 28.1874 36.5701 28.0534 36.4161C27.9233 36.2667 27.9108 36.0959 28.002 35.919C28.0684 35.7902 28.092 35.6542 28.1011 35.5087C28.1202 35.2044 28.4052 35.0116 28.6785 35.1364C28.9043 35.2395 29.0612 35.1295 29.2318 35.0326C29.2629 35.0149 29.286 34.9659 29.2938 34.9275C29.353 34.6364 29.4074 34.3443 29.4718 34.0081C28.6508 34.3939 27.8278 34.5943 26.9788 34.6579C26.933 35.0172 26.9577 46.21 27.0068 46.3791C27.2351 46.2583 27.4623 46.1425 27.6853 46.0195C30.1328 44.6698 32.4219 43.0878 34.5667 41.298C35.9295 40.1608 37.153 38.8889 38.179 37.4355C39.4554 35.6272 40.1643 33.6195 40.2951 31.4068C40.3473 30.5248 40.4244 29.6443 40.4884 28.763C40.5012 28.5876 40.5057 28.4116 40.5148 28.2207C37.9299 28.2207 35.3671 28.2207 32.8065 28.2207ZM32.0854 19.2807C28.384 19.2807 24.718 19.2807 21.037 19.2807C21.037 19.3588 21.037 19.4219 21.037 19.485C21.0371 22.4282 21.0377 25.3713 21.0369 28.3145C21.0368 28.7649 21.0777 29.211 21.169 29.6518C21.4541 31.029 22.1313 32.1637 23.3047 32.9575C24.7975 33.9673 26.4392 34.2004 28.1658 33.738C29.7469 33.3145 30.9113 32.3583 31.5907 30.8519C31.9508 30.0535 32.0834 29.2069 32.0829 28.3341C32.0811 25.391 32.0842 22.4478 32.0854 19.5047C32.0855 19.4348 32.0854 19.3649 32.0854 19.2807ZM11.3648 11.8575C11.4736 11.8328 11.5428 11.8165 11.6123 11.8013C12.6833 11.5679 13.7504 11.3139 14.8263 11.1059C16.6872 10.7462 18.5638 10.4897 20.4517 10.3148C21.7011 10.199 22.9523 10.1141 24.2061 10.0794C26.5375 10.015 28.8663 10.0635 31.1908 10.2741C32.4754 10.3905 33.7548 10.5436 35.0288 10.745C37.2117 11.09 39.3647 11.5669 41.4826 12.2C41.5419 12.2178 41.6037 12.2278 41.681 12.2451C41.8101 10.8139 41.9379 9.39797 42.0661 7.97758C41.9724 7.94559 41.8998 7.91805 41.8256 7.89578C39.1666 7.09768 36.4562 6.54215 33.7047 6.18434C32.0292 5.96646 30.3464 5.82782 28.6583 5.75893C26.2058 5.65883 23.7564 5.71321 21.3095 5.91126C19.8887 6.02626 18.4736 6.18799 17.0647 6.40091C15.1485 6.69046 13.2512 7.07563 11.373 7.55334C11.2579 7.5826 11.1442 7.61755 11.0146 7.6542C11.1315 9.05816 11.2472 10.4472 11.3648 11.8575ZM27.0003 18.5785C31.7566 18.5785 36.4975 18.5785 41.2343 18.5785C41.3047 18.2343 41.573 14.4547 41.5398 14.311C41.1257 14.2663 27.1399 14.2952 27.0003 14.3391C27.0003 15.7502 27.0003 17.1594 27.0003 18.5785ZM26.1507 34.6714C24.2714 34.5815 22.2054 33.4678 21.3579 32.0038C18.5386 32.0038 15.713 32.0038 12.8668 32.0038C12.8809 32.162 12.8904 32.3031 12.9064 32.4434C13.0566 33.7663 13.4916 34.9906 14.1744 36.1313C14.2586 36.272 14.3531 36.3201 14.5163 36.3191C15.7491 36.312 16.982 36.3152 18.215 36.3152C20.7734 36.3152 23.3319 36.3153 25.8903 36.3149C25.98 36.3148 26.0696 36.3098 26.1506 36.3074C26.1507 35.7468 26.1507 35.2141 26.1507 34.6714ZM40.5851 27.4726C40.7006 26.0381 40.8151 24.6165 40.9299 23.1911C38.2027 23.1911 35.5067 23.1911 32.8038 23.1911C32.8038 24.6295 32.8038 26.0492 32.8038 27.4726C35.4021 27.4726 37.9847 27.4726 40.5851 27.4726ZM18.1854 40.9226C18.3244 41.0442 18.4339 41.1432 18.5468 41.2382C19.9721 42.4375 21.4788 43.5265 23.0403 44.5401C23.9608 45.1376 24.9003 45.7036 25.8919 46.178C25.9793 46.2199 26.0679 46.2593 26.1787 46.3104C26.1901 44.4969 26.2012 42.7183 26.2124 40.9226C23.5327 40.9226 20.8832 40.9226 18.1854 40.9226ZM20.379 23.1251C20.3659 23.1184 20.3528 23.1117 20.3398 23.1051C20.1629 23.2807 19.9884 23.4583 19.8629 23.6923C20.0459 23.7764 20.2037 23.849 20.379 23.9297C20.379 23.6434 20.379 23.3842 20.379 23.1251Z" fill="black"/>
<path d="M20.3798 23.1254C20.3798 23.3846 20.3798 23.6438 20.3798 23.93C20.2045 23.8494 20.0467 23.7768 19.8638 23.6927C19.9892 23.4587 20.1637 23.2811 20.3406 23.1055C20.3537 23.1121 20.3668 23.1188 20.3798 23.1254Z" fill="white"/>
<path d="M17.3785 12.2974C17.3241 12.3582 17.3007 12.3919 17.2704 12.4171C16.5345 13.0285 16.1273 13.8219 15.9696 14.7551C15.9284 14.9989 15.8799 15.2414 15.83 15.5105C15.9022 15.4883 15.9477 15.4778 15.9905 15.4605C16.2877 15.3411 16.5821 15.2145 16.8821 15.1029C16.9943 15.0612 17.0518 15.0043 17.0834 14.8851C17.2006 14.4437 17.3584 14.0163 17.5779 13.614C17.8936 13.0352 18.3688 12.6308 18.9633 12.3614C19.1215 12.2898 19.2866 12.2299 19.5146 12.2599C18.7661 12.9134 18.3134 13.6936 18.1253 14.6559C18.1994 14.6425 18.24 14.6383 18.2788 14.6275C18.505 14.5645 18.7289 14.4921 18.9574 14.4392C19.0669 14.4138 19.1225 14.3591 19.1757 14.2635C19.359 13.9343 19.5381 13.6004 19.7523 13.2916C20.0029 12.9301 20.3558 12.6894 20.7872 12.5803C20.8954 12.553 21.0099 12.5508 21.137 12.5352C21.1242 12.6549 21.0445 12.6985 20.9826 12.7445C20.5661 13.0546 20.3071 13.5463 20.1838 14.2529C20.394 14.2691 20.6048 14.2735 20.8116 14.3046C20.9853 14.3309 21.0972 14.279 21.213 14.1453C21.4828 13.8338 21.8162 13.6041 22.212 13.4737C22.4311 13.4016 22.6542 13.3762 22.9164 13.4142C22.8579 13.4633 22.8207 13.4992 22.779 13.5289C22.5281 13.7074 22.2948 13.9046 22.1074 14.1513C21.9965 14.2975 21.9788 14.3417 21.9496 14.5273C22.5699 14.9966 23.1844 15.4806 23.3589 16.3186C23.3225 16.2918 23.2828 16.2685 23.2502 16.2378C22.4156 15.4492 21.4074 15.1674 20.2848 15.2262C19.355 15.2749 18.4811 15.554 17.625 15.8949C16.8558 16.2011 16.1284 16.5922 15.4155 17.0113C15.3295 17.0619 15.2807 17.1213 15.2589 17.2226C15.2321 17.3467 15.1862 17.469 15.1322 17.5844C14.9742 17.922 14.6469 18.0693 14.2988 17.9386C14.0891 17.8599 13.8833 17.8161 13.6592 17.8039C13.2975 17.7841 13.0979 17.4059 13.2591 17.0796C13.2935 17.0099 13.3493 16.9508 13.3842 16.8813C13.4472 16.7556 13.5187 16.6305 13.5567 16.4966C13.6749 16.0804 14.0016 15.9199 14.3977 16.0966C14.4107 16.1024 14.4241 16.1074 14.4369 16.1136C14.6762 16.2298 14.7568 16.1905 14.8073 15.9192C14.9262 15.2816 15.0606 14.6497 15.3101 14.0461C15.5599 13.4418 15.9479 12.9551 16.4893 12.5907C16.692 12.4543 16.9124 12.3556 17.1555 12.3157C17.2151 12.3058 17.2763 12.3054 17.3785 12.2974Z" fill="black"/>
<path d="M31.2959 37.6297C31.4627 37.6041 31.5874 37.5688 31.7121 37.5689C32.0418 37.5692 32.2843 37.4366 32.4798 37.168C32.5949 37.0097 32.7544 36.8775 32.9125 36.7582C33.1871 36.5509 33.4986 36.4556 33.8894 36.5212C33.8233 36.57 33.7901 36.6 33.7521 36.6218C33.5031 36.765 33.2814 36.9422 33.0879 37.154C33.0073 37.2421 32.9332 37.3358 32.8975 37.4696C33.0752 37.4901 33.2358 37.5197 33.3969 37.5224C33.4756 37.5237 33.5611 37.4861 33.633 37.4469C33.878 37.3133 34.1252 37.19 34.4076 37.1573C34.6114 37.1336 34.8035 37.1522 34.987 37.3105C34.8192 37.3491 34.6673 37.3709 34.5251 37.4204C34.3853 37.4691 34.2533 37.5434 34.1593 37.696C34.23 37.738 34.2976 37.7735 34.3604 37.8163C34.5599 37.9522 34.7688 38.0774 34.9531 38.2317C35.1782 38.4202 35.3119 38.6716 35.3459 38.9682C35.3513 39.0149 35.342 39.0634 35.3396 39.1098C35.3146 39.111 35.2964 39.1173 35.2907 39.1115C34.8523 38.6614 34.3086 38.4199 33.7011 38.2986C32.5329 38.0656 31.4044 38.2179 30.3107 38.659C29.9424 38.8076 29.591 38.9983 29.2328 39.1719C29.1326 39.2204 29.0798 39.2862 29.0715 39.4166C29.0513 39.7346 28.8505 39.8512 28.5532 39.7326C28.4626 39.6965 28.3831 39.6857 28.2873 39.7062C28.1453 39.7367 28.0018 39.7436 27.9084 39.5922C27.8125 39.4368 27.8196 39.282 27.9488 39.1193C28.0122 39.0395 28.0511 38.9596 28.0718 38.8568C28.1195 38.6198 28.3568 38.5059 28.5833 38.5942C28.8164 38.6852 28.92 38.6375 29.0005 38.4041C29.1491 37.9733 29.2953 37.5419 29.559 37.1621C29.7931 36.825 30.0822 36.5616 30.4858 36.4468C30.5585 36.4261 30.6349 36.4188 30.7554 36.3971C30.2399 36.9001 29.8707 37.4312 29.7755 38.1618C30.0255 38.0512 30.2445 37.9582 30.4591 37.8558C30.4987 37.8369 30.5238 37.7819 30.5492 37.7397C30.6373 37.5934 30.7184 37.4426 30.8095 37.2982C31.1598 36.7432 31.6274 36.3529 32.2993 36.2601C32.4569 36.2384 32.6175 36.2182 32.7994 36.2845C32.1587 36.5831 31.629 36.9646 31.2959 37.6297Z" fill="black"/>
<path d="M29.6161 40.0751C29.3217 40.4829 29.0568 40.884 29.0893 41.4097C29.2695 41.3649 29.3903 41.2852 29.4589 41.1121C29.6007 40.7544 29.8288 40.456 30.1368 40.2216C30.3403 40.0666 30.5176 40.001 30.8082 39.9863C30.5227 40.2076 30.2764 40.422 30.1494 40.7337C30.1254 40.7925 30.1089 40.8552 30.0965 40.9176C30.09 40.95 30.1001 40.9856 30.1041 41.0369C30.3193 41.0183 30.5016 40.9985 30.6367 40.7926C30.7637 40.5992 30.9319 40.4274 31.1041 40.2705C31.2792 40.111 31.5002 40.0539 31.7867 40.104C31.5028 40.2929 31.2561 40.4765 31.1543 40.8114C31.3807 40.8249 31.5732 40.858 31.7614 40.7199C31.9395 40.5892 32.1477 40.5081 32.4047 40.5279C32.2824 40.6815 32.0787 40.7293 32.0075 40.9229C32.4049 41.171 32.8404 41.3772 33.0245 41.8924C32.9614 41.8652 32.921 41.8506 32.8833 41.831C32.7507 41.7621 32.6187 41.692 32.4871 41.6213C31.9044 41.3084 31.2951 41.273 30.6632 41.4376C30.0325 41.6019 29.437 41.8511 28.8651 42.1609C28.7831 42.2053 28.7474 42.2601 28.7276 42.3554C28.6699 42.6328 28.4787 42.721 28.2225 42.6117C28.1721 42.5902 28.1136 42.5832 28.0581 42.5789C27.8357 42.5615 27.7212 42.3542 27.8268 42.1562C27.8862 42.045 27.9457 41.9339 28.0047 41.8225C28.0753 41.6894 28.1607 41.6531 28.3474 41.6774C28.5078 41.6984 28.5009 41.6969 28.5347 41.5374C28.5819 41.3151 28.6264 41.0906 28.6982 40.8758C28.791 40.5976 28.9805 40.3837 29.2184 40.2147C29.3283 40.1366 29.4462 40.0748 29.6161 40.0751Z" fill="black"/>
<path d="M26.495 25.0057C26.6104 24.3726 26.6285 23.7505 26.2332 23.1878C26.1191 23.0254 25.9796 22.8807 25.85 22.7294C25.7517 22.6146 25.8247 22.3426 25.9703 22.3104C26.0013 22.3035 26.0602 22.3418 26.0776 22.3746C26.0986 22.4138 26.0889 22.4694 26.0923 22.5164C26.201 22.5898 26.3117 22.591 26.4266 22.567C26.552 22.5409 26.6771 22.5123 26.8035 22.4919C26.8616 22.4826 26.9224 22.4904 26.9955 22.5291C26.9692 22.5535 26.9466 22.5853 26.9159 22.6005C26.8785 22.6189 26.8227 22.6112 26.7955 22.6367C26.7536 22.6761 26.7 22.7366 26.704 22.7836C26.7105 22.86 26.7887 22.8645 26.857 22.8528C27.0603 22.8181 27.2632 22.7804 27.4672 22.751C27.5323 22.7416 27.6005 22.7545 27.6673 22.7572C27.6735 22.7742 27.6798 22.7912 27.686 22.8083C27.648 22.839 27.6144 22.8851 27.5712 22.8973C27.4759 22.9242 27.3746 22.9286 27.2782 22.9523C27.1943 22.973 27.0904 22.9795 27.0834 23.1191C27.151 23.1411 27.2146 23.1619 27.2882 23.1858C27.2701 23.2505 27.2537 23.3092 27.2367 23.3696C27.3571 23.5033 27.5039 23.4599 27.6405 23.4452C27.7172 23.437 27.7906 23.4015 27.8667 23.3832C27.9221 23.3699 27.9867 23.3562 28.0099 23.4306C28.0348 23.5105 27.9803 23.5477 27.9148 23.5708C27.8143 23.6064 27.7111 23.6355 27.6128 23.6764C27.534 23.7093 27.4484 23.7509 27.4684 23.8601C27.4882 23.9681 27.5664 24.0056 27.671 24.0115C27.7846 24.018 27.899 24.0274 28.01 24.0504C28.0724 24.0633 28.1286 24.1063 28.1949 24.1393C28.0743 24.371 27.8015 24.2301 27.663 24.4026C27.7903 24.4952 28.0032 24.3871 28.0655 24.6092C27.8545 24.6991 27.6005 24.5831 27.4013 24.7589C27.461 24.797 27.5118 24.8294 27.5742 24.8692C27.5493 24.9283 27.5256 24.9848 27.501 25.0433C27.5184 25.0632 27.53 25.0895 27.5453 25.0919C27.6422 25.1068 27.7397 25.1238 27.8372 25.1255C27.9232 25.127 27.9909 25.1364 28.0063 25.2454C27.8388 25.3618 27.6404 25.2457 27.44 25.3323C27.5069 25.414 27.5652 25.4852 27.6471 25.5851C27.5709 25.6091 27.5175 25.6362 27.4621 25.6409C27.3919 25.6468 27.3201 25.6345 27.249 25.6301C27.1665 25.625 27.1036 25.6596 27.093 25.7419C27.0747 25.8837 27.0004 25.9472 26.8611 25.975C26.6984 26.0075 26.6546 26.1512 26.764 26.2772C26.8187 26.3401 26.8906 26.3956 26.9656 26.432C27.1959 26.5437 27.4288 26.6513 27.6658 26.7479C27.8861 26.8377 28.119 26.8691 28.3576 26.8481C28.4001 26.8443 28.4431 26.846 28.4857 26.8424C28.8856 26.8087 29.2493 26.9042 29.571 27.1472C29.6895 27.2368 29.8184 27.2833 29.9692 27.2683C30.2125 27.244 30.3067 27.0572 30.1594 26.863C30.0878 26.7685 29.9922 26.6863 29.8932 26.6195C29.6993 26.4885 29.6028 26.3194 29.6075 26.0824C29.6119 25.8593 29.5599 25.6454 29.4648 25.4411C29.4127 25.3292 29.3873 25.2112 29.4987 25.1142C29.7291 25.1802 29.7934 25.1583 29.9214 24.9623C29.9797 24.8729 30.0289 24.7776 30.0836 24.6858C30.1733 24.5352 30.3003 24.4496 30.4805 24.434C30.6914 24.4156 30.901 24.382 31.1269 24.3531C31.0397 24.1357 31.0031 23.9426 31.1628 23.7717C31.2173 23.7135 31.2498 23.7152 31.3714 23.7546C31.3714 23.7738 31.3797 23.8002 31.3701 23.8135C31.2689 23.9525 31.2638 24.0884 31.3319 24.251C31.4143 24.4474 31.3641 24.5167 31.1611 24.573C31.0173 24.6129 30.8726 24.6515 30.732 24.701C30.6078 24.7447 30.5026 24.8229 30.4518 24.9486C30.4305 25.0012 30.4392 25.0659 30.4342 25.125C30.4922 25.1152 30.5553 25.1165 30.6068 25.0926C30.6564 25.0696 30.6912 25.0167 30.7375 24.984C30.807 24.935 30.8777 24.8857 30.9536 24.8482C31.0347 24.8081 31.1167 24.8084 31.1864 24.8929C31.124 25.0569 30.8774 25.0653 30.8739 25.3069C31.0632 25.2224 31.2365 25.1451 31.4097 25.0678C31.4212 25.0789 31.4327 25.09 31.4443 25.1011C31.3922 25.2152 31.3402 25.3292 31.2772 25.4673C31.3958 25.4673 31.4776 25.4673 31.5638 25.4673C31.5986 25.598 31.5202 25.6687 31.4475 25.7305C31.3367 25.8249 31.2446 25.9219 31.2107 26.073C31.1974 26.1325 31.1255 26.1796 31.0784 26.2306C31.0234 26.2901 30.9662 26.3476 30.9231 26.4265C31.1353 26.4526 31.2644 26.2409 31.4756 26.256C31.5425 26.3952 31.4288 26.5077 31.409 26.6465C31.4679 26.6729 31.5299 26.7006 31.6022 26.733C31.5972 26.765 31.5862 26.7989 31.5877 26.8323C31.5969 27.0353 31.5195 27.1683 31.3078 27.212C31.2709 27.2196 31.2232 27.2749 31.2199 27.3118C31.2173 27.339 31.2744 27.3799 31.3125 27.4013C31.4768 27.4938 31.4911 27.6402 31.3383 27.7516C31.2183 27.8392 31.0789 27.8726 30.9329 27.8495C30.7075 27.8138 30.4846 27.7665 30.2838 27.6483C30.248 27.6273 30.2015 27.5982 30.168 27.6063C30.1309 27.6154 30.083 27.6592 30.0765 27.6946C30.0685 27.7384 30.0923 27.7918 30.1126 27.8364C30.2424 28.1225 30.189 28.394 30.0444 28.6549C29.9651 28.798 29.8766 28.9366 29.785 29.0723C29.5735 29.3858 29.5743 29.6971 29.7832 30.0099C29.8504 30.1106 29.9174 30.2115 29.9862 30.3111C30.1078 30.4872 30.1011 30.5461 29.9362 30.6899C29.8718 30.7461 29.8029 30.7972 29.7391 30.854C29.5002 31.0663 29.3086 31.31 29.2392 31.631C29.2178 31.7299 29.1616 31.7995 29.0728 31.8397C28.9694 31.8865 28.8624 31.9252 28.757 31.9676C28.6661 32.0041 28.5754 32.041 28.4693 32.0839C28.4879 32.1683 28.502 32.2361 28.518 32.3035C28.5405 32.3979 28.5128 32.4747 28.4313 32.5253C28.2918 32.6117 28.1442 32.6749 27.9748 32.6654C27.9478 32.3843 28.0755 32.0386 28.2648 31.8701C28.3021 31.837 28.3386 31.8022 28.3795 31.774C28.7576 31.5137 29.0213 31.1525 29.2646 30.7731C29.3965 30.5674 29.3602 30.3406 29.1556 30.2176C29.0167 30.1341 28.854 30.0903 28.7142 30.0079C28.5816 29.9296 28.4649 29.8242 28.3403 29.73C28.204 29.8145 28.2114 29.9405 28.2095 30.0581C28.2078 30.1574 28.2204 30.2571 28.2278 30.3566C28.2351 30.4542 28.1928 30.5196 28.1039 30.5586C27.9475 30.6273 27.7926 30.6996 27.6355 30.7666C27.3829 30.8742 27.1521 31.0101 26.9874 31.2383C26.9156 31.3378 26.8153 31.3821 26.6939 31.3877C26.6228 31.3909 26.5513 31.3973 26.4815 31.4104C26.3764 31.4301 26.3068 31.4979 26.3289 31.605C26.3675 31.7923 26.2546 31.8678 26.1147 31.9208C26.0248 31.955 25.9263 31.9668 25.7993 31.9961C25.7959 31.9053 25.7797 31.8422 25.794 31.787C25.8461 31.5852 25.9232 31.3979 26.0935 31.2579C26.2815 31.1032 26.4641 30.9597 26.7197 30.9156C26.9996 30.8673 27.234 30.708 27.4274 30.5002C27.6876 30.2207 27.6964 29.895 27.4616 29.5927C27.4048 29.5195 27.348 29.4464 27.2922 29.3724C27.1755 29.2176 27.0993 29.0547 27.2245 28.8335C27.1315 28.828 27.0649 28.8204 26.9983 28.8208C26.5906 28.8232 26.1875 28.7905 25.7923 28.6815C25.5712 28.6205 25.3557 28.5519 25.1816 28.3914C25.0941 28.3108 24.9989 28.2824 24.8968 28.3731C24.8046 28.4549 24.6912 28.4625 24.5751 28.4608C24.2086 28.4554 23.8556 28.3698 23.5029 28.2822C23.4546 28.2703 23.4075 28.2504 23.3586 28.2446C23.2196 28.2284 23.1433 28.2833 23.1145 28.4221C23.103 28.4772 23.1047 28.5352 23.1033 28.592C23.1007 28.698 23.0933 28.8047 23.1018 28.9099C23.1066 28.9684 23.1229 29.0445 23.163 29.0781C23.2876 29.1826 23.31 29.3155 23.3071 29.4625C23.3062 29.5052 23.3039 29.5479 23.3036 29.5907C23.3023 29.8179 23.3181 29.8337 23.5508 29.8397C23.6627 29.8427 23.7351 29.9236 23.727 30.0593C23.7188 30.1956 23.6728 30.3213 23.5713 30.4359C23.3639 30.3766 23.2094 30.2732 23.1314 30.0663C23.1047 29.9955 23.066 29.9129 23.0074 29.8735C22.7621 29.7082 22.7484 29.4727 22.7638 29.2119C22.7763 29.0002 22.7651 28.7865 22.7523 28.5744C22.7469 28.4836 22.7103 28.3949 22.6886 28.305C22.6735 28.2428 22.6531 28.1809 22.6464 28.1177C22.6254 27.9207 22.719 27.8151 22.916 27.7864C23.2044 27.7444 23.4917 27.695 23.779 27.646C23.8274 27.6378 23.8733 27.6159 23.9475 27.5913C23.8548 27.5166 23.7753 27.4526 23.6805 27.3763C23.4805 27.4239 23.4226 27.4048 23.3084 27.1892C23.2388 27.0579 23.1938 26.9139 23.1334 26.7775C23.0993 26.7005 23.0682 26.6171 23.0149 26.5544C22.8687 26.3825 22.6851 26.3677 22.5057 26.5052C22.345 26.6285 22.2414 26.7767 22.2696 26.9982C22.2782 27.0657 22.2367 27.1467 22.1997 27.2108C22.1649 27.2709 22.1048 27.3161 22.0575 27.3695C21.96 27.4795 21.9301 27.5984 21.9848 27.7437C22.0619 27.9487 22.0393 27.9989 21.8561 28.1058C21.8132 28.1308 21.7674 28.1516 21.7212 28.1699C21.5471 28.2389 21.4901 28.2036 21.4737 28.0129C21.4632 27.8906 21.4728 27.7744 21.5571 27.6702C21.6684 27.5325 21.6919 27.3616 21.7243 27.1922C21.7478 27.0695 21.7834 26.9387 21.8517 26.837C22.0659 26.5178 22.2933 26.207 22.5252 25.9002C22.6742 25.703 22.7534 25.7015 22.9486 25.859C23.0262 25.9216 23.0965 25.9943 23.1785 26.0503C23.2837 26.1222 23.3924 26.1927 23.5083 26.2443C23.6727 26.3175 23.7463 26.2799 23.792 26.1088C23.8232 25.9923 23.8473 25.8722 23.858 25.7523C23.8758 25.5522 23.951 25.381 24.0831 25.2329C24.2395 25.0573 24.4005 24.8856 24.5526 24.7064C24.6397 24.6038 24.7211 24.4942 24.7895 24.3786C24.8306 24.3093 24.8419 24.2222 24.8654 24.1467C24.6209 24.0227 24.4244 24.0617 24.2572 24.248C24.2062 24.3048 24.1522 24.3663 24.0863 24.3995C24.0459 24.42 23.9713 24.4052 23.9302 24.3785C23.909 24.3647 23.9213 24.2889 23.9297 24.2432C23.9384 24.1964 23.9609 24.1521 23.9781 24.1044C23.8886 24.0401 23.8187 24.1007 23.7492 24.1168C23.6727 24.1345 23.5998 24.142 23.5692 24.0577C23.5399 23.977 23.5593 23.9068 23.6548 23.8691C23.6965 23.8526 23.7452 23.8144 23.7598 23.7747C23.8661 23.4859 24.1311 23.354 24.3501 23.1812C24.4024 23.1399 24.514 23.1631 24.5963 23.1731C24.696 23.1852 24.7931 23.2101 24.8869 23.1295C24.8556 23.0316 24.755 23.011 24.6869 22.9559C24.639 22.9171 24.5522 22.8909 24.5861 22.8155C24.615 22.7511 24.6747 22.6866 24.7373 22.6551C24.796 22.6257 24.8772 22.6298 24.9471 22.6359C25.1596 22.6545 25.3585 22.6209 25.5453 22.495C25.5553 22.5218 25.5713 22.5426 25.5663 22.5546C25.4993 22.716 25.5712 22.8178 25.698 22.9128C26.1921 23.2831 26.3844 23.8063 26.4242 24.3984C26.438 24.6021 26.4264 24.8076 26.4264 25.0123C26.4494 25.0102 26.4722 25.0079 26.495 25.0057Z" fill="black"/>
<path d="M29.9376 20.9345C29.9376 21.1487 29.9376 21.353 29.9376 21.5747C29.8336 21.5747 29.7466 21.5747 29.646 21.5747C29.646 21.0577 29.646 20.5423 29.646 20.0072C29.8564 20.0072 30.0623 19.9883 30.2632 20.0117C30.5629 20.0465 30.6978 20.3715 30.5439 20.6531C30.5239 20.6897 30.4922 20.7199 30.4757 20.7408C30.5119 20.8853 30.559 21.0185 30.5757 21.1554C30.5926 21.2943 30.5794 21.4368 30.5794 21.5896C30.5068 21.5896 30.4171 21.5896 30.3104 21.5896C30.3001 21.5309 30.2868 21.4779 30.2824 21.4242C30.2748 21.3322 30.2798 21.2387 30.267 21.1476C30.2372 20.9355 30.1967 20.9088 29.9376 20.9345ZM29.9316 20.2497C29.9316 20.3245 29.9303 20.3865 29.9319 20.4485C29.9336 20.5163 29.938 20.5839 29.941 20.6488C30.2004 20.6681 30.3126 20.5963 30.3112 20.428C30.3099 20.2704 30.2217 20.2244 29.9316 20.2497Z" fill="black"/>
<path d="M28.0859 20.4519C27.9939 20.4519 27.9174 20.4519 27.8261 20.4519C27.8115 20.4035 27.7981 20.3508 27.7795 20.3C27.7503 20.2201 27.6979 20.1659 27.6062 20.169C27.5166 20.1721 27.4621 20.226 27.435 20.3058C27.4192 20.3521 27.4087 20.4028 27.4084 20.4515C27.4073 20.6576 27.404 20.864 27.415 21.0695C27.4247 21.2523 27.5215 21.3675 27.6361 21.3593C27.7481 21.3513 27.8078 21.2503 27.8103 21.062C27.8106 21.0415 27.8035 21.021 27.798 20.991C27.7474 20.978 27.695 20.9646 27.6362 20.9496C27.6362 20.881 27.6362 20.8188 27.6362 20.7286C27.7187 20.7286 27.7947 20.7286 27.8706 20.7286C27.9403 20.7286 28.01 20.7286 28.0939 20.7286C28.0939 21.0217 28.0939 21.2948 28.0939 21.5986C28.0047 21.5842 27.9242 21.5711 27.8437 21.5581C27.8442 21.5465 27.8448 21.535 27.8454 21.5234C27.8017 21.5454 27.7595 21.5713 27.7141 21.5888C27.5309 21.6593 27.3151 21.5919 27.2078 21.4279C27.1732 21.375 27.1405 21.3162 27.1261 21.2555C27.0526 20.9467 27.0458 20.6336 27.1258 20.327C27.1975 20.0524 27.3786 19.9249 27.6344 19.933C27.932 19.9424 28.0844 20.11 28.0859 20.4519Z" fill="black"/>
<path d="M29.4448 21.579C29.3201 21.579 29.2303 21.579 29.1322 21.579C29.0973 21.4764 29.0639 21.3779 29.0286 21.2741C28.9082 21.2741 28.7961 21.2741 28.6709 21.2741C28.6343 21.3804 28.5981 21.4856 28.5599 21.5968C28.4642 21.5968 28.3742 21.5968 28.249 21.5968C28.3897 21.0594 28.5257 20.5399 28.6647 20.0088C28.7866 20.0088 28.9048 20.0088 29.0421 20.0088C29.1731 20.5196 29.3052 21.0345 29.4448 21.579ZM28.8656 20.4186C28.7913 20.5973 28.7302 20.7687 28.7376 20.9597C28.8251 20.9597 28.8992 20.9597 28.9918 20.9597C28.9472 20.7685 28.9064 20.5935 28.8656 20.4186Z" fill="black"/>
<path d="M24.4197 19.998C24.5274 19.998 24.6047 19.998 24.6789 19.998C24.6915 20.0122 24.7088 20.0226 24.7089 20.0331C24.7119 20.4103 24.7241 20.7878 24.7112 21.1645C24.7022 21.4301 24.4926 21.6109 24.2328 21.6148C23.971 21.6187 23.7601 21.4436 23.7493 21.1742C23.7338 20.7914 23.7453 20.4075 23.7453 20.0079C23.8439 20.0079 23.9305 20.0079 24.0405 20.0079C24.0405 20.1599 24.0405 20.3076 24.0405 20.4555C24.0405 20.6406 24.0399 20.8257 24.0406 21.0109C24.0416 21.2426 24.0946 21.3265 24.236 21.3226C24.3693 21.3189 24.4186 21.2393 24.4194 21.0212C24.4204 20.7577 24.4197 20.4942 24.4197 20.2308C24.4197 20.1607 24.4197 20.0906 24.4197 19.998Z" fill="black"/>
<path d="M21.5379 21.1105C21.619 21.1105 21.7011 21.1105 21.7938 21.1105C21.8132 21.1568 21.829 21.2111 21.857 21.2581C21.9217 21.3669 22.0294 21.3944 22.1293 21.3338C22.2347 21.2699 22.2696 21.138 22.1939 21.0393C22.1525 20.9852 22.0904 20.943 22.0302 20.9085C21.9566 20.8664 21.8746 20.8391 21.7973 20.8033C21.6312 20.7264 21.5544 20.592 21.5525 20.4122C21.5505 20.2259 21.6248 20.0824 21.7926 19.9928C22.128 19.8137 22.5006 20.0283 22.4946 20.4109C22.4203 20.4109 22.3454 20.4109 22.2637 20.4109C22.2474 20.367 22.2372 20.3178 22.2124 20.2777C22.1531 20.1817 22.0249 20.1607 21.9331 20.226C21.8463 20.2877 21.8209 20.4001 21.8903 20.4881C21.9321 20.541 21.9959 20.5809 22.0571 20.6128C22.1257 20.6487 22.2054 20.663 22.275 20.6973C22.4987 20.8075 22.5817 21.0387 22.4952 21.296C22.4154 21.5331 22.1628 21.6668 21.8924 21.6148C21.6432 21.5669 21.5196 21.3963 21.5379 21.1105Z" fill="black"/>
<path d="M26.0557 20C26.3873 20 26.7058 20 27.0352 20C27.0426 20.0445 27.0526 20.0845 27.055 20.125C27.0572 20.1592 27.0506 20.1939 27.0465 20.2457C26.9363 20.2532 26.8323 20.2603 26.699 20.2694C26.699 20.7063 26.699 21.143 26.699 21.5919C26.5875 21.5919 26.5053 21.5919 26.3965 21.5919C26.3743 21.1544 26.3996 20.7167 26.3819 20.2705C26.2655 20.263 26.1681 20.2567 26.0557 20.2495C26.0557 20.1713 26.0557 20.0969 26.0557 20Z" fill="black"/>
<path d="M25.5237 21.5957C25.419 21.5957 25.3424 21.5957 25.2385 21.5957C25.2385 21.1516 25.2385 20.7159 25.2385 20.2683C25.1154 20.2602 25.0182 20.2538 24.8963 20.2458C24.8927 20.174 24.8889 20.1001 24.8853 20.028C25.0471 19.9815 25.6637 19.9755 25.8903 20.0175C25.8903 20.0834 25.8903 20.1516 25.8903 20.2423C25.7819 20.25 25.6728 20.2577 25.5371 20.2672C25.5371 20.4997 25.5396 20.7248 25.5364 20.9497C25.5332 21.1657 25.5512 21.3834 25.5237 21.5957Z" fill="black"/>
<path d="M31.343 21.6026C31.2353 21.6026 31.1583 21.6026 31.0534 21.6026C31.0534 21.1613 31.0534 20.7252 31.0534 20.2749C30.9247 20.2645 30.8217 20.2563 30.7085 20.2472C30.7085 20.1635 30.7085 20.0892 30.7085 20.0029C31.0332 20.0029 31.3502 20.0029 31.6891 20.0029C31.6931 20.0768 31.6971 20.1506 31.7023 20.2456C31.5886 20.2538 31.4859 20.2612 31.3567 20.2706C31.337 20.71 31.3598 21.1471 31.343 21.6026Z" fill="black"/>
<path d="M22.9618 21.5896C22.9618 21.1478 22.9618 20.717 22.9618 20.2683C22.8415 20.2599 22.7389 20.2528 22.623 20.2447C22.623 20.1636 22.623 20.0898 22.623 20.0029C22.95 20.0029 23.2726 20.0029 23.6045 20.0029C23.6045 20.0836 23.6045 20.1526 23.6045 20.2428C23.503 20.2494 23.4 20.2561 23.2693 20.2646C23.2565 20.4837 23.2652 20.7016 23.2636 20.9188C23.262 21.1375 23.2633 21.3563 23.2633 21.5896C23.1615 21.5896 23.0795 21.5896 22.9618 21.5896Z" fill="black"/>
<path d="M25.0469 22.4393C25.1612 22.2637 25.3168 22.178 25.4787 22.0645C25.427 22.4529 25.3589 22.5127 25.0469 22.4393Z" fill="black"/>
<path d="M28.8089 6.45787C28.8089 6.68871 28.8089 6.90709 28.8089 7.15407C28.7418 7.15722 28.6672 7.16374 28.5927 7.16374C27.6881 7.16366 26.7835 7.16261 25.8788 7.16188C25.829 7.16185 25.7791 7.16368 25.7293 7.16218C25.621 7.15889 25.5749 7.21776 25.5693 7.31854C25.5627 7.43515 25.6087 7.49454 25.7208 7.50539C25.7772 7.51084 25.8346 7.50741 25.8916 7.50741C26.6253 7.50749 27.3589 7.50541 28.0926 7.50971C28.2046 7.51037 28.323 7.52264 28.4272 7.56061C28.649 7.64145 28.7889 7.8006 28.8306 8.04273C28.876 8.30617 28.8659 8.5669 28.8256 8.82921C28.7915 9.05176 28.6619 9.18965 28.4527 9.24975C28.3513 9.27887 28.2428 9.29583 28.1374 9.29619C27.0904 9.29961 26.0433 9.29849 24.9962 9.2981C24.9612 9.2981 24.9262 9.29227 24.8739 9.28761C24.8739 9.05441 24.8739 8.82404 24.8739 8.56531C24.9528 8.56531 25.0285 8.56531 25.1043 8.56531C25.9376 8.56531 26.771 8.56547 27.6044 8.56492C27.6683 8.56487 27.7339 8.56799 27.7955 8.5549C27.8805 8.53685 27.9326 8.47943 27.9295 8.38728C27.9264 8.29666 27.8768 8.24067 27.7873 8.22862C27.7312 8.22106 27.6736 8.22333 27.6166 8.22331C26.9613 8.22298 26.306 8.22446 25.6507 8.22172C25.5375 8.22125 25.4225 8.21309 25.3115 8.19172C25.0372 8.13896 24.8422 7.9514 24.8136 7.67722C24.7901 7.45254 24.7898 7.2214 24.8139 6.99686C24.8452 6.70668 25.033 6.52556 25.3212 6.46543C25.404 6.44815 25.4905 6.44146 25.5753 6.44144C26.5867 6.44116 27.5982 6.44286 28.6096 6.44497C28.6718 6.44505 28.734 6.4528 28.8089 6.45787Z" fill="black"/>
<path d="M19.7969 8.52251C19.7969 8.70046 19.8034 8.87871 19.7955 9.0563C19.78 9.40674 19.6277 9.59361 19.2866 9.67171C19.044 9.72724 18.7992 9.77712 18.5527 9.81035C17.904 9.89781 17.2541 9.97742 16.6041 10.0549C16.2932 10.0919 16.0425 9.91283 15.9803 9.60545C15.8568 8.99576 15.8163 8.37969 15.8426 7.75756C15.854 7.49042 16.0341 7.23049 16.3446 7.17696C17.0525 7.05495 17.761 6.93623 18.4703 6.82214C18.6596 6.79168 18.8521 6.77385 19.0438 6.76722C19.1549 6.76338 19.2725 6.77741 19.378 6.81154C19.5931 6.88103 19.6828 7.05635 19.7065 7.26859C19.7529 7.68535 19.7955 8.10255 19.8397 8.51956C19.8254 8.52051 19.8112 8.5215 19.7969 8.52251ZM19.0645 8.30252C19.0609 8.30236 19.0573 8.30219 19.0536 8.30203C19.0451 8.18133 19.0366 8.06064 19.0278 7.93997C19.0262 7.91871 19.0239 7.8974 19.0205 7.87637C18.9847 7.65903 18.9454 7.61914 18.727 7.63632C18.4719 7.65637 18.2171 7.68596 17.964 7.7231C17.6052 7.77572 17.2471 7.83454 16.8904 7.89924C16.6229 7.94775 16.5747 8.00341 16.5866 8.26781C16.5982 8.52323 16.6227 8.77864 16.655 9.03236C16.677 9.20463 16.7247 9.23802 16.897 9.22682C17.0956 9.21389 17.2948 9.19858 17.4917 9.17025C17.9349 9.10651 18.3774 9.03778 18.819 8.96335C18.9906 8.9344 19.0216 8.89712 19.0408 8.72785C19.0568 8.587 19.0572 8.44436 19.0645 8.30252Z" fill="black"/>
<path d="M24.1149 7.89834C24.2846 8.05782 24.3353 8.27562 24.3362 8.51071C24.3372 8.76607 24.3365 9.02146 24.3365 9.29837C24.111 9.31097 23.8938 9.32311 23.6503 9.33672C23.6434 9.24326 23.6346 9.1616 23.6318 9.07975C23.6257 8.90167 23.6265 8.72331 23.6172 8.54542C23.6061 8.33318 23.4974 8.23212 23.2873 8.24557C22.8678 8.27242 22.4486 8.30589 22.0294 8.33726C21.7388 8.35901 21.4483 8.38185 21.1332 8.4061C21.1467 8.7687 21.1597 9.12114 21.1736 9.49407C20.9335 9.5193 20.7104 9.54275 20.4615 9.56888C20.4107 8.60486 20.3609 7.66199 20.3101 6.6977C20.4111 6.68394 20.4997 6.66718 20.589 6.66041C21.5624 6.58662 22.5357 6.51238 23.5095 6.44428C23.6278 6.43601 23.7535 6.44516 23.867 6.47734C24.0912 6.54092 24.2407 6.70419 24.2721 6.92993C24.3002 7.13158 24.2904 7.34267 24.2661 7.54581C24.2525 7.65895 24.1748 7.76436 24.1149 7.89834ZM21.0821 7.67908C21.1188 7.69223 21.132 7.70154 21.1445 7.7008C21.7912 7.66213 22.4379 7.62334 23.0844 7.58189C23.1398 7.57833 23.1994 7.56644 23.2478 7.54088C23.3415 7.49138 23.3657 7.40175 23.3458 7.30289C23.3266 7.20797 23.2662 7.15417 23.1661 7.15365C23.1234 7.15344 23.0807 7.15541 23.0381 7.15853C22.4062 7.20477 21.7743 7.25106 21.1425 7.29887C21.1169 7.30081 21.0924 7.31747 21.0565 7.33155C21.0652 7.44903 21.0735 7.56126 21.0821 7.67908Z" fill="black"/>
<path d="M41.2516 9.60554C41.2316 9.81072 41.2145 9.98628 41.1947 10.1889C40.4323 10.0082 39.6904 9.83244 38.9318 9.65269C38.9124 9.81546 38.8959 9.95456 38.8762 10.1201C39.6322 10.3121 40.3799 10.502 41.1533 10.6984C41.1352 10.9143 41.1178 11.123 41.098 11.3588C40.0722 11.117 39.0659 10.8799 38.0376 10.6376C38.1252 9.64849 38.2116 8.67311 38.3008 7.66504C39.3366 7.90681 40.3525 8.15732 41.382 8.40991C41.358 8.64473 41.3359 8.86124 41.3117 9.09863C40.5394 8.91348 39.7897 8.73376 39.0225 8.54981C39.0069 8.72778 38.9941 8.87458 38.979 9.0473C39.7338 9.23269 40.4832 9.41678 41.2516 9.60554Z" fill="black"/>
<path d="M33.1311 8.92785C33.1158 9.18159 33.1014 9.41961 33.0858 9.67828C32.8138 9.65905 32.5595 9.64582 32.3062 9.62224C31.6115 9.55754 30.9172 9.4887 30.2228 9.4209C30.1165 9.41052 30.0093 9.40337 29.9046 9.38386C29.601 9.32741 29.4299 9.13026 29.4227 8.82214C29.4097 8.2662 29.4361 7.71285 29.4995 7.1591C29.5551 6.6735 29.8807 6.5269 30.2221 6.54665C30.7623 6.5779 31.3026 6.61255 31.8412 6.66318C32.2943 6.70575 32.745 6.77313 33.2172 6.83208C33.2467 7.08336 33.1886 7.32406 33.1841 7.58794C32.866 7.55195 32.5711 7.5154 32.2756 7.48582C31.709 7.42909 31.142 7.37578 30.575 7.32278C30.5188 7.31752 30.4604 7.31749 30.4049 7.32645C30.2801 7.34655 30.2104 7.40887 30.2006 7.53652C30.1789 7.82035 30.1621 8.10499 30.1581 8.38952C30.1558 8.55873 30.2435 8.64228 30.4213 8.66205C30.9519 8.72106 31.4828 8.77795 32.0142 8.8306C32.3809 8.86693 32.7485 8.89484 33.1311 8.92785Z" fill="black"/>
<path d="M37.5472 10.4674C37.2759 10.4174 37.0388 10.3737 36.7758 10.3252C36.8013 9.96015 36.8263 9.60138 36.8535 9.21261C36.0807 9.08387 35.3119 8.95575 34.5185 8.82355C34.4851 9.1887 34.453 9.54004 34.4183 9.92021C34.1604 9.88287 33.9186 9.84783 33.6597 9.81033C33.72 8.83377 33.7791 7.87676 33.8399 6.89258C34.1018 6.92948 34.3445 6.96369 34.613 7.00152C34.5897 7.37922 34.5672 7.74467 34.5438 8.12557C35.3364 8.25358 36.1074 8.37805 36.9072 8.50721C36.9375 8.1328 36.9665 7.77461 36.9976 7.39102C37.2619 7.44 37.5099 7.48597 37.786 7.53711C37.7065 8.5134 37.6281 9.47526 37.5472 10.4674Z" fill="black"/>
<path d="M12.5159 9.83933C12.5511 10.2209 12.5844 10.5812 12.6201 10.9674C12.386 11.0309 12.1575 11.0929 11.9012 11.1623C11.8143 10.1671 11.7297 9.19915 11.6436 8.21242C11.7245 8.19048 11.7975 8.16843 11.8716 8.15095C12.7022 7.95479 13.5331 7.75991 14.3637 7.56345C14.9121 7.43371 15.2231 7.6341 15.3301 8.18864C15.3717 8.40403 15.3504 8.61414 15.2724 8.81808C15.1827 9.05238 15.0251 9.208 14.7731 9.26958C14.103 9.43336 13.4346 9.60402 12.7657 9.77232C12.6908 9.79117 12.6165 9.81229 12.5159 9.83933ZM12.4122 9.17581C12.4715 9.17066 12.5144 9.17249 12.5544 9.16263C13.1763 9.00948 13.7978 8.85504 14.4192 8.69999C14.4604 8.68972 14.5029 8.67777 14.5392 8.65698C14.6315 8.60428 14.6689 8.48389 14.6317 8.37667C14.598 8.27931 14.5425 8.25187 14.4089 8.26893C14.3737 8.27342 14.3388 8.28148 14.3042 8.28978C14.0136 8.35947 13.7228 8.42896 13.4324 8.49977C13.0811 8.58543 12.7301 8.6723 12.3627 8.76264C12.38 8.90697 12.3957 9.03788 12.4122 9.17581Z" fill="black"/>
<path d="M29.9321 20.2487C30.2222 20.2235 30.3105 20.2694 30.3117 20.427C30.3131 20.5953 30.2009 20.6671 29.9416 20.6478C29.9385 20.583 29.9342 20.5153 29.9324 20.4475C29.9309 20.3855 29.9321 20.3235 29.9321 20.2487Z" fill="white"/>
<path d="M28.865 20.417C28.9058 20.5919 28.9466 20.7669 28.9912 20.9581C28.8986 20.9581 28.8244 20.9581 28.7369 20.9581C28.7295 20.7671 28.7907 20.5957 28.865 20.417Z" fill="white"/>
</svg>
