<svg width="54" height="52" viewBox="0 0 54 52" fill="none" xmlns="http://www.w3.org/2000/svg">
<g clip-path="url(#clip0_435_17397)">
<path d="M45.4821 3.37959C45.4821 3.49117 45.4821 3.58328 45.4821 3.67544C45.4821 8.28878 45.4883 12.9021 45.4795 17.5154C45.475 19.8504 45.1408 22.1502 44.6644 24.4304C43.7494 28.8104 42.2138 32.9581 39.9784 36.8391C37.2066 41.6517 33.5583 45.6697 29.0203 48.8739C28.396 49.3148 27.7495 49.7241 27.1159 50.152C27.01 50.2238 26.9313 50.2414 26.809 50.1654C21.092 46.6029 16.607 41.8779 13.4008 35.9496C11.1351 31.76 9.65935 27.3006 8.89097 22.6037C8.58112 20.7095 8.41465 18.8058 8.42212 16.883C8.43922 12.4707 8.42893 8.0582 8.42318 3.64582C8.4229 3.44064 8.46722 3.35882 8.68672 3.31798C13.9243 2.34271 19.16 1.35744 24.3962 0.374753C25.193 0.225204 25.9902 0.0773708 26.7882 -0.0657342C26.8916 -0.0842771 27.0042 -0.0871513 27.107 -0.067913C31.3879 0.731055 35.6683 1.53331 39.9486 2.33525C41.717 2.66657 43.4853 2.99783 45.2536 3.32952C45.3214 3.34222 45.3885 3.35896 45.4821 3.37959ZM43.3014 14.5147C43.2268 14.4849 43.1635 14.457 43.0985 14.434C38.5504 12.8298 33.8645 11.9337 29.0482 11.735C24.7443 11.5575 20.4823 11.9064 16.2718 12.8338C14.4148 13.2428 12.5903 13.764 10.8038 14.4166C10.6898 14.4582 10.6045 14.4931 10.6056 14.6499C10.6214 16.727 10.5631 18.8038 10.8339 20.8746C11.2605 24.1373 12.0388 27.3077 13.2219 30.3763C15.6379 36.6429 19.4183 41.9127 24.7296 46.054C25.447 46.6131 26.1957 47.1323 26.9221 47.6644C27.0082 47.6116 27.0618 47.5819 27.1125 47.5476C29.6782 45.8106 31.9913 43.7866 34.0295 41.452C37.4315 37.5553 39.8501 33.1073 41.432 28.1947C42.3729 25.2727 43.0097 22.2848 43.2198 19.2202C43.3105 17.8965 43.2786 16.5644 43.3008 15.2362C43.3048 14.9975 43.3014 14.7585 43.3014 14.5147ZM43.2894 12.1799C43.2894 11.2951 43.2894 10.4244 43.2894 9.54798C43.136 9.51572 42.9932 9.48285 42.8493 9.45592C37.606 8.47347 32.3627 7.49116 27.1187 6.51223C27.0084 6.49165 26.8874 6.49369 26.7768 6.51427C23.946 7.04158 21.1158 7.57265 18.2856 8.10326C15.8044 8.56841 13.3235 9.0356 10.8413 9.49518C10.6644 9.52796 10.5984 9.58646 10.6045 9.77481C10.6194 10.2379 10.6093 10.7018 10.6093 11.1653C10.6093 11.4877 10.6093 11.81 10.6093 12.1321C21.5175 8.60633 32.396 8.62315 43.2894 12.1799ZM43.2898 5.19322C43.2191 5.17552 43.1533 5.1554 43.0862 5.14279C37.7597 4.14383 32.433 3.1453 27.106 2.14889C27.0169 2.1322 26.9198 2.12585 26.8315 2.14213C25.8293 2.32635 24.8281 2.51618 23.8265 2.70393C19.9871 3.42367 16.1477 4.14309 12.3083 4.86297C11.7479 4.96802 11.1879 5.07497 10.6222 5.1821C10.6222 5.90068 10.6222 6.60073 10.6222 7.30744C10.6657 7.30429 10.6963 7.30499 10.7258 7.29947C15.9458 6.32017 21.1656 5.33944 26.3863 4.3638C26.6328 4.31772 26.897 4.26274 27.1372 4.30381C28.3926 4.51854 29.643 4.76247 30.8949 4.99718C34.0893 5.59602 37.2834 6.19566 40.4778 6.79431C41.4103 6.96908 42.3432 7.14167 43.2898 7.31778C43.2898 6.60258 43.2898 5.90231 43.2898 5.19322Z" fill="black"/>
<path d="M31.2835 21.7124C30.648 21.8525 30.0841 21.8925 29.5136 21.7301C29.5798 22.1241 29.8151 22.3212 31.0156 23.0059C30.7238 23.1911 29.9673 23.1397 29.2324 22.8845C29.3004 23.0904 29.5474 23.3528 30.0361 23.6952C30.3558 23.9192 30.6922 24.1195 31.0665 24.3595C30.328 24.4739 29.6755 24.284 29.0252 24.0771C29.012 24.0936 28.9988 24.1102 28.9856 24.1267C29.366 24.436 29.7464 24.7452 30.1245 25.0526C29.7454 25.1446 29.2099 25.0539 28.6751 24.7939C28.6751 24.9366 28.6568 25.0652 28.6784 25.1867C28.7531 25.6092 28.9501 25.987 29.2432 26.2849C29.6085 26.6563 30.012 26.9936 30.4219 27.3165C30.924 27.7121 31.4738 28.0494 31.959 28.4634C32.5146 28.9376 32.8327 29.5546 32.8292 30.3107C32.8289 30.3698 32.9078 30.4819 32.9402 30.4784C33.0279 30.4689 33.145 30.4336 33.189 30.3677C33.3985 30.0531 33.5073 29.6974 33.5188 29.32C33.5512 28.2624 33.5682 27.2043 33.6058 26.1469C33.6189 25.7782 33.65 25.4063 33.7174 25.0441C33.791 24.649 33.9815 24.3031 34.3161 24.0562C34.3747 24.013 34.4403 23.979 34.5583 23.9067C34.2495 24.6091 33.9818 25.2573 34.2331 25.9869C34.4346 25.3657 34.8701 24.9518 35.4127 24.6208C35.3157 24.8773 35.1977 25.1281 35.1264 25.3916C35.0017 25.8521 34.9016 26.3194 34.8009 26.786C34.7786 26.8892 34.787 27.0022 34.7981 27.1089C34.8196 27.3159 34.9124 27.3636 35.0929 27.2487C35.222 27.1666 35.3344 27.0578 35.452 26.9582C35.5091 26.9099 35.5611 26.8557 35.6582 26.7635C35.6058 27.156 35.5673 27.4954 35.5138 27.8324C35.4098 28.4875 35.3397 29.1519 35.179 29.7933C34.8919 30.9395 34.1553 31.5652 32.6579 31.5093C32.4742 31.5024 32.3707 31.5546 32.2429 31.6809C31.7607 32.1574 31.2611 32.6166 30.7604 33.0739C30.567 33.2506 30.3434 33.3942 30.1505 33.5714C29.6068 34.071 29.5208 34.6944 29.897 35.3246C30.0031 35.5024 30.1139 35.6774 30.2259 35.8592C29.615 36.4652 29.3282 37.2295 29.0693 38.0094C28.9688 38.3119 28.7822 38.415 28.4741 38.3521C28.3768 38.3323 28.2793 38.3139 28.1657 38.2917C28.1492 38.4398 28.1324 38.5751 28.1196 38.7107C28.1018 38.897 28.0041 39.0163 27.8184 39.0373C27.5201 39.071 27.2203 39.1108 26.9211 39.1113C26.5764 39.1118 26.2317 39.0723 25.8598 39.0485C26.0846 38.4205 26.4924 38.0046 27.0244 37.7055C27.1894 37.6128 27.2954 37.5292 27.2622 37.3176C27.2502 37.2415 27.3135 37.1444 27.3622 37.0697C27.5814 36.7332 27.8 36.396 28.0338 36.0697C28.2121 35.8207 28.2554 35.5485 28.1519 35.2785C27.9425 34.7319 27.7108 34.1932 27.4723 33.6584C27.1529 32.942 27.1002 32.2113 27.3428 31.4686C27.5661 30.7854 28.0394 30.354 28.7375 30.1735C28.7823 30.1619 28.8269 30.1496 28.8714 30.1369C28.8933 30.1307 28.9147 30.1231 28.9399 30.1149C28.5259 30.0553 28.2952 30.1643 27.3726 30.8559C26.5692 30.3619 25.8407 29.7664 25.2127 29.0602C24.7829 28.5768 24.3984 28.0525 24.0053 27.5375C23.9212 27.4272 23.8447 27.3767 23.705 27.3787C23.1584 27.3864 22.6117 27.3819 22.0244 27.3819C22.0654 27.5536 22.0887 27.6955 22.1336 27.8302C22.2606 28.211 22.3973 28.5885 22.5283 28.968C22.5533 29.0402 22.5974 29.1202 22.5854 29.1884C22.5342 29.48 22.6732 29.6014 22.9318 29.7049C23.4265 29.9029 23.5015 30.0934 23.257 30.5618C23.0452 30.9675 22.7768 31.3436 22.5131 31.7654C22.1533 31.3551 21.9772 30.932 21.8915 30.4742C21.8393 30.1946 21.8093 29.9332 21.4865 29.814C21.4011 29.7825 21.3287 29.6393 21.303 29.5345C21.0906 28.6661 20.8902 27.7948 20.6874 26.924C20.6752 26.8716 20.6724 26.8169 20.668 26.763C20.6191 26.1625 20.7505 25.9844 21.3411 25.9272C22.542 25.8109 23.5499 25.2677 24.4567 24.5173C24.6571 24.3514 24.8047 24.1024 24.9281 23.8664C25.4651 22.8396 25.7942 21.7382 26.04 20.6107C26.0706 20.4706 26.1056 20.3975 26.2687 20.3941C26.858 20.3819 27.234 20.0728 27.414 19.5201C27.4795 19.3191 27.5291 19.1129 27.5466 18.8933C27.412 19.0696 27.2757 19.2446 27.143 19.4223C26.8373 19.8318 26.4322 19.9528 25.9538 19.8095C25.6517 19.719 25.3511 19.6134 25.0652 19.4814C24.6568 19.2927 24.2687 19.2738 23.8693 19.4995C23.7446 19.57 23.598 19.6256 23.4568 19.6387C22.9931 19.6815 22.6674 19.367 22.6755 18.9002C22.6812 18.5754 22.7382 18.2571 23.0064 18.0433C23.1501 17.9287 23.3302 17.8378 23.5082 17.7923C24.052 17.6534 24.6041 17.5474 25.1494 17.4143C25.2545 17.3887 25.3771 17.3207 25.4348 17.2342C25.8157 16.6637 26.3301 16.3501 27.0532 16.3781C27.0753 15.9676 27.1771 15.6036 27.4943 15.2969C27.6098 15.5217 27.7134 15.7326 27.8254 15.9391C27.9431 16.1562 28.0567 16.3718 28.3408 16.4283C28.436 16.4472 28.5256 16.5398 28.599 16.6167C29.0533 17.0933 29.5607 17.4642 30.3193 17.4631C30.0254 17.7313 29.7344 17.8487 29.327 17.918C29.8681 18.2789 30.357 18.605 30.8459 18.931C30.8355 18.9563 30.8252 18.9816 30.8149 19.0069C30.3604 19.0069 29.9059 19.0069 29.4005 19.0069C30.0776 19.5414 30.8572 19.8881 31.2703 20.6575C30.7093 20.4278 30.1283 20.3297 29.476 20.2987C29.9606 20.9389 30.5396 21.376 31.2835 21.7124Z" fill="black"/>
<path d="M21.7124 34.3614C22.2541 33.9207 22.8449 33.8186 23.4794 33.9073C23.6212 33.9272 23.7161 33.9354 23.8083 33.7934C23.8522 33.7257 23.9975 33.6886 24.0923 33.696C24.353 33.7166 24.6105 33.7928 24.8706 33.8007C25.1527 33.8091 25.4365 33.7679 25.7191 33.7432C25.865 33.7305 25.938 33.6364 25.9455 33.4963C25.9553 33.3114 25.9605 33.1261 25.9609 32.941C25.9625 32.162 25.9616 31.383 25.9616 30.5352C26.2718 30.8076 26.5444 31.0382 26.8028 31.2838C26.8381 31.3174 26.8133 31.4278 26.7983 31.4987C26.639 32.248 26.6385 32.9895 26.9392 33.7053C27.0397 33.9446 27.1855 34.167 27.3284 34.3855C27.4569 34.5821 27.4605 34.9056 27.2971 35.0707C27.2559 35.1122 27.1747 35.1246 27.11 35.131C26.4773 35.1927 25.8552 35.2991 25.2721 35.5668C25.1537 35.6212 25.0373 35.6852 24.9312 35.7606C24.5267 36.0476 24.2682 35.9758 24.0688 35.5131C24.0508 35.4711 24.0331 35.429 24.0053 35.3636C23.8801 35.4699 23.7629 35.5631 23.6531 35.6641C23.5066 35.7988 23.3453 35.8186 23.1902 35.7036C22.9245 35.5065 22.6591 35.3062 22.4145 35.0842C22.1754 34.8671 21.9625 34.6212 21.7124 34.3614Z" fill="black"/>
<path d="M23.3627 24.2184C22.9649 23.7074 22.5777 23.21 22.1639 22.6784C21.8087 22.999 21.4693 23.2974 21.1396 23.606C20.9491 23.7843 20.7935 24.0061 20.4919 24.0099C20.4572 24.0103 20.4098 24.0867 20.3918 24.1364C20.3317 24.303 20.2939 24.4783 20.2263 24.6414C20.1078 24.9272 20.001 24.9899 19.7046 24.9307C19.2136 24.8326 18.7845 24.5904 18.3447 24.3267C18.6241 23.8892 19.0167 23.6277 19.4699 23.4555C19.6549 23.3852 19.7944 23.3073 19.8398 23.0981C19.8565 23.0215 19.9159 22.9427 19.9769 22.8887C20.6587 22.2851 21.3461 21.6878 22.0285 21.0848C22.218 20.9174 22.4127 20.9249 22.5949 21.0683C22.8305 21.2538 23.0681 21.4435 23.2708 21.6629C23.6427 22.0653 23.9918 22.489 24.344 22.9092C24.384 22.9569 24.419 23.0586 24.3954 23.1022C24.1497 23.5562 23.8182 23.9336 23.3627 24.2184Z" fill="black"/>
</g>
<defs>
<clipPath id="clip0_435_17397">
<rect width="40" height="52" fill="white" transform="translate(7)"/>
</clipPath>
</defs>
</svg>
