<svg width="54" height="52" viewBox="0 0 54 52" fill="none" xmlns="http://www.w3.org/2000/svg">
<path d="M38.3735 33.0958C34.5532 35.7315 30.7834 35.7369 27.0035 33.1059C23.2508 35.7338 19.4808 35.7371 15.6365 33.0963C13.3736 34.8351 10.7878 35.4557 7.93649 34.8155C5.74805 34.324 3.99063 33.1256 2.70097 31.3146C0.148506 27.7303 0.536657 23.0016 3.40928 19.898C5.00597 18.1729 7.00068 17.214 9.35197 17.0465C11.7033 16.879 13.8038 17.5595 15.632 18.9874C19.4437 16.3453 23.2154 16.3416 27.005 18.9705C30.7601 16.3442 34.5394 16.3367 38.376 18.9869C40.5089 17.3107 42.9762 16.6901 45.6763 17.1707C47.7771 17.5445 49.5304 18.5973 50.9024 20.2441C53.7973 23.7188 53.4848 28.4259 51.2511 31.3846C49.7138 33.4208 47.6989 34.6483 45.1467 34.9742C42.6042 35.299 40.3528 34.606 38.3735 33.0958ZM39.8316 20.5067C42.3095 24.2132 42.3025 27.8925 39.8319 31.5729C41.8898 33.3488 45.9552 33.8136 48.8074 31.0933C51.7022 28.3324 51.6839 23.7335 48.8202 20.9958C45.941 18.2433 41.8717 18.7384 39.8316 20.5067ZM14.2031 20.5244C12.0421 18.6705 7.96821 18.3152 5.16692 21.0142C2.27541 23.8002 2.34727 28.536 5.35238 31.2364C8.18441 33.7812 12.1972 33.3279 14.1981 31.5434C12.9918 29.9099 12.3431 28.0867 12.3399 26.044C12.3365 23.9998 12.9916 22.1785 14.2031 20.5244ZM25.5239 20.4874C24.9301 19.9863 24.2218 19.6441 23.4719 19.3914C22.5433 19.0786 21.5864 19.0233 20.6114 19.1069C19.3739 19.213 18.2816 19.6769 17.271 20.3704C17.1283 20.4684 17.131 20.5711 17.2324 20.6979C17.3615 20.8593 17.4995 21.017 17.605 21.1935C18.0605 21.9554 18.4327 22.758 18.6715 23.6137C18.7904 24.0397 18.9069 24.4786 18.9302 24.9167C18.9871 25.9925 19.0167 27.0635 18.7407 28.1333C18.4741 29.1663 18.0941 30.1344 17.4933 31.0099C17.0838 31.6065 17.0753 31.6624 17.7148 32.0131C18.6815 32.5434 19.6877 32.9471 20.8133 32.9873C21.6313 33.0165 22.4418 33.025 23.2264 32.7407C23.4918 32.6446 23.7784 32.5955 24.0284 32.4709C24.5532 32.2091 25.0601 31.9114 25.5547 31.6392C23.0367 27.8763 23.0366 24.1971 25.5239 20.4874ZM28.4868 31.5933C29.0742 32.0933 29.7802 32.4257 30.5197 32.681C30.9101 32.8158 31.3229 32.9187 31.733 32.957C32.7459 33.0516 33.7521 33.0375 34.7383 32.7024C35.4581 32.4577 36.1285 32.1348 36.7479 31.6982C36.8851 31.6014 36.8607 31.4982 36.7787 31.3881C36.0335 30.3861 35.5324 29.2801 35.2515 28.0575C34.9154 26.5938 34.9519 25.1402 35.3117 23.702C35.5495 22.7516 35.9599 21.8568 36.525 21.0446C36.8941 20.5141 36.8953 20.5148 36.3821 20.1288C36.3519 20.1061 36.3236 20.0798 36.2906 20.0619C35.3376 19.5472 34.3531 19.1411 33.2476 19.0953C32.4201 19.061 31.5982 19.043 30.805 19.3328C30.3542 19.4976 29.8922 19.6409 29.4611 19.8476C29.1042 20.0188 28.7851 20.2688 28.476 20.4667C30.9618 24.199 30.9645 27.8707 28.4868 31.5933ZM26.9733 30.0784C27.0378 30.0339 27.0677 30.0233 27.0816 30.0023C27.8547 28.8328 28.2841 27.556 28.2896 26.145C28.2925 25.3925 28.2423 24.6389 27.9812 23.9348C27.7606 23.3399 27.4261 22.7878 27.1555 22.2105C27.0493 21.9841 26.9963 21.9668 26.8526 22.1938C26.1886 23.2435 25.7658 24.3731 25.7401 25.6211C25.7278 26.2239 25.7343 26.8421 25.8543 27.4284C25.9795 28.04 26.2313 28.6297 26.4674 29.213C26.5907 29.517 26.7993 29.7865 26.9733 30.0784ZM38.3234 22.0336C36.4179 24.6743 36.8264 28.1313 38.3448 30.0284C40.102 27.7925 40.0289 24.1461 38.3234 22.0336ZM15.6745 30.0362C17.4778 27.7162 17.2976 24.036 15.6591 22.0459C13.9015 24.3245 13.9986 27.9432 15.6745 30.0362Z" fill="black"/>
</svg>
