<svg width="54" height="53" viewBox="0 0 54 53" fill="none" xmlns="http://www.w3.org/2000/svg">
<path d="M1.00004 25.9972C0.984026 11.8538 12.4738 0.232207 26.5716 0.00345378C40.9155 -0.229336 52.7985 11.3355 52.9975 25.6343C53.2004 40.2229 41.2456 52.1741 26.6912 52.0032C12.4664 51.836 0.975238 40.1292 1.00004 25.9972ZM45.3262 37.7938C45.1468 37.7145 45.0501 37.6683 44.951 37.6284C39.0368 35.2513 33.1229 32.8736 27.2053 30.5051C27.0643 30.4487 26.8614 30.4463 26.7213 30.503C21.0134 32.8118 15.3093 35.1302 9.60492 37.4477C9.31804 37.5643 9.03245 37.684 8.675 37.8317C13.1141 44.1426 19.0771 47.6654 26.7732 47.7346C34.6694 47.8056 40.8044 44.2982 45.3262 37.7938ZM25.9898 4.47066C19.8864 4.5478 12.3056 8.0246 8.06653 15.3345C3.82027 22.6569 4.87824 30.978 7.72386 36.0201C7.81148 35.9563 7.89962 35.8963 7.98321 35.8306C9.66286 34.5105 11.342 33.1899 13.0211 31.8691C16.3284 29.2677 19.6365 26.6672 22.9392 24.0599C23.054 23.9693 23.171 23.8187 23.192 23.6815C23.4836 21.7739 23.7599 19.864 24.0373 17.9542C24.5531 14.4029 25.0672 10.8513 25.5817 7.2998C25.7181 6.35817 25.8534 5.41633 25.9898 4.47066ZM27.9217 4.38648C27.9661 4.73196 27.9952 4.98909 28.0325 5.24499C28.9207 11.3366 29.8084 17.4282 30.7067 23.5183C30.7305 23.6794 30.8371 23.8675 30.9643 23.9685C35.9822 27.9529 41.007 31.9287 46.0314 35.9049C46.103 35.9616 46.1812 36.0097 46.2592 36.0638C49.4891 29.9819 49.7906 21.5375 45.3955 14.6113C41.3605 8.25277 35.4761 4.94411 27.9217 4.38648Z" fill="black"/>
</svg>
