<svg width="54" height="52" viewBox="0 0 54 52" fill="none" xmlns="http://www.w3.org/2000/svg">
<path d="M53 20.8523C52.841 21.1255 52.6793 21.3973 52.5238 21.6725C52.3873 21.914 52.191 22.0624 51.9094 22.0776C51.6827 22.0898 51.5354 22.2033 51.4329 22.4005C51.3269 22.6043 51.1995 22.7971 51.0944 23.0013C50.9126 23.3548 50.6208 23.5518 50.2367 23.6111C50.0229 23.6442 49.881 23.7477 49.7822 23.9383C49.6577 24.1782 49.5075 24.4049 49.3854 24.6459C49.2468 24.9194 49.027 25.0776 48.741 25.1617C47.8324 25.4288 46.9244 25.6981 46.0157 25.9647C44.0035 26.5551 41.9918 27.1473 39.9776 27.731C39.706 27.8096 39.5216 27.9604 39.4276 28.2203C39.238 28.7444 38.8708 29.1085 38.3615 29.296C37.7472 29.5222 37.1192 29.7156 36.488 29.8905C34.4672 30.4504 32.4415 30.9932 30.4189 31.5471C29.7706 31.7245 29.2111 31.6124 28.7254 31.1217C28.2496 30.641 27.7486 30.1852 27.2581 29.7191C27.032 29.5042 26.9679 29.5055 26.7365 29.7257C26.2414 30.1968 25.7374 30.6591 25.254 31.1419C24.7766 31.6185 24.2236 31.7224 23.5929 31.55C21.2502 30.9098 18.9057 30.2763 16.5656 29.6272C16.1835 29.5212 15.8105 29.369 15.4499 29.2024C15.0422 29.014 14.7515 28.6946 14.5955 28.2673C14.4869 27.97 14.2848 27.8032 13.9764 27.7138C11.1504 26.8937 8.32872 26.0582 5.50161 25.2417C5.0515 25.1116 4.70006 24.908 4.50909 24.4619C4.42448 24.2642 4.29543 24.086 4.19287 23.8955C4.10972 23.7411 3.989 23.6474 3.81427 23.6226C3.38014 23.5611 3.06512 23.3393 2.8704 22.941C2.77263 22.741 2.64988 22.5532 2.54149 22.3581C2.45334 22.1994 2.33028 22.0965 2.14196 22.0872C1.81191 22.071 1.59029 21.9002 1.43944 21.6131C1.34208 21.4278 1.21902 21.2561 1.11932 21.0719C0.815436 20.5104 1.11542 20.0012 1.75363 20.0011C8.7873 19.9997 15.821 19.9993 22.8547 20.0014C23.7424 20.0017 24.4315 20.5191 24.6745 21.3718C24.7286 21.5619 24.8227 21.6154 25.0031 21.6149C26.3367 21.611 27.6703 21.6107 29.0039 21.6151C29.1892 21.6158 29.2742 21.5504 29.3273 21.3651C29.5711 20.5163 30.2631 20.0015 31.1524 20.0012C38.1794 19.9994 45.2064 20.0006 52.2333 19.999C52.5979 19.9989 52.8551 20.1508 53 20.487C53 20.6088 53 20.7305 53 20.8523ZM40.3032 21.7041C40.4225 21.7041 40.4762 21.7041 40.5299 21.7041C44.2259 21.7037 47.9219 21.7034 51.6178 21.7028C51.6719 21.7028 51.726 21.6981 51.78 21.6973C51.9724 21.6945 52.1131 21.6171 52.203 21.4385C52.2758 21.294 52.3725 21.1617 52.4517 21.0202C52.5355 20.8702 52.6757 20.7209 52.5674 20.5362C52.4597 20.3526 52.2597 20.3955 52.0881 20.3955C48.6899 20.3943 45.2918 20.3981 41.8937 20.3921C41.4524 20.3913 41.0945 20.5478 40.8293 20.8819C40.6389 21.1219 40.4955 21.3992 40.3032 21.7041ZM13.6804 21.7041C13.5425 21.4634 13.4378 21.2519 13.307 21.058C13.012 20.6214 12.6162 20.3892 12.0645 20.3907C8.67293 20.4001 5.28134 20.3946 1.88975 20.3946C1.81539 20.3946 1.74025 20.3937 1.66689 20.4038C1.42674 20.4367 1.33344 20.5891 1.43418 20.8076C1.5074 20.9665 1.62573 21.1054 1.69191 21.2664C1.84198 21.6313 2.11257 21.7114 2.4843 21.7104C6.11957 21.6998 9.75484 21.7041 13.3902 21.7041C13.471 21.7041 13.5517 21.7041 13.6804 21.7041ZM29.6597 21.7041C29.7543 21.7041 29.8349 21.7041 29.9155 21.7041C32.2034 21.7041 34.4914 21.7041 36.7793 21.7041C37.7811 21.7041 38.7829 21.706 39.7847 21.7002C39.8598 21.6997 39.9675 21.6658 40.0043 21.6105C40.2704 21.2103 40.5223 20.8006 40.7784 20.3942C40.7471 20.3942 40.6813 20.3942 40.6156 20.3942C37.5154 20.3942 34.4152 20.3941 31.315 20.3949C31.2137 20.3949 31.112 20.3999 31.0111 20.4089C30.2814 20.4737 29.7812 20.9447 29.6597 21.7041ZM24.3389 21.7041C24.2115 20.8656 23.6324 20.3958 22.7329 20.3952C19.6055 20.393 16.4781 20.3942 13.3508 20.3949C13.2944 20.3949 13.238 20.4036 13.2258 20.4047C13.458 20.7697 13.6995 21.1322 13.9211 21.5066C14.0069 21.6516 14.0972 21.7087 14.2704 21.7084C17.5535 21.7025 20.8366 21.7041 24.1197 21.7041C24.1869 21.7041 24.2541 21.7041 24.3389 21.7041ZM2.80526 22.0139C2.9483 22.2679 3.0889 22.4818 3.19396 22.712C3.37931 23.1182 3.69511 23.2419 4.11654 23.2105C5.10708 23.1366 6.09834 23.0722 7.08951 23.0073C9.22107 22.8678 11.3528 22.7307 13.4843 22.5916C13.7159 22.5765 13.947 22.5558 14.2063 22.5354C14.1397 22.4303 14.0829 22.3612 14.0484 22.2823C13.9514 22.0609 13.7927 22.0071 13.5525 22.0077C10.0673 22.0168 6.58206 22.0139 3.09681 22.0139C3.01126 22.0139 2.92582 22.0139 2.80526 22.0139ZM51.2034 22.0139C51.0827 22.0139 51.0047 22.0139 50.9268 22.0139C48.6465 22.0139 46.3662 22.0139 44.0858 22.0139C42.834 22.0139 41.5822 22.0127 40.3304 22.0166C40.2499 22.0169 40.1392 22.0305 40.095 22.0825C39.9844 22.2123 39.904 22.3677 39.8019 22.5278C39.8567 22.5403 39.8813 22.5494 39.9065 22.5511C41.3295 22.6461 42.7524 22.741 44.1755 22.8347C45.6591 22.9325 47.1427 23.0311 48.6266 23.1252C49.1386 23.1577 49.6517 23.1977 50.1638 23.1919C50.3236 23.1901 50.5342 23.0892 50.6299 22.9639C50.844 22.6835 51.0006 22.3592 51.2034 22.0139ZM39.2352 23.3156C39.2843 23.3353 39.3022 23.347 39.3213 23.3496C40.2922 23.4796 41.2632 23.6084 42.2341 23.7384C43.9012 23.9616 45.5679 24.187 47.2352 24.4083C47.7239 24.4732 48.2132 24.5354 48.7039 24.5801C48.8044 24.5892 48.9601 24.5457 49.0088 24.4724C49.2083 24.1721 49.3763 23.8509 49.5687 23.5151C49.486 23.5059 49.4344 23.4981 49.3825 23.4947C47.7911 23.3887 46.1998 23.2833 44.6084 23.1774C43.786 23.1226 42.9636 23.0669 42.1412 23.012C41.3454 22.9589 40.5497 22.904 39.7536 22.8576C39.6762 22.853 39.5723 22.8795 39.5216 22.9315C39.4151 23.0409 39.3358 23.1768 39.2352 23.3156ZM4.42885 23.5114C4.58319 23.7816 4.74382 24.0104 4.85008 24.2621C4.9799 24.5697 5.20449 24.6195 5.49016 24.5811C6.42096 24.4557 7.35176 24.3302 8.28272 24.2057C10.0843 23.9649 11.886 23.7251 13.6875 23.4841C14.0407 23.4369 14.3933 23.3863 14.7756 23.3332C14.6802 23.199 14.5963 23.0945 14.5277 22.9807C14.4634 22.8741 14.3804 22.8436 14.2595 22.852C13.2548 22.922 12.2497 22.9864 11.2449 23.0542C9.76161 23.1542 8.2784 23.2563 6.79509 23.3562C6.0205 23.4084 5.24585 23.4579 4.42885 23.5114ZM38.6115 24.0922C38.681 24.1123 38.7188 24.1262 38.7579 24.1342C40.6645 24.526 42.5768 24.8923 44.4755 25.3188C45.4353 25.5344 46.3541 25.5572 47.2762 25.1879C47.5852 25.0641 47.9159 24.9945 48.2368 24.9002C48.1773 24.8525 48.121 24.8371 48.0637 24.8294C46.7046 24.6477 45.3454 24.4673 43.9864 24.2856C42.366 24.0689 40.7459 23.8505 39.1252 23.6368C39.0685 23.6293 38.9862 23.6448 38.9503 23.6824C38.8345 23.8036 38.7348 23.9401 38.6115 24.0922ZM15.3747 24.1043C15.1121 23.6514 15.0335 23.6085 14.6406 23.6615C12.0349 24.0127 9.42884 24.3623 6.82293 24.7126C6.47123 24.7599 6.11963 24.8082 5.76803 24.8561C6.25086 25.0427 6.74394 25.1611 7.21704 25.334C7.81451 25.5523 8.40807 25.5355 9.01402 25.411C10.7894 25.046 12.5652 24.6832 14.3406 24.3191C14.6834 24.2489 15.0258 24.1768 15.3747 24.1043ZM16.2281 25.0104C16.0549 24.8218 15.8998 24.6644 15.7587 24.4953C15.6732 24.3928 15.5875 24.3751 15.4589 24.4017C13.7519 24.7552 12.0436 25.1024 10.3359 25.4521C9.83378 25.555 9.33232 25.6607 8.78397 25.7748C8.89127 25.811 8.95288 25.8342 9.01579 25.8528C9.53432 26.0056 10.0595 26.1393 10.57 26.3151C11.061 26.4843 11.5342 26.4615 12.0193 26.3088C12.9861 26.0046 13.9559 25.7098 14.9246 25.4113C15.348 25.2808 15.7715 25.1508 16.2281 25.0104ZM45.2347 25.7784C45.0702 25.744 44.9655 25.7216 44.8606 25.7C42.7478 25.2661 40.6351 24.8319 38.522 24.3996C38.465 24.388 38.3784 24.3708 38.3488 24.4C38.1557 24.5901 37.9746 24.7924 37.7767 25.0045C37.8612 25.0347 37.9052 25.0524 37.9503 25.0662C39.2557 25.4679 40.564 25.8606 41.8656 26.2745C42.4186 26.4504 42.9518 26.4906 43.5112 26.2943C44.0575 26.1026 44.6211 25.9597 45.2347 25.7784ZM39.2495 27.7027C39.0532 27.6257 38.8615 27.5611 38.6789 27.477C37.9244 27.1294 37.1733 26.7743 36.4185 26.4275C36.3541 26.3979 36.2475 26.3746 36.2001 26.4067C35.7717 26.6972 35.3521 27.0008 34.9256 27.3035C34.9387 27.3215 34.9468 27.3412 34.9615 27.3517C35.6866 27.8703 36.4092 28.3928 37.1401 28.9032C37.3533 29.0521 37.6047 29.1587 37.8673 29.072C38.4009 28.8956 38.8726 28.6344 39.069 28.0511C39.1091 27.9317 39.1852 27.8245 39.2495 27.7027ZM14.7701 27.723C14.8497 27.8929 14.9324 28.0843 15.0272 28.2696C15.2581 28.7203 15.6797 28.9305 16.128 29.0705C16.4759 29.1792 16.767 28.9771 17.0405 28.7816C17.6671 28.3338 18.2938 27.8862 18.92 27.4379C18.9765 27.3975 19.0298 27.3525 19.0834 27.3105C18.6494 27.0014 18.2395 26.7043 17.8215 26.4189C17.771 26.3844 17.6672 26.3915 17.6045 26.418C17.3559 26.5231 17.1143 26.6451 16.8689 26.7582C16.1706 27.08 15.4717 27.4006 14.7701 27.723ZM42.0828 26.7033C42.0845 26.6899 42.0862 26.6765 42.0879 26.6631C40.5978 26.2035 39.1079 25.7434 37.6169 25.2868C37.5722 25.2731 37.4997 25.2776 37.4682 25.3054C37.1616 25.5755 36.8609 25.8523 36.5373 26.1466C37.3987 26.5421 38.2355 26.933 39.0787 27.3098C39.3579 27.4346 39.6535 27.4404 39.9482 27.3333C40.1003 27.278 40.2586 27.2397 40.4141 27.194C40.9704 27.0303 41.5266 26.8668 42.0828 26.7033ZM17.4603 26.1418C17.1636 25.8726 16.8818 25.6241 16.6092 25.3658C16.5184 25.2797 16.4407 25.2657 16.3211 25.3035C15.5291 25.5541 14.7343 25.796 13.9402 26.0402C13.263 26.2484 12.5857 26.4557 11.8897 26.6692C11.9325 26.6942 11.9537 26.7129 11.9784 26.7202C12.7297 26.942 13.4808 27.165 14.2339 27.3806C14.3279 27.4075 14.4435 27.4233 14.5321 27.3937C14.9077 27.2683 15.2843 27.1409 15.6466 26.9823C16.2506 26.7178 16.8439 26.429 17.4603 26.1418ZM24.845 29.0357C25.2018 27.7501 25.5476 26.5036 25.8995 25.2355C25.6932 25.2355 25.5173 25.2442 25.3428 25.2325C25.2153 25.224 25.1505 25.2771 25.0894 25.3819C24.6839 26.0767 24.2723 26.7679 23.8627 27.4602C23.6257 27.8607 23.3887 28.2612 23.1293 28.6995C23.7122 28.8137 24.2665 28.9223 24.845 29.0357ZM28.1071 25.2616C28.4544 26.5119 28.8008 27.7589 29.1557 29.0367C29.7308 28.9229 30.2872 28.8128 30.8652 28.6984C30.8102 28.6003 30.7817 28.5469 30.7509 28.4949C30.2104 27.5817 29.6696 26.6687 29.1287 25.7557C28.7996 25.2001 28.7996 25.2002 28.1556 25.2398C28.1493 25.2403 28.1433 25.2452 28.1071 25.2616ZM26.8292 29.1707C26.8292 27.8343 26.8292 26.5414 26.8292 25.2355C26.6714 25.2355 26.5295 25.2442 26.3891 25.233C26.2538 25.2222 26.2068 25.2777 26.1726 25.405C25.9836 26.1095 25.7825 26.8107 25.587 27.5135C25.4464 28.0191 25.3082 28.5254 25.1579 29.071C25.727 29.1048 26.2705 29.1373 26.8292 29.1707ZM28.8434 29.07C28.4909 27.7995 28.1505 26.5701 27.8059 25.3419C27.7944 25.3008 27.7415 25.2437 27.7052 25.2417C27.5259 25.2313 27.3457 25.2369 27.1711 25.2369C27.1711 26.5614 27.1711 27.8554 27.1711 29.1722C27.7326 29.1379 28.2763 29.1047 28.8434 29.07ZM37.1747 29.2966C37.0222 29.1946 36.9083 29.1224 36.7986 29.0443C36.1154 28.5577 35.4338 28.0688 34.7491 27.5842C34.6935 27.5448 34.599 27.4918 34.5565 27.513C34.1351 27.7232 33.7208 27.9476 33.2872 28.1772C33.5964 28.4983 33.8924 28.8134 34.1974 29.1195C34.3923 29.315 34.5875 29.5151 34.8085 29.6781C34.9242 29.7633 35.1104 29.8357 35.2399 29.8059C35.8772 29.6592 36.5063 29.4765 37.1747 29.2966ZM20.7167 28.1768C20.3164 27.9664 19.9371 27.7756 19.5672 27.5678C19.4424 27.4976 19.3588 27.4987 19.2421 27.5838C18.6027 28.05 17.957 28.5078 17.3126 28.9672C17.1639 29.0732 17.0118 29.1744 16.8338 29.2965C17.3967 29.4499 17.9324 29.5695 18.4491 29.7449C18.8741 29.8892 19.1876 29.7539 19.473 29.4665C19.7112 29.2266 19.9399 28.9773 20.1743 28.7335C20.351 28.5498 20.53 28.3683 20.7167 28.1768ZM24.8179 25.2362C24.5273 25.2362 24.2786 25.2314 24.0303 25.2403C23.9792 25.2421 23.9201 25.2859 23.8812 25.3262C23.2137 26.016 22.5486 26.708 21.8836 27.4001C21.6797 27.6124 21.4778 27.8267 21.2441 28.0725C21.7565 28.2451 22.2308 28.4012 22.702 28.5659C22.8292 28.6103 22.8691 28.5358 22.9189 28.4512C23.2174 27.9448 23.518 27.4396 23.817 26.9335C24.143 26.3817 24.4682 25.8293 24.8179 25.2362ZM32.7407 28.0781C32.6862 28.0083 32.6605 27.9687 32.6283 27.9351C31.7856 27.0576 30.9426 26.1803 30.0979 25.3047C30.0677 25.2734 30.0203 25.2406 29.9803 25.2397C29.7271 25.2338 29.4737 25.2367 29.187 25.2367C29.2618 25.3675 29.3168 25.4662 29.3742 25.5634C29.9415 26.5231 30.5095 27.4824 31.0762 28.4424C31.1293 28.5324 31.1685 28.6146 31.3075 28.5652C31.7717 28.4004 32.2401 28.2472 32.7407 28.0781ZM19.3983 29.9858C19.4296 29.9962 19.4848 30.0174 19.5416 30.033C20.1082 30.1886 20.6769 30.3366 21.2408 30.5016C21.4368 30.5589 21.6024 30.5283 21.7104 30.3711C22.0402 29.8908 22.3536 29.3994 22.6757 28.9089C22.1238 28.7043 21.62 28.5136 21.1119 28.335C21.0631 28.3179 20.9698 28.3586 20.9274 28.4019C20.4143 28.9268 19.9069 29.4572 19.3983 29.9858ZM34.6455 29.9821C34.489 29.841 34.3426 29.7227 34.2122 29.5887C33.8355 29.2013 33.4625 28.81 33.0943 28.4144C33.0064 28.32 32.9315 28.3058 32.8134 28.3571C32.5781 28.4592 32.3366 28.5476 32.0947 28.6335C31.8495 28.7205 31.6009 28.7976 31.3383 28.8842C31.5894 29.3069 31.8207 29.7109 32.0663 30.1061C32.3309 30.5318 32.4615 30.5757 32.9499 30.4441C32.9695 30.4389 32.9894 30.4348 33.0089 30.4294C33.5489 30.2819 34.0889 30.1343 34.6455 29.9821ZM29.2412 29.3461C29.3659 29.7938 29.4759 30.2391 29.6151 30.6751C29.7556 31.1152 30.0196 31.243 30.4604 31.123C30.9231 30.9971 31.3864 30.873 31.849 30.7466C31.9356 30.7229 32.0202 30.6919 32.0849 30.6709C31.9042 30.3943 31.727 30.1329 31.5603 29.865C31.3998 29.607 31.2534 29.3404 31.0926 29.0825C31.0637 29.0361 30.9883 28.978 30.9466 28.9863C30.3852 29.0981 29.8259 29.2208 29.2412 29.3461ZM24.7611 29.3474C24.1762 29.2221 23.6232 29.1015 23.0686 28.9889C23.0253 28.9801 22.9479 29.0137 22.9247 29.0512C22.5901 29.592 22.2619 30.1367 21.9304 30.6837C22.4509 30.8257 22.9977 30.9747 23.5444 31.124C23.97 31.2403 24.2273 31.125 24.3676 30.7063C24.5171 30.2604 24.6309 29.8026 24.7611 29.3474ZM30.4722 25.2371C30.5946 25.3679 30.6836 25.4649 30.7747 25.5599C31.5003 26.3169 32.2251 27.0745 32.9551 27.8273C32.9946 27.868 33.0941 27.8997 33.139 27.8787C33.5299 27.6959 33.9148 27.5001 34.3597 27.2792C34.2866 27.2401 34.2545 27.2271 34.2271 27.2076C33.3403 26.5751 32.4542 25.9417 31.567 25.3098C31.5242 25.2793 31.473 25.2413 31.425 25.2404C31.1234 25.2339 30.8217 25.2371 30.4722 25.2371ZM23.5359 25.2355C23.2121 25.2355 22.9441 25.2286 22.6768 25.2393C22.5889 25.2428 22.4891 25.2723 22.418 25.3226C21.5409 25.9427 20.6681 26.569 19.7938 27.193C19.758 27.2186 19.7172 27.2372 19.6419 27.28C20.0793 27.4973 20.4555 27.6803 20.8275 27.8714C20.9349 27.9265 20.9962 27.89 21.0691 27.8127C21.4028 27.4589 21.7417 27.11 22.0782 26.7588C22.5498 26.2665 23.0209 25.7737 23.5359 25.2355ZM32.0281 25.2354C32.0896 25.2924 32.1102 25.3161 32.1351 25.3338C32.9262 25.9001 33.7192 26.464 34.5076 27.034C34.5969 27.0985 34.6588 27.0891 34.7403 27.0339C34.9362 26.9015 35.1385 26.7784 35.3334 26.6446C35.5305 26.5092 35.7218 26.3654 35.9447 26.2043C35.5321 26.0117 35.1477 25.8605 34.7913 25.6595C34.1977 25.3248 33.5793 25.1595 32.895 25.2308C32.6247 25.2589 32.349 25.2354 32.0281 25.2354ZM21.9837 25.25C20.9616 25.2208 19.9895 25.1105 19.126 25.7006C18.9775 25.8021 18.7967 25.8561 18.6317 25.9339C18.4514 26.0188 18.272 26.1057 18.0464 26.2137C18.5132 26.5316 18.9408 26.8227 19.3717 27.1162C20.2392 26.4964 21.0894 25.889 21.9837 25.25ZM28.637 23.137C28.6552 23.14 28.6733 23.143 28.6914 23.146C28.7345 23.5786 28.7776 24.0111 28.8211 24.4465C28.926 24.4465 29.0104 24.4465 29.112 24.4465C29.0335 23.7933 28.9566 23.1547 28.8799 22.5161C28.8554 22.5136 28.831 22.5111 28.8065 22.5085C28.5431 22.9822 28.2797 23.4559 27.9942 23.9696C27.7485 23.5078 27.5249 23.0847 27.2975 22.6637C27.2656 22.6045 27.2146 22.5556 27.1725 22.5019C27.1568 22.5109 27.1411 22.52 27.1255 22.529C27.0359 23.1662 26.9462 23.8034 26.8538 24.4608C26.9471 24.4548 27.01 24.4508 27.0683 24.4471C27.1154 24.0027 27.1605 23.5776 27.2055 23.1525C27.2226 23.1491 27.2396 23.1457 27.2568 23.1423C27.4792 23.5724 27.7016 24.0025 27.9411 24.4657C28.0722 24.2065 28.179 23.989 28.2915 23.7745C28.4037 23.5605 28.5216 23.3494 28.637 23.137ZM23.769 23.4447C23.7697 22.8692 23.3383 22.4754 22.704 22.4728C22.0659 22.4702 21.6337 22.8798 21.6334 23.4876C21.6332 24.0915 22.0552 24.4978 22.6835 24.4984C23.3304 24.499 23.7682 24.0741 23.769 23.4447ZM26.4385 29.4751C25.9974 29.4382 25.6136 29.4111 25.231 29.3715C25.0974 29.3577 25.0573 29.4174 25.0251 29.5306C24.8702 30.0758 24.7079 30.6189 24.5398 31.1911C25.2315 30.702 25.7672 30.0469 26.4385 29.4751ZM29.4802 31.1793C29.3817 30.8904 29.2853 30.6282 29.2035 30.3615C29.1183 30.084 29.0411 29.8036 28.9729 29.5214C28.9427 29.3967 28.8853 29.3589 28.7608 29.3725C28.4988 29.4012 28.2355 29.4175 27.9729 29.4391C27.8513 29.4492 27.7297 29.4599 27.5711 29.4735C28.1327 30.0045 28.6607 30.5077 29.1949 31.0044C29.274 31.078 29.3821 31.1204 29.4802 31.1793ZM25.6659 24.4927C25.6856 24.4753 25.7052 24.4579 25.7249 24.4405C25.7249 23.8023 25.7249 23.1641 25.7249 22.5307C25.5905 22.4906 25.534 22.5243 25.5371 22.6594C25.5435 22.943 25.5396 23.2268 25.5399 23.5105C25.54 23.64 25.5399 23.7696 25.5399 23.8991C25.5224 23.9062 25.5049 23.9133 25.4874 23.9204C25.4597 23.8826 25.4354 23.8419 25.404 23.8076C25.0434 23.4142 24.6835 23.0202 24.3181 22.6313C24.264 22.5738 24.1824 22.5422 24.0899 22.4836C24.0899 23.1776 24.0899 23.8159 24.0899 24.4489C24.2312 24.4928 24.274 24.4432 24.2722 24.3152C24.2673 23.937 24.27 23.5587 24.2713 23.1804C24.2715 23.1267 24.2805 23.0731 24.2888 22.9828C24.7685 23.5087 25.2172 24.0007 25.6659 24.4927ZM31.2409 22.5156C31.2409 23.174 31.2409 23.8056 31.2409 24.448C31.3304 24.448 31.4075 24.448 31.5116 24.448C31.5116 24.1391 31.5116 23.8405 31.5116 23.476C31.604 23.5625 31.6548 23.6001 31.6931 23.6477C31.8583 23.853 32.0347 24.0516 32.1781 24.2714C32.298 24.455 32.4407 24.4963 32.664 24.4338C32.418 24.1211 32.181 23.82 31.9353 23.5076C32.005 23.4824 32.0432 23.4696 32.0805 23.4547C32.3728 23.3377 32.5231 23.1158 32.4765 22.8705C32.4343 22.6489 32.2536 22.5273 31.9302 22.5168C31.7077 22.5098 31.4849 22.5156 31.2409 22.5156ZM35.0484 24.4414C35.2023 24.489 35.2323 24.4222 35.231 24.3026C35.2271 23.9579 35.2298 23.6131 35.2299 23.2684C35.2299 23.1861 35.2299 23.1038 35.2299 23.0215C35.2464 23.019 35.2628 23.0165 35.2793 23.014C35.7277 23.5045 36.1761 23.9949 36.6245 24.4855C36.6441 24.472 36.6638 24.4584 36.6835 24.4449C36.6835 23.8084 36.6835 23.1718 36.6835 22.5358C36.5112 22.5178 36.5067 22.5177 36.5042 22.6527C36.5002 22.869 36.503 23.0853 36.503 23.3016C36.503 23.499 36.503 23.6964 36.503 23.9556C36.4021 23.8482 36.347 23.7903 36.2927 23.7316C35.9532 23.3643 35.6154 22.9954 35.273 22.6309C35.2207 22.5752 35.147 22.5395 35.0484 22.4701C35.0484 23.1652 35.0484 23.7986 35.0484 24.4414ZM18.813 24.4452C18.6979 24.154 18.5905 23.8709 18.4744 23.5915C18.329 23.2421 18.1779 22.8951 18.0246 22.5492C18.0082 22.5123 17.9523 22.4599 17.9288 22.4663C17.8858 22.478 17.8378 22.5213 17.8187 22.5636C17.5505 23.1543 17.2865 23.7469 17.023 24.3397C17.0077 24.3742 17.0049 24.4142 16.9957 24.4541C17.1726 24.5193 17.2692 24.4724 17.3148 24.2919C17.3509 24.1487 17.4044 24.0064 17.4742 23.8766C17.5076 23.8145 17.5939 23.7469 17.6608 23.7419C18.1979 23.7013 18.2204 23.7074 18.3924 24.2219C18.4662 24.4427 18.5754 24.5156 18.813 24.4452ZM29.2415 24.4347C29.4003 24.4871 29.4869 24.463 29.5271 24.3007C29.5657 24.1447 29.626 23.9909 29.6997 23.8479C29.7313 23.7865 29.8185 23.7192 29.8842 23.7151C30.4414 23.6797 30.4417 23.6839 30.6383 24.2073C30.6431 24.2199 30.6476 24.2326 30.6524 24.2452C30.7454 24.4936 30.7633 24.5021 31.0474 24.4204C30.7644 23.7644 30.4824 23.1106 30.2003 22.4567C30.1748 22.4603 30.1492 22.4638 30.1237 22.4674C29.8303 23.1217 29.5368 23.7761 29.2415 24.4347ZM19.9581 22.8123C20.0727 22.6333 20.0665 22.5709 19.8214 22.5061C19.667 22.4653 19.4865 22.4699 19.3294 22.5056C19.0954 22.5588 18.9749 22.7402 18.9503 22.978C18.9262 23.2114 19.0517 23.3638 19.2411 23.4683C19.359 23.5332 19.4895 23.5747 19.6113 23.6332C19.7466 23.6982 19.8728 23.7984 19.8332 23.9572C19.8023 24.0813 19.7225 24.2433 19.621 24.2863C19.5086 24.334 19.3399 24.2854 19.2091 24.24C19.1335 24.2137 19.0845 24.1109 19.0161 24.0343C18.8881 24.3093 18.8993 24.3617 19.0996 24.4375C19.3622 24.5369 19.6201 24.5268 19.8535 24.36C20.2296 24.0911 20.1796 23.5725 19.7636 23.3832C19.6407 23.3272 19.5138 23.2787 19.3958 23.2138C19.2707 23.145 19.1966 23.0227 19.2619 22.8922C19.3096 22.7968 19.4227 22.6709 19.5069 22.6707C19.6523 22.6703 19.7979 22.7571 19.9581 22.8123ZM37.0904 25.2491C36.2553 25.2491 35.4853 25.2491 34.7154 25.2491C35.1857 25.5079 35.6647 25.7345 36.1469 25.9542C36.1833 25.9707 36.2551 25.9524 36.2893 25.9244C36.5444 25.7156 36.7941 25.5004 37.0904 25.2491ZM16.9123 25.2438C17.2091 25.498 17.456 25.7168 17.7135 25.9223C17.7549 25.9554 17.8536 25.952 17.9087 25.9274C18.3337 25.7373 18.7547 25.5383 19.176 25.3404C19.2177 25.3208 19.254 25.2898 19.3235 25.2438C18.511 25.2438 17.7435 25.2438 16.9123 25.2438ZM16.2665 22.0258C15.5907 22.0258 14.9377 22.0258 14.2801 22.0258C14.4485 22.4589 14.5342 22.5166 14.9494 22.4867C14.9831 22.4842 15.0171 22.4866 15.0509 22.4843C15.4537 22.4576 15.8565 22.4305 16.2665 22.4029C16.2665 22.2676 16.2665 22.1555 16.2665 22.0258ZM37.7352 22.0274C37.7352 22.1525 37.7352 22.2646 37.7352 22.3819C37.7644 22.3908 37.7889 22.4033 37.814 22.4051C38.3195 22.4412 38.8249 22.4778 39.3307 22.5081C39.3763 22.5109 39.4419 22.4849 39.4683 22.4498C39.5641 22.3223 39.6471 22.1852 39.751 22.0274C39.0598 22.0274 38.4026 22.0274 37.7352 22.0274ZM20.8286 24.4551C20.9341 24.4551 21.0167 24.4551 21.1229 24.4551C21.1229 23.8634 21.1229 23.2863 21.1229 22.704C21.3257 22.704 21.5047 22.704 21.7002 22.704C21.6972 22.6389 21.6946 22.5831 21.6919 22.5272C21.1897 22.5272 20.7061 22.5272 20.2075 22.5272C20.2155 22.5993 20.2218 22.6557 20.2273 22.7041C20.4332 22.7041 20.6197 22.7041 20.8286 22.7041C20.8286 23.2936 20.8286 23.8712 20.8286 24.4551ZM34.1126 22.5274C33.6086 22.5274 33.1312 22.5274 32.6385 22.5274C32.6469 22.5992 32.6535 22.6553 32.6599 22.7107C32.8647 22.7008 33.0501 22.6919 33.2597 22.6819C33.2597 23.2906 33.2597 23.8689 33.2597 24.4577C33.3608 24.4577 33.4382 24.4577 33.5422 24.4577C33.5422 23.8648 33.5422 23.2811 33.5422 22.6818C33.7474 22.6915 33.9259 22.7 34.1126 22.7088C34.1126 22.6389 34.1126 22.5876 34.1126 22.5274ZM16.2595 23.1337C16.2595 22.9828 16.2595 22.8588 16.2595 22.7247C15.771 22.7577 15.2995 22.7895 14.7921 22.8238C14.9092 22.9814 14.9976 23.1077 15.0951 23.2265C15.1197 23.2565 15.1757 23.2814 15.2133 23.2767C15.56 23.2334 15.9057 23.183 16.2595 23.1337ZM37.7348 23.1331C38.0943 23.183 38.4406 23.2325 38.7874 23.2771C38.8214 23.2815 38.8731 23.2668 38.8933 23.242C38.9962 23.1151 39.0916 22.982 39.2122 22.8209C38.691 22.7869 38.2185 22.756 37.7348 22.7245C37.7348 22.8681 37.7348 22.9872 37.7348 23.1331ZM34.6079 24.4479C34.6079 23.8006 34.6079 23.1642 34.6079 22.5245C34.5195 22.5245 34.4478 22.5245 34.3685 22.5245C34.3685 23.1723 34.3685 23.8093 34.3685 24.4479C34.4561 24.4479 34.5279 24.4479 34.6079 24.4479ZM37.7358 23.9172C38.294 24.0584 38.3656 24.0294 38.605 23.5632C38.3152 23.525 38.0322 23.4876 37.7358 23.4485C37.7358 23.6157 37.7358 23.7608 37.7358 23.9172ZM16.2476 23.4486C15.9612 23.4886 15.6809 23.5277 15.3661 23.5715C15.491 23.7229 15.5845 23.845 15.6887 23.9574C15.7194 23.9906 15.7805 24.0141 15.8264 24.0121C16.2412 23.9939 16.3014 23.9238 16.2713 23.5108C16.2704 23.4983 16.2622 23.4864 16.2476 23.4486ZM15.9869 24.3015C16.0961 24.3981 16.1772 24.4697 16.2622 24.5448C16.2622 24.4486 16.2622 24.3544 16.2622 24.2438C16.1712 24.2629 16.0966 24.2785 15.9869 24.3015ZM37.9936 24.2957C37.8997 24.2784 37.821 24.2639 37.7359 24.2482C37.7359 24.3632 37.7359 24.4522 37.7359 24.5376C37.814 24.4642 37.8889 24.394 37.9936 24.2957Z" fill="black"/>
<path d="M28.6369 23.137C28.5214 23.3494 28.4035 23.5605 28.2913 23.7746C28.1788 23.9891 28.072 24.2066 27.9409 24.4658C27.7014 24.0026 27.4789 23.5725 27.2565 23.1424C27.2394 23.1458 27.2223 23.1492 27.2052 23.1526C27.1602 23.5777 27.1152 24.0028 27.0681 24.4472C27.0098 24.4509 26.9469 24.4549 26.8535 24.4609C26.946 23.8035 27.0356 23.1663 27.1252 22.5291C27.1409 22.5201 27.1566 22.511 27.1722 22.502C27.2144 22.5557 27.2653 22.6046 27.2973 22.6638C27.5247 23.0848 27.7483 23.5079 27.9939 23.9697C28.2795 23.456 28.5428 22.9823 28.8062 22.5086C28.8307 22.5112 28.8551 22.5137 28.8797 22.5162C28.9564 23.1548 29.0332 23.7934 29.1117 24.4466C29.0102 24.4466 28.9258 24.4466 28.8209 24.4466C28.7774 24.0112 28.7343 23.5787 28.6911 23.1461C28.6731 23.1431 28.655 23.1401 28.6369 23.137Z" fill="white"/>
<path d="M23.7689 23.4446C23.7681 24.074 23.3303 24.499 22.6834 24.4983C22.0551 24.4977 21.6331 24.0914 21.6333 23.4875C21.6336 22.8797 22.0658 22.4701 22.7039 22.4727C23.3382 22.4753 23.7696 22.869 23.7689 23.4446ZM21.9493 23.4933C21.9428 23.9683 22.1674 24.2897 22.5488 24.3509C22.9924 24.4221 23.3436 24.1549 23.4403 23.6726C23.5626 23.0624 23.2137 22.5805 22.6683 22.6066C22.2308 22.6274 21.9565 22.9656 21.9493 23.4933Z" fill="white"/>
<path d="M25.6659 24.4924C25.2172 24.0004 24.7685 23.5085 24.2888 22.9825C24.2805 23.0729 24.2714 23.1265 24.2713 23.1801C24.27 23.5584 24.2672 23.9367 24.2722 24.3149C24.2739 24.4429 24.2312 24.4925 24.0898 24.4487C24.0898 23.8157 24.0898 23.1774 24.0898 22.4834C24.1824 22.5419 24.2641 22.5735 24.3181 22.6311C24.6835 23.0199 25.0433 23.414 25.404 23.8073C25.4354 23.8416 25.4597 23.8824 25.4873 23.9201C25.5048 23.9131 25.5224 23.9059 25.5399 23.8989C25.5399 23.7693 25.54 23.6397 25.5399 23.5102C25.5396 23.2265 25.5434 22.9427 25.5371 22.6592C25.5341 22.524 25.5904 22.4904 25.7248 22.5305C25.7248 23.1639 25.7248 23.8021 25.7248 24.4402C25.7052 24.4576 25.6855 24.475 25.6659 24.4924Z" fill="white"/>
<path d="M31.2408 22.5149C31.4847 22.5149 31.7076 22.5091 31.93 22.5163C32.2534 22.5268 32.4341 22.6483 32.4762 22.87C32.5229 23.1153 32.3726 23.3372 32.0803 23.4541C32.0429 23.4691 32.0048 23.4818 31.9351 23.5071C32.1809 23.8194 32.4179 24.1206 32.6638 24.4333C32.4404 24.4957 32.2978 24.4544 32.1779 24.2709C32.0344 24.0511 31.8581 23.8525 31.6929 23.6472C31.6546 23.5996 31.6038 23.562 31.5114 23.4754C31.5114 23.8399 31.5114 24.1386 31.5114 24.4474C31.4073 24.4474 31.3302 24.4474 31.2407 24.4474C31.2408 23.805 31.2408 23.1734 31.2408 22.5149ZM31.517 23.3658C31.79 23.4218 32.04 23.3511 32.1367 23.1927C32.2216 23.0535 32.2271 22.9082 32.1278 22.7744C32.0295 22.6419 31.7572 22.6083 31.517 22.6936C31.517 22.9124 31.517 23.1344 31.517 23.3658Z" fill="white"/>
<path d="M35.0483 24.441C35.0483 23.7983 35.0483 23.1649 35.0483 22.4697C35.1469 22.5391 35.2206 22.5748 35.2729 22.6305C35.6154 22.995 35.9532 23.3639 36.2927 23.7312C36.3469 23.7899 36.402 23.8478 36.5029 23.9552C36.5029 23.696 36.5029 23.4986 36.5029 23.3012C36.503 23.0849 36.5002 22.8685 36.5041 22.6523C36.5066 22.5173 36.5112 22.5174 36.6835 22.5354C36.6835 23.1714 36.6835 23.808 36.6835 24.4446C36.6638 24.4581 36.6441 24.4716 36.6244 24.4851C36.176 23.9946 35.7277 23.5041 35.2793 23.0136C35.2628 23.0161 35.2463 23.0186 35.2298 23.0211C35.2298 23.1034 35.2298 23.1857 35.2298 23.268C35.2297 23.6127 35.227 23.9575 35.2309 24.3022C35.2322 24.4219 35.2022 24.4886 35.0483 24.441Z" fill="white"/>
<path d="M18.813 24.4452C18.5754 24.5157 18.4662 24.4427 18.3924 24.222C18.2202 23.7073 18.1979 23.7013 17.6607 23.7419C17.5939 23.7469 17.5075 23.8145 17.4741 23.8767C17.4043 24.0065 17.3509 24.1487 17.3147 24.2919C17.2691 24.4725 17.1725 24.5193 16.9956 24.4541C17.0048 24.4142 17.0076 24.3742 17.0229 24.3398C17.2864 23.7469 17.5504 23.1543 17.8186 22.5636C17.8377 22.5214 17.8857 22.4781 17.9287 22.4664C17.9523 22.46 18.0082 22.5124 18.0245 22.5492C18.1779 22.8952 18.329 23.2421 18.4743 23.5915C18.5906 23.8709 18.6979 24.1541 18.813 24.4452ZM17.6236 23.5144C17.7918 23.5144 17.9282 23.5144 18.0967 23.5144C18.018 23.3341 17.949 23.1759 17.8564 22.9638C17.7643 23.1816 17.6982 23.338 17.6236 23.5144Z" fill="white"/>
<path d="M29.2417 24.435C29.537 23.7764 29.8304 23.122 30.1238 22.4676C30.1493 22.4641 30.1749 22.4606 30.2004 22.457C30.4825 23.1109 30.7645 23.7647 31.0475 24.4207C30.7634 24.5024 30.7455 24.4939 30.6525 24.2455C30.6477 24.2329 30.6432 24.2202 30.6384 24.2075C30.4418 23.6842 30.4416 23.68 29.8843 23.7153C29.8186 23.7195 29.7314 23.7868 29.6998 23.8482C29.6261 23.9912 29.5658 24.1449 29.5272 24.301C29.4871 24.4632 29.4005 24.4874 29.2417 24.435ZM30.0962 22.9067C29.9965 23.1399 29.9147 23.331 29.8259 23.5387C30.0222 23.5387 30.1851 23.5387 30.3715 23.5387C30.2803 23.3292 30.1985 23.1416 30.0962 22.9067Z" fill="white"/>
<path d="M19.9586 22.8127C19.7984 22.7574 19.6528 22.6707 19.5074 22.6711C19.4231 22.6713 19.3101 22.7971 19.2623 22.8926C19.1971 23.0231 19.2711 23.1453 19.3963 23.2142C19.5142 23.2791 19.6411 23.3276 19.7641 23.3836C20.1801 23.5729 20.2301 24.0915 19.8539 24.3604C19.6205 24.5273 19.3627 24.5373 19.1 24.4379C18.8998 24.3621 18.8886 24.3097 19.0166 24.0347C19.0849 24.1113 19.134 24.2141 19.2096 24.2404C19.3403 24.2858 19.509 24.3344 19.6215 24.2867C19.7229 24.2437 19.8027 24.0816 19.8337 23.9576C19.8733 23.7988 19.747 23.6986 19.6117 23.6336C19.49 23.5751 19.3594 23.5336 19.2416 23.4687C19.0521 23.3642 18.9266 23.2118 18.9507 22.9784C18.9754 22.7405 19.0959 22.5592 19.3298 22.506C19.4869 22.4703 19.6675 22.4657 19.8219 22.5065C20.067 22.5713 20.0732 22.6336 19.9586 22.8127Z" fill="white"/>
<path d="M20.8286 24.4553C20.8286 23.8714 20.8286 23.2938 20.8286 22.7043C20.6197 22.7043 20.4332 22.7043 20.2273 22.7043C20.2219 22.6558 20.2156 22.5995 20.2075 22.5273C20.7061 22.5273 21.1898 22.5273 21.692 22.5273C21.6946 22.5833 21.6972 22.6391 21.7002 22.7041C21.5048 22.7041 21.3258 22.7041 21.123 22.7041C21.123 23.2864 21.123 23.8635 21.123 24.4552C21.0167 24.4553 20.9341 24.4553 20.8286 24.4553Z" fill="white"/>
<path d="M34.1123 22.5273C34.1123 22.5875 34.1123 22.6388 34.1123 22.7088C33.9256 22.6999 33.7471 22.6915 33.5419 22.6818C33.5419 23.2811 33.5419 23.8648 33.5419 24.4577C33.4379 24.4577 33.3605 24.4577 33.2594 24.4577C33.2594 23.8689 33.2594 23.2906 33.2594 22.6819C33.0498 22.6919 32.8645 22.7008 32.6596 22.7107C32.6531 22.6552 32.6466 22.5992 32.6382 22.5274C33.1309 22.5273 33.6083 22.5273 34.1123 22.5273Z" fill="white"/>
<path d="M34.608 24.4478C34.5281 24.4478 34.4563 24.4478 34.3687 24.4478C34.3687 23.8092 34.3687 23.1721 34.3687 22.5244C34.4479 22.5244 34.5196 22.5244 34.608 22.5244C34.608 23.1641 34.608 23.8005 34.608 24.4478Z" fill="white"/>
<path d="M15.9873 24.3009C16.097 24.2779 16.1716 24.2622 16.2626 24.2432C16.2626 24.3538 16.2626 24.448 16.2626 24.5441C16.1776 24.469 16.0966 24.3974 15.9873 24.3009Z" fill="white"/>
<path d="M21.9494 23.4932C21.9566 22.9655 22.2308 22.6273 22.6684 22.6065C23.2137 22.5805 23.5626 23.0623 23.4403 23.6726C23.3436 24.1548 22.9924 24.422 22.5489 24.3508C22.1675 24.2896 21.9429 23.9682 21.9494 23.4932Z" fill="black"/>
<path d="M31.5171 23.3666C31.5171 23.1352 31.5171 22.9131 31.5171 22.6943C31.7572 22.609 32.0295 22.6426 32.1278 22.7751C32.2272 22.909 32.2216 23.0542 32.1368 23.1934C32.0401 23.3519 31.7901 23.4226 31.5171 23.3666Z" fill="black"/>
<path d="M17.6235 23.5146C17.6981 23.3381 17.7642 23.1817 17.8563 22.9639C17.9489 23.176 18.0179 23.3342 18.0966 23.5146C17.928 23.5146 17.7917 23.5146 17.6235 23.5146Z" fill="black"/>
<path d="M30.096 22.9072C30.1983 23.1421 30.2801 23.3297 30.3713 23.5392C30.1848 23.5392 30.022 23.5392 29.8257 23.5392C29.9145 23.3315 29.9963 23.1404 30.096 22.9072Z" fill="black"/>
</svg>
