<?xml version="1.0" encoding="utf-8"?>
<!-- Generator: Adobe Illustrator 24.1.1, SVG Export Plug-In . SVG Version: 6.00 Build 0)  -->
<svg version="1.1" id="Layer_1" xmlns="http://www.w3.org/2000/svg" xmlns:xlink="http://www.w3.org/1999/xlink" x="0px" y="0px"
	 viewBox="0 0 18 20" style="enable-background:new 0 0 18 20;" xml:space="preserve">
<style type="text/css">
	.st0{fill:#161821;}
</style>
<path class="st0" d="M13.1,15.1H5.2c-0.9,0-1.7-0.8-1.7-1.8V1.8c0-1,0.8-1.8,1.7-1.8h7.9c0.9,0,1.7,0.8,1.7,1.8v11.4
	C14.8,14.3,14,15.1,13.1,15.1z M5.2,1.7c0,0-0.1,0.1-0.1,0.1v11.4c0,0.1,0,0.1,0.1,0.1h7.9c0,0,0.1-0.1,0.1-0.1V1.8
	c0-0.1,0-0.1-0.1-0.1H5.2z"/>
<path class="st0" d="M11.9,1.4H6.4v0.8h5.5V1.4z"/>
<path class="st0" d="M9.3,8.3C7.7,8.3,6.5,7,6.5,5.4s1.2-2.9,2.7-2.9S12,3.8,12,5.4S10.8,8.3,9.3,8.3z M9.3,3C8,3,7,4.1,7,5.4
	s1,2.3,2.2,2.3c1.2,0,2.2-1,2.2-2.3S10.5,3,9.3,3z"/>
<path class="st0" d="M9.3,12.8c-1,0-1.8-0.8-1.8-1.9c0-1,0.8-1.9,1.8-1.9s1.8,0.8,1.8,1.9C11.1,12,10.3,12.8,9.3,12.8z M9.3,9.6
	C8.6,9.6,8,10.2,8,10.9c0,0.7,0.6,1.4,1.3,1.4s1.3-0.6,1.3-1.4C10.6,10.2,10,9.6,9.3,9.6z"/>
<path class="st0" d="M10.7,14.1l-1.1,0.7l3,5.1l1.1-0.7L10.7,14.1z"/>
<path class="st0" d="M7.7,14l-3,5.1l1.1,0.7l3-5.1L7.7,14z"/>
<path class="st0" d="M9.9,14.4H8.5v5.5h1.3V14.4z"/>
</svg>
