<?xml version="1.0" standalone="no"?>
<!DOCTYPE svg PUBLIC "-//W3C//DTD SVG 1.1//EN" "http://www.w3.org/Graphics/SVG/1.1/DTD/svg11.dtd" >
<svg>
<metadata>
Created by FontForge 20090914 at Tue Dec  7 09:26:57 2021
 By www-data
Copyright (c) 2015 by Letters from Sweden. All rights reserved. |DCNT
</metadata>
<defs>
<font id="LabGrotesque-Bold" horiz-adv-x="590" >
  <font-face 
    font-family="Lab Grotesque"
    font-weight="700"
    font-stretch="normal"
    units-per-em="1000"
    panose-1="0 0 5 0 0 0 0 0 0 0"
    ascent="750"
    descent="-250"
    x-height="511"
    cap-height="710"
    bbox="-459 -260 1742 944"
    underline-thickness="59"
    underline-position="-218"
    unicode-range="U+0020-U+FB02"
  />
<missing-glyph horiz-adv-x="579" 
d="M479 810v-910h-379v910h379z" />
    <glyph glyph-name="fi" unicode="fi" horiz-adv-x="605" 
d="M235 548v-36.999h112v-99h-112v-412h-130v412h-88v99h88v45c0 110.667 53 166 159 166c28 0 58.333 -4 91 -12l-16 -101c-18.667 3.33301 -33.667 5 -45 5c-22.667 0 -38.167 -4.83301 -46.5 -14.5s-12.5 -26.834 -12.5 -51.501zM418 710.001h130v-122h-130v122z
M418 0.000976562v511h130v-511h-130z" />
    <glyph glyph-name="fl" unicode="fl" horiz-adv-x="607" 
d="M235 548v-36.999h112v-99h-112v-412h-130v412h-88v99h88v45c0 110.667 53 166 159 166c28 0 58.333 -4 91 -12l-16 -101c-18.667 3.33301 -33.667 5 -45 5c-22.667 0 -38.167 -4.83301 -46.5 -14.5s-12.5 -26.834 -12.5 -51.501zM418 710.001h130v-710h-130v710z" />
    <glyph glyph-name="f_f.liga" unicode="ff" horiz-adv-x="712" 
d="M235 555v-44h94v-99h-94v-412h-130v412h-88v99h88v51c0 110.667 55.333 166 166 166c36.667 0 73 -6 109 -18l-23 -97c-25.333 5.33301 -45.333 8 -60 8c-22 0 -37.833 -5 -47.5 -15s-14.5 -27 -14.5 -51zM581 555v-44h114v-99h-114v-412h-130v412h-79v99h79v51
c0 110.667 55.333 166 166 166c36.667 0 73 -6 109 -18l-23 -97c-25.333 5.33301 -45.333 8 -60 8c-22 0 -37.833 -5 -47.5 -15s-14.5 -27 -14.5 -51z" />
    <glyph glyph-name="f_f_i.liga" unicode="ffi" horiz-adv-x="951" 
d="M235 549v-38h94v-99h-94v-412h-130v412h-88v99h88v45c0 110.667 55.333 166 166 166c36.667 0 73 -6 109 -18l-23 -97c-25.333 5.33301 -45.333 8 -60 8c-22 0 -37.833 -5 -47.5 -15s-14.5 -27 -14.5 -51zM581 548v-36.999h112v-99h-112v-412h-130v412h-79v99h79v45
c0 110.667 53 166 159 166c28 0 58.333 -4 91 -12l-16 -101c-18.667 3.33301 -33.667 5 -45 5c-22.667 0 -38.167 -4.83301 -46.5 -14.5s-12.5 -26.834 -12.5 -51.501zM764 710.001h130v-122h-130v122zM764 0.000976562v511h130v-511h-130z" />
    <glyph glyph-name="f_f_j.liga" unicode="ffj" horiz-adv-x="951" 
d="M235 549v-38h94v-99h-94v-412h-130v412h-88v99h88v45c0 110.667 55.333 166 166 166c36.667 0 73 -6 109 -18l-23 -97c-25.333 5.33301 -45.333 8 -60 8c-22 0 -37.833 -5 -47.5 -15s-14.5 -27 -14.5 -51zM693 412l-112 0.000976562v-412h-130v412h-79v99h79v45
c0 110.667 53 166 159 166c28 0 58.333 -4 91 -12l-16 -101c-18.667 3.33301 -33.667 5 -45 5c-22.667 0 -38.167 -4.83301 -46.5 -14.5s-12.5 -26.834 -12.5 -51.501v-37h112v-99zM764 710.001h130v-122h-130v122zM764 -21.999l0.000976562 533h130v-530
c0 -114.667 -53 -172 -159 -172c-38 0 -73 5 -105 15l23 97c21.333 -4.66699 40.333 -7 57 -7c19.333 0 33.166 5 41.499 15s12.5 26.333 12.5 49z" />
    <glyph glyph-name="f_j.liga" unicode="fj" horiz-adv-x="605" 
d="M347 412l-112 0.000976562v-412h-130v412h-88v99h88v45c0 110.667 53 166 159 166c28 0 58.333 -4 91 -12l-16 -101c-18.667 3.33301 -33.667 5 -45 5c-22.667 0 -38.167 -4.83301 -46.5 -14.5s-12.5 -26.834 -12.5 -51.501v-37h112v-99zM418 710.001h130v-122h-130v122z
M418 -22.999l0.000976562 534h130v-531c0 -114.667 -53 -172 -159 -172c-38 0 -73 5 -105 15l23 97c21.333 -4.66699 40.333 -7 57 -7c19.333 0 33.166 5 41.499 15s12.5 26.333 12.5 49z" />
    <glyph glyph-name=".notdef" horiz-adv-x="579" 
d="M479 810v-910h-379v910h379z" />
    <glyph glyph-name="space" unicode=" " horiz-adv-x="220" 
 />
    <glyph glyph-name="exclam" unicode="!" horiz-adv-x="298" 
d="M225 710v-215l-31 -270h-80l-31 270v215h142zM225 145v-145h-142v145h142z" />
    <glyph glyph-name="quotedbl" unicode="&#x22;" horiz-adv-x="439" 
d="M176 710l-12 -277h-102l-12 277h126zM389 710l-12 -277h-102l-12 277h126z" />
    <glyph glyph-name="numbersign" unicode="#" 
d="M565 426h-84l-36 -170h84l-18 -85h-84l-36 -171h-96l36 171h-131l-36 -171h-96l36 171h-86l18 85h86l36 170h-86l19 85h85l36 169h96l-36 -169h131l36 169h96l-36 -169h85zM349 256l36 170h-131l-36 -170h131z" />
    <glyph glyph-name="dollar" unicode="$" horiz-adv-x="610" 
d="M354 -15l-0.000976562 -85.001h-92v85c-44.667 4.66699 -85.667 16.5 -123 35.5s-77 48.167 -119 87.5l84 87c57.333 -54.667 110 -85.667 158 -93v195c-79.333 24 -134 50.333 -164 79s-45 68.667 -45 120s19.5 95.833 58.5 133.5s89.167 59.834 150.5 66.501v84h92v-85
c72.667 -8 142 -42.333 208 -103l-82 -87c-48 42 -90 66.667 -126 74v-181c78 -22 132.667 -47.833 164 -77.5s47 -71.167 47 -124.5c0 -56 -19 -103.667 -57 -143c-37.333 -38 -88.666 -60.667 -153.999 -68zM261.999 423.999l0.000976562 156
c-54 -11.333 -81 -38.333 -81 -81c0 -18 6.16699 -32.5 18.5 -43.5s33.166 -21.5 62.499 -31.5zM436 188.999c0 20.667 -6.33301 37 -19 49s-33.667 22.333 -63 31v-167c54.667 12 82 41 82 87z" />
    <glyph glyph-name="percent" unicode="%" horiz-adv-x="882" 
d="M641 697l75 -47l-469 -667l-74 48zM832 157c0 -48.667 -16 -88.832 -48 -120.499s-71.667 -47.5 -119 -47.5c-48 0 -87.667 15.667 -119 47s-47 71.666 -47 120.999c0 48 15.833 87.833 47.5 119.5s71.167 47.5 118.5 47.5s87 -15.833 119 -47.5s48 -71.5 48 -119.5z
M588 157.002c0 -26.667 7 -48.167 21 -64.5s32.667 -24.5 56 -24.5c24 0 43 8.16699 57 24.5s21 37.833 21 64.5c0 26 -7 47.167 -21 63.5s-33 24.5 -57 24.5c-23.333 0 -42 -8.16699 -56 -24.5s-21 -37.5 -21 -63.5zM383 525.002c0 -48.667 -16 -88.832 -48 -120.499
s-71.667 -47.5 -119 -47.5c-48 0 -87.667 15.667 -119 47s-47 71.666 -47 120.999c0 48 15.833 87.833 47.5 119.5s71.167 47.5 118.5 47.5s87 -15.833 119 -47.5s48 -71.5 48 -119.5zM139 525.004c0 -26.667 7 -48.167 21 -64.5s32.667 -24.5 56 -24.5
c24 0 43 8.16699 57 24.5s21 37.833 21 64.5c0 26 -7 47.167 -21 63.5s-33 24.5 -57 24.5c-23.333 0 -42 -8.16699 -56 -24.5s-21 -37.5 -21 -63.5z" />
    <glyph glyph-name="ampersand" unicode="&#x26;" horiz-adv-x="721" 
d="M721 0l-157 -0.000976562l-67 78c-63.333 -62.667 -137.333 -94 -222 -94c-68.667 0 -125 18.167 -169 54.5s-66 82.833 -66 139.5c0 46 13.667 86 41 120s73 69.333 137 106c-45.333 58 -68 109.333 -68 154c0 50 18.5 90.667 55.5 122s82.833 47 137.5 47
c56.667 0 103.167 -15.333 139.5 -46s54.5 -68.667 54.5 -114c0 -39.333 -10.333 -72.666 -31 -99.999s-57 -57 -109 -89l104 -122l96 117l89 -69l-110 -135zM271 560.999c0 -26.667 19.333 -61.334 58 -104.001c34 19.333 57.333 36.833 70 52.5s19 34.5 19 56.5
c0 18.667 -7 34.334 -21 47.001s-31.333 19 -52 19s-38.167 -6.83301 -52.5 -20.5s-21.5 -30.5 -21.5 -50.5zM423 164.999l-137.998 161.001c-42.667 -26.667 -72.334 -49.834 -89.001 -69.501s-25 -42.5 -25 -68.5c0 -28.667 10.167 -51.667 30.5 -69s47.833 -26 82.5 -26
c45.333 0 91.666 24 138.999 72z" />
    <glyph glyph-name="quotesingle" unicode="'" horiz-adv-x="226" 
d="M176 710l-12 -277h-102l-12 277h126z" />
    <glyph glyph-name="parenleft" unicode="(" horiz-adv-x="344" 
d="M262 783l82.001 -63.001c-56.667 -76.667 -97.334 -145.334 -122.001 -206.001c-25.333 -62 -38 -131 -38 -207c0 -75.333 12.667 -144.333 38 -207c26 -62 66.667 -130.667 122 -206l-82 -63c-66.667 73.333 -117 148.333 -151 225s-51 160.334 -51 251.001
s17 174.334 51 251.001s84.333 151.667 151 225z" />
    <glyph glyph-name="parenright" unicode=")" horiz-adv-x="344" 
d="M82 -165l-82.001 63c56.667 76.667 97.334 145.334 122.001 206.001c25.333 62 38 131 38 207s-13 145 -39 207c-24.667 60.667 -65 129.334 -121 206.001l82 63c66.667 -73.333 117 -148.333 151 -225s51 -160.334 51 -251.001s-17 -174.334 -51 -251.001
s-84.333 -151.667 -151 -225z" />
    <glyph glyph-name="asterisk" unicode="*" horiz-adv-x="437" 
d="M259 710v-125l113 40l25 -73l-118 -39l78 -97l-63 -49l-77 102l-73 -100l-63 49l77 95l-118 39l25 73l111 -40v125h83z" />
    <glyph glyph-name="plus" unicode="+" horiz-adv-x="600" 
d="M357 570v-204h203v-112h-203v-204h-114v204h-203v112h203v204h114z" />
    <glyph glyph-name="comma" unicode="," horiz-adv-x="242" 
d="M200 145v-145l-80 -148h-73l70 148h-67v145h150z" />
    <glyph glyph-name="hyphen" unicode="-" horiz-adv-x="410" 
d="M360 349v-117h-310v117h310z" />
    <glyph glyph-name="period" unicode="." horiz-adv-x="242" 
d="M192 145v-145h-142v145h142z" />
    <glyph glyph-name="slash" unicode="/" horiz-adv-x="469" 
d="M454 710l-310 -710h-129l310 710h129z" />
    <glyph glyph-name="zero" unicode="0" 
d="M513 566c31.333 -61.333 47 -136.666 47 -225.999s-15.667 -164.666 -47 -225.999c-46 -87.333 -118.667 -131 -218 -131s-172 43.667 -218 131c-31.333 61.333 -47 136.666 -47 225.999s15.667 164.666 47 225.999c46 87.333 118.667 131 218 131s172 -43.667 218 -131z
M196 512c-19.333 -44 -29 -101.333 -29 -172s9.66699 -128 29 -172c20.667 -46.667 53.667 -70 99 -70s78.333 23.333 99 70c19.333 44 29 101.333 29 172s-9.66699 128 -29 172c-20.667 46.667 -53.667 70 -99 70s-78.333 -23.333 -99 -70z" />
    <glyph glyph-name="one" unicode="1" horiz-adv-x="460" 
d="M230 680h105v-680h-135v515l-117 -81l-66 92z" />
    <glyph glyph-name="two" unicode="2" horiz-adv-x="595" 
d="M323 237l-30 -18c-37.333 -22 -64.333 -40.333 -81 -55s-27.667 -32 -33 -52h368v-112h-509v53c0 47.333 9.33301 87.333 28 120s41 59 67 79c23.333 18.667 59 43 107 73c31.333 18.667 47.333 28 48 28c30 17.333 53.667 32 71 44c38 27.333 57 59.333 57 96
c0 27.333 -9.33301 49 -28 65s-43 24 -73 24c-30.667 0 -59.5 -9 -86.5 -27s-56.833 -47.667 -89.5 -89l-99 70c72 107.333 162.667 161 272 161c74 0 132.167 -19.333 174.5 -58s63.5 -86.667 63.5 -144c0 -40 -8 -73.333 -24 -100c-15.333 -27.333 -35 -50 -59 -68
c-24.667 -18 -58 -39.333 -100 -64z" />
    <glyph glyph-name="three" unicode="3" horiz-adv-x="579" 
d="M538 209c0 -61.333 -23.1699 -114.333 -69.5029 -159s-108.5 -67 -186.5 -67c-46.667 0 -90.167 6.66699 -130.5 20s-84.166 36 -131.499 68l65 95c40.667 -24.667 75.334 -42.167 104.001 -52.5s58.334 -15.5 89.001 -15.5c39.333 0 70 9.83301 92 29.5s33 46.5 33 80.5
c0 33.333 -12 59.5 -36 78.5s-56 28.5 -96 28.5c-32 0 -59 -4.33301 -81 -13l-59 81l218 185h-294v112h457v-110l-186 -158c64 -3.33301 115 -23 153 -59c39.333 -36 59 -84 59 -144z" />
    <glyph glyph-name="four" unicode="4" horiz-adv-x="584" 
d="M480 257h94v-108h-94v-149h-132v149h-324v125l259 406h148l-270 -423h187v137h132v-137z" />
    <glyph glyph-name="five" unicode="5" horiz-adv-x="580" 
d="M538 229c0 -71.333 -24.1689 -130.166 -72.502 -176.499s-108.833 -69.5 -181.5 -69.5c-49.333 0 -93.666 7 -132.999 21c-37.333 13.333 -82 37.333 -134 72l66 95c44.667 -27.333 80 -46.333 106 -57s54.667 -16 86 -16c36.667 0 67.334 11.167 92.001 33.5
s37 50.833 37 85.5c0 36 -10.833 64.167 -32.5 84.5s-51.5 30.5 -89.5 30.5c-40.667 0 -75.667 -13 -105 -39l-119 11l30 376h416v-112h-302l-14 -163c34.667 24.667 77.667 37 129 37c64.667 0 117.667 -20.833 159 -62.5s62 -91.834 62 -150.501z" />
    <glyph glyph-name="six" unicode="6" horiz-adv-x="588" 
d="M558 221c0 -64.667 -23.5 -120.334 -70.5 -167.001s-109.167 -70 -186.5 -70c-80 0 -143.833 25.333 -191.5 76s-71.5 118.334 -71.5 203.001c0 126 66.667 252 200 378l41 39h177v-2l-116 -105c-65.333 -60.667 -112 -115.334 -140 -164.001c33.333 26.667 77 40 131 40
c65.333 0 119.5 -22.167 162.5 -66.5s64.5 -98.166 64.5 -161.499zM425 219c0 35.333 -11.333 64.1699 -34 86.5029s-52.334 33.5 -89.001 33.5c-37.333 0 -68.166 -11.333 -92.499 -34s-36.5 -51.334 -36.5 -86.001s12.167 -63.334 36.5 -86.001s55.166 -34 92.499 -34
c36.667 0 66.334 11.167 89.001 33.5s34 51.166 34 86.499z" />
    <glyph glyph-name="seven" unicode="7" horiz-adv-x="544" 
d="M23 680h505v-101c-62.667 -76 -117.334 -165 -164.001 -267c-48 -105.333 -79.333 -209.333 -94 -312h-149c12.667 94.667 42.334 192 89.001 292c46.667 101.333 101 193.333 163 276h-350v112z" />
    <glyph glyph-name="eight" unicode="8" horiz-adv-x="586" 
d="M560 191c0 -60.667 -24 -110.5 -72 -149.5s-113 -58.5 -195 -58.5s-147 19.5 -195 58.5s-72 88.833 -72 149.5c0 83.333 39.667 142.333 119 177c-58 33.333 -87 82.666 -87 147.999c0 54 21.667 97.833 65 131.5s100 50.5 170 50.5s126.667 -16.833 170 -50.5
s65 -77.5 65 -131.5c0 -65.333 -29 -114.666 -87 -147.999c79.333 -34.667 119 -93.667 119 -177zM186 508c0 -26.667 9.83301 -48.5 29.5 -65.5s45.5 -25.5 77.5 -25.5s57.833 8.5 77.5 25.5s29.5 38.833 29.5 65.5c0 26 -9.83301 47 -29.5 63s-45.5 24 -77.5 24
s-57.833 -8 -77.5 -24s-29.5 -37 -29.5 -63zM424 202c0 33.333 -11.667 60.5 -35 81.5s-55.333 31.5 -96 31.5s-72.667 -10.5 -96 -31.5s-35 -48.167 -35 -81.5c0 -32 11.667 -58.167 35 -78.5s55.333 -30.5 96 -30.5s72.667 10.167 96 30.5s35 46.5 35 78.5z" />
    <glyph glyph-name="nine" unicode="9" horiz-adv-x="588" 
d="M550 417c0 -124.667 -66.667 -250.667 -200 -378l-41 -39h-177v2l116 105c65.333 60.667 112 115.334 140 164.001c-33.333 -26.667 -77 -40 -131 -40c-65.333 0 -119.5 22.167 -162.5 66.5s-64.5 98.166 -64.5 161.499c0 64.667 23.5 120.334 70.5 167.001
s109.167 70 186.5 70c80 0 143.833 -25.333 191.5 -76s71.5 -118.334 71.5 -203.001zM415 461c0 34.667 -12.167 63.3301 -36.5 85.9971s-55.166 34 -92.499 34c-36.667 0 -66.334 -11.167 -89.001 -33.5s-34 -51.166 -34 -86.499s11.333 -64.166 34 -86.499
s52.334 -33.5 89.001 -33.5c37.333 0 68.166 11.333 92.499 34s36.5 51.334 36.5 86.001z" />
    <glyph glyph-name="colon" unicode=":" horiz-adv-x="282" 
d="M212 511v-145h-142v145h142zM212 145v-145h-142v145h142z" />
    <glyph glyph-name="semicolon" unicode=";" horiz-adv-x="282" 
d="M223 145v-145l-80 -148h-73l70 148h-67v145h150zM218 511v-145h-142v145h142z" />
    <glyph glyph-name="less" unicode="&#x3c;" horiz-adv-x="600" 
d="M540 539v-114l-333 -115l333 -115v-114l-480 180v98z" />
    <glyph glyph-name="equal" unicode="=" horiz-adv-x="600" 
d="M560 466v-112h-520v112h520zM560 266v-112h-520v112h520z" />
    <glyph glyph-name="greater" unicode="&#x3e;" horiz-adv-x="600" 
d="M60 539l480 -180v-98l-480 -180v114l333 115l-333 115v114z" />
    <glyph glyph-name="question" unicode="?" horiz-adv-x="508" 
d="M498 534c0 -26 -4.66895 -49.3311 -14.002 -69.998c-9.33301 -18.667 -22.333 -36.667 -39 -54c-16 -16 -40.333 -38.333 -73 -67c-29.333 -25.333 -49.166 -44.333 -59.499 -57s-17.166 -28.334 -20.499 -47.001l-3 -19h-115v21
c0.666992 23.333 1.66699 40.166 3 50.499s5.33301 22.5 12 36.5s16.167 27.333 28.5 40s30.833 30 55.5 52l18 15c25.333 21.333 42.833 38.5 52.5 51.5s14.5 28.167 14.5 45.5c0 22.667 -8.66699 40.667 -26 54s-40.333 20 -69 20c-25.333 0 -49.833 -5.66699 -73.5 -17
s-54.5 -31.333 -92.5 -60l-77 91c81.333 71.333 164 107 248 107c70 0 125.667 -17.333 167 -52c42 -35.333 63 -82.333 63 -141zM304.998 145.002v-145h-142v145h142z" />
    <glyph glyph-name="at" unicode="@" horiz-adv-x="975" 
d="M725 483l-57.001 -267c-4 -18 -6 -34.667 -6 -50c0 -42.667 21 -64 63 -64c32.667 0 58.834 18.167 78.501 54.5s29.5 83.5 29.5 141.5c0 102 -30.167 180.333 -90.5 235s-140.5 82 -240.5 82c-109.333 0 -195.5 -33.667 -258.5 -101s-94.5 -156.333 -94.5 -267
c0 -109.333 31.667 -194.5 95 -255.5s154.666 -91.5 273.999 -91.5h229v-90h-253c-139.333 -1.33301 -250.166 38.5 -332.499 119.5s-122.833 187.5 -121.5 319.5c-1.33301 134.667 40.334 245.5 125.001 332.5s195 129.833 331 128.5c128 1.33301 233.667 -36.5 317 -113.5
s124 -175.833 122 -296.5c0 -84.667 -19.833 -152.334 -59.5 -203.001s-91.834 -76 -156.501 -76c-79.333 0 -127.666 28 -144.999 84c-38 -56 -90.333 -84 -157 -84c-52.667 0 -92.834 14.833 -120.501 44.5s-41.5 71.167 -41.5 124.5
c-0.666992 46.667 8.83301 93.334 28.5 140.001s48.167 85.5 85.5 116.5s78 45.833 122 44.5c30 0 55.5 -6.16699 76.5 -18.5s35.5 -29.5 43.5 -51.5l9 62h105zM570.999 319c0 53.333 -22.333 80.001 -67 80.001c-38.667 0 -71.167 -21.333 -97.5 -64s-39.5 -89 -39.5 -139
c0 -55.333 22 -83 66 -83c30 -0.666992 56 11.5 78 36.5s37.5 52.667 46.5 83s13.5 59.166 13.5 86.499z" />
    <glyph glyph-name="A" unicode="A" horiz-adv-x="712" 
d="M557 0l-48 142h-309l-49 -142h-141l254 710h184l254 -710h-145zM240 258l229.001 -0.000976562l-28 82l-17 50c-32 90.667 -55.333 161.334 -70 212.001c-12.667 -43.333 -38.334 -121.333 -77.001 -234l-10 -30z" />
    <glyph glyph-name="B" unicode="B" horiz-adv-x="683" 
d="M650 200c0 -62 -19.667 -110.833 -59 -146.5s-93 -53.5 -161 -53.5h-357v710h338c62.667 0 114 -16 154 -48s60 -77 60 -135c0 -38 -9.66699 -70.167 -29 -96.5s-46.333 -45.5 -81 -57.5c90 -28 135 -85.667 135 -173zM213 602v-178h164c36 0 63.667 8.16699 83 24.5
s29 38.833 29 67.5c0 57.333 -37 86 -111 86h-165zM510 211c0 32.667 -11.333 58.167 -34 76.5s-54.667 27.5 -96 27.5h-167v-207h167c42 0 74.167 9 96.5 27s33.5 43.333 33.5 76z" />
    <glyph glyph-name="C" unicode="C" horiz-adv-x="679" 
d="M656 621l-81.999 -96.999c-34.667 30 -65.834 50.833 -93.501 62.5s-57.834 17.5 -90.501 17.5c-64.667 0 -116.167 -22.5 -154.5 -67.5s-57.5 -105.167 -57.5 -180.5s19.167 -135.833 57.5 -181.5s89.166 -68.5 152.499 -68.5c35.333 0 67 6.66699 95 20
c26.667 13.333 60.667 37 102 71l82 -95c-44.667 -42 -88.5 -72.333 -131.5 -91s-91.5 -28 -145.5 -28c-106 -1.33301 -192 33.667 -258 105s-98.333 161 -97 269c-1.33301 107.333 30.5 196.166 95.5 266.499s151.833 104.833 260.5 103.5
c52.667 0 99.334 -8.16699 140.001 -24.5s82.334 -43.5 125.001 -81.5z" />
    <glyph glyph-name="D" unicode="D" horiz-adv-x="720" 
d="M685 355c0 -106 -29 -191.667 -87 -257s-136.667 -98 -236 -98h-289v710h289c99.333 0 178 -32.667 236 -98s87 -151 87 -257zM341 592l-128 -0.00195312v-474h128c62 0 110.833 20.333 146.5 61s53.5 99.334 53.5 176.001s-17.833 135.334 -53.5 176.001
s-84.5 61 -146.5 61z" />
    <glyph glyph-name="E" unicode="E" horiz-adv-x="629" 
d="M572 710v-118h-359v-166h336v-118h-336v-190h370v-118h-510v710h499z" />
    <glyph glyph-name="F" unicode="F" horiz-adv-x="609" 
d="M572 710v-118h-359v-185h336v-118h-336v-289h-140v710h499z" />
    <glyph glyph-name="G" unicode="G" horiz-adv-x="755" 
d="M365 276l0.00292969 118.001h330v-394h-107l-7 67c-41.333 -55.333 -109 -83 -203 -83c-106 0 -189.667 34.333 -251 103s-92 158.334 -92 269.001c-1.33301 107.333 31 196.166 97 266.499s153 104.833 261 103.5c61.333 0 115.166 -10.167 161.499 -30.5
s93.166 -54.5 140.499 -102.5l-88 -91c-40.667 36.667 -77.334 62.667 -110.001 78c-32 15.333 -67 23 -105 23c-65.333 0 -117.333 -21.833 -156 -65.5s-58 -104.167 -58 -181.5c0 -79.333 18.667 -140.833 56 -184.5s89 -65.5 155 -65.5c56 0 99.833 14.167 131.5 42.5
s47.5 67.166 47.5 116.499v11h-203z" />
    <glyph glyph-name="H" unicode="H" horiz-adv-x="743" 
d="M670 710v-710h-140v314h-317v-314h-140v710h140v-278h317v278h140z" />
    <glyph glyph-name="I" unicode="I" horiz-adv-x="300" 
d="M220 710v-710h-140v710h140z" />
    <glyph glyph-name="J" unicode="J" horiz-adv-x="473" 
d="M405 710l-0.000976562 -520c0 -68 -18.667 -119.167 -56 -153.5s-89.666 -51.5 -156.999 -51.5c-64 0 -126.333 14.333 -187 43l41 112c57.333 -20 103.333 -30 138 -30c54 0 81 32 81 96v504h140z" />
    <glyph glyph-name="K" unicode="K" horiz-adv-x="696" 
d="M536 0l-212 337l-111 -116v-221h-140v710h140v-318l293 318h174l-262 -274l276 -436h-158z" />
    <glyph glyph-name="L" unicode="L" horiz-adv-x="573" 
d="M213 710v-590h330v-120h-470v710h140z" />
    <glyph glyph-name="M" unicode="M" horiz-adv-x="911" 
d="M621 710h217v-710h-136v360c0 12 0.666992 66 2 162l1 79c-12 -44 -36.333 -124.333 -73 -241l-114 -360h-122l-116 360c-8.66699 29.333 -18.667 60 -30 92c-14.667 44 -30 92.667 -46 146c2 -78.667 3 -158 3 -238v-360h-134v710h220l93 -289
c30.667 -95.333 54.667 -176 72 -242c15.333 62 39 142.667 71 242z" />
    <glyph glyph-name="N" unicode="N" horiz-adv-x="745" 
d="M536 710h136v-710h-149l-180 288l-20 32c-56 90.667 -96 157.667 -120 201c4 -83.333 6 -175.333 6 -276v-245h-136v710h152l191 -306l27 -45c41.333 -66.667 74 -121 98 -163c-3.33301 70 -5 155.333 -5 256v258z" />
    <glyph glyph-name="O" unicode="O" horiz-adv-x="771" 
d="M736 355c1.33301 -106.667 -30.5 -195.667 -95.5 -267s-149.833 -106.333 -254.5 -105c-105.333 -1.33301 -190.5 33.5 -255.5 104.5s-96.833 160.167 -95.5 267.5c-1.33301 107.333 30.5 196.5 95.5 267.5s150.167 105.833 255.5 104.5
c104.667 1.33301 189.5 -33.667 254.5 -105s96.833 -160.333 95.5 -267zM179 355c0 -74.667 18.833 -134.667 56.5 -180s87.834 -68 150.501 -68c62 0 111.833 22.667 149.5 68s56.5 105.333 56.5 180s-18.833 134.667 -56.5 180s-87.5 68 -149.5 68
c-62.667 0 -112.834 -22.667 -150.501 -68s-56.5 -105.333 -56.5 -180z" />
    <glyph glyph-name="P" unicode="P" horiz-adv-x="682" 
d="M649 486c0 -67.333 -21.167 -121.333 -63.5 -162s-99.166 -61 -170.499 -61h-202v-263h-140v710h342c71.333 0 128.166 -20.5 170.499 -61.5s63.5 -95.167 63.5 -162.5zM390 594h-176.999v-215h177c37.333 0 66.666 9.33301 87.999 28s32 45 32 79s-10.5 60.5 -31.5 79.5
s-50.5 28.5 -88.5 28.5z" />
    <glyph glyph-name="Q" unicode="Q" horiz-adv-x="771" 
d="M624 71l57 -75l-99 -69l-61 80c-40 -16 -85 -24 -135 -24c-105.333 -1.33301 -190.5 33.5 -255.5 104.5s-96.833 160.167 -95.5 267.5c-1.33301 107.333 30.5 196.5 95.5 267.5s150.167 105.833 255.5 104.5c104.667 1.33301 189.5 -33.667 254.5 -105
s96.833 -160.333 95.5 -267c0 -120 -37.333 -214.667 -112 -284zM440 114l-82 108l98 69l85 -111c34 46 51 104.333 51 175c0 74.667 -18.833 134.667 -56.5 180s-87.5 68 -149.5 68c-62.667 0 -112.834 -22.667 -150.501 -68s-56.5 -105.333 -56.5 -180
s18.833 -134.667 56.5 -180s87.834 -68 150.501 -68c21.333 0 39.333 2.33301 54 7z" />
    <glyph glyph-name="R" unicode="R" horiz-adv-x="694" 
d="M670 0h-156l-170 263h-131v-263h-140v710h336c68 0 124 -20.833 168 -62.5s66 -95.5 66 -161.5c0 -52 -13.667 -96.667 -41 -134s-65 -63.333 -113 -78zM213 594v-215h171c38 0 67.667 9.33301 89 28s32 45 32 79s-10.667 60.5 -32 79.5s-51 28.5 -89 28.5h-171z" />
    <glyph glyph-name="S" unicode="S" horiz-adv-x="645" 
d="M603 616l-81.999 -98c-41.333 34.667 -76 57.667 -104 69c-28.667 12 -62.334 18 -101.001 18c-39.333 0 -70.833 -8 -94.5 -24s-35.5 -37 -35.5 -63c0 -17.333 5.66699 -31.666 17 -42.999c12 -11.333 29 -20.333 51 -27s57 -15.667 105 -27
c94.667 -23.333 160 -49 196 -77s55 -71.333 57 -130c0 -68 -25.5 -123.5 -76.5 -166.5s-119.167 -64.5 -204.5 -64.5c-62 0 -117 9.66699 -165 29c-46.667 20 -96.667 54 -150 102l84 99c48.667 -42.667 88.667 -71 120 -85c34 -15.333 72 -23 114 -23
s75.667 8.83301 101 26.5s38 41.5 38 71.5c0 18 -5.66699 32.667 -17 44c-10.667 10.667 -24.834 19.167 -42.501 25.5s-46.5 13.833 -86.5 22.5l-34 8c-94 22.667 -158.333 49.167 -193 79.5s-52 74.166 -52 131.499c0 60 25.333 110.333 76 151s115.667 61 195 61
c58.667 0 108.667 -8.33301 150 -25c42.667 -16.667 87.334 -45 134.001 -85z" />
    <glyph glyph-name="T" unicode="T" horiz-adv-x="622" 
d="M595 710v-120h-214v-590h-140v590h-214v120h568z" />
    <glyph glyph-name="U" unicode="U" horiz-adv-x="706" 
d="M638 710v-470c0 -86 -24.5 -150.333 -73.5 -193s-119.5 -64 -211.5 -64s-162.5 21.333 -211.5 64s-73.5 107 -73.5 193v470h140v-465c0 -44.667 12.167 -78.834 36.5 -102.501s60.5 -35.5 108.5 -35.5c47.333 0 83.333 11.833 108 35.5s37 57.834 37 102.501v465h140z
" />
    <glyph glyph-name="V" unicode="V" horiz-adv-x="667" 
d="M511 710h145l-235 -710h-175l-235 710h147l109 -340c21.333 -65.333 44 -142 68 -230c13.333 48 36 124 68 228z" />
    <glyph glyph-name="W" unicode="W" horiz-adv-x="971" 
d="M808 710l137.998 -0.000976562l-172 -710h-161l-70 274c-24.667 100.667 -43.667 182.334 -57 245.001c-14 -65.333 -33.333 -147 -58 -245l-70 -274h-160l-173 710h142l71 -306c20.667 -90.667 36.334 -168 47.001 -232c24 108 42.333 185.333 55 232l81 306h136
l79 -306c16.667 -64 34.667 -142.667 54 -236c16.667 95.333 32.334 174 47.001 236z" />
    <glyph glyph-name="X" unicode="X" horiz-adv-x="705" 
d="M695 0h-157l-186 275l-187 -275h-155l258 377l-231 333h158l159 -235l158 235h156l-232 -334z" />
    <glyph glyph-name="Y" unicode="Y" horiz-adv-x="657" 
d="M500 710h149l-251 -412v-298h-140v299l-250 411h154l169 -288z" />
    <glyph glyph-name="Z" unicode="Z" horiz-adv-x="641" 
d="M597 710v-115l-385 -477h384v-118h-552v115l385 477h-371v118h539z" />
    <glyph glyph-name="bracketleft" unicode="[" horiz-adv-x="352" 
d="M322 774v-95h-111v-742h111v-94h-232v931h232z" />
    <glyph glyph-name="backslash" unicode="\" horiz-adv-x="469" 
d="M15 710h129l310 -710h-129z" />
    <glyph glyph-name="bracketright" unicode="]" horiz-adv-x="352" 
d="M30 774h232v-931h-232v94h111v742h-111v95z" />
    <glyph glyph-name="asciicircum" unicode="^" 
d="M344 710l199 -430h-103l-144 314l-145 -314h-104l200 430h97z" />
    <glyph glyph-name="underscore" unicode="_" horiz-adv-x="600" 
d="M605 -100v-90h-610v90h610z" />
    <glyph glyph-name="grave" unicode="`" horiz-adv-x="311" 
d="M50 719h142l69 -145h-115z" />
    <glyph glyph-name="a" unicode="a" horiz-adv-x="560" 
d="M503 345v-345h-117v53c-34 -46.667 -89 -70 -165 -70c-54.667 0 -98.834 12.667 -132.501 38s-50.5 61.333 -50.5 108c0 51.333 18.667 91 56 119s92.333 48.333 165 61l120 22v12c0 24.667 -8.5 43.834 -25.5 57.501s-40.5 20.5 -70.5 20.5
c-32.667 0 -59.334 -6.33301 -80.001 -19c-24 -14.667 -50.333 -36 -79 -64l-82 75c64.667 76.667 144.334 115 239.001 115c70.667 0 125.334 -16.333 164.001 -49s58 -77.334 58 -134.001zM379 208l-0.000976562 30l-86 -18c-46 -10 -78.833 -20.833 -98.5 -32.5
s-29.5 -28.167 -29.5 -49.5c0 -16 6.83301 -28.5 20.5 -37.5s32.834 -13.5 57.501 -13.5c40 0 72.667 10.333 98 31s38 50.667 38 90z" />
    <glyph glyph-name="b" unicode="b" horiz-adv-x="599" 
d="M567 256c0 -80.667 -21.333 -145.832 -64 -195.499s-97 -74.5 -163 -74.5c-72 0 -126 26.333 -162 79v-65h-121v710h130v-253c36.667 46 88 69 154 69s120.167 -24.833 162.5 -74.5s63.5 -114.834 63.5 -195.501zM435 256.002c0 48 -11.167 86.333 -33.5 115
s-52.5 43 -90.5 43s-69 -14.5 -93 -43.5s-36 -67.167 -36 -114.5c0 -48 11.833 -86.167 35.5 -114.5s54.5 -42.5 92.5 -42.5s68.333 14.167 91 42.5s34 66.5 34 114.5z" />
    <glyph glyph-name="c" unicode="c" horiz-adv-x="529" 
d="M295 418c-40.667 0 -72.834 -15.168 -96.501 -45.501s-35.5 -69.166 -35.5 -116.499s11.667 -86 35 -116s55.333 -45 96 -45c24 0 46.5 6 67.5 18s44.833 32.333 71.5 61l86 -72c-34.667 -43.333 -69.5 -73.833 -104.5 -91.5s-75.833 -26.5 -122.5 -26.5
c-78 0 -141 24.667 -189 74s-72 115.333 -72 198s24.333 148.667 73 198s112.334 74 191.001 74c43.333 0 81.833 -7.5 115.5 -22.5s66.5 -39.833 98.5 -74.5l-81 -80c-26.667 25.333 -50 42.833 -70 52.5s-41 14.5 -63 14.5z" />
    <glyph glyph-name="d" unicode="d" horiz-adv-x="599" 
d="M412 710l130 -0.00195312v-710h-121v67c-36.667 -54.667 -91 -82 -163 -82c-66 0 -120.167 24.833 -162.5 74.5s-63.5 114.834 -63.5 195.501s21.333 145.834 64 195.501s97 74.5 163 74.5c67.333 0 118.333 -22.333 153 -67v252zM417 254.998
c0 48 -11.833 86.167 -35.5 114.5s-54.5 42.5 -92.5 42.5s-68.333 -14.167 -91 -42.5s-34 -66.5 -34 -114.5s11.167 -86.333 33.5 -115s52.5 -43 90.5 -43s69 14.5 93 43.5s36 67.167 36 114.5z" />
    <glyph glyph-name="e" unicode="e" horiz-adv-x="561" 
d="M454 164l73.002 -79.999c-35.333 -36 -71 -61.667 -107 -77s-76.333 -23 -121 -23c-82 0 -147.167 24.333 -195.5 73s-72.5 114 -72.5 196c0 80.667 23.333 146.667 70 198s109 77 187 77c76 0 134.833 -22.333 176.5 -67s62.5 -107.334 62.5 -188.001
c0 -14 -0.666992 -31 -2 -51h-367c6 -40.667 21.167 -72.167 45.5 -94.5s57.166 -33.5 98.499 -33.5c28.667 0 53 5 73 15c21.333 10 47.666 28.333 78.999 55zM161.002 315.001l239 -0.000976562c-2.66699 34.667 -14.167 61.834 -34.5 81.501s-47.5 29.5 -81.5 29.5
c-66 0 -107 -37 -123 -111z" />
    <glyph glyph-name="f" unicode="f" horiz-adv-x="366" 
d="M235 555v-44h114v-99h-114v-412h-130v412h-88v99h88v51c0 110.667 55.333 166 166 166c36.667 0 73 -6 109 -18l-23 -97c-25.333 5.33301 -45.333 8 -60 8c-22 0 -37.833 -5 -47.5 -15s-14.5 -27 -14.5 -51z" />
    <glyph glyph-name="g" unicode="g" 
d="M413 511l119.998 0.000976562v-486c0 -70 -23 -124.333 -69 -163s-106.333 -58 -181 -58c-84.667 0 -165.667 25 -243 75l63 94c38 -22.667 70.167 -38.5 96.5 -47.5s53.5 -13.5 81.5 -13.5c39.333 0 70 10.333 92 31s33 51.667 33 93v41
c-35.333 -43.333 -85 -65 -149 -65c-65.333 0 -119.166 24 -161.499 72s-63.5 110 -63.5 186c0 75.333 21.333 137.166 64 185.499s96.334 72.5 161.001 72.5c70.667 0 122.667 -24.667 156 -74v57zM409.998 270.001c0 44 -11.667 79.5 -35 106.5s-53 40.5 -89 40.5
c-36.667 0 -66.334 -13.5 -89.001 -40.5s-34 -62.5 -34 -106.5s11.333 -79.667 34 -107s52.334 -41 89.001 -41c36 0 65.667 13.667 89 41s35 63 35 107z" />
    <glyph glyph-name="h" unicode="h" horiz-adv-x="572" 
d="M515 350l0.000976562 -350h-130v311c0 34 -8.16699 60 -24.5 78s-39.833 27 -70.5 27c-30 0 -54.667 -10 -74 -30s-29 -46 -29 -78v-308h-130v710h130v-245c34.667 42 83 63 145 63c57.333 0 102.166 -16.167 134.499 -48.5s48.5 -75.5 48.5 -129.5z" />
    <glyph glyph-name="i" unicode="i" horiz-adv-x="244" 
d="M187 511v-511h-130v511h130zM187 710v-122h-130v122h130z" />
    <glyph glyph-name="j" unicode="j" horiz-adv-x="248" 
d="M7 -86c19.333 0 33.167 5 41.5 15s12.5 26.333 12.5 49v533h130v-530c0 -114.667 -53 -172 -159 -172c-38 0 -73 5 -105 15l23 97c21.333 -4.66699 40.333 -7 57 -7zM191.001 710v-122h-130v122h130z" />
    <glyph glyph-name="k" unicode="k" horiz-adv-x="549" 
d="M404 0l-144 233l-73 -74v-159h-130v710h130v-407l196 208h156l-188 -194l198 -317h-145z" />
    <glyph glyph-name="l" unicode="l" horiz-adv-x="248" 
d="M189 710v-710h-130v710h130z" />
    <glyph glyph-name="m" unicode="m" horiz-adv-x="846" 
d="M789 357l0.000976562 -356.997h-130v318c0 65.333 -27 98 -81 98c-28 0 -50 -9.33301 -66 -28s-24 -43.334 -24 -74.001v-314h-130v318c0 65.333 -27 98 -81 98c-28 0 -50 -9.33301 -66 -28s-24 -43.334 -24 -74.001v-314h-130v511h121v-57c30 49.333 78.667 74 146 74
c65.333 0 112.666 -25 141.999 -75c34.667 50 85.667 75 153 75c53.333 0 95 -15.333 125 -46s45 -72.334 45 -125.001z" />
    <glyph glyph-name="n" unicode="n" horiz-adv-x="572" 
d="M515 350l0.000976562 -350h-130v311c0 34 -8.16699 60 -24.5 78s-39.833 27 -70.5 27c-30 0 -54.667 -10 -74 -30s-29 -46 -29 -78v-308h-130v511h121v-58c34.667 50 86 75 154 75c57.333 0 102.166 -16.167 134.499 -48.5s48.5 -75.5 48.5 -129.5z" />
    <glyph glyph-name="o" unicode="o" horiz-adv-x="593" 
d="M562 256c0 -80.667 -24.833 -146.167 -74.5 -196.5s-113.167 -75.5 -190.5 -75.5c-78 0 -141.833 25.167 -191.5 75.5s-74.5 115.833 -74.5 196.5s24.833 146.167 74.5 196.5s113.5 75.5 191.5 75.5c77.333 0 140.833 -25.167 190.5 -75.5s74.5 -115.833 74.5 -196.5z
M163 256c0 -49.333 12.167 -88.666 36.5 -117.999s56.833 -44 97.5 -44c40 0 72.167 14.667 96.5 44s36.5 68.666 36.5 117.999c0 48.667 -12.167 87.834 -36.5 117.501s-56.5 44.5 -96.5 44.5c-40.667 0 -73.167 -14.833 -97.5 -44.5s-36.5 -68.834 -36.5 -117.501z" />
    <glyph glyph-name="p" unicode="p" horiz-adv-x="599" 
d="M567 256c0 -80.667 -21.333 -145.832 -64 -195.499s-97 -74.5 -163 -74.5c-67.333 0 -118.333 22.333 -153 67v-233h-130v691h121v-67c36.667 54.667 91 82 163 82c66 0 120.167 -24.833 162.5 -74.5s63.5 -114.834 63.5 -195.501zM435 256.002
c0 48 -11.167 86.333 -33.5 115s-52.5 43 -90.5 43s-69 -14.5 -93 -43.5s-36 -67.167 -36 -114.5c0 -48 11.833 -86.167 35.5 -114.5s54.5 -42.5 92.5 -42.5s68.333 14.167 91 42.5s34 66.5 34 114.5z" />
    <glyph glyph-name="q" unicode="q" horiz-adv-x="599" 
d="M421 511l121 -0.00195312v-691h-130v234c-36.667 -46 -88 -69 -154 -69s-120.167 24.833 -162.5 74.5s-63.5 114.834 -63.5 195.501s21.333 145.834 64 195.501s97 74.5 163 74.5c72 0 126 -26.333 162 -79v65zM417 254.998c0 48 -11.833 86.167 -35.5 114.5
s-54.5 42.5 -92.5 42.5s-68.333 -14.167 -91 -42.5s-34 -66.5 -34 -114.5s11.167 -86.333 33.5 -115s52.5 -43 90.5 -43s69 14.5 93 43.5s36 67.167 36 114.5z" />
    <glyph glyph-name="r" unicode="r" horiz-adv-x="396" 
d="M387 503l-23 -114c-24.667 6.66699 -46.334 10 -65.001 10c-34.667 0 -62 -13 -82 -39s-30 -62 -30 -108v-252h-130v511h121v-75c26.667 54.667 69.334 82 128.001 82c22 0 49 -5 81 -15z" />
    <glyph glyph-name="s" unicode="s" horiz-adv-x="509" 
d="M473 448l-70.001 -84.9971c-29.333 23.333 -55.166 39.166 -77.499 47.499s-47.5 12.5 -75.5 12.5c-26 0 -46.833 -4.66699 -62.5 -14s-23.5 -21.666 -23.5 -36.999c0 -10.667 3.66699 -19 11 -25c11.333 -8.66699 47.333 -19.667 108 -33
c74 -16.667 125.5 -36.334 154.5 -59.001s43.5 -57.334 43.5 -104.001c0 -50.667 -19.667 -91.167 -59 -121.5s-92.666 -45.5 -159.999 -45.5c-49.333 0 -92.833 7.33301 -130.5 22s-76.5 39.667 -116.5 75l75 84c36.667 -30 67.334 -50.333 92.001 -61
c25.333 -10 53 -15 83 -15c26.667 0 48.167 4.66699 64.5 14s24.5 22.666 24.5 39.999c0 14 -5 24.333 -15 31c-10.667 8.66699 -22.667 14.334 -36 17.001c-14 4 -39 10 -75 18c-72.667 16 -122.167 35.167 -148.5 57.5s-39.5 56.166 -39.5 101.499s19.167 83.333 57.5 114
s90.166 46 155.499 46c44.667 0 83.667 -6 117 -18s67.666 -32.667 102.999 -62z" />
    <glyph glyph-name="t" unicode="t" horiz-adv-x="387" 
d="M353 110l14.999 -103.001c-37.333 -12.667 -75.666 -19 -114.999 -19c-50 0 -86.667 11.833 -110 35.5s-35 59.834 -35 108.501v280h-91v99h91v158h130v-158h122v-99h-122v-264c0 -17.333 4 -29.5 12 -36.5s21 -10.5 39 -10.5s39.333 3 64 9z" />
    <glyph glyph-name="u" unicode="u" horiz-adv-x="564" 
d="M377 511l129.999 -0.000976562v-511h-119v54c-28.667 -46.667 -78.667 -70 -150 -70c-59.333 0 -104.333 14.333 -135 43s-46 68.334 -46 119.001v365h130v-329c0 -26.667 7.33301 -47.5 22 -62.5s35.667 -22.5 63 -22.5c32.667 0 58.334 9.16699 77.001 27.5
s28 44.5 28 78.5v308z" />
    <glyph glyph-name="v" unicode="v" horiz-adv-x="521" 
d="M378 511h134.999l-174 -511h-158l-173 511h137l51 -167c30.667 -102 52.667 -179.333 66 -232c20.667 82.667 42.334 160 65.001 232z" />
    <glyph glyph-name="w" unicode="w" horiz-adv-x="792" 
d="M644 511h134.001l-142 -511h-154l-38 139c-13.333 50 -30 119.333 -50 208c-16.667 -84 -32.334 -153.333 -47.001 -208l-36 -139h-155l-142 511h137l41 -168c16 -66.667 32.333 -141.667 49 -225c19.333 92 36.666 167 51.999 225l44 168h120l44 -168
c18.667 -72 36.334 -147.667 53.001 -227c16.667 84 33 159.667 49 227z" />
    <glyph glyph-name="x" unicode="x" horiz-adv-x="524" 
d="M519 0h-143l-115 175l-116 -175h-140l184 268l-167 243h141l100 -150l98 150h140l-165 -238z" />
    <glyph glyph-name="y" unicode="y" horiz-adv-x="521" 
d="M379 511l132 -0.000976562l-197 -568c-17.333 -49.333 -39.5 -84.666 -66.5 -105.999s-63.833 -32 -110.5 -32c-37.333 0 -70 4.33301 -98 13l22 97c20.667 -4 40.667 -6 60 -6c40 0 67 21.333 81 64l-192 538h136l45 -134c36.667 -109.333 61 -186 73 -230l71 231z" />
    <glyph glyph-name="z" unicode="z" horiz-adv-x="498" 
d="M458 511v-98l-263 -307h263v-106h-424v98l265 308h-249v105h408z" />
    <glyph glyph-name="braceleft" unicode="{" horiz-adv-x="373" 
d="M343 774v-95.002h-24c-24 0 -40.667 -3.66699 -50 -11c-10 -7.33301 -15.333 -16.333 -16 -27c-1.33301 -14.667 -2 -37 -2 -67v-135c0 -37.333 -6.83301 -65.666 -20.5 -84.999s-38.167 -32 -73.5 -38v-2c35.333 -6 59.833 -18.667 73.5 -38s20.5 -47.666 20.5 -84.999
v-149v-44c0 -24 5.16699 -40.167 15.5 -48.5s27.833 -12.5 52.5 -12.5h24v-94h-53c-56.667 0 -97.5 12.333 -122.5 37s-37.5 66.667 -37.5 126v164c0 38.667 -5 64 -15 76s-31.667 18 -65 18v102c33.333 0 55 6 65 18s15 37.333 15 76v151c0 59.333 12.5 101.333 37.5 126
s65.833 37 122.5 37h53z" />
    <glyph glyph-name="bar" unicode="|" horiz-adv-x="390" 
d="M250 800v-940h-110v940h110z" />
    <glyph glyph-name="braceright" unicode="}" horiz-adv-x="373" 
d="M30 774l53 0.00195312c56.667 0 97.5 -12.333 122.5 -37s37.5 -66.667 37.5 -126v-151c0 -38.667 5 -64 15 -76s31.667 -18 65 -18v-102c-33.333 0 -55 -6 -65 -18s-15 -37.333 -15 -76v-164c0 -59.333 -12.5 -101.333 -37.5 -126s-65.833 -37 -122.5 -37h-53v94h24
c24 0 40.667 3.66699 50 11c10 7.33301 15.333 16.333 16 27c1.33301 14.667 2 37 2 67v149c0 37.333 6.83301 65.666 20.5 84.999s38.167 32 73.5 38v2c-35.333 6 -59.833 18.667 -73.5 38s-20.5 47.666 -20.5 84.999v135v44c0 24 -5.16699 40.167 -15.5 48.5
s-27.833 12.5 -52.5 12.5h-24v95z" />
    <glyph glyph-name="asciitilde" unicode="~" horiz-adv-x="600" 
d="M317 392c30 -14.667 57.001 -22 81.001 -22c32 0 49.667 14.667 53 44h104c0 -45.333 -13.167 -81.333 -39.5 -108s-59.833 -40 -100.5 -40c-34 0 -75.667 10 -125 30c-39.333 14.667 -67 22 -83 22c-34 0 -53.667 -15 -59 -45h-103
c0.666992 46 15.167 82.167 43.5 108.5s64.166 39.5 107.499 39.5c36.667 0 77 -9.66699 121 -29z" />
    <glyph glyph-name="uni00A0" unicode="&#xa0;" horiz-adv-x="220" 
 />
    <glyph glyph-name="exclamdown" unicode="&#xa1;" horiz-adv-x="254" 
d="M59 367v145h142v-145h-142zM59 -198v215l31 270h80l31 -270v-215h-142z" />
    <glyph glyph-name="cent" unicode="&#xa2;" 
d="M369 -12l0.000976562 -87.999h-92v86c-67.333 8 -121.333 36 -162 84c-40 48 -60 110 -60 186s20 137.333 60 184c40.667 47.333 94.667 75.666 162 84.999v82h92v-82c59.333 -8.66699 114 -40 164 -94l-81 -80c-30.667 30 -58.334 49.333 -83.001 58v-305
c24.667 10 54 33.333 88 70l86 -72c-51.333 -65.333 -109.333 -103.333 -174 -114zM277.001 101.001v310.001c-28 -9.33301 -50 -27.833 -66 -55.5s-24 -60.834 -24 -99.501c0 -38 8 -70.833 24 -98.5s38 -46.5 66 -56.5z" />
    <glyph glyph-name="sterling" unicode="&#xa3;" 
d="M521 135l41.999 -102c-50.667 -30.667 -100 -46 -148 -46c-34 0 -78.667 7 -134 21c-48 12 -83 18 -105 18c-32.667 0 -67 -8.66699 -103 -26l-38 101c20 7.33301 40.667 16 62 26c38.667 18.667 58 51.667 58 99c0 14.667 -1 28 -3 40h-94v100h69
c-13.333 44 -20 88.667 -20 134c0 58 21.833 104.667 65.5 140s97.167 53 160.5 53c82 0 155.667 -26.333 221 -79l-71 -93c-54.667 38 -103 57 -145 57c-28.667 0 -51.667 -8.16699 -69 -24.5s-26 -39.166 -26 -68.499c0 -32 7 -71.667 21 -119h194v-100h-173
c0.666992 -3.33301 1 -10.333 1 -21c0 -47.333 -21 -86 -63 -116c26.667 -4.66699 48.667 -9.33398 66 -14.001c47.333 -10.667 85 -16 113 -16c36.667 0 76.334 12 119.001 36z" />
    <glyph glyph-name="currency" unicode="&#xa4;" 
d="M488 586l53 -52l-63 -63c27.333 -37.333 41 -81 41 -131s-13.667 -93.667 -41 -131l63 -63l-53 -52l-64 64c-35.333 -22.667 -77.666 -34 -126.999 -34c-50 0 -93.333 12 -130 36l-66 -66l-52 52l65 65c-26 36.667 -39 79.667 -39 129c0 50 13 92.667 39 128l-66 66
l53 52l66 -66c36.667 24 80 36 130 36c49.333 0 91.666 -11.333 126.999 -34zM166 340c0 -41.333 11.833 -74 35.5 -98s55.5 -36 95.5 -36s71.833 12 95.5 36s35.5 56.667 35.5 98s-11.833 74 -35.5 98s-55.5 36 -95.5 36s-71.833 -12 -95.5 -36s-35.5 -56.667 -35.5 -98z
" />
    <glyph glyph-name="yen" unicode="&#xa5;" 
d="M573 680l-148 -268h111v-90h-161l-13 -24v-41h174v-90h-174v-167h-135v167h-172v90h172v42l-13 23h-159v90h110l-148 268h148l132 -255l134 255h142z" />
    <glyph glyph-name="brokenbar" unicode="&#xa6;" horiz-adv-x="390" 
d="M250 800v-400h-110v400h110zM250 260v-400h-110v400h110z" />
    <glyph glyph-name="section" unicode="&#xa7;" 
d="M528 76c0 -49.333 -21.335 -90.501 -64.002 -123.501s-99.334 -49.5 -170.001 -49.5c-49.333 0 -92.666 6.66699 -129.999 20s-75.666 35.666 -114.999 66.999l70 85c35.333 -25.333 65.666 -42.833 90.999 -52.5s54 -14.5 86 -14.5c32.667 0 58.834 5.83301 78.501 17.5
s29.5 27.167 29.5 46.5c0 12.667 -4.66699 22.667 -14 30c-12 10 -49 22 -111 36c-2 0.666992 -3.66699 1.16699 -5 1.5s-3.16602 0.666016 -5.49902 0.999023s-4.5 0.833008 -6.5 1.5c-82 16.667 -140.333 38.167 -175 64.5s-52 63.833 -52 112.5
c0 54.667 25.333 95 76 121c-32.667 23.333 -49 60.333 -49 111c0 50 21.333 91.5 64 124.5s99.334 49.5 170.001 49.5c48.667 0 91.834 -6.66699 129.501 -20s76.167 -35.666 115.5 -66.999l-70 -86c-36 26.667 -66.333 44.334 -91 53.001c-26 9.33301 -54.667 14 -86 14
c-32.667 0 -58.834 -5.83301 -78.501 -17.5s-29.5 -27.167 -29.5 -46.5c0 -12.667 4.66699 -23 14 -31c11.333 -9.33301 47.666 -21 108.999 -35c8 -1.33301 14.333 -2.66602 19 -3.99902c82 -16.667 140.333 -38 175 -64s52 -63.333 52 -112c0 -54 -25 -94.667 -75 -122
c32 -24 48 -61 48 -111zM294.998 251.999l22 -5.00098l38 -9c48.667 13.333 73 34.333 73 63c0 15.333 -6.66699 27.666 -20 36.999c-12 9.33301 -27 16.666 -45 21.999c-16.667 5.33301 -46.667 12.333 -90 21c-6 2 -18.333 4.66699 -37 8
c-22.667 -5.33301 -40.667 -13.666 -54 -24.999s-20 -24 -20 -38c2.66699 -21.333 12.5 -36.166 29.5 -44.499s51.5 -18.166 103.5 -29.499z" />
    <glyph glyph-name="dieresis" unicode="&#xa8;" horiz-adv-x="422" 
d="M175 710v-122h-125v122h125zM372 710v-122h-125v122h125z" />
    <glyph glyph-name="copyright" unicode="&#xa9;" horiz-adv-x="856" 
d="M60 355c-1.33301 102.667 34.167 190.167 106.5 262.5s159.5 107.5 261.5 105.5c102 2 189.167 -33.167 261.5 -105.5s107.833 -159.833 106.5 -262.5c1.33301 -102.667 -34.167 -190.167 -106.5 -262.5s-159.5 -107.5 -261.5 -105.5
c-102 -2 -189.167 33.167 -261.5 105.5s-107.833 159.833 -106.5 262.5zM725 355c1.33301 86 -26.834 158.667 -84.501 218s-128.5 88.333 -212.5 87c-84.667 1.33301 -155.667 -27.667 -213 -87s-85.333 -132 -84 -218c-1.33301 -86 26.667 -158.667 84 -218
s128.333 -88.333 213 -87c84 -1.33301 154.833 27.667 212.5 87s85.834 132 84.501 218zM224 355c0 63.333 19.334 116 58.001 158s88.667 63 150 63c81.333 0 140 -35.667 176 -107l-71 -33c-26 43.333 -61 65 -105 65c-38 0 -68.333 -13.333 -91 -40s-34 -62 -34 -106
s11.333 -79.333 34 -106s53 -40 91 -40c25.333 0 45.833 5.5 61.5 16.5s31.5 30.5 47.5 58.5l70 -35c-20.667 -40.667 -44.834 -70 -72.501 -88s-63.167 -27 -106.5 -27c-61.333 0 -111.333 21 -150 63s-58 94.667 -58 158z" />
    <glyph glyph-name="ordfeminine" unicode="&#xaa;" horiz-adv-x="440" 
d="M395 574l0.00195312 -270h-88v45c-28.667 -38.667 -74.334 -58 -137.001 -58c-42 0 -75.833 9.83301 -101.5 29.5s-38.5 48.167 -38.5 85.5c0 40 15 70.5 45 91.5s76.667 37.167 140 48.5l85 15v5c0 22 -7.33301 38.833 -22 50.5s-35.334 17.5 -62.001 17.5
c-41.333 0 -81 -20 -119 -60l-63 59c48.667 56 110.667 84 186 84c56 0 99.167 -12.833 129.5 -38.5s45.5 -60.5 45.5 -104.5zM300.002 466v24l-68 -15c-40.667 -8.66699 -68.167 -17.167 -82.5 -25.5s-21.5 -20.833 -21.5 -37.5c0 -27.333 21 -41 63 -41
c32 0 58.167 8.16699 78.5 24.5s30.5 39.833 30.5 70.5z" />
    <glyph glyph-name="guillemotleft" unicode="&#xab;" horiz-adv-x="612" 
d="M320 478l-146 -225l146 -225h-122l-143 225l143 225h122zM552 478l-146 -225l146 -225h-122l-143 225l143 225h122z" />
    <glyph glyph-name="logicalnot" unicode="&#xac;" horiz-adv-x="600" 
d="M40 366h520v-300h-112v188h-408v112z" />
    <glyph glyph-name="registered" unicode="&#xae;" horiz-adv-x="542" 
d="M50 501c0 62.667 21.167 115.167 63.5 157.5s94.833 63.5 157.5 63.5s115.167 -21.167 157.5 -63.5s63.5 -94.833 63.5 -157.5s-21.167 -115.167 -63.5 -157.5s-94.833 -63.5 -157.5 -63.5s-115.167 21.167 -157.5 63.5s-63.5 94.833 -63.5 157.5zM442 501
c0 50 -16.167 91.833 -48.5 125.5s-73.166 50.5 -122.499 50.5c-50 0 -91 -16.667 -123 -50s-48 -75.333 -48 -126s16 -92.667 48 -126s73 -50 123 -50c49.333 0 90.166 16.833 122.499 50.5s48.5 75.5 48.5 125.5zM185 381l0.000976562 249h105
c23.333 0 42.5 -7.66699 57.5 -23s22.5 -34 22.5 -56c0 -16.667 -4.33301 -31.667 -13 -45s-20.334 -23 -35.001 -29l58 -96h-57l-54 91h-32v-91h-52zM237.001 516h44c24.667 0 37 11.333 37 34c0 10 -3.16699 18 -9.5 24s-15.5 9 -27.5 9h-44v-67z" />
    <glyph glyph-name="overscore" unicode="&#xaf;" horiz-adv-x="420" 
d="M370 685v-94h-320v94h320z" />
    <glyph glyph-name="degree" unicode="&#xb0;" horiz-adv-x="432" 
d="M60 572c0 43.333 15.167 79.666 45.5 108.999s67.166 44 110.499 44c44 0 81 -14.667 111 -44s45 -65.666 45 -108.999s-15 -79.666 -45 -108.999s-67 -44 -111 -44c-43.333 0 -80.166 14.667 -110.499 44s-45.5 65.666 -45.5 108.999zM293 572
c0 22.667 -7.16699 41.334 -21.5 56.001s-32.833 22 -55.5 22s-41.167 -7.33301 -55.5 -22s-21.5 -33.334 -21.5 -56.001s7.16699 -41.334 21.5 -56.001s32.833 -22 55.5 -22s41.167 7.33301 55.5 22s21.5 33.334 21.5 56.001z" />
    <glyph glyph-name="plusminus" unicode="&#xb1;" horiz-adv-x="600" 
d="M357 688v-204h203v-112h-203v-204h-114v204h-203v112h203v204h114zM560 112v-112h-520v112h520z" />
    <glyph glyph-name="uni00B2" unicode="&#xb2;" horiz-adv-x="398" 
d="M131 381l233.001 0.00292969v-79h-332v38c0 39.333 10.5 71 31.5 95s54.833 48 101.5 72l28 14c30.667 15.333 51.5 27.666 62.5 36.999s16.5 21.333 16.5 36c0 13.333 -6 24.166 -18 32.499s-28 12.5 -48 12.5c-36 0 -75.667 -16.667 -119 -50l-49 62
c52.667 46.667 109 70 169 70c48 0 86.5 -12 115.5 -36s43.5 -53.333 43.5 -88c0 -24.667 -5 -45.334 -15 -62.001c-9.33301 -14.667 -21.333 -27 -36 -37s-39.334 -24 -74.001 -42l-23 -12c-0.666992 -0.666992 -4.5 -2.83398 -11.5 -6.50098l-19.5 -10.5
c-29.333 -15.333 -48 -30.666 -56 -45.999z" />
    <glyph glyph-name="uni00B3" unicode="&#xb3;" horiz-adv-x="394" 
d="M361 427c0 -38 -15 -70.167 -45 -96.5s-70.333 -39.5 -121 -39.5c-62 0 -120 18 -174 54l45 66c48 -25.333 90.667 -38 128 -38c47.333 0 71 18 71 54c0 17.333 -7.66699 30.833 -23 40.5s-36 14.5 -62 14.5c-21.333 0 -37.333 -2 -48 -6l-40 55l132 100h-181v79h298v-78
l-113 -84c39.333 -2.66699 71.333 -15 96 -37s37 -50 37 -84z" />
    <glyph glyph-name="acute" unicode="&#xb4;" horiz-adv-x="311" 
d="M261 719l-96 -145h-115l69 145h142z" />
    <glyph glyph-name="uni00B5" unicode="&#xb5;" horiz-adv-x="564" 
d="M377 511h130.001v-511h-118v64c-26.667 -53.333 -67.334 -80 -122.001 -80c-32 0 -58.667 8 -80 24v-191h-130v694h130v-329c0 -56 30 -84 90 -84c31.333 0 55.833 9 73.5 27s26.5 44 26.5 78v308z" />
    <glyph glyph-name="paragraph" unicode="&#xb6;" horiz-adv-x="685" 
d="M433 710v-810h-99v357h-77c-67.333 0 -122 21 -164 63s-63 96.667 -63 164s21 121.833 63 163.5s96.667 62.5 164 62.5h176zM612 710v-810h-99v810h99z" />
    <glyph glyph-name="middot" unicode="&#xb7;" horiz-adv-x="242" 
d="M192 404v-145h-142v145h142z" />
    <glyph glyph-name="cedilla" unicode="&#xb8;" horiz-adv-x="329" 
d="M279 -148c0 -28.667 -10.499 -51.833 -31.499 -69.5s-48.833 -26.5 -83.5 -26.5c-38 0 -76 13 -114 39l34 52c29.333 -18 56 -27 80 -27c13.333 0 24.166 2.83301 32.499 8.5s12.5 13.167 12.5 22.5s-4.83301 16.833 -14.5 22.5s-21.5 8.5 -35.5 8.5
c-10.667 0 -20 -1 -28 -3l-34 31l51 111l57 -21l-30 -66c31.333 -0.666992 56.5 -8.5 75.5 -23.5s28.5 -34.5 28.5 -58.5z" />
    <glyph glyph-name="uni00B9" unicode="&#xb9;" horiz-adv-x="319" 
d="M156 710h73v-408h-94v297l-64 -45l-46 63z" />
    <glyph glyph-name="ordmasculine" unicode="&#xba;" horiz-adv-x="474" 
d="M439 505c0 -62 -19 -113 -57 -153s-86.333 -60 -145 -60s-107 20 -145 60s-57 91 -57 153c0 62.667 19 113.834 57 153.501s86.333 59.5 145 59.5s107 -19.833 145 -59.5s57 -90.834 57 -153.501zM137 505c0 -39.333 9 -70.5 27 -93.5s42.333 -34.5 73 -34.5
s55 11.5 73 34.5s27 54.167 27 93.5c0 38.667 -9 69.667 -27 93s-42.333 35 -73 35s-55 -11.667 -73 -35s-27 -54.333 -27 -93z" />
    <glyph glyph-name="guillemotright" unicode="&#xbb;" horiz-adv-x="612" 
d="M60 478h122l143 -225l-143 -225h-122l141 225zM292 478h122l143 -225l-143 -225h-122l141 225z" />
    <glyph glyph-name="onequarter" unicode="&#xbc;" horiz-adv-x="908" 
d="M156 680h73v-408h-94v297l-64 -45l-46 63zM627 697l75 -47l-469 -667l-74 48zM829 161h54v-74h-54v-87h-93v87h-196v88l156 233h100l-162 -247h102v78h93v-78z" />
    <glyph glyph-name="onehalf" unicode="&#xbd;" horiz-adv-x="940" 
d="M156 680h73v-408h-94v297l-64 -45l-46 63zM627 697l75 -47l-469 -667l-74 48zM673 79l233.001 0.00292969v-79h-332v38c0 39.333 10.5 71 31.5 95s54.833 48 101.5 72l28 14c30.667 15.333 51.5 27.666 62.5 36.999s16.5 21.333 16.5 36c0 13.333 -6 24.166 -18 32.499
s-28 12.5 -48 12.5c-36 0 -75.667 -16.667 -119 -50l-49 62c52.667 46.667 109 70 169 70c48 0 86.5 -12 115.5 -36s43.5 -53.333 43.5 -88c0 -24.667 -5 -45.334 -15 -62.001c-9.33301 -14.667 -21.333 -27 -36 -37s-39.334 -24 -74.001 -42l-23 -12
c-0.666992 -0.666992 -4.5 -2.83398 -11.5 -6.50098l-19.5 -10.5c-29.333 -15.333 -48 -30.666 -56 -45.999z" />
    <glyph glyph-name="threequarters" unicode="&#xbe;" horiz-adv-x="983" 
d="M361 397c0 -38 -15 -70.167 -45 -96.5s-70.333 -39.5 -121 -39.5c-62 0 -120 18 -174 54l45 66c48 -25.333 90.667 -38 128 -38c47.333 0 71 18 71 54c0 17.333 -7.66699 30.833 -23 40.5s-36 14.5 -62 14.5c-21.333 0 -37.333 -2 -48 -6l-40 55l132 100h-181v79h298v-78
l-113 -84c39.333 -2.66699 71.333 -15 96 -37s37 -50 37 -84zM702 697l75 -47l-469 -667l-74 48zM904 161h54v-74h-54v-87h-93v87h-196v88l156 233h100l-162 -247h102v78h93v-78z" />
    <glyph glyph-name="questiondown" unicode="&#xbf;" horiz-adv-x="488" 
d="M193 367v145h142v-145h-142zM0 -22c0 26 4.66797 48.9971 14.001 68.9971c8.66699 19.333 21.334 37.333 38.001 54c16 16.667 40.667 39.334 74 68.001c29.333 25.333 49.166 44.333 59.499 57s17.166 28.334 20.499 47.001l3 19h115v-21
c-0.666992 -23.333 -1.66699 -40.166 -3 -50.499s-5.33301 -22.5 -12 -36.5s-16.167 -27.333 -28.5 -40s-30.833 -30 -55.5 -52l-18 -15c-25.333 -21.333 -42.833 -38.5 -52.5 -51.5s-14.5 -28.167 -14.5 -45.5c0 -22.667 8.66699 -40.667 26 -54s40.333 -20 69 -20
c25.333 0 49.833 5.66699 73.5 17s54.5 31.333 92.5 60l77 -91c-81.333 -71.333 -164 -107 -248 -107c-70 0 -125.667 17.333 -167 52c-42 35.333 -63 82.333 -63 141z" />
    <glyph glyph-name="Agrave" unicode="&#xc0;" horiz-adv-x="712" 
d="M557 0l-48 142h-309l-49 -142h-141l254 710h184l254 -710h-145zM240 258l229.001 -0.000976562l-28 82l-17 50c-32 90.667 -55.333 161.334 -70 212.001c-12.667 -43.333 -38.334 -121.333 -77.001 -234l-10 -30zM204.001 917.999h142l69 -145h-115z" />
    <glyph glyph-name="Aacute" unicode="&#xc1;" horiz-adv-x="712" 
d="M557 0l-48 142h-309l-49 -142h-141l254 710h184l254 -710h-145zM240 258l229.001 -0.000976562l-28 82l-17 50c-32 90.667 -55.333 161.334 -70 212.001c-12.667 -43.333 -38.334 -121.333 -77.001 -234l-10 -30zM506.001 917.999l-96 -145h-115l69 145h142z" />
    <glyph glyph-name="Acircumflex" unicode="&#xc2;" horiz-adv-x="712" 
d="M557 0l-48 142h-309l-49 -142h-141l254 710h184l254 -710h-145zM240 258l229.001 -0.000976562l-28 82l-17 50c-32 90.667 -55.333 161.334 -70 212.001c-12.667 -43.333 -38.334 -121.333 -77.001 -234l-10 -30zM428.001 772.999l-73 90l-74 -90h-110l102 145h163
l102 -145h-110z" />
    <glyph glyph-name="Atilde" unicode="&#xc3;" horiz-adv-x="712" 
d="M557 0l-48 142h-309l-49 -142h-141l254 710h184l254 -710h-145zM240 258l229.001 -0.000976562l-28 82l-17 50c-32 90.667 -55.333 161.334 -70 212.001c-12.667 -43.333 -38.334 -121.333 -77.001 -234l-10 -30zM370.001 874.999c24 -13.333 41.333 -19.999 52 -19.999
c10 0 18 4.5 24 13.5s9 20.833 9 35.5h73c0 -40.667 -9 -72.334 -27 -95.001s-41.667 -34 -71 -34c-20 0 -47.667 9.33301 -83 28c-27.333 14 -46.333 21 -57 21c-10 0 -18.167 -4.66699 -24.5 -14s-9.5 -21 -9.5 -35h-74c0 40 9.83301 71.5 29.5 94.5s44.5 34.5 74.5 34.5
c27.333 0 55.333 -9.66699 84 -29z" />
    <glyph glyph-name="Adieresis" unicode="&#xc4;" horiz-adv-x="712" 
d="M557 0l-48 142h-309l-49 -142h-141l254 710h184l254 -710h-145zM240 258l229.001 -0.000976562l-28 82l-17 50c-32 90.667 -55.333 161.334 -70 212.001c-12.667 -43.333 -38.334 -121.333 -77.001 -234l-10 -30zM319.001 908.999v-122h-125v122h125zM516.001 908.999
v-122h-125v122h125z" />
    <glyph glyph-name="Aring" unicode="&#xc5;" horiz-adv-x="719" 
d="M564 0l-49 144.001h-315l-49 -144h-141l250 700c-26.667 25.333 -40 56.666 -40 93.999s13.5 69 40.5 95s59.833 39 98.5 39s71.667 -13 99 -39s41 -57.667 41 -95c0 -36 -13.333 -67.333 -40 -94l250 -700h-145zM290 794.001c0 -20.667 6.5 -37.5 19.5 -50.5
s29.5 -19.5 49.5 -19.5s36.667 6.5 50 19.5s20 29.833 20 50.5c0 20 -6.66699 36.5 -20 49.5s-30 19.5 -50 19.5s-36.5 -6.5 -49.5 -19.5s-19.5 -29.5 -19.5 -49.5zM239 258.001h237l-28 83l-31 90c-26 72.667 -46 133 -60 181c-8 -30 -20.333 -69.333 -37 -118l-27 -79
l-26 -76z" />
    <glyph glyph-name="AE" unicode="&#xc6;" horiz-adv-x="1005" 
d="M589 118h370v-118h-510v142h-235l-72 -142h-142l364 710h584v-118h-359v-166h336v-118h-336v-190zM272 258h177v351z" />
    <glyph glyph-name="Ccedilla" unicode="&#xc7;" horiz-adv-x="679" 
d="M488 -148c0 -28.667 -10.4971 -51.832 -31.4971 -69.499s-48.833 -26.5 -83.5 -26.5c-38 0 -76 13 -114 39l34 52c29.333 -18 56 -27 80 -27c13.333 0 24.166 2.83301 32.499 8.5s12.5 13.167 12.5 22.5s-4.83301 16.833 -14.5 22.5s-21.5 8.5 -35.5 8.5
c-10.667 0 -20 -1 -28 -3l-34 31l35 76c-94 10.667 -168.5 50 -223.5 118s-82.5 152.333 -82.5 253c-1.33301 107.333 30.5 196.166 95.5 266.499s151.833 104.833 260.5 103.5c52.667 0 99.334 -8.16699 140.001 -24.5s82.334 -43.5 125.001 -81.5l-82 -97
c-34.667 30 -65.834 50.833 -93.501 62.5s-57.834 17.5 -90.501 17.5c-64.667 0 -116.167 -22.5 -154.5 -67.5s-57.5 -105.167 -57.5 -180.5s19.167 -135.833 57.5 -181.5s89.166 -68.5 152.499 -68.5c35.333 0 67 6.66699 95 20c26.667 13.333 60.667 37 102 71l82 -95
c-42.667 -40 -84.334 -69.333 -125.001 -88s-86 -29 -136 -31l-22 -49c31.333 -0.666992 56.5 -8.5 75.5 -23.5s28.5 -34.5 28.5 -58.5z" />
    <glyph glyph-name="Egrave" unicode="&#xc8;" horiz-adv-x="629" 
d="M572 710v-118h-359v-166h336v-118h-336v-190h370v-118h-510v710h499zM177 918h142l69 -145h-115z" />
    <glyph glyph-name="Eacute" unicode="&#xc9;" horiz-adv-x="629" 
d="M572 710v-118h-359v-166h336v-118h-336v-190h370v-118h-510v710h499zM479 918l-96 -145h-115l69 145h142z" />
    <glyph glyph-name="Ecircumflex" unicode="&#xca;" horiz-adv-x="629" 
d="M572 710v-118h-359v-166h336v-118h-336v-190h370v-118h-510v710h499zM401 773l-73 90l-74 -90h-110l102 145h163l102 -145h-110z" />
    <glyph glyph-name="Edieresis" unicode="&#xcb;" horiz-adv-x="629" 
d="M572 710v-118h-359v-166h336v-118h-336v-190h370v-118h-510v710h499zM292 909v-122h-125v122h125zM489 909v-122h-125v122h125z" />
    <glyph glyph-name="Igrave" unicode="&#xcc;" horiz-adv-x="300" 
d="M220 710v-710h-140v710h140zM-1 918h142l69 -145h-115z" />
    <glyph glyph-name="Iacute" unicode="&#xcd;" horiz-adv-x="300" 
d="M220 710v-710h-140v710h140zM301 918l-96 -145h-115l69 145h142z" />
    <glyph glyph-name="Icircumflex" unicode="&#xce;" horiz-adv-x="300" 
d="M220 710v-710h-140v710h140zM223 773l-73 90l-74 -90h-110l102 145h163l102 -145h-110z" />
    <glyph glyph-name="Idieresis" unicode="&#xcf;" horiz-adv-x="300" 
d="M220 710v-710h-140v710h140zM114 909v-122h-125v122h125zM311 909v-122h-125v122h125z" />
    <glyph glyph-name="Eth" unicode="&#xd0;" horiz-adv-x="749" 
d="M714 355c0 -106 -29 -191.667 -87 -257s-136.667 -98 -236 -98h-289v308h-76v117h76v285h289c99.333 0 178 -32.667 236 -98s87 -151 87 -257zM570 355c0 76.667 -17.833 135.332 -53.5 175.999s-84.5 61 -146.5 61h-128v-167h169v-117h-169v-190h128
c62 0 110.833 20.333 146.5 61s53.5 99.334 53.5 176.001z" />
    <glyph glyph-name="Ntilde" unicode="&#xd1;" horiz-adv-x="745" 
d="M536 710h136v-710h-149l-180 288l-20 32c-56 90.667 -96 157.667 -120 201c4 -83.333 6 -175.333 6 -276v-245h-136v710h152l191 -306l27 -45c41.333 -66.667 74 -121 98 -163c-3.33301 70 -5 155.333 -5 256v258zM397 875c24 -13.333 41.333 -19.999 52 -19.999
c10 0 18 4.5 24 13.5s9 20.833 9 35.5h73c0 -40.667 -9 -72.334 -27 -95.001s-41.667 -34 -71 -34c-20 0 -47.667 9.33301 -83 28c-27.333 14 -46.333 21 -57 21c-10 0 -18.167 -4.66699 -24.5 -14s-9.5 -21 -9.5 -35h-74c0 40 9.83301 71.5 29.5 94.5s44.5 34.5 74.5 34.5
c27.333 0 55.333 -9.66699 84 -29z" />
    <glyph glyph-name="Ograve" unicode="&#xd2;" horiz-adv-x="771" 
d="M736 355c1.33301 -106.667 -30.5 -195.667 -95.5 -267s-149.833 -106.333 -254.5 -105c-105.333 -1.33301 -190.5 33.5 -255.5 104.5s-96.833 160.167 -95.5 267.5c-1.33301 107.333 30.5 196.5 95.5 267.5s150.167 105.833 255.5 104.5
c104.667 1.33301 189.5 -33.667 254.5 -105s96.833 -160.333 95.5 -267zM179 355c0 -74.667 18.833 -134.667 56.5 -180s87.834 -68 150.501 -68c62 0 111.833 22.667 149.5 68s56.5 105.333 56.5 180s-18.833 134.667 -56.5 180s-87.5 68 -149.5 68
c-62.667 0 -112.834 -22.667 -150.501 -68s-56.5 -105.333 -56.5 -180zM235 918h142l69 -145h-115z" />
    <glyph glyph-name="Oacute" unicode="&#xd3;" horiz-adv-x="771" 
d="M736 355c1.33301 -106.667 -30.5 -195.667 -95.5 -267s-149.833 -106.333 -254.5 -105c-105.333 -1.33301 -190.5 33.5 -255.5 104.5s-96.833 160.167 -95.5 267.5c-1.33301 107.333 30.5 196.5 95.5 267.5s150.167 105.833 255.5 104.5
c104.667 1.33301 189.5 -33.667 254.5 -105s96.833 -160.333 95.5 -267zM179 355c0 -74.667 18.833 -134.667 56.5 -180s87.834 -68 150.501 -68c62 0 111.833 22.667 149.5 68s56.5 105.333 56.5 180s-18.833 134.667 -56.5 180s-87.5 68 -149.5 68
c-62.667 0 -112.834 -22.667 -150.501 -68s-56.5 -105.333 -56.5 -180zM537 918l-96 -145h-115l69 145h142z" />
    <glyph glyph-name="Ocircumflex" unicode="&#xd4;" horiz-adv-x="771" 
d="M736 355c1.33301 -106.667 -30.5 -195.667 -95.5 -267s-149.833 -106.333 -254.5 -105c-105.333 -1.33301 -190.5 33.5 -255.5 104.5s-96.833 160.167 -95.5 267.5c-1.33301 107.333 30.5 196.5 95.5 267.5s150.167 105.833 255.5 104.5
c104.667 1.33301 189.5 -33.667 254.5 -105s96.833 -160.333 95.5 -267zM179 355c0 -74.667 18.833 -134.667 56.5 -180s87.834 -68 150.501 -68c62 0 111.833 22.667 149.5 68s56.5 105.333 56.5 180s-18.833 134.667 -56.5 180s-87.5 68 -149.5 68
c-62.667 0 -112.834 -22.667 -150.501 -68s-56.5 -105.333 -56.5 -180zM459 773l-73 90l-74 -90h-110l102 145h163l102 -145h-110z" />
    <glyph glyph-name="Otilde" unicode="&#xd5;" horiz-adv-x="771" 
d="M736 355c1.33301 -106.667 -30.5 -195.667 -95.5 -267s-149.833 -106.333 -254.5 -105c-105.333 -1.33301 -190.5 33.5 -255.5 104.5s-96.833 160.167 -95.5 267.5c-1.33301 107.333 30.5 196.5 95.5 267.5s150.167 105.833 255.5 104.5
c104.667 1.33301 189.5 -33.667 254.5 -105s96.833 -160.333 95.5 -267zM179 355c0 -74.667 18.833 -134.667 56.5 -180s87.834 -68 150.501 -68c62 0 111.833 22.667 149.5 68s56.5 105.333 56.5 180s-18.833 134.667 -56.5 180s-87.5 68 -149.5 68
c-62.667 0 -112.834 -22.667 -150.501 -68s-56.5 -105.333 -56.5 -180zM401 875c24 -13.333 41.333 -19.999 52 -19.999c10 0 18 4.5 24 13.5s9 20.833 9 35.5h73c0 -40.667 -9 -72.334 -27 -95.001s-41.667 -34 -71 -34c-20 0 -47.667 9.33301 -83 28
c-27.333 14 -46.333 21 -57 21c-10 0 -18.167 -4.66699 -24.5 -14s-9.5 -21 -9.5 -35h-74c0 40 9.83301 71.5 29.5 94.5s44.5 34.5 74.5 34.5c27.333 0 55.333 -9.66699 84 -29z" />
    <glyph glyph-name="Odieresis" unicode="&#xd6;" horiz-adv-x="771" 
d="M736 355c1.33301 -106.667 -30.5 -195.667 -95.5 -267s-149.833 -106.333 -254.5 -105c-105.333 -1.33301 -190.5 33.5 -255.5 104.5s-96.833 160.167 -95.5 267.5c-1.33301 107.333 30.5 196.5 95.5 267.5s150.167 105.833 255.5 104.5
c104.667 1.33301 189.5 -33.667 254.5 -105s96.833 -160.333 95.5 -267zM179 355c0 -74.667 18.833 -134.667 56.5 -180s87.834 -68 150.501 -68c62 0 111.833 22.667 149.5 68s56.5 105.333 56.5 180s-18.833 134.667 -56.5 180s-87.5 68 -149.5 68
c-62.667 0 -112.834 -22.667 -150.501 -68s-56.5 -105.333 -56.5 -180zM350 909v-122h-125v122h125zM547 909v-122h-125v122h125z" />
    <glyph glyph-name="multiply" unicode="&#xd7;" horiz-adv-x="600" 
d="M543 474l-164 -164l164 -164l-79 -79l-164 164l-164 -164l-79 79l164 164l-164 164l79 79l164 -164l164 164z" />
    <glyph glyph-name="Oslash" unicode="&#xd8;" horiz-adv-x="771" 
d="M736 355c1.33301 -106.667 -30.5 -195.667 -95.5 -267s-149.833 -106.333 -254.5 -105c-78 0 -145.333 19.667 -202 59l-42 -50l-72 60l45 54c-53.333 66.667 -80 149.667 -80 249c-1.33301 107.333 30.5 196.5 95.5 267.5s150.167 105.833 255.5 104.5
c77.333 0 144.333 -19.333 201 -58l42 50l72 -61l-45 -54c53.333 -66.667 80 -149.667 80 -249zM208 217l294.002 350c-32.667 24 -71.334 36 -116.001 36c-62.667 0 -112.834 -22.667 -150.501 -68s-56.5 -105.333 -56.5 -180c0 -52 9.66699 -98 29 -138zM592.002 355
c0 52 -9.66699 98 -29 138l-294 -350c32.667 -24 71.667 -36 117 -36c62 0 111.833 22.667 149.5 68s56.5 105.333 56.5 180z" />
    <glyph glyph-name="Ugrave" unicode="&#xd9;" horiz-adv-x="706" 
d="M638 710v-470c0 -86 -24.5 -150.333 -73.5 -193s-119.5 -64 -211.5 -64s-162.5 21.333 -211.5 64s-73.5 107 -73.5 193v470h140v-465c0 -44.667 12.167 -78.834 36.5 -102.501s60.5 -35.5 108.5 -35.5c47.333 0 83.333 11.833 108 35.5s37 57.834 37 102.501v465h140z
M202 918h142l69 -145h-115z" />
    <glyph glyph-name="Uacute" unicode="&#xda;" horiz-adv-x="706" 
d="M638 710v-470c0 -86 -24.5 -150.333 -73.5 -193s-119.5 -64 -211.5 -64s-162.5 21.333 -211.5 64s-73.5 107 -73.5 193v470h140v-465c0 -44.667 12.167 -78.834 36.5 -102.501s60.5 -35.5 108.5 -35.5c47.333 0 83.333 11.833 108 35.5s37 57.834 37 102.501v465h140z
M504 918l-96 -145h-115l69 145h142z" />
    <glyph glyph-name="Ucircumflex" unicode="&#xdb;" horiz-adv-x="706" 
d="M638 710v-470c0 -86 -24.5 -150.333 -73.5 -193s-119.5 -64 -211.5 -64s-162.5 21.333 -211.5 64s-73.5 107 -73.5 193v470h140v-465c0 -44.667 12.167 -78.834 36.5 -102.501s60.5 -35.5 108.5 -35.5c47.333 0 83.333 11.833 108 35.5s37 57.834 37 102.501v465h140z
M426 773l-73 90l-74 -90h-110l102 145h163l102 -145h-110z" />
    <glyph glyph-name="Udieresis" unicode="&#xdc;" horiz-adv-x="706" 
d="M638 710v-470c0 -86 -24.5 -150.333 -73.5 -193s-119.5 -64 -211.5 -64s-162.5 21.333 -211.5 64s-73.5 107 -73.5 193v470h140v-465c0 -44.667 12.167 -78.834 36.5 -102.501s60.5 -35.5 108.5 -35.5c47.333 0 83.333 11.833 108 35.5s37 57.834 37 102.501v465h140z
M317 909v-122h-125v122h125zM514 909v-122h-125v122h125z" />
    <glyph glyph-name="Yacute" unicode="&#xdd;" horiz-adv-x="657" 
d="M500 710h149l-251 -412v-298h-140v299l-250 411h154l169 -288zM480 918l-96 -145h-115l69 145h142z" />
    <glyph glyph-name="Thorn" unicode="&#xde;" horiz-adv-x="682" 
d="M649 366c0 -67.333 -21.167 -121.333 -63.5 -162s-99.166 -61 -170.499 -61h-202v-143h-140v710h140v-120h202c71.333 0 128.166 -20.5 170.499 -61.5s63.5 -95.167 63.5 -162.5zM510 366c0 34 -10.499 60.5 -31.499 79.5s-50.5 28.5 -88.5 28.5h-177v-215h177
c37.333 0 66.666 9.33301 87.999 28s32 45 32 79z" />
    <glyph glyph-name="germandbls" unicode="&#xdf;" horiz-adv-x="606" 
d="M573 212c0 -62.667 -19.999 -115.168 -59.999 -157.501s-94.667 -63.5 -164 -63.5c-38 0 -75.667 4.66699 -113 14l19 106c32 -5.33301 58.667 -8 80 -8c32 0 57.667 10.167 77 30.5s29 48.166 29 83.499c0 36 -13.333 63.833 -40 83.5s-63.334 29.5 -110.001 29.5h-23
v105h23c31.333 0 55.666 8 72.999 24s26 38 26 66c0 26.667 -9.16699 48.334 -27.5 65.001s-41.833 25 -70.5 25c-32 0 -57.5 -10.667 -76.5 -32s-28.5 -51 -28.5 -89v-494h-130v500c0 72 22.333 127.5 67 166.5s100.667 58.5 168 58.5
c66.667 0 120.834 -18.667 162.501 -56s62.5 -82 62.5 -134c0 -63.333 -27 -108.666 -81 -135.999c91.333 -32 137 -94.333 137 -187z" />
    <glyph glyph-name="agrave" unicode="&#xe0;" horiz-adv-x="560" 
d="M503 345v-345h-117v53c-34 -46.667 -89 -70 -165 -70c-54.667 0 -98.834 12.667 -132.501 38s-50.5 61.333 -50.5 108c0 51.333 18.667 91 56 119s92.333 48.333 165 61l120 22v12c0 24.667 -8.5 43.834 -25.5 57.501s-40.5 20.5 -70.5 20.5
c-32.667 0 -59.334 -6.33301 -80.001 -19c-24 -14.667 -50.333 -36 -79 -64l-82 75c64.667 76.667 144.334 115 239.001 115c70.667 0 125.334 -16.333 164.001 -49s58 -77.334 58 -134.001zM379 208l-0.000976562 30l-86 -18c-46 -10 -78.833 -20.833 -98.5 -32.5
s-29.5 -28.167 -29.5 -49.5c0 -16 6.83301 -28.5 20.5 -37.5s32.834 -13.5 57.501 -13.5c40 0 72.667 10.333 98 31s38 50.667 38 90zM133.999 719h142l69 -145h-115z" />
    <glyph glyph-name="aacute" unicode="&#xe1;" horiz-adv-x="560" 
d="M503 345v-345h-117v53c-34 -46.667 -89 -70 -165 -70c-54.667 0 -98.834 12.667 -132.501 38s-50.5 61.333 -50.5 108c0 51.333 18.667 91 56 119s92.333 48.333 165 61l120 22v12c0 24.667 -8.5 43.834 -25.5 57.501s-40.5 20.5 -70.5 20.5
c-32.667 0 -59.334 -6.33301 -80.001 -19c-24 -14.667 -50.333 -36 -79 -64l-82 75c64.667 76.667 144.334 115 239.001 115c70.667 0 125.334 -16.333 164.001 -49s58 -77.334 58 -134.001zM379 208l-0.000976562 30l-86 -18c-46 -10 -78.833 -20.833 -98.5 -32.5
s-29.5 -28.167 -29.5 -49.5c0 -16 6.83301 -28.5 20.5 -37.5s32.834 -13.5 57.501 -13.5c40 0 72.667 10.333 98 31s38 50.667 38 90zM435.999 719l-96 -145h-115l69 145h142z" />
    <glyph glyph-name="acircumflex" unicode="&#xe2;" horiz-adv-x="560" 
d="M503 345v-345h-117v53c-34 -46.667 -89 -70 -165 -70c-54.667 0 -98.834 12.667 -132.501 38s-50.5 61.333 -50.5 108c0 51.333 18.667 91 56 119s92.333 48.333 165 61l120 22v12c0 24.667 -8.5 43.834 -25.5 57.501s-40.5 20.5 -70.5 20.5
c-32.667 0 -59.334 -6.33301 -80.001 -19c-24 -14.667 -50.333 -36 -79 -64l-82 75c64.667 76.667 144.334 115 239.001 115c70.667 0 125.334 -16.333 164.001 -49s58 -77.334 58 -134.001zM379 208l-0.000976562 30l-86 -18c-46 -10 -78.833 -20.833 -98.5 -32.5
s-29.5 -28.167 -29.5 -49.5c0 -16 6.83301 -28.5 20.5 -37.5s32.834 -13.5 57.501 -13.5c40 0 72.667 10.333 98 31s38 50.667 38 90zM357.999 574l-73 90l-74 -90h-110l102 145h163l102 -145h-110z" />
    <glyph glyph-name="atilde" unicode="&#xe3;" horiz-adv-x="560" 
d="M503 345v-345h-117v53c-34 -46.667 -89 -70 -165 -70c-54.667 0 -98.834 12.667 -132.501 38s-50.5 61.333 -50.5 108c0 51.333 18.667 91 56 119s92.333 48.333 165 61l120 22v12c0 24.667 -8.5 43.834 -25.5 57.501s-40.5 20.5 -70.5 20.5
c-32.667 0 -59.334 -6.33301 -80.001 -19c-24 -14.667 -50.333 -36 -79 -64l-82 75c64.667 76.667 144.334 115 239.001 115c70.667 0 125.334 -16.333 164.001 -49s58 -77.334 58 -134.001zM379 208l-0.000976562 30l-86 -18c-46 -10 -78.833 -20.833 -98.5 -32.5
s-29.5 -28.167 -29.5 -49.5c0 -16 6.83301 -28.5 20.5 -37.5s32.834 -13.5 57.501 -13.5c40 0 72.667 10.333 98 31s38 50.667 38 90zM299.999 676c24 -13.333 41.333 -19.999 52 -19.999c10 0 18 4.5 24 13.5s9 20.833 9 35.5h73c0 -40.667 -9 -72.334 -27 -95.001
s-41.667 -34 -71 -34c-20 0 -47.667 9.33301 -83 28c-27.333 14 -46.333 21 -57 21c-10 0 -18.167 -4.66699 -24.5 -14s-9.5 -21 -9.5 -35h-74c0 40 9.83301 71.5 29.5 94.5s44.5 34.5 74.5 34.5c27.333 0 55.333 -9.66699 84 -29z" />
    <glyph glyph-name="adieresis" unicode="&#xe4;" horiz-adv-x="560" 
d="M503 345v-345h-117v53c-34 -46.667 -89 -70 -165 -70c-54.667 0 -98.834 12.667 -132.501 38s-50.5 61.333 -50.5 108c0 51.333 18.667 91 56 119s92.333 48.333 165 61l120 22v12c0 24.667 -8.5 43.834 -25.5 57.501s-40.5 20.5 -70.5 20.5
c-32.667 0 -59.334 -6.33301 -80.001 -19c-24 -14.667 -50.333 -36 -79 -64l-82 75c64.667 76.667 144.334 115 239.001 115c70.667 0 125.334 -16.333 164.001 -49s58 -77.334 58 -134.001zM379 208l-0.000976562 30l-86 -18c-46 -10 -78.833 -20.833 -98.5 -32.5
s-29.5 -28.167 -29.5 -49.5c0 -16 6.83301 -28.5 20.5 -37.5s32.834 -13.5 57.501 -13.5c40 0 72.667 10.333 98 31s38 50.667 38 90zM248.999 710v-122h-125v122h125zM445.999 710v-122h-125v122h125z" />
    <glyph glyph-name="aring" unicode="&#xe5;" horiz-adv-x="560" 
d="M503 345v-345h-117v53c-34 -46.667 -89 -70 -165 -70c-54.667 0 -98.834 12.667 -132.501 38s-50.5 61.333 -50.5 108c0 51.333 18.667 91 56 119s92.333 48.333 165 61l120 22v12c0 24.667 -8.5 43.834 -25.5 57.501s-40.5 20.5 -70.5 20.5
c-32.667 0 -59.334 -6.33301 -80.001 -19c-24 -14.667 -50.333 -36 -79 -64l-82 75c64.667 76.667 144.334 115 239.001 115c70.667 0 125.334 -16.333 164.001 -49s58 -77.334 58 -134.001zM379 208l-0.000976562 30l-86 -18c-46 -10 -78.833 -20.833 -98.5 -32.5
s-29.5 -28.167 -29.5 -49.5c0 -16 6.83301 -28.5 20.5 -37.5s32.834 -13.5 57.501 -13.5c40 0 72.667 10.333 98 31s38 50.667 38 90zM406.999 689c0 -32.667 -12 -60.334 -36 -83.001c-23.333 -22.667 -52 -34 -86 -34s-62.667 11.333 -86 34
c-24 22.667 -36 50.334 -36 83.001c0 31.333 12 58.666 36 81.999c23.333 22.667 52 34 86 34s62.667 -11.333 86 -34c24 -23.333 36 -50.666 36 -81.999zM224.999 689c0 -18 5.66699 -32.667 17 -44s25.666 -17 42.999 -17s31.666 5.66699 42.999 17s17 26 17 44
c0 17.333 -5.66699 31.666 -17 42.999s-25.666 17 -42.999 17s-31.666 -5.66699 -42.999 -17s-17 -25.666 -17 -42.999z" />
    <glyph glyph-name="ae" unicode="&#xe6;" horiz-adv-x="910" 
d="M874 224h-366.001c4.66699 -40.667 19 -72.5 43 -95.5s56.667 -34.5 98 -34.5c29.333 0 54 5 74 15c20.667 10 46.334 28.333 77.001 55l74 -80c-35.333 -36 -71 -61.667 -107 -77s-76.333 -23 -121 -23c-88 0 -156 28 -204 84
c-56.667 -56.667 -127.334 -85 -212.001 -85c-60 0 -107 12.167 -141 36.5s-51 60.5 -51 108.5s16.333 85.667 49 113s85 47.666 157 60.999l135 25v8c0 29.333 -8 51 -24 65s-41 21 -75 21c-26.667 0 -51.5 -6.16699 -74.5 -18.5s-49.167 -34.166 -78.5 -65.499l-85 76
c36.667 40.667 73.334 70 110.001 88s80.667 27 132 27c79.333 0 138.333 -21.333 177 -64c45.333 42.667 103.333 64 174 64c76.667 0 136 -22.5 178 -67.5s63 -107.5 63 -187.5c0 -12.667 -0.666992 -29 -2 -49zM510.999 314h239c-2 36 -13 64 -33 84s-47.667 30 -83 30
c-66 0 -107 -38 -123 -114zM393.999 154c-7.33301 25.333 -12 52.333 -14 81l-116 -26c-65.333 -14.667 -98 -38 -98 -70c0 -34.667 27.667 -52 83 -52c60 0 108.333 22.333 145 67z" />
    <glyph glyph-name="ccedilla" unicode="&#xe7;" horiz-adv-x="529" 
d="M317 -15l-22.999 -51c31.333 -0.666992 56.5 -8.5 75.5 -23.5s28.5 -34.5 28.5 -58.5c0 -28.667 -10.5 -51.834 -31.5 -69.501s-48.833 -26.5 -83.5 -26.5c-38 0 -76 13 -114 39l34 52c29.333 -18 56 -27 80 -27c13.333 0 24.166 2.83301 32.499 8.5
s12.5 13.167 12.5 22.5s-4.83301 16.833 -14.5 22.5s-21.5 8.5 -35.5 8.5c-10.667 0 -20 -1 -28 -3l-34 31l35 77c-67.333 8 -120.833 36 -160.5 84s-59.5 109.667 -59.5 185c0 82.667 24.333 148.667 73 198s112.334 74 191.001 74c43.333 0 81.833 -7.5 115.5 -22.5
s66.5 -39.833 98.5 -74.5l-81 -80c-26.667 25.333 -50 42.833 -70 52.5s-41 14.5 -63 14.5c-40.667 0 -72.834 -15.167 -96.501 -45.5s-35.5 -69.166 -35.5 -116.499s11.667 -86 35 -116s55.333 -45 96 -45c24 0 46.5 6 67.5 18s44.833 32.333 71.5 61l86 -72
c-31.333 -39.333 -62.833 -68 -94.5 -86s-67.5 -28.333 -107.5 -31z" />
    <glyph glyph-name="egrave" unicode="&#xe8;" horiz-adv-x="561" 
d="M454 164l73.002 -79.999c-35.333 -36 -71 -61.667 -107 -77s-76.333 -23 -121 -23c-82 0 -147.167 24.333 -195.5 73s-72.5 114 -72.5 196c0 80.667 23.333 146.667 70 198s109 77 187 77c76 0 134.833 -22.333 176.5 -67s62.5 -107.334 62.5 -188.001
c0 -14 -0.666992 -31 -2 -51h-367c6 -40.667 21.167 -72.167 45.5 -94.5s57.166 -33.5 98.499 -33.5c28.667 0 53 5 73 15c21.333 10 47.666 28.333 78.999 55zM161.002 315.001l239 -0.000976562c-2.66699 34.667 -14.167 61.834 -34.5 81.501s-47.5 29.5 -81.5 29.5
c-66 0 -107 -37 -123 -111zM147.002 719h142l69 -145h-115z" />
    <glyph glyph-name="eacute" unicode="&#xe9;" horiz-adv-x="561" 
d="M454 164l73.002 -79.999c-35.333 -36 -71 -61.667 -107 -77s-76.333 -23 -121 -23c-82 0 -147.167 24.333 -195.5 73s-72.5 114 -72.5 196c0 80.667 23.333 146.667 70 198s109 77 187 77c76 0 134.833 -22.333 176.5 -67s62.5 -107.334 62.5 -188.001
c0 -14 -0.666992 -31 -2 -51h-367c6 -40.667 21.167 -72.167 45.5 -94.5s57.166 -33.5 98.499 -33.5c28.667 0 53 5 73 15c21.333 10 47.666 28.333 78.999 55zM161.002 315.001l239 -0.000976562c-2.66699 34.667 -14.167 61.834 -34.5 81.501s-47.5 29.5 -81.5 29.5
c-66 0 -107 -37 -123 -111zM449.002 719l-96 -145h-115l69 145h142z" />
    <glyph glyph-name="ecircumflex" unicode="&#xea;" horiz-adv-x="561" 
d="M454 164l73.002 -79.999c-35.333 -36 -71 -61.667 -107 -77s-76.333 -23 -121 -23c-82 0 -147.167 24.333 -195.5 73s-72.5 114 -72.5 196c0 80.667 23.333 146.667 70 198s109 77 187 77c76 0 134.833 -22.333 176.5 -67s62.5 -107.334 62.5 -188.001
c0 -14 -0.666992 -31 -2 -51h-367c6 -40.667 21.167 -72.167 45.5 -94.5s57.166 -33.5 98.499 -33.5c28.667 0 53 5 73 15c21.333 10 47.666 28.333 78.999 55zM161.002 315.001l239 -0.000976562c-2.66699 34.667 -14.167 61.834 -34.5 81.501s-47.5 29.5 -81.5 29.5
c-66 0 -107 -37 -123 -111zM371.002 574l-73 90l-74 -90h-110l102 145h163l102 -145h-110z" />
    <glyph glyph-name="edieresis" unicode="&#xeb;" horiz-adv-x="561" 
d="M454 164l73.002 -79.999c-35.333 -36 -71 -61.667 -107 -77s-76.333 -23 -121 -23c-82 0 -147.167 24.333 -195.5 73s-72.5 114 -72.5 196c0 80.667 23.333 146.667 70 198s109 77 187 77c76 0 134.833 -22.333 176.5 -67s62.5 -107.334 62.5 -188.001
c0 -14 -0.666992 -31 -2 -51h-367c6 -40.667 21.167 -72.167 45.5 -94.5s57.166 -33.5 98.499 -33.5c28.667 0 53 5 73 15c21.333 10 47.666 28.333 78.999 55zM161.002 315.001l239 -0.000976562c-2.66699 34.667 -14.167 61.834 -34.5 81.501s-47.5 29.5 -81.5 29.5
c-66 0 -107 -37 -123 -111zM262.002 710v-122h-125v122h125zM459.002 710v-122h-125v122h125z" />
    <glyph glyph-name="igrave" unicode="&#xec;" horiz-adv-x="244" 
d="M187 511v-511h-130v511h130zM-29 719h142l69 -145h-115z" />
    <glyph glyph-name="iacute" unicode="&#xed;" horiz-adv-x="244" 
d="M187 511v-511h-130v511h130zM273 719l-96 -145h-115l69 145h142z" />
    <glyph glyph-name="icircumflex" unicode="&#xee;" horiz-adv-x="244" 
d="M187 511v-511h-130v511h130zM195 574l-73 90l-74 -90h-110l102 145h163l102 -145h-110z" />
    <glyph glyph-name="idieresis" unicode="&#xef;" horiz-adv-x="244" 
d="M187 511v-511h-130v511h130zM86 710v-122h-125v122h125zM283 710v-122h-125v122h125z" />
    <glyph glyph-name="eth" unicode="&#xf0;" horiz-adv-x="584" 
d="M538 293c0 -98 -23.334 -174.166 -70.001 -228.499s-109.667 -81.5 -189 -81.5c-75.333 0 -135.5 24.5 -180.5 73.5s-67.5 108.5 -67.5 178.5c0 67.333 20.5 124.166 61.5 170.499s94.5 69.5 160.5 69.5c63.333 0 113.333 -21.667 150 -65
c-17.333 56.667 -55.333 103.334 -114 140.001l-85 -53l-39 55l55 35l-45 18l-48 18l47 104l51 -17c44.667 -14.667 82.334 -31.334 113.001 -50.001l79 50l40 -54l-59 -37c93.333 -75.333 140 -184 140 -326zM399.999 232.001c0 38 -11.668 69.665 -35.001 94.998
s-52.666 38 -87.999 38s-63.5 -12.333 -84.5 -37s-31.5 -56.667 -31.5 -96s10.833 -71.666 32.5 -96.999s50.167 -38 85.5 -38s64.333 12.833 87 38.5s34 57.834 34 96.501z" />
    <glyph glyph-name="ntilde" unicode="&#xf1;" horiz-adv-x="572" 
d="M515 350l0.000976562 -350h-130v311c0 34 -8.16699 60 -24.5 78s-39.833 27 -70.5 27c-30 0 -54.667 -10 -74 -30s-29 -46 -29 -78v-308h-130v511h121v-58c34.667 50 86 75 154 75c57.333 0 102.166 -16.167 134.499 -48.5s48.5 -75.5 48.5 -129.5zM299.001 676
c24 -13.333 41.333 -19.999 52 -19.999c10 0 18 4.5 24 13.5s9 20.833 9 35.5h73c0 -40.667 -9 -72.334 -27 -95.001s-41.667 -34 -71 -34c-20 0 -47.667 9.33301 -83 28c-27.333 14 -46.333 21 -57 21c-10 0 -18.167 -4.66699 -24.5 -14s-9.5 -21 -9.5 -35h-74
c0 40 9.83301 71.5 29.5 94.5s44.5 34.5 74.5 34.5c27.333 0 55.333 -9.66699 84 -29z" />
    <glyph glyph-name="ograve" unicode="&#xf2;" horiz-adv-x="593" 
d="M562 256c0 -80.667 -24.833 -146.167 -74.5 -196.5s-113.167 -75.5 -190.5 -75.5c-78 0 -141.833 25.167 -191.5 75.5s-74.5 115.833 -74.5 196.5s24.833 146.167 74.5 196.5s113.5 75.5 191.5 75.5c77.333 0 140.833 -25.167 190.5 -75.5s74.5 -115.833 74.5 -196.5z
M163 256c0 -49.333 12.167 -88.666 36.5 -117.999s56.833 -44 97.5 -44c40 0 72.167 14.667 96.5 44s36.5 68.666 36.5 117.999c0 48.667 -12.167 87.834 -36.5 117.501s-56.5 44.5 -96.5 44.5c-40.667 0 -73.167 -14.833 -97.5 -44.5s-36.5 -68.834 -36.5 -117.501z
M144 719h142l69 -145h-115z" />
    <glyph glyph-name="oacute" unicode="&#xf3;" horiz-adv-x="593" 
d="M562 256c0 -80.667 -24.833 -146.167 -74.5 -196.5s-113.167 -75.5 -190.5 -75.5c-78 0 -141.833 25.167 -191.5 75.5s-74.5 115.833 -74.5 196.5s24.833 146.167 74.5 196.5s113.5 75.5 191.5 75.5c77.333 0 140.833 -25.167 190.5 -75.5s74.5 -115.833 74.5 -196.5z
M163 256c0 -49.333 12.167 -88.666 36.5 -117.999s56.833 -44 97.5 -44c40 0 72.167 14.667 96.5 44s36.5 68.666 36.5 117.999c0 48.667 -12.167 87.834 -36.5 117.501s-56.5 44.5 -96.5 44.5c-40.667 0 -73.167 -14.833 -97.5 -44.5s-36.5 -68.834 -36.5 -117.501z
M446 719l-96 -145h-115l69 145h142z" />
    <glyph glyph-name="ocircumflex" unicode="&#xf4;" horiz-adv-x="593" 
d="M562 256c0 -80.667 -24.833 -146.167 -74.5 -196.5s-113.167 -75.5 -190.5 -75.5c-78 0 -141.833 25.167 -191.5 75.5s-74.5 115.833 -74.5 196.5s24.833 146.167 74.5 196.5s113.5 75.5 191.5 75.5c77.333 0 140.833 -25.167 190.5 -75.5s74.5 -115.833 74.5 -196.5z
M163 256c0 -49.333 12.167 -88.666 36.5 -117.999s56.833 -44 97.5 -44c40 0 72.167 14.667 96.5 44s36.5 68.666 36.5 117.999c0 48.667 -12.167 87.834 -36.5 117.501s-56.5 44.5 -96.5 44.5c-40.667 0 -73.167 -14.833 -97.5 -44.5s-36.5 -68.834 -36.5 -117.501z
M368 574l-73 90l-74 -90h-110l102 145h163l102 -145h-110z" />
    <glyph glyph-name="otilde" unicode="&#xf5;" horiz-adv-x="593" 
d="M562 256c0 -80.667 -24.833 -146.167 -74.5 -196.5s-113.167 -75.5 -190.5 -75.5c-78 0 -141.833 25.167 -191.5 75.5s-74.5 115.833 -74.5 196.5s24.833 146.167 74.5 196.5s113.5 75.5 191.5 75.5c77.333 0 140.833 -25.167 190.5 -75.5s74.5 -115.833 74.5 -196.5z
M163 256c0 -49.333 12.167 -88.666 36.5 -117.999s56.833 -44 97.5 -44c40 0 72.167 14.667 96.5 44s36.5 68.666 36.5 117.999c0 48.667 -12.167 87.834 -36.5 117.501s-56.5 44.5 -96.5 44.5c-40.667 0 -73.167 -14.833 -97.5 -44.5s-36.5 -68.834 -36.5 -117.501z
M310 676c24 -13.333 41.333 -19.999 52 -19.999c10 0 18 4.5 24 13.5s9 20.833 9 35.5h73c0 -40.667 -9 -72.334 -27 -95.001s-41.667 -34 -71 -34c-20 0 -47.667 9.33301 -83 28c-27.333 14 -46.333 21 -57 21c-10 0 -18.167 -4.66699 -24.5 -14s-9.5 -21 -9.5 -35h-74
c0 40 9.83301 71.5 29.5 94.5s44.5 34.5 74.5 34.5c27.333 0 55.333 -9.66699 84 -29z" />
    <glyph glyph-name="odieresis" unicode="&#xf6;" horiz-adv-x="593" 
d="M562 256c0 -80.667 -24.833 -146.167 -74.5 -196.5s-113.167 -75.5 -190.5 -75.5c-78 0 -141.833 25.167 -191.5 75.5s-74.5 115.833 -74.5 196.5s24.833 146.167 74.5 196.5s113.5 75.5 191.5 75.5c77.333 0 140.833 -25.167 190.5 -75.5s74.5 -115.833 74.5 -196.5z
M163 256c0 -49.333 12.167 -88.666 36.5 -117.999s56.833 -44 97.5 -44c40 0 72.167 14.667 96.5 44s36.5 68.666 36.5 117.999c0 48.667 -12.167 87.834 -36.5 117.501s-56.5 44.5 -96.5 44.5c-40.667 0 -73.167 -14.833 -97.5 -44.5s-36.5 -68.834 -36.5 -117.501z
M259 710v-122h-125v122h125zM456 710v-122h-125v122h125z" />
    <glyph glyph-name="divide" unicode="&#xf7;" horiz-adv-x="600" 
d="M371 571v-145h-142v145h142zM560 366v-112h-520v112h520zM371 194v-145h-142v145h142z" />
    <glyph glyph-name="oslash" unicode="&#xf8;" horiz-adv-x="593" 
d="M562 256c0 -80.667 -24.833 -146.167 -74.5 -196.5s-113.167 -75.5 -190.5 -75.5c-43.333 0 -84 8.66699 -122 26l-26 -37l-68 48l26 37c-50.667 50.667 -76 116.667 -76 198c0 80.667 24.833 146.167 74.5 196.5s113.5 75.5 191.5 75.5c42.667 0 83 -8.66699 121 -26
l25 36l68 -48l-25 -36c50.667 -50.667 76 -116.667 76 -198zM182 165l169 242.001c-18 7.33301 -36 11 -54 11c-40.667 0 -73.167 -14.833 -97.5 -44.5s-36.5 -68.834 -36.5 -117.501c0 -34.667 6.33301 -65 19 -91zM430 256.001c0 34.667 -6.33301 65.001 -19 91.001
l-169 -242c18 -7.33301 36.333 -11 55 -11c40 0 72.167 14.667 96.5 44s36.5 68.666 36.5 117.999z" />
    <glyph glyph-name="ugrave" unicode="&#xf9;" horiz-adv-x="564" 
d="M377 511l129.999 -0.000976562v-511h-119v54c-28.667 -46.667 -78.667 -70 -150 -70c-59.333 0 -104.333 14.333 -135 43s-46 68.334 -46 119.001v365h130v-329c0 -26.667 7.33301 -47.5 22 -62.5s35.667 -22.5 63 -22.5c32.667 0 58.334 9.16699 77.001 27.5
s28 44.5 28 78.5v308zM124.999 718.999h142l69 -145h-115z" />
    <glyph glyph-name="uacute" unicode="&#xfa;" horiz-adv-x="564" 
d="M377 511l129.999 -0.000976562v-511h-119v54c-28.667 -46.667 -78.667 -70 -150 -70c-59.333 0 -104.333 14.333 -135 43s-46 68.334 -46 119.001v365h130v-329c0 -26.667 7.33301 -47.5 22 -62.5s35.667 -22.5 63 -22.5c32.667 0 58.334 9.16699 77.001 27.5
s28 44.5 28 78.5v308zM426.999 718.999l-96 -145h-115l69 145h142z" />
    <glyph glyph-name="ucircumflex" unicode="&#xfb;" horiz-adv-x="564" 
d="M377 511l129.999 -0.000976562v-511h-119v54c-28.667 -46.667 -78.667 -70 -150 -70c-59.333 0 -104.333 14.333 -135 43s-46 68.334 -46 119.001v365h130v-329c0 -26.667 7.33301 -47.5 22 -62.5s35.667 -22.5 63 -22.5c32.667 0 58.334 9.16699 77.001 27.5
s28 44.5 28 78.5v308zM348.999 573.999l-73 90l-74 -90h-110l102 145h163l102 -145h-110z" />
    <glyph glyph-name="udieresis" unicode="&#xfc;" horiz-adv-x="564" 
d="M377 511l129.999 -0.000976562v-511h-119v54c-28.667 -46.667 -78.667 -70 -150 -70c-59.333 0 -104.333 14.333 -135 43s-46 68.334 -46 119.001v365h130v-329c0 -26.667 7.33301 -47.5 22 -62.5s35.667 -22.5 63 -22.5c32.667 0 58.334 9.16699 77.001 27.5
s28 44.5 28 78.5v308zM239.999 709.999v-122h-125v122h125zM436.999 709.999v-122h-125v122h125z" />
    <glyph glyph-name="yacute" unicode="&#xfd;" horiz-adv-x="521" 
d="M379 511l132 -0.000976562l-197 -568c-17.333 -49.333 -39.5 -84.666 -66.5 -105.999s-63.833 -32 -110.5 -32c-37.333 0 -70 4.33301 -98 13l22 97c20.667 -4 40.667 -6 60 -6c40 0 67 21.333 81 64l-192 538h136l45 -134c36.667 -109.333 61 -186 73 -230l71 231z
M412 718.999l-96 -145h-115l69 145h142z" />
    <glyph glyph-name="thorn" unicode="&#xfe;" horiz-adv-x="599" 
d="M567 256c0 -80.667 -21.333 -145.832 -64 -195.499s-97 -74.5 -163 -74.5c-67.333 0 -118.333 22.333 -153 67v-233h-130v891h130v-254c36.667 46 88 69 154 69s120.167 -24.833 162.5 -74.5s63.5 -114.834 63.5 -195.501zM435 256.002c0 48 -11.167 86.333 -33.5 115
s-52.5 43 -90.5 43s-69 -14.5 -93 -43.5s-36 -67.167 -36 -114.5c0 -48 11.833 -86.167 35.5 -114.5s54.5 -42.5 92.5 -42.5s68.333 14.167 91 42.5s34 66.5 34 114.5z" />
    <glyph glyph-name="ydieresis" unicode="&#xff;" horiz-adv-x="521" 
d="M379 511l132 -0.000976562l-197 -568c-17.333 -49.333 -39.5 -84.666 -66.5 -105.999s-63.833 -32 -110.5 -32c-37.333 0 -70 4.33301 -98 13l22 97c20.667 -4 40.667 -6 60 -6c40 0 67 21.333 81 64l-192 538h136l45 -134c36.667 -109.333 61 -186 73 -230l71 231z
M225 709.999v-122h-125v122h125zM422 709.999v-122h-125v122h125z" />
    <glyph glyph-name="Amacron" unicode="&#x100;" horiz-adv-x="712" 
d="M557 0l-48 142h-309l-49 -142h-141l254 710h184l254 -710h-145zM240 258l229.001 -0.000976562l-28 82l-17 50c-32 90.667 -55.333 161.334 -70 212.001c-12.667 -43.333 -38.334 -121.333 -77.001 -234l-10 -30zM515.001 883.999v-94h-320v94h320z" />
    <glyph glyph-name="amacron" unicode="&#x101;" horiz-adv-x="560" 
d="M503 345v-345h-117v53c-34 -46.667 -89 -70 -165 -70c-54.667 0 -98.834 12.667 -132.501 38s-50.5 61.333 -50.5 108c0 51.333 18.667 91 56 119s92.333 48.333 165 61l120 22v12c0 24.667 -8.5 43.834 -25.5 57.501s-40.5 20.5 -70.5 20.5
c-32.667 0 -59.334 -6.33301 -80.001 -19c-24 -14.667 -50.333 -36 -79 -64l-82 75c64.667 76.667 144.334 115 239.001 115c70.667 0 125.334 -16.333 164.001 -49s58 -77.334 58 -134.001zM379 208l-0.000976562 30l-86 -18c-46 -10 -78.833 -20.833 -98.5 -32.5
s-29.5 -28.167 -29.5 -49.5c0 -16 6.83301 -28.5 20.5 -37.5s32.834 -13.5 57.501 -13.5c40 0 72.667 10.333 98 31s38 50.667 38 90zM444.999 685v-94h-320v94h320z" />
    <glyph glyph-name="Abreve" unicode="&#x102;" horiz-adv-x="712" 
d="M557 0l-48 142h-309l-49 -142h-141l254 710h184l254 -710h-145zM240 258l229.001 -0.000976562l-28 82l-17 50c-32 90.667 -55.333 161.334 -70 212.001c-12.667 -43.333 -38.334 -121.333 -77.001 -234l-10 -30zM191.001 910.999h90c0 -21.333 6.5 -38.166 19.5 -50.499
s31.167 -18.5 54.5 -18.5s41.5 6.16699 54.5 18.5s19.5 29.166 19.5 50.499h90c0 -46.667 -15.167 -83 -45.5 -109s-69.833 -39 -118.5 -39s-88.167 13 -118.5 39s-45.5 62.333 -45.5 109z" />
    <glyph glyph-name="abreve" unicode="&#x103;" horiz-adv-x="560" 
d="M503 345v-345h-117v53c-34 -46.667 -89 -70 -165 -70c-54.667 0 -98.834 12.667 -132.501 38s-50.5 61.333 -50.5 108c0 51.333 18.667 91 56 119s92.333 48.333 165 61l120 22v12c0 24.667 -8.5 43.834 -25.5 57.501s-40.5 20.5 -70.5 20.5
c-32.667 0 -59.334 -6.33301 -80.001 -19c-24 -14.667 -50.333 -36 -79 -64l-82 75c64.667 76.667 144.334 115 239.001 115c70.667 0 125.334 -16.333 164.001 -49s58 -77.334 58 -134.001zM379 208l-0.000976562 30l-86 -18c-46 -10 -78.833 -20.833 -98.5 -32.5
s-29.5 -28.167 -29.5 -49.5c0 -16 6.83301 -28.5 20.5 -37.5s32.834 -13.5 57.501 -13.5c40 0 72.667 10.333 98 31s38 50.667 38 90zM120.999 712h90c0 -21.333 6.5 -38.166 19.5 -50.499s31.167 -18.5 54.5 -18.5s41.5 6.16699 54.5 18.5s19.5 29.166 19.5 50.499h90
c0 -46.667 -15.167 -83 -45.5 -109s-69.833 -39 -118.5 -39s-88.167 13 -118.5 39s-45.5 62.333 -45.5 109z" />
    <glyph glyph-name="Aogonek" unicode="&#x104;" horiz-adv-x="712" 
d="M665 -139c11.333 0 21 1.33203 29 3.99902v-75c-12 -5.33301 -28.333 -8 -49 -8c-38.667 0 -68.167 8.16699 -88.5 24.5s-30.5 38.833 -30.5 67.5c0 45.333 24 87.333 72 126h-41l-48 142h-309l-49 -142h-141l254 710h184l254 -710
c-57.333 -35.333 -86 -69.666 -86 -102.999c0 -24 16.333 -36 49 -36zM240 257.999l229.001 -0.000976562l-28 82l-17 50c-32 90.667 -55.333 161.334 -70 212.001c-12.667 -43.333 -38.334 -121.333 -77.001 -234l-10 -30z" />
    <glyph glyph-name="aogonek" unicode="&#x105;" horiz-adv-x="560" 
d="M417 -103c0 -24 16.333 -36.001 49 -36.001c11.333 0 21 1.33301 29 4v-75c-12 -5.33301 -28.333 -8 -49 -8c-38.667 0 -68.167 8.16699 -88.5 24.5s-30.5 38.833 -30.5 67.5c0 45.333 24 87.333 72 126h-13v53c-34 -46.667 -89 -70 -165 -70
c-54.667 0 -98.834 12.667 -132.501 38s-50.5 61.333 -50.5 108c0 51.333 18.667 91 56 119s92.333 48.333 165 61l120 22v12c0 24.667 -8.5 43.834 -25.5 57.501s-40.5 20.5 -70.5 20.5c-32.667 0 -59.334 -6.33301 -80.001 -19c-24 -14.667 -50.333 -36 -79 -64l-82 75
c64.667 76.667 144.334 115 239.001 115c70.667 0 125.334 -16.333 164.001 -49s58 -77.334 58 -134.001v-345c-57.333 -35.333 -86 -69.666 -86 -102.999zM379 207.999l-0.000976562 30l-86 -18c-46 -10 -78.833 -20.833 -98.5 -32.5s-29.5 -28.167 -29.5 -49.5
c0 -16 6.83301 -28.5 20.5 -37.5s32.834 -13.5 57.501 -13.5c40 0 72.667 10.333 98 31s38 50.667 38 90z" />
    <glyph glyph-name="Cacute" unicode="&#x106;" horiz-adv-x="679" 
d="M656 621l-81.999 -96.999c-34.667 30 -65.834 50.833 -93.501 62.5s-57.834 17.5 -90.501 17.5c-64.667 0 -116.167 -22.5 -154.5 -67.5s-57.5 -105.167 -57.5 -180.5s19.167 -135.833 57.5 -181.5s89.166 -68.5 152.499 -68.5c35.333 0 67 6.66699 95 20
c26.667 13.333 60.667 37 102 71l82 -95c-44.667 -42 -88.5 -72.333 -131.5 -91s-91.5 -28 -145.5 -28c-106 -1.33301 -192 33.667 -258 105s-98.333 161 -97 269c-1.33301 107.333 30.5 196.166 95.5 266.499s151.833 104.833 260.5 103.5
c52.667 0 99.334 -8.16699 140.001 -24.5s82.334 -43.5 125.001 -81.5zM543.001 918.001l-96 -145h-115l69 145h142z" />
    <glyph glyph-name="cacute" unicode="&#x107;" horiz-adv-x="529" 
d="M295 418c-40.667 0 -72.834 -15.168 -96.501 -45.501s-35.5 -69.166 -35.5 -116.499s11.667 -86 35 -116s55.333 -45 96 -45c24 0 46.5 6 67.5 18s44.833 32.333 71.5 61l86 -72c-34.667 -43.333 -69.5 -73.833 -104.5 -91.5s-75.833 -26.5 -122.5 -26.5
c-78 0 -141 24.667 -189 74s-72 115.333 -72 198s24.333 148.667 73 198s112.334 74 191.001 74c43.333 0 81.833 -7.5 115.5 -22.5s66.5 -39.833 98.5 -74.5l-81 -80c-26.667 25.333 -50 42.833 -70 52.5s-41 14.5 -63 14.5zM440 718.999l-96 -145h-115l69 145h142z" />
    <glyph glyph-name="Cdotaccent" unicode="&#x10a;" horiz-adv-x="679" 
d="M656 621l-81.999 -96.999c-34.667 30 -65.834 50.833 -93.501 62.5s-57.834 17.5 -90.501 17.5c-64.667 0 -116.167 -22.5 -154.5 -67.5s-57.5 -105.167 -57.5 -180.5s19.167 -135.833 57.5 -181.5s89.166 -68.5 152.499 -68.5c35.333 0 67 6.66699 95 20
c26.667 13.333 60.667 37 102 71l82 -95c-44.667 -42 -88.5 -72.333 -131.5 -91s-91.5 -28 -145.5 -28c-106 -1.33301 -192 33.667 -258 105s-98.333 161 -97 269c-1.33301 107.333 30.5 196.166 95.5 266.499s151.833 104.833 260.5 103.5
c52.667 0 99.334 -8.16699 140.001 -24.5s82.334 -43.5 125.001 -81.5zM457.001 909.001v-122h-130v122h130z" />
    <glyph glyph-name="cdotaccent" unicode="&#x10b;" horiz-adv-x="529" 
d="M295 418c-40.667 0 -72.834 -15.168 -96.501 -45.501s-35.5 -69.166 -35.5 -116.499s11.667 -86 35 -116s55.333 -45 96 -45c24 0 46.5 6 67.5 18s44.833 32.333 71.5 61l86 -72c-34.667 -43.333 -69.5 -73.833 -104.5 -91.5s-75.833 -26.5 -122.5 -26.5
c-78 0 -141 24.667 -189 74s-72 115.333 -72 198s24.333 148.667 73 198s112.334 74 191.001 74c43.333 0 81.833 -7.5 115.5 -22.5s66.5 -39.833 98.5 -74.5l-81 -80c-26.667 25.333 -50 42.833 -70 52.5s-41 14.5 -63 14.5zM354 709.999v-122h-130v122h130z" />
    <glyph glyph-name="Ccaron" unicode="&#x10c;" horiz-adv-x="679" 
d="M656 621l-81.999 -96.999c-34.667 30 -65.834 50.833 -93.501 62.5s-57.834 17.5 -90.501 17.5c-64.667 0 -116.167 -22.5 -154.5 -67.5s-57.5 -105.167 -57.5 -180.5s19.167 -135.833 57.5 -181.5s89.166 -68.5 152.499 -68.5c35.333 0 67 6.66699 95 20
c26.667 13.333 60.667 37 102 71l82 -95c-44.667 -42 -88.5 -72.333 -131.5 -91s-91.5 -28 -145.5 -28c-106 -1.33301 -192 33.667 -258 105s-98.333 161 -97 269c-1.33301 107.333 30.5 196.166 95.5 266.499s151.833 104.833 260.5 103.5
c52.667 0 99.334 -8.16699 140.001 -24.5s82.334 -43.5 125.001 -81.5zM575.001 918.001l-102 -145h-163l-102 145h110l74 -90l73 90h110z" />
    <glyph glyph-name="ccaron" unicode="&#x10d;" horiz-adv-x="529" 
d="M295 418c-40.667 0 -72.834 -15.168 -96.501 -45.501s-35.5 -69.166 -35.5 -116.499s11.667 -86 35 -116s55.333 -45 96 -45c24 0 46.5 6 67.5 18s44.833 32.333 71.5 61l86 -72c-34.667 -43.333 -69.5 -73.833 -104.5 -91.5s-75.833 -26.5 -122.5 -26.5
c-78 0 -141 24.667 -189 74s-72 115.333 -72 198s24.333 148.667 73 198s112.334 74 191.001 74c43.333 0 81.833 -7.5 115.5 -22.5s66.5 -39.833 98.5 -74.5l-81 -80c-26.667 25.333 -50 42.833 -70 52.5s-41 14.5 -63 14.5zM472 718.999l-102 -145h-163l-102 145h110
l74 -90l73 90h110z" />
    <glyph glyph-name="Dcaron" unicode="&#x10e;" horiz-adv-x="720" 
d="M685 355c0 -106 -29 -191.667 -87 -257s-136.667 -98 -236 -98h-289v710h289c99.333 0 178 -32.667 236 -98s87 -151 87 -257zM341 592l-128 -0.00195312v-474h128c62 0 110.833 20.333 146.5 61s53.5 99.334 53.5 176.001s-17.833 135.334 -53.5 176.001
s-84.5 61 -146.5 61zM541 917.998l-102 -145h-163l-102 145h110l74 -90l73 90h110z" />
    <glyph glyph-name="dcaron" unicode="&#x10f;" horiz-adv-x="768" 
d="M411 710l130 -0.00195312v-710h-121v67c-36.667 -54.667 -91 -82 -163 -82c-66 0 -120.167 24.833 -162.5 74.5s-63.5 114.834 -63.5 195.501s21.333 145.834 64 195.501s97 74.5 163 74.5c67.333 0 118.333 -22.333 153 -67v252zM416 254.998
c0 48 -11.833 86.167 -35.5 114.5s-54.5 42.5 -92.5 42.5s-68.333 -14.167 -91 -42.5s-34 -66.5 -34 -114.5s11.167 -86.333 33.5 -115s52.5 -43 90.5 -43s69 14.5 93 43.5s36 67.167 36 114.5zM763 709.998l-74 -215h-80l27 215h127z" />
    <glyph glyph-name="Dcroat" unicode="&#x110;" horiz-adv-x="749" 
d="M714 355c0 -106 -29 -191.667 -87 -257s-136.667 -98 -236 -98h-289v308h-76v117h76v285h289c99.333 0 178 -32.667 236 -98s87 -151 87 -257zM570 355c0 76.667 -17.833 135.332 -53.5 175.999s-84.5 61 -146.5 61h-128v-167h169v-117h-169v-190h128
c62 0 110.833 20.333 146.5 61s53.5 99.334 53.5 176.001z" />
    <glyph glyph-name="dslash" unicode="&#x111;" horiz-adv-x="622" 
d="M612 642v-87h-70v-555h-120v68c-36 -55.333 -90.667 -83 -164 -83c-66 0 -120.167 24.5 -162.5 73.5s-63.5 112.833 -63.5 191.5s21.333 142.5 64 191.5s97 73.5 163 73.5c67.333 0 118.333 -22 153 -66v106h-125v87h125v68h130v-68h70zM417 250
c0 46 -12 82.833 -36 110.5s-54.667 41.5 -92 41.5s-67.5 -13.833 -90.5 -41.5s-34.5 -64.5 -34.5 -110.5s11.167 -83 33.5 -111s52.5 -42 90.5 -42s69 14 93 42s36 65 36 111z" />
    <glyph glyph-name="Emacron" unicode="&#x112;" horiz-adv-x="629" 
d="M572 710v-118h-359v-166h336v-118h-336v-190h370v-118h-510v710h499zM488 884v-94h-320v94h320z" />
    <glyph glyph-name="emacron" unicode="&#x113;" horiz-adv-x="561" 
d="M454 164l73.002 -79.999c-35.333 -36 -71 -61.667 -107 -77s-76.333 -23 -121 -23c-82 0 -147.167 24.333 -195.5 73s-72.5 114 -72.5 196c0 80.667 23.333 146.667 70 198s109 77 187 77c76 0 134.833 -22.333 176.5 -67s62.5 -107.334 62.5 -188.001
c0 -14 -0.666992 -31 -2 -51h-367c6 -40.667 21.167 -72.167 45.5 -94.5s57.166 -33.5 98.499 -33.5c28.667 0 53 5 73 15c21.333 10 47.666 28.333 78.999 55zM161.002 315.001l239 -0.000976562c-2.66699 34.667 -14.167 61.834 -34.5 81.501s-47.5 29.5 -81.5 29.5
c-66 0 -107 -37 -123 -111zM458.002 685v-94h-320v94h320z" />
    <glyph glyph-name="Edotaccent" unicode="&#x116;" horiz-adv-x="629" 
d="M572 710v-118h-359v-166h336v-118h-336v-190h370v-118h-510v710h499zM393 909v-122h-130v122h130z" />
    <glyph glyph-name="edotaccent" unicode="&#x117;" horiz-adv-x="561" 
d="M454 164l73.002 -79.999c-35.333 -36 -71 -61.667 -107 -77s-76.333 -23 -121 -23c-82 0 -147.167 24.333 -195.5 73s-72.5 114 -72.5 196c0 80.667 23.333 146.667 70 198s109 77 187 77c76 0 134.833 -22.333 176.5 -67s62.5 -107.334 62.5 -188.001
c0 -14 -0.666992 -31 -2 -51h-367c6 -40.667 21.167 -72.167 45.5 -94.5s57.166 -33.5 98.499 -33.5c28.667 0 53 5 73 15c21.333 10 47.666 28.333 78.999 55zM161.002 315.001l239 -0.000976562c-2.66699 34.667 -14.167 61.834 -34.5 81.501s-47.5 29.5 -81.5 29.5
c-66 0 -107 -37 -123 -111zM363.002 710v-122h-130v122h130z" />
    <glyph glyph-name="Eogonek" unicode="&#x118;" horiz-adv-x="629" 
d="M497 -103c0 -24 16.333 -36.001 49 -36.001c11.333 0 21 1.33301 29 4v-75c-12 -5.33301 -28.333 -8 -49 -8c-38.667 0 -68.167 8.16699 -88.5 24.5s-30.5 38.833 -30.5 67.5c0 45.333 24 87.333 72 126h-406v710h499v-118h-359v-166h336v-118h-336v-190h370v-118
c-57.333 -35.333 -86 -69.666 -86 -102.999z" />
    <glyph glyph-name="eogonek" unicode="&#x119;" horiz-adv-x="560" 
d="M294 -124c0 41.333 16.3359 78.334 49.0029 111.001c-15.333 -2 -30.333 -3 -45 -3c-82 0 -147.167 24.333 -195.5 73s-72.5 114 -72.5 196c0 80.667 23.333 146.667 70 198s109 77 187 77c76 0 134.833 -22.333 176.5 -67s62.5 -107.334 62.5 -188.001
c0 -14 -0.666992 -31 -2 -51h-367c6 -40.667 21.167 -72.167 45.5 -94.5s57.166 -33.5 98.499 -33.5c28.667 0 53 5 73 15c21.333 10 47.666 28.333 78.999 55l73 -80c-4 -4 -20 -18.667 -48 -44c-62.667 -54 -94 -100.667 -94 -140c0 -26 16.333 -39 49 -39
c11.333 0 21 1.33301 29 4v-77c-12.667 -4 -28.334 -6 -47.001 -6c-39.333 0 -69.333 8.5 -90 25.5s-31 39.833 -31 68.5zM160.003 315.001l239 -0.000976562c-2.66699 34.667 -14.167 61.834 -34.5 81.501s-47.5 29.5 -81.5 29.5c-66 0 -107 -37 -123 -111z" />
    <glyph glyph-name="Ecaron" unicode="&#x11a;" horiz-adv-x="629" 
d="M572 710v-118h-359v-166h336v-118h-336v-190h370v-118h-510v710h499zM511 918l-102 -145h-163l-102 145h110l74 -90l73 90h110z" />
    <glyph glyph-name="ecaron" unicode="&#x11b;" horiz-adv-x="561" 
d="M454 164l73.002 -79.999c-35.333 -36 -71 -61.667 -107 -77s-76.333 -23 -121 -23c-82 0 -147.167 24.333 -195.5 73s-72.5 114 -72.5 196c0 80.667 23.333 146.667 70 198s109 77 187 77c76 0 134.833 -22.333 176.5 -67s62.5 -107.334 62.5 -188.001
c0 -14 -0.666992 -31 -2 -51h-367c6 -40.667 21.167 -72.167 45.5 -94.5s57.166 -33.5 98.499 -33.5c28.667 0 53 5 73 15c21.333 10 47.666 28.333 78.999 55zM161.002 315.001l239 -0.000976562c-2.66699 34.667 -14.167 61.834 -34.5 81.501s-47.5 29.5 -81.5 29.5
c-66 0 -107 -37 -123 -111zM481.002 719l-102 -145h-163l-102 145h110l74 -90l73 90h110z" />
    <glyph glyph-name="Gbreve" unicode="&#x11e;" horiz-adv-x="755" 
d="M365 276l0.00292969 118.001h330v-394h-107l-7 67c-41.333 -55.333 -109 -83 -203 -83c-106 0 -189.667 34.333 -251 103s-92 158.334 -92 269.001c-1.33301 107.333 31 196.166 97 266.499s153 104.833 261 103.5c61.333 0 115.166 -10.167 161.499 -30.5
s93.166 -54.5 140.499 -102.5l-88 -91c-40.667 36.667 -77.334 62.667 -110.001 78c-32 15.333 -67 23 -105 23c-65.333 0 -117.333 -21.833 -156 -65.5s-58 -104.167 -58 -181.5c0 -79.333 18.667 -140.833 56 -184.5s89 -65.5 155 -65.5c56 0 99.833 14.167 131.5 42.5
s47.5 67.166 47.5 116.499v11h-203zM223.003 911.001h90c0 -21.333 6.5 -38.166 19.5 -50.499s31.167 -18.5 54.5 -18.5s41.5 6.16699 54.5 18.5s19.5 29.166 19.5 50.499h90c0 -46.667 -15.167 -83 -45.5 -109s-69.833 -39 -118.5 -39s-88.167 13 -118.5 39
s-45.5 62.333 -45.5 109z" />
    <glyph glyph-name="gbreve" unicode="&#x11f;" 
d="M413 511l119.998 0.000976562v-486c0 -70 -23 -124.333 -69 -163s-106.333 -58 -181 -58c-84.667 0 -165.667 25 -243 75l63 94c38 -22.667 70.167 -38.5 96.5 -47.5s53.5 -13.5 81.5 -13.5c39.333 0 70 10.333 92 31s33 51.667 33 93v41
c-35.333 -43.333 -85 -65 -149 -65c-65.333 0 -119.166 24 -161.499 72s-63.5 110 -63.5 186c0 75.333 21.333 137.166 64 185.499s96.334 72.5 161.001 72.5c70.667 0 122.667 -24.667 156 -74v57zM409.998 270.001c0 44 -11.667 79.5 -35 106.5s-53 40.5 -89 40.5
c-36.667 0 -66.334 -13.5 -89.001 -40.5s-34 -62.5 -34 -106.5s11.333 -79.667 34 -107s52.334 -41 89.001 -41c36 0 65.667 13.667 89 41s35 63 35 107zM131.998 712.001h90c0 -21.333 6.5 -38.166 19.5 -50.499s31.167 -18.5 54.5 -18.5s41.5 6.16699 54.5 18.5
s19.5 29.166 19.5 50.499h90c0 -46.667 -15.167 -83 -45.5 -109s-69.833 -39 -118.5 -39s-88.167 13 -118.5 39s-45.5 62.333 -45.5 109z" />
    <glyph glyph-name="Gdotaccent" unicode="&#x120;" horiz-adv-x="755" 
d="M365 276l0.00292969 118.001h330v-394h-107l-7 67c-41.333 -55.333 -109 -83 -203 -83c-106 0 -189.667 34.333 -251 103s-92 158.334 -92 269.001c-1.33301 107.333 31 196.166 97 266.499s153 104.833 261 103.5c61.333 0 115.166 -10.167 161.499 -30.5
s93.166 -54.5 140.499 -102.5l-88 -91c-40.667 36.667 -77.334 62.667 -110.001 78c-32 15.333 -67 23 -105 23c-65.333 0 -117.333 -21.833 -156 -65.5s-58 -104.167 -58 -181.5c0 -79.333 18.667 -140.833 56 -184.5s89 -65.5 155 -65.5c56 0 99.833 14.167 131.5 42.5
s47.5 67.166 47.5 116.499v11h-203zM452.003 909.001v-122h-130v122h130z" />
    <glyph glyph-name="gdotaccent" unicode="&#x121;" 
d="M413 511l119.998 0.000976562v-486c0 -70 -23 -124.333 -69 -163s-106.333 -58 -181 -58c-84.667 0 -165.667 25 -243 75l63 94c38 -22.667 70.167 -38.5 96.5 -47.5s53.5 -13.5 81.5 -13.5c39.333 0 70 10.333 92 31s33 51.667 33 93v41
c-35.333 -43.333 -85 -65 -149 -65c-65.333 0 -119.166 24 -161.499 72s-63.5 110 -63.5 186c0 75.333 21.333 137.166 64 185.499s96.334 72.5 161.001 72.5c70.667 0 122.667 -24.667 156 -74v57zM409.998 270.001c0 44 -11.667 79.5 -35 106.5s-53 40.5 -89 40.5
c-36.667 0 -66.334 -13.5 -89.001 -40.5s-34 -62.5 -34 -106.5s11.333 -79.667 34 -107s52.334 -41 89.001 -41c36 0 65.667 13.667 89 41s35 63 35 107zM360.998 710.001v-122h-130v122h130z" />
    <glyph glyph-name="uni0122" unicode="&#x122;" horiz-adv-x="755" 
d="M365 276l0.00292969 118.001h330v-394h-107l-7 67c-41.333 -55.333 -109 -83 -203 -83c-106 0 -189.667 34.333 -251 103s-92 158.334 -92 269.001c-1.33301 107.333 31 196.166 97 266.499s153 104.833 261 103.5c61.333 0 115.166 -10.167 161.499 -30.5
s93.166 -54.5 140.499 -102.5l-88 -91c-40.667 36.667 -77.334 62.667 -110.001 78c-32 15.333 -67 23 -105 23c-65.333 0 -117.333 -21.833 -156 -65.5s-58 -104.167 -58 -181.5c0 -79.333 18.667 -140.833 56 -184.5s89 -65.5 155 -65.5c56 0 99.833 14.167 131.5 42.5
s47.5 67.166 47.5 116.499v11h-203zM454.003 -59.999v-106l-72 -92h-68l66 92h-62v106h136z" />
    <glyph glyph-name="uni0123" unicode="&#x123;" 
d="M413 511l119.998 0.000976562v-486c0 -70 -23 -124.333 -69 -163s-106.333 -58 -181 -58c-84.667 0 -165.667 25 -243 75l63 94c38 -22.667 70.167 -38.5 96.5 -47.5s53.5 -13.5 81.5 -13.5c39.333 0 70 10.333 92 31s33 51.667 33 93v41
c-35.333 -43.333 -85 -65 -149 -65c-65.333 0 -119.166 24 -161.499 72s-63.5 110 -63.5 186c0 75.333 21.333 137.166 64 185.499s96.334 72.5 161.001 72.5c70.667 0 122.667 -24.667 156 -74v57zM409.998 270.001c0 44 -11.667 79.5 -35 106.5s-53 40.5 -89 40.5
c-36.667 0 -66.334 -13.5 -89.001 -40.5s-34 -62.5 -34 -106.5s11.333 -79.667 34 -107s52.334 -41 89.001 -41c36 0 65.667 13.667 89 41s35 63 35 107zM232.998 588.001v108l72 101h68l-66 -101h62v-108h-136z" />
    <glyph glyph-name="Hbar" unicode="&#x126;" horiz-adv-x="797" 
d="M767 613v-94h-69v-519h-140v314h-317v-314h-140v519h-71v94h71v97h140v-97h317v97h140v-97h69zM558 432v87h-317v-87h317z" />
    <glyph glyph-name="hbar" unicode="&#x127;" horiz-adv-x="595" 
d="M538 340l0.000976562 -340h-130v301c0 34 -8.16699 60 -24.5 78s-39.833 27 -70.5 27c-30 0 -54.667 -10 -74 -30s-29 -46 -29 -78v-298h-130v555h-70v87h70v68h130v-68h125v-87h-125v-107c33.333 46.667 81.666 70 144.999 70c58 0 103 -16 135 -48s48 -75.333 48 -130z
" />
    <glyph glyph-name="Imacron" unicode="&#x12a;" horiz-adv-x="300" 
d="M220 710v-710h-140v710h140zM310 884v-94h-320v94h320z" />
    <glyph glyph-name="imacron" unicode="&#x12b;" horiz-adv-x="244" 
d="M187 511v-511h-130v511h130zM282 685v-94h-320v94h320z" />
    <glyph glyph-name="Iogonek" unicode="&#x12e;" horiz-adv-x="300" 
d="M134 -103c0 -24 16.333 -36.001 49 -36.001c11.333 0 21 1.33301 29 4v-75c-12 -5.33301 -28.333 -8 -49 -8c-38.667 0 -68.167 8.16699 -88.5 24.5s-30.5 38.833 -30.5 67.5c0 45.333 24 87.333 72 126h-36v710h140v-710c-57.333 -35.333 -86 -69.666 -86 -102.999z" />
    <glyph glyph-name="iogonek" unicode="&#x12f;" horiz-adv-x="244" 
d="M57 710h130v-122h-130v122zM57 0v510.999h130v-511c-57.333 -35.333 -86 -69.666 -86 -102.999c0 -24 16.333 -36 49 -36c11.333 0 21 1.33301 29 4v-75c-12 -5.33301 -28.333 -8 -49 -8c-38.667 0 -68.167 8.16699 -88.5 24.5s-30.5 38.833 -30.5 67.5
c0 45.333 24 87.333 72 126h-26z" />
    <glyph glyph-name="Idot" unicode="&#x130;" horiz-adv-x="300" 
d="M220 710v-710h-140v710h140zM215 909v-122h-130v122h130z" />
    <glyph glyph-name="dotlessi" unicode="&#x131;" horiz-adv-x="244" 
d="M187 511v-511h-130v511h130z" />
    <glyph glyph-name="IJ" unicode="&#x132;" horiz-adv-x="773" 
d="M220 710v-710h-140v710h140zM705 710l-0.000976562 -520c0 -68 -18.667 -119.167 -56 -153.5s-89.666 -51.5 -156.999 -51.5c-64 0 -126.333 14.333 -187 43l41 112c57.333 -20 103.333 -30 138 -30c54 0 81 32 81 96v504h140z" />
    <glyph glyph-name="ij" unicode="&#x133;" horiz-adv-x="492" 
d="M187 511v-511h-130v511h130zM187 710v-122h-130v122h130zM251 -86c19.333 0 33.167 5 41.5 15s12.5 26.333 12.5 49v533h130v-530c0 -114.667 -53 -172 -159 -172c-38 0 -73 5 -105 15l23 97c21.333 -4.66699 40.333 -7 57 -7zM435.001 710v-122h-130v122h130z" />
    <glyph glyph-name="uni0136" unicode="&#x136;" horiz-adv-x="696" 
d="M536 0l-212 337l-111 -116v-221h-140v710h140v-318l293 318h174l-262 -274l276 -436h-158zM430 -60v-106l-72 -92h-68l66 92h-62v106h136z" />
    <glyph glyph-name="uni0137" unicode="&#x137;" horiz-adv-x="549" 
d="M404 0l-144 233l-73 -74v-159h-130v710h130v-407l196 208h156l-188 -194l198 -317h-145zM361 -60v-106l-72 -92h-68l66 92h-62v106h136z" />
    <glyph glyph-name="Lacute" unicode="&#x139;" horiz-adv-x="573" 
d="M213 710v-590h330v-120h-470v710h140zM294 918l-96 -145h-115l69 145h142z" />
    <glyph glyph-name="lacute" unicode="&#x13a;" horiz-adv-x="248" 
d="M189 710v-710h-130v710h130zM273 908l-96 -145h-115l69 145h142z" />
    <glyph glyph-name="uni013B" unicode="&#x13b;" horiz-adv-x="573" 
d="M213 710v-590h330v-120h-470v710h140zM378 -60v-106l-72 -92h-68l66 92h-62v106h136z" />
    <glyph glyph-name="uni013C" unicode="&#x13c;" horiz-adv-x="248" 
d="M189 710v-710h-130v710h130zM192 -60v-106l-72 -92h-68l66 92h-62v106h136z" />
    <glyph glyph-name="Lcaron" unicode="&#x13d;" horiz-adv-x="573" 
d="M213 710v-590h330v-120h-470v710h140zM450 710l-74 -215h-80l27 215h127z" />
    <glyph glyph-name="lcaron" unicode="&#x13e;" horiz-adv-x="423" 
d="M189 710v-710h-130v710h130zM418 710l-74 -215h-80l27 215h127z" />
    <glyph glyph-name="Ldot" unicode="&#x13f;" horiz-adv-x="556" 
d="M213 710v-590h330v-120h-470v710h140zM463 443v-145h-142v145h142z" />
    <glyph glyph-name="ldot" unicode="&#x140;" horiz-adv-x="471" 
d="M189 710v-710h-130v710h130zM426 404v-145h-142v145h142z" />
    <glyph glyph-name="Lslash" unicode="&#x141;" horiz-adv-x="619" 
d="M259 120h330v-120h-470v266l-99 -54v117l99 54v327h140v-255l128 70v-117l-128 -70v-218z" />
    <glyph glyph-name="lslash" unicode="&#x142;" horiz-adv-x="358" 
d="M328 514v-107l-83 -47v-360h-130v285l-85 -48v107l85 48v318h130v-243z" />
    <glyph glyph-name="Nacute" unicode="&#x143;" horiz-adv-x="745" 
d="M536 710h136v-710h-149l-180 288l-20 32c-56 90.667 -96 157.667 -120 201c4 -83.333 6 -175.333 6 -276v-245h-136v710h152l191 -306l27 -45c41.333 -66.667 74 -121 98 -163c-3.33301 70 -5 155.333 -5 256v258zM533 918l-96 -145h-115l69 145h142z" />
    <glyph glyph-name="nacute" unicode="&#x144;" horiz-adv-x="572" 
d="M515 350l0.000976562 -350h-130v311c0 34 -8.16699 60 -24.5 78s-39.833 27 -70.5 27c-30 0 -54.667 -10 -74 -30s-29 -46 -29 -78v-308h-130v511h121v-58c34.667 50 86 75 154 75c57.333 0 102.166 -16.167 134.499 -48.5s48.5 -75.5 48.5 -129.5zM435.001 719l-96 -145
h-115l69 145h142z" />
    <glyph glyph-name="uni0145" unicode="&#x145;" horiz-adv-x="745" 
d="M536 710h136v-710h-149l-180 288l-20 32c-56 90.667 -96 157.667 -120 201c4 -83.333 6 -175.333 6 -276v-245h-136v710h152l191 -306l27 -45c41.333 -66.667 74 -121 98 -163c-3.33301 70 -5 155.333 -5 256v258zM446 -60v-106l-72 -92h-68l66 92h-62v106h136z" />
    <glyph glyph-name="uni0146" unicode="&#x146;" horiz-adv-x="572" 
d="M515 350l0.000976562 -350h-130v311c0 34 -8.16699 60 -24.5 78s-39.833 27 -70.5 27c-30 0 -54.667 -10 -74 -30s-29 -46 -29 -78v-308h-130v511h121v-58c34.667 50 86 75 154 75c57.333 0 102.166 -16.167 134.499 -48.5s48.5 -75.5 48.5 -129.5zM350.001 -60v-106
l-72 -92h-68l66 92h-62v106h136z" />
    <glyph glyph-name="Ncaron" unicode="&#x147;" horiz-adv-x="745" 
d="M536 710h136v-710h-149l-180 288l-20 32c-56 90.667 -96 157.667 -120 201c4 -83.333 6 -175.333 6 -276v-245h-136v710h152l191 -306l27 -45c41.333 -66.667 74 -121 98 -163c-3.33301 70 -5 155.333 -5 256v258zM565 918l-102 -145h-163l-102 145h110l74 -90l73 90h110
z" />
    <glyph glyph-name="ncaron" unicode="&#x148;" horiz-adv-x="572" 
d="M515 350l0.000976562 -350h-130v311c0 34 -8.16699 60 -24.5 78s-39.833 27 -70.5 27c-30 0 -54.667 -10 -74 -30s-29 -46 -29 -78v-308h-130v511h121v-58c34.667 50 86 75 154 75c57.333 0 102.166 -16.167 134.499 -48.5s48.5 -75.5 48.5 -129.5zM467.001 719
l-102 -145h-163l-102 145h110l74 -90l73 90h110z" />
    <glyph glyph-name="Eng" unicode="&#x14a;" horiz-adv-x="745" 
d="M536 710l136 0.000976562v-736c0 -114.667 -54.667 -172 -164 -172c-38 0 -75 5.66699 -111 17l23 107c26 -6.66699 48 -10 66 -10c33.333 0 52 18.333 56 55l-199 316c-61.333 96.667 -108 174.667 -140 234c4 -83.333 6 -175.333 6 -276v-245h-136v710h151l191 -305
l12 -20c51.333 -82.667 89.333 -146.334 114 -191.001c-3.33301 70 -5 156 -5 258v258z" />
    <glyph glyph-name="eng" unicode="&#x14b;" horiz-adv-x="572" 
d="M515 350l0.00195312 -369c0 -114.667 -53 -172 -159 -172c-38 0 -73 5 -105 15l23 97c21.333 -4.66699 40.333 -7 57 -7c19.333 0 33.166 5 41.499 15s12.5 26.333 12.5 49v333c0 34 -8.16699 60 -24.5 78s-39.833 27 -70.5 27c-30 0 -54.667 -10 -74 -30
s-29 -46 -29 -78v-308h-130v511h121v-58c34.667 50 86 75 154 75c57.333 0 102.166 -16 134.499 -48s48.5 -75.333 48.5 -130z" />
    <glyph glyph-name="Omacron" unicode="&#x14c;" horiz-adv-x="771" 
d="M736 355c1.33301 -106.667 -30.5 -195.667 -95.5 -267s-149.833 -106.333 -254.5 -105c-105.333 -1.33301 -190.5 33.5 -255.5 104.5s-96.833 160.167 -95.5 267.5c-1.33301 107.333 30.5 196.5 95.5 267.5s150.167 105.833 255.5 104.5
c104.667 1.33301 189.5 -33.667 254.5 -105s96.833 -160.333 95.5 -267zM179 355c0 -74.667 18.833 -134.667 56.5 -180s87.834 -68 150.501 -68c62 0 111.833 22.667 149.5 68s56.5 105.333 56.5 180s-18.833 134.667 -56.5 180s-87.5 68 -149.5 68
c-62.667 0 -112.834 -22.667 -150.501 -68s-56.5 -105.333 -56.5 -180zM546 884v-94h-320v94h320z" />
    <glyph glyph-name="omacron" unicode="&#x14d;" horiz-adv-x="593" 
d="M562 256c0 -80.667 -24.833 -146.167 -74.5 -196.5s-113.167 -75.5 -190.5 -75.5c-78 0 -141.833 25.167 -191.5 75.5s-74.5 115.833 -74.5 196.5s24.833 146.167 74.5 196.5s113.5 75.5 191.5 75.5c77.333 0 140.833 -25.167 190.5 -75.5s74.5 -115.833 74.5 -196.5z
M163 256c0 -49.333 12.167 -88.666 36.5 -117.999s56.833 -44 97.5 -44c40 0 72.167 14.667 96.5 44s36.5 68.666 36.5 117.999c0 48.667 -12.167 87.834 -36.5 117.501s-56.5 44.5 -96.5 44.5c-40.667 0 -73.167 -14.833 -97.5 -44.5s-36.5 -68.834 -36.5 -117.501z
M455 685v-94h-320v94h320z" />
    <glyph glyph-name="Ohungarumlaut" unicode="&#x150;" horiz-adv-x="771" 
d="M736 355c1.33301 -106.667 -30.5 -195.667 -95.5 -267s-149.833 -106.333 -254.5 -105c-105.333 -1.33301 -190.5 33.5 -255.5 104.5s-96.833 160.167 -95.5 267.5c-1.33301 107.333 30.5 196.5 95.5 267.5s150.167 105.833 255.5 104.5
c104.667 1.33301 189.5 -33.667 254.5 -105s96.833 -160.333 95.5 -267zM179 355c0 -74.667 18.833 -134.667 56.5 -180s87.834 -68 150.501 -68c62 0 111.833 22.667 149.5 68s56.5 105.333 56.5 180s-18.833 134.667 -56.5 180s-87.5 68 -149.5 68
c-62.667 0 -112.834 -22.667 -150.501 -68s-56.5 -105.333 -56.5 -180zM443 923l-98 -150h-92l69 150h121zM613 923l-98 -150h-92l69 150h121z" />
    <glyph glyph-name="ohungarumlaut" unicode="&#x151;" horiz-adv-x="593" 
d="M562 256c0 -80.667 -24.833 -146.167 -74.5 -196.5s-113.167 -75.5 -190.5 -75.5c-78 0 -141.833 25.167 -191.5 75.5s-74.5 115.833 -74.5 196.5s24.833 146.167 74.5 196.5s113.5 75.5 191.5 75.5c77.333 0 140.833 -25.167 190.5 -75.5s74.5 -115.833 74.5 -196.5z
M163 256c0 -49.333 12.167 -88.666 36.5 -117.999s56.833 -44 97.5 -44c40 0 72.167 14.667 96.5 44s36.5 68.666 36.5 117.999c0 48.667 -12.167 87.834 -36.5 117.501s-56.5 44.5 -96.5 44.5c-40.667 0 -73.167 -14.833 -97.5 -44.5s-36.5 -68.834 -36.5 -117.501z
M352 724l-98 -150h-92l69 150h121zM522 724l-98 -150h-92l69 150h121z" />
    <glyph glyph-name="OE" unicode="&#x152;" horiz-adv-x="1148" 
d="M732 118h370v-118h-510v67c-54.667 -56 -125 -84 -211 -84c-104 -1.33301 -188 33.5 -252 104.5s-95.333 160.167 -94 267.5c-1.33301 107.333 30 196.5 94 267.5s148 105.833 252 104.5c86 0 156.333 -28 211 -84v67h499v-118h-359v-166h336v-118h-336v-190zM592 355
c0 74.667 -18.833 134.667 -56.5 180s-87.5 68 -149.5 68c-62.667 0 -112.834 -22.667 -150.501 -68s-56.5 -105.333 -56.5 -180s18.833 -134.667 56.5 -180s87.834 -68 150.501 -68c62 0 111.833 22.667 149.5 68s56.5 105.333 56.5 180z" />
    <glyph glyph-name="oe" unicode="&#x153;" horiz-adv-x="966" 
d="M930 224h-366.002c4.66699 -40.667 19 -72.5 43 -95.5s56.667 -34.5 98 -34.5c29.333 0 54 5 74 15c20.667 10 46.334 28.333 77.001 55l74 -80c-35.333 -36 -71 -61.667 -107 -77s-76.333 -23 -121 -23c-90 0 -158.333 29 -205 87c-50 -58 -116.667 -87 -200 -87
c-78 0 -141.833 25.167 -191.5 75.5s-74.5 115.833 -74.5 196.5s24.833 146.167 74.5 196.5s113.5 75.5 191.5 75.5c84.667 0 151.334 -29 200.001 -87c45.333 58 110 87 194 87c76.667 0 136 -22.5 178 -67.5s63 -107.5 63 -187.5c0 -12.667 -0.666992 -29 -2 -49z
M566.998 314h239c-2 36 -13 64 -33 84s-47.667 30 -83 30c-66 0 -107 -38 -123 -114zM429.998 256c0 48.667 -12.167 87.834 -36.5 117.501s-56.5 44.5 -96.5 44.5c-40.667 0 -73.167 -14.833 -97.5 -44.5s-36.5 -68.834 -36.5 -117.501
c0 -49.333 12.167 -88.666 36.5 -117.999s56.833 -44 97.5 -44c40 0 72.167 14.667 96.5 44s36.5 68.666 36.5 117.999z" />
    <glyph glyph-name="Racute" unicode="&#x154;" horiz-adv-x="694" 
d="M670 0h-156l-170 263h-131v-263h-140v710h336c68 0 124 -20.833 168 -62.5s66 -95.5 66 -161.5c0 -52 -13.667 -96.667 -41 -134s-65 -63.333 -113 -78zM213 594v-215h171c38 0 67.667 9.33301 89 28s32 45 32 79s-10.667 60.5 -32 79.5s-51 28.5 -89 28.5h-171zM496 918
l-96 -145h-115l69 145h142z" />
    <glyph glyph-name="racute" unicode="&#x155;" horiz-adv-x="396" 
d="M387 503l-23 -114c-24.667 6.66699 -46.334 10 -65.001 10c-34.667 0 -62 -13 -82 -39s-30 -62 -30 -108v-252h-130v511h121v-75c26.667 54.667 69.334 82 128.001 82c22 0 49 -5 81 -15zM371 719l-96 -145h-115l69 145h142z" />
    <glyph glyph-name="uni0156" unicode="&#x156;" horiz-adv-x="694" 
d="M670 0h-156l-170 263h-131v-263h-140v710h336c68 0 124 -20.833 168 -62.5s66 -95.5 66 -161.5c0 -52 -13.667 -96.667 -41 -134s-65 -63.333 -113 -78zM213 594v-215h171c38 0 67.667 9.33301 89 28s32 45 32 79s-10.667 60.5 -32 79.5s-51 28.5 -89 28.5h-171zM415 -60
v-106l-72 -92h-68l66 92h-62v106h136z" />
    <glyph glyph-name="uni0157" unicode="&#x157;" horiz-adv-x="396" 
d="M387 503l-23 -114c-24.667 6.66699 -46.334 10 -65.001 10c-34.667 0 -62 -13 -82 -39s-30 -62 -30 -108v-252h-130v511h121v-75c26.667 54.667 69.334 82 128.001 82c22 0 49 -5 81 -15zM190 -60v-106l-72 -92h-68l66 92h-62v106h136z" />
    <glyph glyph-name="Rcaron" unicode="&#x158;" horiz-adv-x="694" 
d="M670 0h-156l-170 263h-131v-263h-140v710h336c68 0 124 -20.833 168 -62.5s66 -95.5 66 -161.5c0 -52 -13.667 -96.667 -41 -134s-65 -63.333 -113 -78zM213 594v-215h171c38 0 67.667 9.33301 89 28s32 45 32 79s-10.667 60.5 -32 79.5s-51 28.5 -89 28.5h-171zM528 918
l-102 -145h-163l-102 145h110l74 -90l73 90h110z" />
    <glyph glyph-name="rcaron" unicode="&#x159;" horiz-adv-x="396" 
d="M387 503l-23 -114c-24.667 6.66699 -46.334 10 -65.001 10c-34.667 0 -62 -13 -82 -39s-30 -62 -30 -108v-252h-130v511h121v-75c26.667 54.667 69.334 82 128.001 82c22 0 49 -5 81 -15zM403 719l-102 -145h-163l-102 145h110l74 -90l73 90h110z" />
    <glyph glyph-name="Sacute" unicode="&#x15a;" horiz-adv-x="645" 
d="M603 616l-81.999 -98c-41.333 34.667 -76 57.667 -104 69c-28.667 12 -62.334 18 -101.001 18c-39.333 0 -70.833 -8 -94.5 -24s-35.5 -37 -35.5 -63c0 -17.333 5.66699 -31.666 17 -42.999c12 -11.333 29 -20.333 51 -27s57 -15.667 105 -27
c94.667 -23.333 160 -49 196 -77s55 -71.333 57 -130c0 -68 -25.5 -123.5 -76.5 -166.5s-119.167 -64.5 -204.5 -64.5c-62 0 -117 9.66699 -165 29c-46.667 20 -96.667 54 -150 102l84 99c48.667 -42.667 88.667 -71 120 -85c34 -15.333 72 -23 114 -23
s75.667 8.83301 101 26.5s38 41.5 38 71.5c0 18 -5.66699 32.667 -17 44c-10.667 10.667 -24.834 19.167 -42.501 25.5s-46.5 13.833 -86.5 22.5l-34 8c-94 22.667 -158.333 49.167 -193 79.5s-52 74.166 -52 131.499c0 60 25.333 110.333 76 151s115.667 61 195 61
c58.667 0 108.667 -8.33301 150 -25c42.667 -16.667 87.334 -45 134.001 -85zM473.001 918l-96 -145h-115l69 145h142z" />
    <glyph glyph-name="sacute" unicode="&#x15b;" horiz-adv-x="509" 
d="M473 448l-70.001 -84.9971c-29.333 23.333 -55.166 39.166 -77.499 47.499s-47.5 12.5 -75.5 12.5c-26 0 -46.833 -4.66699 -62.5 -14s-23.5 -21.666 -23.5 -36.999c0 -10.667 3.66699 -19 11 -25c11.333 -8.66699 47.333 -19.667 108 -33
c74 -16.667 125.5 -36.334 154.5 -59.001s43.5 -57.334 43.5 -104.001c0 -50.667 -19.667 -91.167 -59 -121.5s-92.666 -45.5 -159.999 -45.5c-49.333 0 -92.833 7.33301 -130.5 22s-76.5 39.667 -116.5 75l75 84c36.667 -30 67.334 -50.333 92.001 -61
c25.333 -10 53 -15 83 -15c26.667 0 48.167 4.66699 64.5 14s24.5 22.666 24.5 39.999c0 14 -5 24.333 -15 31c-10.667 8.66699 -22.667 14.334 -36 17.001c-14 4 -39 10 -75 18c-72.667 16 -122.167 35.167 -148.5 57.5s-39.5 56.166 -39.5 101.499s19.167 83.333 57.5 114
s90.166 46 155.499 46c44.667 0 83.667 -6 117 -18s67.666 -32.667 102.999 -62zM410.999 719.003l-96 -145h-115l69 145h142z" />
    <glyph glyph-name="Scedilla" unicode="&#x15e;" horiz-adv-x="645" 
d="M350 -17l-21.998 -48.998c31.333 -0.666992 56.5 -8.5 75.5 -23.5s28.5 -34.5 28.5 -58.5c0 -28.667 -10.5 -51.834 -31.5 -69.501s-48.833 -26.5 -83.5 -26.5c-38 0 -76 13 -114 39l34 52c29.333 -18 56 -27 80 -27c13.333 0 24.166 2.83301 32.499 8.5
s12.5 13.167 12.5 22.5s-4.83301 16.833 -14.5 22.5s-21.5 8.5 -35.5 8.5c-10.667 0 -20 -1 -28 -3l-34 31l34 75c-50 4 -95.5 16 -136.5 36s-84.833 51 -131.5 93l84 99c48.667 -42.667 88.667 -71 120 -85c34 -15.333 72 -23 114 -23s75.667 8.83301 101 26.5
s38 41.5 38 71.5c0 18 -5.66699 32.667 -17 44c-10.667 10.667 -24.834 19.167 -42.501 25.5s-46.5 13.833 -86.5 22.5l-34 8c-94 22.667 -158.333 49.167 -193 79.5s-52 74.166 -52 131.499c0 60 25.333 110.333 76 151s115.667 61 195 61
c58.667 0 108.667 -8.33301 150 -25c42.667 -16.667 87.334 -45 134.001 -85l-82 -98c-41.333 34.667 -76 57.667 -104 69c-28.667 12 -62.334 18 -101.001 18c-39.333 0 -70.833 -8 -94.5 -24s-35.5 -37 -35.5 -63c0 -17.333 5.66699 -31.666 17 -42.999
c12 -11.333 29 -20.333 51 -27s57 -15.667 105 -27c94.667 -23.333 160 -49 196 -77s55 -71.333 57 -130c0 -66 -23.667 -120.333 -71 -163s-111 -65.334 -191 -68.001z" />
    <glyph glyph-name="scedilla" unicode="&#x15f;" horiz-adv-x="509" 
d="M282 -16l-22.999 -49.9971c31.333 -0.666992 56.5 -8.5 75.5 -23.5s28.5 -34.5 28.5 -58.5c0 -28.667 -10.5 -51.834 -31.5 -69.501s-48.833 -26.5 -83.5 -26.5c-38 0 -76 13 -114 39l34 52c29.333 -18 56 -27 80 -27c13.333 0 24.166 2.83301 32.499 8.5
s12.5 13.167 12.5 22.5s-4.83301 16.833 -14.5 22.5s-21.5 8.5 -35.5 8.5c-10.667 0 -20 -1 -28 -3l-34 31l35 76c-70 6.66699 -137 38.334 -201 95.001l75 84c36.667 -30 67.334 -50.333 92.001 -61c25.333 -10 53 -15 83 -15c26.667 0 48.167 4.66699 64.5 14
s24.5 22.666 24.5 39.999c0 14 -5 24.333 -15 31c-10.667 8.66699 -22.667 14.334 -36 17.001c-14 4 -39 10 -75 18c-72.667 16 -122.167 35.167 -148.5 57.5s-39.5 56.166 -39.5 101.499s19.167 83.333 57.5 114s90.166 46 155.499 46c44.667 0 83.667 -6 117 -18
s67.666 -32.667 102.999 -62l-70 -85c-29.333 23.333 -55.166 39.166 -77.499 47.499s-47.5 12.5 -75.5 12.5c-26 0 -46.833 -4.66699 -62.5 -14s-23.5 -21.666 -23.5 -36.999c0 -10.667 3.66699 -19 11 -25c11.333 -8.66699 47.333 -19.667 108 -33
c74 -16.667 125.5 -36.334 154.5 -59.001s43.5 -57.334 43.5 -104.001c0 -48 -17.667 -87 -53 -117s-84 -46.667 -146 -50z" />
    <glyph glyph-name="Scaron" unicode="&#x160;" horiz-adv-x="645" 
d="M603 616l-81.999 -98c-41.333 34.667 -76 57.667 -104 69c-28.667 12 -62.334 18 -101.001 18c-39.333 0 -70.833 -8 -94.5 -24s-35.5 -37 -35.5 -63c0 -17.333 5.66699 -31.666 17 -42.999c12 -11.333 29 -20.333 51 -27s57 -15.667 105 -27
c94.667 -23.333 160 -49 196 -77s55 -71.333 57 -130c0 -68 -25.5 -123.5 -76.5 -166.5s-119.167 -64.5 -204.5 -64.5c-62 0 -117 9.66699 -165 29c-46.667 20 -96.667 54 -150 102l84 99c48.667 -42.667 88.667 -71 120 -85c34 -15.333 72 -23 114 -23
s75.667 8.83301 101 26.5s38 41.5 38 71.5c0 18 -5.66699 32.667 -17 44c-10.667 10.667 -24.834 19.167 -42.501 25.5s-46.5 13.833 -86.5 22.5l-34 8c-94 22.667 -158.333 49.167 -193 79.5s-52 74.166 -52 131.499c0 60 25.333 110.333 76 151s115.667 61 195 61
c58.667 0 108.667 -8.33301 150 -25c42.667 -16.667 87.334 -45 134.001 -85zM505.001 918l-102 -145h-163l-102 145h110l74 -90l73 90h110z" />
    <glyph glyph-name="scaron" unicode="&#x161;" horiz-adv-x="509" 
d="M473 448l-70.001 -84.9971c-29.333 23.333 -55.166 39.166 -77.499 47.499s-47.5 12.5 -75.5 12.5c-26 0 -46.833 -4.66699 -62.5 -14s-23.5 -21.666 -23.5 -36.999c0 -10.667 3.66699 -19 11 -25c11.333 -8.66699 47.333 -19.667 108 -33
c74 -16.667 125.5 -36.334 154.5 -59.001s43.5 -57.334 43.5 -104.001c0 -50.667 -19.667 -91.167 -59 -121.5s-92.666 -45.5 -159.999 -45.5c-49.333 0 -92.833 7.33301 -130.5 22s-76.5 39.667 -116.5 75l75 84c36.667 -30 67.334 -50.333 92.001 -61
c25.333 -10 53 -15 83 -15c26.667 0 48.167 4.66699 64.5 14s24.5 22.666 24.5 39.999c0 14 -5 24.333 -15 31c-10.667 8.66699 -22.667 14.334 -36 17.001c-14 4 -39 10 -75 18c-72.667 16 -122.167 35.167 -148.5 57.5s-39.5 56.166 -39.5 101.499s19.167 83.333 57.5 114
s90.166 46 155.499 46c44.667 0 83.667 -6 117 -18s67.666 -32.667 102.999 -62zM442.999 719.003l-102 -145h-163l-102 145h110l74 -90l73 90h110z" />
    <glyph glyph-name="uni0162" unicode="&#x162;" horiz-adv-x="622" 
d="M381 0l-31.999 0.000976562l-30 -66c31.333 -0.666992 56.5 -8.5 75.5 -23.5s28.5 -34.5 28.5 -58.5c0 -28.667 -10.5 -51.834 -31.5 -69.501s-48.833 -26.5 -83.5 -26.5c-38 0 -76 13 -114 39l34 52c29.333 -18 56 -27 80 -27c13.333 0 24.166 2.83301 32.499 8.5
s12.5 13.167 12.5 22.5s-4.83301 16.833 -14.5 22.5s-21.5 8.5 -35.5 8.5c-10.667 0 -20 -1 -28 -3l-34 31l41 90h-41v590h-214v120h568v-120h-214v-590z" />
    <glyph glyph-name="uni0163" unicode="&#x163;" horiz-adv-x="387" 
d="M350 -148c0 -28.667 -10.499 -51.835 -31.499 -69.502s-48.833 -26.5 -83.5 -26.5c-38 0 -76 13 -114 39l34 52c29.333 -18 56 -27 80 -27c13.333 0 24.166 2.83301 32.499 8.5s12.5 13.167 12.5 22.5s-4.83301 16.833 -14.5 22.5s-21.5 8.5 -35.5 8.5
c-10.667 0 -20 -1 -28 -3l-34 31l38 82c-65.333 12.667 -98 59.334 -98 140.001v280h-91v99h91v158h130v-158h122v-99h-122v-264c0 -17.333 4 -29.5 12 -36.5s21 -10.5 39 -10.5s39.333 3 64 9l15 -103c-30.667 -9.33301 -63 -15.666 -97 -18.999l-25 -54
c31.333 -0.666992 56.5 -8.5 75.5 -23.5s28.5 -34.5 28.5 -58.5z" />
    <glyph glyph-name="Tcaron" unicode="&#x164;" horiz-adv-x="622" 
d="M595 710v-120h-214v-590h-140v590h-214v120h568zM494 918l-102 -145h-163l-102 145h110l74 -90l73 90h110z" />
    <glyph glyph-name="tcaron" unicode="&#x165;" horiz-adv-x="387" 
d="M353 110l14.999 -103.001c-37.333 -12.667 -75.666 -19 -114.999 -19c-50 0 -86.667 11.833 -110 35.5s-35 59.834 -35 108.501v280h-91v99h91v158h130v-158h122v-99h-122v-264c0 -17.333 4 -29.5 12 -36.5s21 -10.5 39 -10.5s39.333 3 64 9zM458.999 801.999l-74 -215
h-80l27 215h127z" />
    <glyph glyph-name="Tbar" unicode="&#x166;" horiz-adv-x="617" 
d="M590 590h-212v-180h126v-94h-126v-316h-140v316h-124v94h124v180h-211v120h563v-120z" />
    <glyph glyph-name="tbar" unicode="&#x167;" horiz-adv-x="387" 
d="M353 110l14.999 -103.001c-37.333 -12.667 -75.666 -19 -114.999 -19c-50 0 -86.667 11.833 -110 35.5s-35 59.834 -35 108.501v87h-91v100h91v93h-91v99h91v158h130v-158h122v-99h-122v-93h122v-100h-122v-71c0 -17.333 4 -29.5 12 -36.5s21 -10.5 39 -10.5
s39.333 3 64 9z" />
    <glyph glyph-name="Umacron" unicode="&#x16a;" horiz-adv-x="706" 
d="M638 710v-470c0 -86 -24.5 -150.333 -73.5 -193s-119.5 -64 -211.5 -64s-162.5 21.333 -211.5 64s-73.5 107 -73.5 193v470h140v-465c0 -44.667 12.167 -78.834 36.5 -102.501s60.5 -35.5 108.5 -35.5c47.333 0 83.333 11.833 108 35.5s37 57.834 37 102.501v465h140z
M513 884v-94h-320v94h320z" />
    <glyph glyph-name="umacron" unicode="&#x16b;" horiz-adv-x="564" 
d="M377 511l129.999 -0.000976562v-511h-119v54c-28.667 -46.667 -78.667 -70 -150 -70c-59.333 0 -104.333 14.333 -135 43s-46 68.334 -46 119.001v365h130v-329c0 -26.667 7.33301 -47.5 22 -62.5s35.667 -22.5 63 -22.5c32.667 0 58.334 9.16699 77.001 27.5
s28 44.5 28 78.5v308zM435.999 684.999v-94h-320v94h320z" />
    <glyph glyph-name="Uring" unicode="&#x16e;" horiz-adv-x="706" 
d="M638 710v-470c0 -86 -24.5 -150.333 -73.5 -193s-119.5 -64 -211.5 -64s-162.5 21.333 -211.5 64s-73.5 107 -73.5 193v470h140v-465c0 -44.667 12.167 -78.834 36.5 -102.501s60.5 -35.5 108.5 -35.5c47.333 0 83.333 11.833 108 35.5s37 57.834 37 102.501v465h140z
M474 828c0 -32 -12 -59.667 -36 -83c-23.333 -22.667 -52 -34 -86 -34s-62.667 11.333 -86 34c-24 23.333 -36 51 -36 83s12 59.333 36 82c23.333 22.667 52 34 86 34s62.667 -11.333 86 -34c24 -22.667 36 -50 36 -82zM292 828c0 -18 5.66699 -32.667 17 -44
s25.666 -17 42.999 -17s31.666 5.66699 42.999 17s17 26 17 44c0 17.333 -5.66699 31.666 -17 42.999s-25.666 17 -42.999 17s-31.666 -5.66699 -42.999 -17s-17 -25.666 -17 -42.999z" />
    <glyph glyph-name="uring" unicode="&#x16f;" horiz-adv-x="564" 
d="M377 511l129.999 -0.000976562v-511h-119v54c-28.667 -46.667 -78.667 -70 -150 -70c-59.333 0 -104.333 14.333 -135 43s-46 68.334 -46 119.001v365h130v-329c0 -26.667 7.33301 -47.5 22 -62.5s35.667 -22.5 63 -22.5c32.667 0 58.334 9.16699 77.001 27.5
s28 44.5 28 78.5v308zM397.999 688.999c0 -32.667 -12 -60.334 -36 -83.001c-23.333 -22.667 -52 -34 -86 -34s-62.667 11.333 -86 34c-24 22.667 -36 50.334 -36 83.001c0 31.333 12 58.666 36 81.999c23.333 22.667 52 34 86 34s62.667 -11.333 86 -34
c24 -23.333 36 -50.666 36 -81.999zM215.999 688.999c0 -18 5.66699 -32.667 17 -44s25.666 -17 42.999 -17s31.666 5.66699 42.999 17s17 26 17 44c0 17.333 -5.66699 31.666 -17 42.999s-25.666 17 -42.999 17s-31.666 -5.66699 -42.999 -17s-17 -25.666 -17 -42.999z" />
    <glyph glyph-name="Uhungarumlaut" unicode="&#x170;" horiz-adv-x="706" 
d="M638 710v-470c0 -86 -24.5 -150.333 -73.5 -193s-119.5 -64 -211.5 -64s-162.5 21.333 -211.5 64s-73.5 107 -73.5 193v470h140v-465c0 -44.667 12.167 -78.834 36.5 -102.501s60.5 -35.5 108.5 -35.5c47.333 0 83.333 11.833 108 35.5s37 57.834 37 102.501v465h140z
M410 923l-98 -150h-92l69 150h121zM580 923l-98 -150h-92l69 150h121z" />
    <glyph glyph-name="uhungarumlaut" unicode="&#x171;" horiz-adv-x="564" 
d="M377 511l129.999 -0.000976562v-511h-119v54c-28.667 -46.667 -78.667 -70 -150 -70c-59.333 0 -104.333 14.333 -135 43s-46 68.334 -46 119.001v365h130v-329c0 -26.667 7.33301 -47.5 22 -62.5s35.667 -22.5 63 -22.5c32.667 0 58.334 9.16699 77.001 27.5
s28 44.5 28 78.5v308zM332.999 723.999l-98 -150h-92l69 150h121zM502.999 723.999l-98 -150h-92l69 150h121z" />
    <glyph glyph-name="Uogonek" unicode="&#x172;" horiz-adv-x="706" 
d="M498 710l140 -0.000976562v-468c0 -56 -9 -100.667 -27 -134c-17.333 -33.333 -46.666 -64.666 -87.999 -93.999c-60.667 -43.333 -91 -82.333 -91 -117c0 -24 16 -36 48 -36c12 0 22 1.33301 30 4v-75c-12 -5.33301 -28.333 -8 -49 -8
c-38.667 0 -68.334 8.5 -89.001 25.5s-31 39.5 -31 67.5c0 38 16 74.333 48 109c-5.33301 -0.666992 -17.333 -1 -36 -1c-92 0 -162.5 21.333 -211.5 64s-73.5 107 -73.5 193v470h140v-465c0 -44.667 12.167 -78.834 36.5 -102.501s60.5 -35.5 108.5 -35.5
c47.333 0 83.333 11.833 108 35.5s37 57.834 37 102.501v465z" />
    <glyph glyph-name="uogonek" unicode="&#x173;" horiz-adv-x="564" 
d="M421 -103c0 -24 16.332 -36.002 48.999 -36.002c11.333 0 21 1.33301 29 4v-75c-12 -5.33301 -28.333 -8 -49 -8c-38.667 0 -68.167 8.16699 -88.5 24.5s-30.5 38.833 -30.5 67.5c0 45.333 24 87.333 72 126h-15v54c-28.667 -46.667 -78.667 -70 -150 -70
c-59.333 0 -104.333 14.333 -135 43s-46 68.334 -46 119.001v365h130v-329c0 -26.667 7.33301 -47.5 22 -62.5s35.667 -22.5 63 -22.5c32.667 0 58.334 9.16699 77.001 27.5s28 44.5 28 78.5v308h130v-511c-57.333 -35.333 -86 -69.666 -86 -102.999z" />
    <glyph glyph-name="Wcircumflex" unicode="&#x174;" horiz-adv-x="971" 
d="M808 710l137.998 -0.000976562l-172 -710h-161l-70 274c-24.667 100.667 -43.667 182.334 -57 245.001c-14 -65.333 -33.333 -147 -58 -245l-70 -274h-160l-173 710h142l71 -306c20.667 -90.667 36.334 -168 47.001 -232c24 108 42.333 185.333 55 232l81 306h136
l79 -306c16.667 -64 34.667 -142.667 54 -236c16.667 95.333 32.334 174 47.001 236zM558.998 772.999l-73 90l-74 -90h-110l102 145h163l102 -145h-110z" />
    <glyph glyph-name="wcircumflex" unicode="&#x175;" horiz-adv-x="792" 
d="M644 511h134.001l-142 -511h-154l-38 139c-13.333 50 -30 119.333 -50 208c-16.667 -84 -32.334 -153.333 -47.001 -208l-36 -139h-155l-142 511h137l41 -168c16 -66.667 32.333 -141.667 49 -225c19.333 92 36.666 167 51.999 225l44 168h120l44 -168
c18.667 -72 36.334 -147.667 53.001 -227c16.667 84 33 159.667 49 227zM471.001 574l-73 90l-74 -90h-110l102 145h163l102 -145h-110z" />
    <glyph glyph-name="Ycircumflex" unicode="&#x176;" horiz-adv-x="657" 
d="M500 710h149l-251 -412v-298h-140v299l-250 411h154l169 -288zM402 773l-73 90l-74 -90h-110l102 145h163l102 -145h-110z" />
    <glyph glyph-name="ycircumflex" unicode="&#x177;" horiz-adv-x="521" 
d="M379 511l132 -0.000976562l-197 -568c-17.333 -49.333 -39.5 -84.666 -66.5 -105.999s-63.833 -32 -110.5 -32c-37.333 0 -70 4.33301 -98 13l22 97c20.667 -4 40.667 -6 60 -6c40 0 67 21.333 81 64l-192 538h136l45 -134c36.667 -109.333 61 -186 73 -230l71 231z
M334 573.999l-73 90l-74 -90h-110l102 145h163l102 -145h-110z" />
    <glyph glyph-name="Ydieresis" unicode="&#x178;" horiz-adv-x="657" 
d="M500 710h149l-251 -412v-298h-140v299l-250 411h154l169 -288zM293 909v-122h-125v122h125zM490 909v-122h-125v122h125z" />
    <glyph glyph-name="Zacute" unicode="&#x179;" horiz-adv-x="641" 
d="M597 710v-115l-385 -477h384v-118h-552v115l385 477h-371v118h539zM483 918l-96 -145h-115l69 145h142z" />
    <glyph glyph-name="zacute" unicode="&#x17a;" horiz-adv-x="498" 
d="M458 511v-98l-263 -307h263v-106h-424v98l265 308h-249v105h408zM398 719l-96 -145h-115l69 145h142z" />
    <glyph glyph-name="Zdotaccent" unicode="&#x17b;" horiz-adv-x="641" 
d="M597 710v-115l-385 -477h384v-118h-552v115l385 477h-371v118h539zM397 909v-122h-130v122h130z" />
    <glyph glyph-name="zdotaccent" unicode="&#x17c;" horiz-adv-x="498" 
d="M458 511v-98l-263 -307h263v-106h-424v98l265 308h-249v105h408zM312 710v-122h-130v122h130z" />
    <glyph glyph-name="Zcaron" unicode="&#x17d;" horiz-adv-x="641" 
d="M597 710v-115l-385 -477h384v-118h-552v115l385 477h-371v118h539zM515 918l-102 -145h-163l-102 145h110l74 -90l73 90h110z" />
    <glyph glyph-name="zcaron" unicode="&#x17e;" horiz-adv-x="498" 
d="M458 511v-98l-263 -307h263v-106h-424v98l265 308h-249v105h408zM430 719l-102 -145h-163l-102 145h110l74 -90l73 90h110z" />
    <glyph glyph-name="florin" unicode="&#x192;" 
d="M346 481h119.001v-99h-119v-405c0 -114.667 -53 -172 -159 -172c-38 0 -73 5 -105 15l23 97c21.333 -4.66699 40.333 -7 57 -7c19.333 0 33.166 5 41.499 15s12.5 26.333 12.5 49v408h-103v99h103v49c0 110.667 55.333 166 166 166c36.667 0 73 -6 109 -18l-23 -97
c-25.333 5.33301 -45.333 8 -60 8c-22 0 -37.833 -5 -47.5 -15s-14.5 -27 -14.5 -51v-42z" />
    <glyph glyph-name="uni0218" unicode="&#x218;" horiz-adv-x="645" 
d="M603 616l-81.999 -98c-41.333 34.667 -76 57.667 -104 69c-28.667 12 -62.334 18 -101.001 18c-39.333 0 -70.833 -8 -94.5 -24s-35.5 -37 -35.5 -63c0 -17.333 5.66699 -31.666 17 -42.999c12 -11.333 29 -20.333 51 -27s57 -15.667 105 -27
c94.667 -23.333 160 -49 196 -77s55 -71.333 57 -130c0 -68 -25.5 -123.5 -76.5 -166.5s-119.167 -64.5 -204.5 -64.5c-62 0 -117 9.66699 -165 29c-46.667 20 -96.667 54 -150 102l84 99c48.667 -42.667 88.667 -71 120 -85c34 -15.333 72 -23 114 -23
s75.667 8.83301 101 26.5s38 41.5 38 71.5c0 18 -5.66699 32.667 -17 44c-10.667 10.667 -24.834 19.167 -42.501 25.5s-46.5 13.833 -86.5 22.5l-34 8c-94 22.667 -158.333 49.167 -193 79.5s-52 74.166 -52 131.499c0 60 25.333 110.333 76 151s115.667 61 195 61
c58.667 0 108.667 -8.33301 150 -25c42.667 -16.667 87.334 -45 134.001 -85zM390.001 -60v-106l-72 -92h-68l66 92h-62v106h136z" />
    <glyph glyph-name="uni0219" unicode="&#x219;" horiz-adv-x="509" 
d="M473 448l-70.001 -84.9971c-29.333 23.333 -55.166 39.166 -77.499 47.499s-47.5 12.5 -75.5 12.5c-26 0 -46.833 -4.66699 -62.5 -14s-23.5 -21.666 -23.5 -36.999c0 -10.667 3.66699 -19 11 -25c11.333 -8.66699 47.333 -19.667 108 -33
c74 -16.667 125.5 -36.334 154.5 -59.001s43.5 -57.334 43.5 -104.001c0 -50.667 -19.667 -91.167 -59 -121.5s-92.666 -45.5 -159.999 -45.5c-49.333 0 -92.833 7.33301 -130.5 22s-76.5 39.667 -116.5 75l75 84c36.667 -30 67.334 -50.333 92.001 -61
c25.333 -10 53 -15 83 -15c26.667 0 48.167 4.66699 64.5 14s24.5 22.666 24.5 39.999c0 14 -5 24.333 -15 31c-10.667 8.66699 -22.667 14.334 -36 17.001c-14 4 -39 10 -75 18c-72.667 16 -122.167 35.167 -148.5 57.5s-39.5 56.166 -39.5 101.499s19.167 83.333 57.5 114
s90.166 46 155.499 46c44.667 0 83.667 -6 117 -18s67.666 -32.667 102.999 -62zM320.999 -59.9971v-106l-72 -92h-68l66 92h-62v106h136z" />
    <glyph glyph-name="uni021A" unicode="&#x21a;" horiz-adv-x="622" 
d="M595 710v-120h-214v-590h-140v590h-214v120h568zM381 -60v-106l-72 -92h-68l66 92h-62v106h136z" />
    <glyph glyph-name="uni021B" unicode="&#x21b;" horiz-adv-x="387" 
d="M353 110l14.999 -103.001c-37.333 -12.667 -75.666 -19 -114.999 -19c-50 0 -86.667 11.833 -110 35.5s-35 59.834 -35 108.501v280h-91v99h91v158h130v-158h122v-99h-122v-264c0 -17.333 4 -29.5 12 -36.5s21 -10.5 39 -10.5s39.333 3 64 9zM307.999 -60.001v-106
l-72 -92h-68l66 92h-62v106h136z" />
    <glyph glyph-name="uni0237" unicode="&#x237;" horiz-adv-x="248" 
d="M7 -86c19.333 0 33.167 5 41.5 15s12.5 26.333 12.5 49v533h130v-530c0 -114.667 -53 -172 -159 -172c-38 0 -73 5 -105 15l23 97c21.333 -4.66699 40.333 -7 57 -7z" />
    <glyph glyph-name="circumflex" unicode="&#x2c6;" horiz-adv-x="467" 
d="M307 574l-73 90l-74 -90h-110l102 145h163l102 -145h-110z" />
    <glyph glyph-name="caron" unicode="&#x2c7;" horiz-adv-x="467" 
d="M417 719l-102 -145h-163l-102 145h110l74 -90l73 90h110z" />
    <glyph glyph-name="breve" unicode="&#x2d8;" horiz-adv-x="428" 
d="M50 712h90c0 -21.333 6.5 -38.166 19.5 -50.499s31.167 -18.5 54.5 -18.5s41.5 6.16699 54.5 18.5s19.5 29.166 19.5 50.499h90c0 -46.667 -15.167 -83 -45.5 -109s-69.833 -39 -118.5 -39s-88.167 13 -118.5 39s-45.5 62.333 -45.5 109z" />
    <glyph glyph-name="dotaccent" unicode="&#x2d9;" horiz-adv-x="230" 
d="M180 710v-122h-130v122h130z" />
    <glyph glyph-name="ring" unicode="&#x2da;" horiz-adv-x="344" 
d="M294 689c0 -32.667 -12 -60.334 -36 -83.001c-23.333 -22.667 -52 -34 -86 -34s-62.667 11.333 -86 34c-24 22.667 -36 50.334 -36 83.001c0 31.333 12 58.666 36 81.999c23.333 22.667 52 34 86 34s62.667 -11.333 86 -34c24 -23.333 36 -50.666 36 -81.999zM112 689
c0 -18 5.66699 -32.667 17 -44s25.666 -17 42.999 -17s31.666 5.66699 42.999 17s17 26 17 44c0 17.333 -5.66699 31.666 -17 42.999s-25.666 17 -42.999 17s-31.666 -5.66699 -42.999 -17s-17 -25.666 -17 -42.999z" />
    <glyph glyph-name="ogonek" unicode="&#x2db;" horiz-adv-x="276" 
d="M155 24l71 -24.001c-57.333 -35.333 -86 -69.666 -86 -102.999c0 -24 16.333 -36 49 -36c11.333 0 21 1.33301 29 4v-75c-12 -5.33301 -28.333 -8 -49 -8c-38.667 0 -68.167 8.16699 -88.5 24.5s-30.5 38.833 -30.5 67.5c0 54.667 35 104.667 105 150z" />
    <glyph glyph-name="tilde" unicode="&#x2dc;" horiz-adv-x="446" 
d="M238 676c24 -13.333 41.333 -19.999 52 -19.999c10 0 18 4.5 24 13.5s9 20.833 9 35.5h73c0 -40.667 -9 -72.334 -27 -95.001s-41.667 -34 -71 -34c-20 0 -47.667 9.33301 -83 28c-27.333 14 -46.333 21 -57 21c-10 0 -18.167 -4.66699 -24.5 -14s-9.5 -21 -9.5 -35h-74
c0 40 9.83301 71.5 29.5 94.5s44.5 34.5 74.5 34.5c27.333 0 55.333 -9.66699 84 -29z" />
    <glyph glyph-name="hungarumlaut" unicode="&#x2dd;" horiz-adv-x="460" 
d="M240 724l-98 -150h-92l69 150h121zM410 724l-98 -150h-92l69 150h121z" />
    <glyph glyph-name="gravecomb" unicode="&#x300;" horiz-adv-x="0" 
d="M-299 719h142l69 -145h-115z" />
    <glyph glyph-name="acutecomb" unicode="&#x301;" horiz-adv-x="0" 
d="M-80 719l-96 -145h-115l69 145h142z" />
    <glyph glyph-name="uni0302" unicode="&#x302;" horiz-adv-x="0" 
d="M-191 574l-73 90l-74 -90h-110l102 145h163l102 -145h-110z" />
    <glyph glyph-name="tildecomb" unicode="&#x303;" horiz-adv-x="0" 
d="M-255 676c24 -13.333 41.333 -19.999 52 -19.999c10 0 18 4.5 24 13.5s9 20.833 9 35.5h73c0 -40.667 -9 -72.334 -27 -95.001s-41.667 -34 -71 -34c-20 0 -47.667 9.33301 -83 28c-27.333 14 -46.333 21 -57 21c-10 0 -18.167 -4.66699 -24.5 -14s-9.5 -21 -9.5 -35h-74
c0 40 9.83301 71.5 29.5 94.5s44.5 34.5 74.5 34.5c27.333 0 55.333 -9.66699 84 -29z" />
    <glyph glyph-name="uni0304" unicode="&#x304;" horiz-adv-x="0" 
d="M-83 685v-94h-320v94h320z" />
    <glyph glyph-name="uni0306" unicode="&#x306;" horiz-adv-x="0" 
d="M-425 712h90c0 -21.333 6.5 -38.166 19.5 -50.499s31.167 -18.5 54.5 -18.5s41.5 6.16699 54.5 18.5s19.5 29.166 19.5 50.499h90c0 -46.667 -15.167 -83 -45.5 -109s-69.833 -39 -118.5 -39s-88.167 13 -118.5 39s-45.5 62.333 -45.5 109z" />
    <glyph glyph-name="uni0307" unicode="&#x307;" horiz-adv-x="0" 
d="M-100 710v-122h-130v122h130z" />
    <glyph glyph-name="uni0308" unicode="&#x308;" horiz-adv-x="0" 
d="M-296 710v-122h-125v122h125zM-99 710v-122h-125v122h125z" />
    <glyph glyph-name="uni030A" unicode="&#x30a;" horiz-adv-x="0" 
d="M-107 689c0 -32.667 -12 -60.334 -36 -83.001c-23.333 -22.667 -52 -34 -86 -34s-62.667 11.333 -86 34c-24 22.667 -36 50.334 -36 83.001c0 31.333 12 58.666 36 81.999c23.333 22.667 52 34 86 34s62.667 -11.333 86 -34c24 -23.333 36 -50.666 36 -81.999zM-289 689
c0 -18 5.66699 -32.667 17 -44s25.666 -17 42.999 -17s31.666 5.66699 42.999 17s17 26 17 44c0 17.333 -5.66699 31.666 -17 42.999s-25.666 17 -42.999 17s-31.666 -5.66699 -42.999 -17s-17 -25.666 -17 -42.999z" />
    <glyph glyph-name="uni030B" unicode="&#x30b;" horiz-adv-x="0" 
d="M-259 724l-98 -150h-92l69 150h121zM-89 724l-98 -150h-92l69 150h121z" />
    <glyph glyph-name="uni030C" unicode="&#x30c;" horiz-adv-x="0" 
d="M-92 719l-102 -145h-163l-102 145h110l74 -90l73 90h110z" />
    <glyph glyph-name="uni0326" unicode="&#x326;" horiz-adv-x="0" 
d="M-100 -60v-106l-72 -92h-68l66 92h-62v106h136z" />
    <glyph glyph-name="uni0327" unicode="&#x327;" horiz-adv-x="0" 
d="M-93 -148c0 -28.667 -10.499 -51.833 -31.499 -69.5s-48.833 -26.5 -83.5 -26.5c-38 0 -76 13 -114 39l34 52c29.333 -18 56 -27 80 -27c13.333 0 24.166 2.83301 32.499 8.5s12.5 13.167 12.5 22.5s-4.83301 16.833 -14.5 22.5s-21.5 8.5 -35.5 8.5
c-10.667 0 -20 -1 -28 -3l-34 31l51 111l57 -21l-30 -66c31.333 -0.666992 56.5 -8.5 75.5 -23.5s28.5 -34.5 28.5 -58.5z" />
    <glyph glyph-name="uni0328" unicode="&#x328;" horiz-adv-x="0" 
d="M-153 24l71 -24.001c-57.333 -35.333 -86 -69.666 -86 -102.999c0 -24 16.333 -36 49 -36c11.333 0 21 1.33301 29 4v-75c-12 -5.33301 -28.333 -8 -49 -8c-38.667 0 -68.167 8.16699 -88.5 24.5s-30.5 38.833 -30.5 67.5c0 54.667 35 104.667 105 150z" />
    <glyph glyph-name="uni037E" unicode="&#x37e;" horiz-adv-x="282" 
d="M223 145v-145l-80 -148h-73l70 148h-67v145h150zM217 511v-145h-142v145h142z" />
    <glyph glyph-name="tonos" unicode="&#x384;" horiz-adv-x="379" 
d="M213 579h-111l37 149h141z" />
    <glyph glyph-name="dieresistonos" unicode="&#x385;" horiz-adv-x="507" 
d="M200 586l18 142h127l-52 -142h-93zM58 586v106h115v-106h-115zM352 586v106h114v-106h-114z" />
    <glyph glyph-name="Alphatonos" unicode="&#x386;" horiz-adv-x="712" 
d="M557 0l-48 142h-309l-49 -142h-141l254 710h184l254 -710h-145zM240 258l229.001 -0.000976562l-28 82l-17 50c-32 90.667 -55.333 161.334 -70 212.001c-12.667 -43.333 -38.334 -121.333 -77.001 -234l-10 -30zM110.001 560.999h-111l37 149h141z" />
    <glyph glyph-name="anoteleia" unicode="&#x387;" horiz-adv-x="242" 
d="M192 404v-145h-142v145h142z" />
    <glyph glyph-name="Epsilontonos" unicode="&#x388;" horiz-adv-x="628" 
d="M572 710v-118h-359v-166h336v-118h-336v-190h370v-118h-510v710h499zM-25 561h-111l37 149h141z" />
    <glyph glyph-name="Etatonos" unicode="&#x389;" horiz-adv-x="740" 
d="M670 710v-710h-140v314h-317v-314h-140v710h140v-278h317v278h140zM-25 561h-111l37 149h141z" />
    <glyph glyph-name="Iotatonos" unicode="&#x38a;" horiz-adv-x="298" 
d="M220 710v-710h-140v710h140zM-25 561h-111l37 149h141z" />
    <glyph glyph-name="Omicrontonos" unicode="&#x38c;" horiz-adv-x="769" 
d="M736 355c1.33301 -106.667 -30.5 -195.667 -95.5 -267s-149.833 -106.333 -254.5 -105c-105.333 -1.33301 -190.5 33.5 -255.5 104.5s-96.833 160.167 -95.5 267.5c-1.33301 107.333 30.5 196.5 95.5 267.5s150.167 105.833 255.5 104.5
c104.667 1.33301 189.5 -33.667 254.5 -105s96.833 -160.333 95.5 -267zM179 355c0 -74.667 18.833 -134.667 56.5 -180s87.834 -68 150.501 -68c62 0 111.833 22.667 149.5 68s56.5 105.333 56.5 180s-18.833 134.667 -56.5 180s-87.5 68 -149.5 68
c-62.667 0 -112.834 -22.667 -150.501 -68s-56.5 -105.333 -56.5 -180zM12 561h-111l37 149h141z" />
    <glyph glyph-name="Upsilontonos" unicode="&#x38e;" horiz-adv-x="654" 
d="M500 710h149l-251 -412v-298h-140v299l-250 411h154l169 -288zM-71 561h-111l37 149h141z" />
    <glyph glyph-name="Omegatonos" unicode="&#x38f;" horiz-adv-x="769" 
d="M624 118h108v-118h-281v118c92.667 42.667 139 123.667 139 243c0 73.333 -18.5 132 -55.5 176s-86.833 66 -149.5 66c-62 0 -111.833 -22 -149.5 -66s-56.5 -102.667 -56.5 -176c0 -119.333 46.333 -200.333 139 -243v-118h-281v118h109
c-73.333 57.333 -110 139 -110 245s31.833 193.167 95.5 261.5s148.167 102.5 253.5 102.5s189.833 -34.167 253.5 -102.5s95.5 -155.5 95.5 -261.5s-36.667 -187.667 -110 -245zM12 561h-111l37 149h141z" />
    <glyph glyph-name="iotadieresistonos" unicode="&#x390;" horiz-adv-x="244" 
d="M187 0h-130v511h130v-511zM69 586l18 142h127l-52 -142h-93zM-73 586v106h115v-106h-115zM221 586v106h114v-106h-114z" />
    <glyph glyph-name="Alpha" unicode="&#x391;" horiz-adv-x="712" 
d="M557 0l-48 142h-309l-49 -142h-141l254 710h184l254 -710h-145zM240 258l229.001 -0.000976562l-28 82l-17 50c-32 90.667 -55.333 161.334 -70 212.001c-12.667 -43.333 -38.334 -121.333 -77.001 -234l-10 -30z" />
    <glyph glyph-name="Beta" unicode="&#x392;" horiz-adv-x="683" 
d="M650 200c0 -62 -19.667 -110.833 -59 -146.5s-93 -53.5 -161 -53.5h-357v710h338c62.667 0 114 -16 154 -48s60 -77 60 -135c0 -38 -9.66699 -70.167 -29 -96.5s-46.333 -45.5 -81 -57.5c90 -28 135 -85.667 135 -173zM213 602v-178h164c36 0 63.667 8.16699 83 24.5
s29 38.833 29 67.5c0 57.333 -37 86 -111 86h-165zM510 211c0 32.667 -11.333 58.167 -34 76.5s-54.667 27.5 -96 27.5h-167v-207h167c42 0 74.167 9 96.5 27s33.5 43.333 33.5 76z" />
    <glyph glyph-name="Gamma" unicode="&#x393;" horiz-adv-x="577" 
d="M550 592h-337v-592h-140v710h477v-118z" />
    <glyph glyph-name="uni0394" unicode="&#x394;" horiz-adv-x="712" 
d="M448 710l255 -710h-693l254 710h184zM190 116h328.001l-76 224c-0.666992 2.66699 -1.5 5.33398 -2.5 8.00098s-2 5 -3 7s-1.5 3.33301 -1.5 4l-38 112c-18.667 55.333 -33.334 101.666 -44.001 138.999c-16.667 -61.333 -45.667 -152 -87 -272z" />
    <glyph glyph-name="Epsilon" unicode="&#x395;" horiz-adv-x="629" 
d="M572 710v-118h-359v-166h336v-118h-336v-190h370v-118h-510v710h499z" />
    <glyph glyph-name="Zeta" unicode="&#x396;" horiz-adv-x="641" 
d="M597 710v-115l-385 -477h384v-118h-552v115l385 477h-371v118h539z" />
    <glyph glyph-name="Eta" unicode="&#x397;" horiz-adv-x="743" 
d="M670 710v-710h-140v314h-317v-314h-140v710h140v-278h317v278h140z" />
    <glyph glyph-name="Theta" unicode="&#x398;" horiz-adv-x="779" 
d="M745 355c1.33301 -108.667 -31 -198.167 -97 -268.5s-152 -104.833 -258 -103.5c-106 -1.33301 -192.167 33.167 -258.5 103.5s-98.833 159.833 -97.5 268.5c-1.33301 108.667 31.167 198.167 97.5 268.5s152.5 104.833 258.5 103.5c106 1.33301 192 -33.167 258 -103.5
s98.333 -159.833 97 -268.5zM179 355c0 -74.667 19.333 -134.667 58 -180s89.667 -68 153 -68s114.166 22.667 152.499 68s57.5 105.333 57.5 180s-19.167 134.667 -57.5 180s-89.166 68 -152.499 68s-114.333 -22.667 -153 -68s-58 -105.333 -58 -180zM252 423h274v-115
h-274v115z" />
    <glyph glyph-name="Iota" unicode="&#x399;" horiz-adv-x="300" 
d="M220 710v-710h-140v710h140z" />
    <glyph glyph-name="Kappa" unicode="&#x39a;" horiz-adv-x="696" 
d="M536 0l-212 337l-111 -116v-221h-140v710h140v-318l293 318h174l-262 -274l276 -436h-158z" />
    <glyph glyph-name="Lambda" unicode="&#x39b;" horiz-adv-x="666" 
d="M421 710l234 -709.998h-145l-109 340c-20.667 65.333 -44 143.666 -70 234.999c-20.667 -74.667 -43.667 -152.334 -69 -233.001l-108 -342h-143l235 710h175z" />
    <glyph glyph-name="Mu" unicode="&#x39c;" horiz-adv-x="911" 
d="M621 710h217v-710h-136v360c0 12 0.666992 66 2 162l1 79c-12 -44 -36.333 -124.333 -73 -241l-114 -360h-122l-116 360c-8.66699 29.333 -18.667 60 -30 92c-14.667 44 -30 92.667 -46 146c2 -78.667 3 -158 3 -238v-360h-134v710h220l93 -289
c30.667 -95.333 54.667 -176 72 -242c15.333 62 39 142.667 71 242z" />
    <glyph glyph-name="Nu" unicode="&#x39d;" horiz-adv-x="745" 
d="M536 710h136v-710h-149l-180 288l-20 32c-56 90.667 -96 157.667 -120 201c4 -83.333 6 -175.333 6 -276v-245h-136v710h152l191 -306l27 -45c41.333 -66.667 74 -121 98 -163c-3.33301 70 -5 155.333 -5 256v258z" />
    <glyph glyph-name="Xi" unicode="&#x39e;" horiz-adv-x="662" 
d="M55 585v125h552v-125h-552zM92 305v124h478v-124h-478zM46 0v125h570v-125h-570z" />
    <glyph glyph-name="Omicron" unicode="&#x39f;" horiz-adv-x="771" 
d="M736 355c1.33301 -106.667 -30.5 -195.667 -95.5 -267s-149.833 -106.333 -254.5 -105c-105.333 -1.33301 -190.5 33.5 -255.5 104.5s-96.833 160.167 -95.5 267.5c-1.33301 107.333 30.5 196.5 95.5 267.5s150.167 105.833 255.5 104.5
c104.667 1.33301 189.5 -33.667 254.5 -105s96.833 -160.333 95.5 -267zM179 355c0 -74.667 18.833 -134.667 56.5 -180s87.834 -68 150.501 -68c62 0 111.833 22.667 149.5 68s56.5 105.333 56.5 180s-18.833 134.667 -56.5 180s-87.5 68 -149.5 68
c-62.667 0 -112.834 -22.667 -150.501 -68s-56.5 -105.333 -56.5 -180z" />
    <glyph glyph-name="Pi" unicode="&#x3a0;" horiz-adv-x="730" 
d="M657 0h-140v592h-304v-592h-140v710h584v-710z" />
    <glyph glyph-name="Rho" unicode="&#x3a1;" horiz-adv-x="682" 
d="M649 486c0 -67.333 -21.167 -121.333 -63.5 -162s-99.166 -61 -170.499 -61h-202v-263h-140v710h342c71.333 0 128.166 -20.5 170.499 -61.5s63.5 -95.167 63.5 -162.5zM390 594h-176.999v-215h177c37.333 0 66.666 9.33301 87.999 28s32 45 32 79s-10.5 60.5 -31.5 79.5
s-50.5 28.5 -88.5 28.5z" />
    <glyph glyph-name="Sigma" unicode="&#x3a3;" horiz-adv-x="616" 
d="M209 118h367v-118h-532v115l203 249l-195 228v118h520v-118h-351l191 -227z" />
    <glyph glyph-name="Tau" unicode="&#x3a4;" horiz-adv-x="622" 
d="M595 710v-120h-214v-590h-140v590h-214v120h568z" />
    <glyph glyph-name="Upsilon" unicode="&#x3a5;" horiz-adv-x="657" 
d="M500 710h149l-251 -412v-298h-140v299l-250 411h154l169 -288z" />
    <glyph glyph-name="Phi" unicode="&#x3a6;" horiz-adv-x="853" 
d="M497 56v-64h-141v64c-102.667 6.66699 -182.167 37.334 -238.5 92.001s-84.5 125.334 -84.5 212.001s28.167 157.334 84.5 212.001s135.833 85.334 238.5 92.001v54h141v-54c102.667 -6.66699 182.167 -37.334 238.5 -92.001s84.5 -125.334 84.5 -212.001
s-28.167 -157.334 -84.5 -212.001s-135.833 -85.334 -238.5 -92.001zM358 167v385.001c-59.333 -6.66699 -104.833 -26.334 -136.5 -59.001s-47.5 -77 -47.5 -133s15.667 -100.333 47 -133s77 -52.667 137 -60zM678 360.001c0 55.333 -15.6689 99.332 -47.002 131.999
s-76.666 52.667 -135.999 60v-384c58.667 6.66699 103.834 26.334 135.501 59.001s47.5 77 47.5 133z" />
    <glyph glyph-name="Chi" unicode="&#x3a7;" horiz-adv-x="705" 
d="M695 0h-157l-186 275l-187 -275h-155l258 377l-231 333h158l159 -235l158 235h156l-232 -334z" />
    <glyph glyph-name="Psi" unicode="&#x3a8;" horiz-adv-x="849" 
d="M643 710h140v-289c0 -88.667 -23.167 -155.834 -69.5 -201.501s-119.5 -70.834 -219.5 -75.501v-144h-140v144c-100 4.66699 -173.167 29.834 -219.5 75.501s-69.5 112.834 -69.5 201.501v289h140v-285c0 -50.667 11.833 -88.5 35.5 -113.5s61.5 -40.167 113.5 -45.5v444
h140v-444c52 5.33301 89.833 20.5 113.5 45.5s35.5 62.833 35.5 113.5v285z" />
    <glyph glyph-name="uni03A9" unicode="&#x3a9;" horiz-adv-x="769" 
d="M624 118h108v-118h-281v118c92.667 42.667 139 123.667 139 243c0 73.333 -18.5 132 -55.5 176s-86.833 66 -149.5 66c-62 0 -111.833 -22 -149.5 -66s-56.5 -102.667 -56.5 -176c0 -119.333 46.333 -200.333 139 -243v-118h-281v118h109
c-73.333 57.333 -110 139 -110 245s31.833 193.167 95.5 261.5s148.167 102.5 253.5 102.5s189.833 -34.167 253.5 -102.5s95.5 -155.5 95.5 -261.5s-36.667 -187.667 -110 -245z" />
    <glyph glyph-name="Iotadieresis" unicode="&#x3aa;" horiz-adv-x="300" 
d="M220 710v-710h-140v710h140zM114 909v-122h-125v122h125zM311 909v-122h-125v122h125z" />
    <glyph glyph-name="Upsilondieresis" unicode="&#x3ab;" horiz-adv-x="657" 
d="M500 710h149l-251 -412v-298h-140v299l-250 411h154l169 -288zM293 909v-122h-125v122h125zM490 909v-122h-125v122h125z" />
    <glyph glyph-name="alphatonos" unicode="&#x3ac;" horiz-adv-x="600" 
d="M422 511l120.999 -0.000976562v-511h-121v67c-36 -54.667 -90.667 -82 -164 -82c-66.667 0 -121.167 24.833 -163.5 74.5s-63.5 114.834 -63.5 195.501s21.333 146 64 196s97 75 163 75c74.667 0 129.334 -27 164.001 -81v66zM416.999 254.999
c0 48 -11.835 86.5 -35.502 115.5s-54.5 43.5 -92.5 43.5c-37.333 0 -67.666 -14.5 -90.999 -43.5s-35 -67.5 -35 -115.5c0 -48.667 11.333 -87.5 34 -116.5s53.334 -43.5 92.001 -43.5c38 0 68.833 14.667 92.5 44s35.5 68 35.5 116zM342.997 578.999h-111l37 149h141z" />
    <glyph glyph-name="epsilontonos" unicode="&#x3ad;" horiz-adv-x="528" 
d="M447 155l70.001 -82c-68 -59.333 -148.667 -89 -242 -89c-80 0 -140.667 13.333 -182 40s-62 65.334 -62 116.001c0 62 33.667 105.333 101 130c-54 25.333 -81 63.666 -81 114.999c0 44 20.667 78.833 62 104.5s97.333 38.5 168 38.5c49.333 0 91.5 -6 126.5 -18
s70.5 -32.667 106.5 -62l-69 -84c-52.667 40.667 -106.334 61 -161.001 61c-33.333 0 -58.5 -5.16699 -75.5 -15.5s-25.5 -23.5 -25.5 -39.5c0 -38 29.333 -57 88 -57h81v-92h-80c-72.667 0 -109 -21.667 -109 -65c0 -42 37.333 -63 112 -63c66 0 123.333 20.667 172 62z
M346.001 579h-111l37 149h141z" />
    <glyph glyph-name="etatonos" unicode="&#x3ae;" horiz-adv-x="570" 
d="M515 350l0.000976562 -530h-130v493c0 33.333 -8.16699 58.833 -24.5 76.5s-39.833 26.5 -70.5 26.5c-30 0 -54.667 -9.83301 -74 -29.5s-29 -45.5 -29 -77.5v-309h-130v511h121v-57c34.667 49.333 86 74 154 74c57.333 0 102.166 -16.167 134.499 -48.5
s48.5 -75.5 48.5 -129.5zM341.001 579h-111l37 149h141z" />
    <glyph glyph-name="iotatonos" unicode="&#x3af;" horiz-adv-x="244" 
d="M187 0h-130v511h130v-511zM180 579h-111l37 149h141z" />
    <glyph glyph-name="upsilondieresistonos" unicode="&#x3b0;" horiz-adv-x="560" 
d="M55 197l0.00195312 314.001h130v-304c0 -37.333 7.33301 -65.5 22 -84.5s38.667 -28.5 72 -28.5c64 0 96 37.667 96 113v304h130v-314c0 -68 -18.833 -120.5 -56.5 -157.5s-93.834 -55.5 -168.501 -55.5s-130.834 18.667 -168.501 56s-56.5 89.666 -56.5 156.999z
M227.002 586.001l18 142h127l-52 -142h-93zM85.002 586.001v106h115v-106h-115zM379.002 586.001v106h114v-106h-114z" />
    <glyph glyph-name="alpha" unicode="&#x3b1;" horiz-adv-x="600" 
d="M422 511l120.999 -0.000976562v-511h-121v67c-36 -54.667 -90.667 -82 -164 -82c-66.667 0 -121.167 24.833 -163.5 74.5s-63.5 114.834 -63.5 195.501s21.333 146 64 196s97 75 163 75c74.667 0 129.334 -27 164.001 -81v66zM416.999 254.999
c0 48 -11.835 86.5 -35.502 115.5s-54.5 43.5 -92.5 43.5c-37.333 0 -67.666 -14.5 -90.999 -43.5s-35 -67.5 -35 -115.5c0 -48.667 11.333 -87.5 34 -116.5s53.334 -43.5 92.001 -43.5c38 0 68.833 14.667 92.5 44s35.5 68 35.5 116z" />
    <glyph glyph-name="beta" unicode="&#x3b2;" horiz-adv-x="600" 
d="M568 196c0 -62 -20.833 -112.499 -62.5 -151.499s-97.834 -58.5 -168.501 -58.5c-66 0 -116 23.333 -150 70v-236h-130v663c0 75.333 21.833 134.5 65.5 177.5s101.834 64.5 174.501 64.5c73.333 0 130.666 -17.833 171.999 -53.5s62 -80.834 62 -135.501
c0 -36.667 -8.66699 -68.167 -26 -94.5s-40.666 -45.833 -69.999 -58.5c42.667 -14 75.5 -37.167 98.5 -69.5s34.5 -71.5 34.5 -117.5zM435 208.001c0 34.667 -11.168 61.5 -33.501 80.5s-52.833 28.5 -91.5 28.5h-52v106h53c27.333 0 49.5 9.16699 66.5 27.5
s25.5 41.833 25.5 70.5c0 29.333 -9.16699 52.333 -27.5 69s-44.166 25 -77.499 25c-34 0 -61 -12.333 -81 -37s-30 -57.667 -30 -99v-227c0 -47.333 12.333 -85.333 37 -114s56.667 -43 96 -43c35.333 0 63.333 10.333 84 31s31 48 31 82z" />
    <glyph glyph-name="gamma" unicode="&#x3b3;" horiz-adv-x="523" 
d="M198 -180v180l-189 511h137l55 -165c19.333 -57.333 40.333 -124.333 63 -201c16 59.333 36 126 60 200l55 166h135l-186 -511v-180h-130z" />
    <glyph glyph-name="delta" unicode="&#x3b4;" horiz-adv-x="588" 
d="M29 237c0 63.333 18.833 118.334 56.5 165.001s86.5 72 146.5 76h14l-157 133v99h409v-105h-224l159 -135c84 -70.667 126 -148.334 126 -233.001c0 -71.333 -24.5 -131.333 -73.5 -180s-112.833 -73 -191.5 -73c-78 0 -141.667 23.667 -191 71s-74 108 -74 182z
M427 238.001c0 39.333 -11.6689 73.499 -35.002 102.499s-55.666 43.5 -96.999 43.5c-40.667 0 -73.167 -14 -97.5 -42s-36.5 -62.667 -36.5 -104c0 -39.333 11.667 -73.166 35 -101.499s56 -42.5 98 -42.5c42.667 0 75.334 14 98.001 42c23.333 29.333 35 63.333 35 102z
" />
    <glyph glyph-name="epsilon" unicode="&#x3b5;" horiz-adv-x="528" 
d="M447 155l70.001 -82c-68 -59.333 -148.667 -89 -242 -89c-80 0 -140.667 13.333 -182 40s-62 65.334 -62 116.001c0 62 33.667 105.333 101 130c-54 25.333 -81 63.666 -81 114.999c0 44 20.667 78.833 62 104.5s97.333 38.5 168 38.5c49.333 0 91.5 -6 126.5 -18
s70.5 -32.667 106.5 -62l-69 -84c-52.667 40.667 -106.334 61 -161.001 61c-33.333 0 -58.5 -5.16699 -75.5 -15.5s-25.5 -23.5 -25.5 -39.5c0 -38 29.333 -57 88 -57h81v-92h-80c-72.667 0 -109 -21.667 -109 -65c0 -42 37.333 -63 112 -63c66 0 123.333 20.667 172 62z
" />
    <glyph glyph-name="zeta" unicode="&#x3b6;" horiz-adv-x="500" 
d="M387 -178l-65 63.998c34 31.333 51 57.666 51 78.999c0 23.333 -14.667 35 -44 35h-57c-68 0 -125.333 18.333 -172 55s-70 87.334 -70 152.001c0 82 22.667 154.667 68 218c44 62.667 104.333 122.667 181 180h-215v105h398v-97c-102 -72 -177.333 -139.167 -226 -201.5
s-73 -128.833 -73 -199.5c0 -33.333 10.5 -58.666 31.5 -75.999s49.833 -26 86.5 -26h62c44 0 78.833 -10.5 104.5 -31.5s38.5 -50.167 38.5 -87.5c0 -51.333 -33 -107.666 -99 -168.999z" />
    <glyph glyph-name="eta" unicode="&#x3b7;" horiz-adv-x="570" 
d="M515 350l0.000976562 -530h-130v493c0 33.333 -8.16699 58.833 -24.5 76.5s-39.833 26.5 -70.5 26.5c-30 0 -54.667 -9.83301 -74 -29.5s-29 -45.5 -29 -77.5v-309h-130v511h121v-57c34.667 49.333 86 74 154 74c57.333 0 102.166 -16.167 134.499 -48.5
s48.5 -75.5 48.5 -129.5z" />
    <glyph glyph-name="theta" unicode="&#x3b8;" horiz-adv-x="595" 
d="M463 45c-42.667 -40.667 -97.667 -61 -165 -61c-68 0 -123.333 20.333 -166 61c-34 32.667 -57.5 73.834 -70.5 123.501s-19.5 112.167 -19.5 187.5s6.5 137.833 19.5 187.5s36.5 90.834 70.5 123.501c42.667 40.667 98 61 166 61c67.333 0 122.333 -20.333 165 -61
c34 -32.667 57.5 -73.834 70.5 -123.501s19.5 -112.167 19.5 -187.5s-6.5 -137.833 -19.5 -187.5s-36.5 -90.834 -70.5 -123.501zM173 408h247.998c-3.33301 82 -17.333 139.333 -42 172c-20 25.333 -47 38 -81 38c-33.333 0 -60.666 -12.667 -81.999 -38
c-25.333 -32.667 -39.666 -90 -42.999 -172zM420.998 311l-247.999 0.000976562c0 -82.667 14.333 -142.334 43 -179.001c21.333 -25.333 48.666 -38 81.999 -38c34 0 61 12.667 81 38c24.667 34 38.667 93.667 42 179z" />
    <glyph glyph-name="iota" unicode="&#x3b9;" horiz-adv-x="244" 
d="M187 0h-130v511h130v-511z" />
    <glyph glyph-name="kappa" unicode="&#x3ba;" horiz-adv-x="549" 
d="M404 0l-142 227l-75 -78v-149h-130v511h130v-216l195 216h148l-179 -196l197 -315h-144z" />
    <glyph glyph-name="lambda" unicode="&#x3bb;" horiz-adv-x="520" 
d="M301 590l211 -590h-134l-51 149c-7.33301 20 -28 85 -62 195l-66 -195l-54 -149h-137l198 511l-17 50c-14 40.667 -40 61 -78 61c-16.667 0 -37 -3 -61 -9l-24 100c28.667 10 62 15 100 15c45.333 0 81.5 -10.5 108.5 -31.5s49.167 -56.5 66.5 -106.5z" />
    <glyph glyph-name="uni03BC" unicode="&#x3bc;" horiz-adv-x="564" 
d="M377 511h130.001v-511h-118v64c-26.667 -53.333 -67.334 -80 -122.001 -80c-32 0 -58.667 8 -80 24v-191h-130v694h130v-329c0 -56 30 -84 90 -84c31.333 0 55.833 9 73.5 27s26.5 44 26.5 78v308z" />
    <glyph glyph-name="nu" unicode="&#x3bd;" horiz-adv-x="521" 
d="M378 511h134.999l-174 -511h-158l-173 511h137l51 -167c30.667 -102 52.667 -179.333 66 -232c20.667 82.667 42.334 160 65.001 232z" />
    <glyph glyph-name="xi" unicode="&#x3be;" horiz-adv-x="500" 
d="M387 -178l-65 64c34 31.333 51 57.666 51 78.999c0 23.333 -14.667 35 -44 35h-57c-70.667 0 -128.667 17.667 -174 53s-68 83.666 -68 144.999c0 46.667 11.5 85.5 34.5 116.5s54.833 52.5 95.5 64.5c-26 10 -46.833 25.667 -62.5 47s-23.5 46 -23.5 74
c0 24 6.66699 46.333 20 67s33.333 35.334 60 44.001h-107v99h415v-105h-131c-39.333 0 -69.833 -8 -91.5 -24s-32.5 -39.667 -32.5 -71c0 -26 8.5 -47 25.5 -63s38.833 -24 65.5 -24h138v-105h-137c-42.667 0 -76 -9.33301 -100 -28s-36 -46 -36 -82
c0 -65.333 39.333 -98 118 -98h62c44 0 78.833 -10.5 104.5 -31.5s38.5 -50.167 38.5 -87.5c0 -51.333 -33 -107.666 -99 -168.999z" />
    <glyph glyph-name="omicron" unicode="&#x3bf;" horiz-adv-x="593" 
d="M562 256c0 -80.667 -24.833 -146.167 -74.5 -196.5s-113.167 -75.5 -190.5 -75.5c-78 0 -141.833 25.167 -191.5 75.5s-74.5 115.833 -74.5 196.5s24.833 146.167 74.5 196.5s113.5 75.5 191.5 75.5c77.333 0 140.833 -25.167 190.5 -75.5s74.5 -115.833 74.5 -196.5z
M163 256c0 -49.333 12.167 -88.666 36.5 -117.999s56.833 -44 97.5 -44c40 0 72.167 14.667 96.5 44s36.5 68.666 36.5 117.999c0 48.667 -12.167 87.834 -36.5 117.501s-56.5 44.5 -96.5 44.5c-40.667 0 -73.167 -14.833 -97.5 -44.5s-36.5 -68.834 -36.5 -117.501z" />
    <glyph glyph-name="pi" unicode="&#x3c0;" horiz-adv-x="636" 
d="M609 108l11.999 -102c-34 -11.333 -67 -17 -99 -17c-50.667 0 -86.5 11.5 -107.5 34.5s-31.5 60.833 -31.5 113.5v273h-148v-410h-130v410h-91v101h585v-101h-86v-263c0 -17.333 3.5 -29.5 10.5 -36.5s17.833 -10.5 32.5 -10.5c10.667 0 28.334 2.66699 53.001 8z" />
    <glyph glyph-name="rho" unicode="&#x3c1;" horiz-adv-x="595" 
d="M564 256c0 -81.333 -21.167 -146.667 -63.5 -196s-96.5 -74 -162.5 -74c-68.667 0 -120.334 22.333 -155.001 67v-233h-130v436c0 81.333 23 147 69 197s106.333 75 181 75c76.667 0 139.334 -25.333 188.001 -76s73 -116 73 -196zM433 256.999
c0 48 -12 86.833 -36 116.5s-55.333 44.5 -94 44.5c-38 0 -68.333 -14.667 -91 -44s-34 -68.333 -34 -117c0 -48 12 -86.5 36 -115.5s54.667 -43.5 92 -43.5c38 0 68.667 14.5 92 43.5s35 67.5 35 115.5z" />
    <glyph glyph-name="uni03C2" unicode="&#x3c2;" horiz-adv-x="524" 
d="M358 -178l-63.999 64.001l7 7c24 25.333 37.333 42.666 40 51.999c0.666992 4 1 8.33301 1 13c0 10 -5 18.167 -15 24.5s-28.667 13.5 -56 21.5c-78 23.333 -137.333 55.833 -178 97.5s-61 95.834 -61 162.501c0 79.333 24 143.166 72 191.499s110.333 72.5 187 72.5
c81.333 0 153 -32 215 -96l-80 -81c-27.333 25.333 -51 42.833 -71 52.5s-41 14.5 -63 14.5c-40.667 0 -72.334 -15.333 -95.001 -46c-22 -30 -33 -66.333 -33 -109c0 -70.667 40.667 -118.667 122 -144c36 -11.333 65.333 -22.333 88 -33c54.667 -23.333 82 -58 82 -104
s-32.667 -99.333 -98 -160z" />
    <glyph glyph-name="sigma" unicode="&#x3c3;" horiz-adv-x="604" 
d="M590 511v-105.001h-112c52 -37.333 78 -89.666 78 -156.999c0 -78 -24.333 -141.667 -73 -191s-111.667 -74 -189 -74c-78 0 -141.667 25 -191 75s-74 114 -74 192c0 77.333 24.667 140 74 188s113 72 191 72h296zM426 250.999c0 46.667 -12 84.167 -36 112.5
s-56 42.5 -96 42.5c-40.667 0 -73 -14.167 -97 -42.5s-36 -65.833 -36 -112.5c0 -46 12.167 -83.667 36.5 -113s56.5 -44 96.5 -44s72 14.5 96 43.5s36 66.833 36 113.5z" />
    <glyph glyph-name="tau" unicode="&#x3c4;" horiz-adv-x="451" 
d="M437 406l-147 -0.000976562v-253c0 -19.333 4 -32.666 12 -39.999s21.333 -11 40 -11c16 0 36.667 3 62 9l16 -104c-38 -12.667 -75.667 -19 -113 -19c-52 0 -89.5 11.333 -112.5 34s-34.5 58.667 -34.5 108v276h-147v105h424v-105z" />
    <glyph glyph-name="upsilon" unicode="&#x3c5;" horiz-adv-x="560" 
d="M55 197l0.00195312 314.001h130v-304c0 -37.333 7.33301 -65.5 22 -84.5s38.667 -28.5 72 -28.5c64 0 96 37.667 96 113v304h130v-314c0 -68 -18.833 -120.5 -56.5 -157.5s-93.834 -55.5 -168.501 -55.5s-130.834 18.667 -168.501 56s-56.5 89.666 -56.5 156.999z" />
    <glyph glyph-name="phi" unicode="&#x3c6;" horiz-adv-x="752" 
d="M310 -180l0.00195312 164c-90 3.33301 -159.333 28 -208 74s-73 110 -73 192c0 65.333 14.333 120.333 43 165c29.333 45.333 82.666 83 159.999 113l41 -106c-41.333 -18 -70.166 -40.5 -86.499 -67.5s-24.5 -61.833 -24.5 -104.5c0 -102 49.333 -154.333 148 -157v241
c0 62.667 17 110.667 51 144s79.667 50 137 50c67.333 0 121.666 -23.667 162.999 -71s62 -112 62 -194c0 -87.333 -24.833 -155 -74.5 -203s-118.834 -73.333 -207.501 -76v-164h-131zM591.002 263c0 49.333 -8.33203 87.5 -24.999 114.5s-39.334 40.5 -68.001 40.5
c-38 0 -57 -30.667 -57 -92v-233c100 4 150 60.667 150 170z" />
    <glyph glyph-name="chi" unicode="&#x3c7;" horiz-adv-x="525" 
d="M520 -180h-140l-116 230l-121 -230h-138l186 340l-181 351h140l112 -227l120 227h136l-182 -338z" />
    <glyph glyph-name="psi" unicode="&#x3c8;" horiz-adv-x="772" 
d="M587 511h130.998v-253c0 -91.333 -21.667 -158.666 -65 -201.999s-110.666 -66.666 -201.999 -69.999v-166h-130v166c-91.333 3.33301 -158.666 26.666 -201.999 69.999s-65 110.666 -65 201.999v253h130v-253c0 -54.667 10.5 -94.667 31.5 -120
s56.167 -39.333 105.5 -42v574h130v-574c49.333 2.66699 84.333 16.5 105 41.5s31 65.167 31 120.5v253z" />
    <glyph glyph-name="omega" unicode="&#x3c9;" horiz-adv-x="751" 
d="M473 422l40.001 106.001c72.667 -26 125.667 -62.5 159 -109.5s50 -105.5 50 -175.5c0 -74 -17.5 -135.667 -52.5 -185s-82.167 -74 -141.5 -74c-38.667 0 -71.334 9.33301 -98.001 28s-44.667 44.667 -54 78c-10 -33.333 -28.333 -59.333 -55 -78s-59 -28 -97 -28
c-60 0 -107.5 24.667 -142.5 74s-52.5 111 -52.5 185c0 70 16.667 128.5 50 175.5s86.333 83.5 159 109.5l40 -106c-77.333 -29.333 -116 -89.666 -116 -180.999c0 -44.667 7.16699 -80.334 21.5 -107.001s33.5 -40 57.5 -40c46 0 69 36.333 69 109v146h131v-146
c0 -72.667 23.333 -109 70 -109c24 0 43.167 13.5 57.5 40.5s21.5 62.5 21.5 106.5c0 91.333 -39 151.666 -117 180.999z" />
    <glyph glyph-name="iotadieresis" unicode="&#x3ca;" horiz-adv-x="244" 
d="M187 0h-130v511h130v-511zM86 710v-122h-125v122h125zM283 710v-122h-125v122h125z" />
    <glyph glyph-name="upsilondieresis" unicode="&#x3cb;" horiz-adv-x="560" 
d="M55 197l0.00195312 314.001h130v-304c0 -37.333 7.33301 -65.5 22 -84.5s38.667 -28.5 72 -28.5c64 0 96 37.667 96 113v304h130v-314c0 -68 -18.833 -120.5 -56.5 -157.5s-93.834 -55.5 -168.501 -55.5s-130.834 18.667 -168.501 56s-56.5 89.666 -56.5 156.999z
M244.002 710.001v-122h-125v122h125zM441.002 710.001v-122h-125v122h125z" />
    <glyph glyph-name="omicrontonos" unicode="&#x3cc;" horiz-adv-x="588" 
d="M562 256c0 -80.667 -24.833 -146.167 -74.5 -196.5s-113.167 -75.5 -190.5 -75.5c-78 0 -141.833 25.167 -191.5 75.5s-74.5 115.833 -74.5 196.5s24.833 146.167 74.5 196.5s113.5 75.5 191.5 75.5c77.333 0 140.833 -25.167 190.5 -75.5s74.5 -115.833 74.5 -196.5z
M163 256c0 -49.333 12.167 -88.666 36.5 -117.999s56.833 -44 97.5 -44c40 0 72.167 14.667 96.5 44s36.5 68.666 36.5 117.999c0 48.667 -12.167 87.834 -36.5 117.501s-56.5 44.5 -96.5 44.5c-40.667 0 -73.167 -14.833 -97.5 -44.5s-36.5 -68.834 -36.5 -117.501z
M348 579h-111l37 149h141z" />
    <glyph glyph-name="upsilontonos" unicode="&#x3cd;" horiz-adv-x="560" 
d="M55 197l0.00195312 314.001h130v-304c0 -37.333 7.33301 -65.5 22 -84.5s38.667 -28.5 72 -28.5c64 0 96 37.667 96 113v304h130v-314c0 -68 -18.833 -120.5 -56.5 -157.5s-93.834 -55.5 -168.501 -55.5s-130.834 18.667 -168.501 56s-56.5 89.666 -56.5 156.999z
M338.002 579.001h-111l37 149h141z" />
    <glyph glyph-name="omegatonos" unicode="&#x3ce;" horiz-adv-x="751" 
d="M473 422l40.001 106.001c72.667 -26 125.667 -62.5 159 -109.5s50 -105.5 50 -175.5c0 -74 -17.5 -135.667 -52.5 -185s-82.167 -74 -141.5 -74c-38.667 0 -71.334 9.33301 -98.001 28s-44.667 44.667 -54 78c-10 -33.333 -28.333 -59.333 -55 -78s-59 -28 -97 -28
c-60 0 -107.5 24.667 -142.5 74s-52.5 111 -52.5 185c0 70 16.667 128.5 50 175.5s86.333 83.5 159 109.5l40 -106c-77.333 -29.333 -116 -89.666 -116 -180.999c0 -44.667 7.16699 -80.334 21.5 -107.001s33.5 -40 57.5 -40c46 0 69 36.333 69 109v146h131v-146
c0 -72.667 23.333 -109 70 -109c24 0 43.167 13.5 57.5 40.5s21.5 62.5 21.5 106.5c0 91.333 -39 151.666 -117 180.999zM436.001 579.001h-111l37 149h141z" />
    <glyph glyph-name="uni0401" unicode="&#x401;" horiz-adv-x="629" 
d="M572 710v-118h-359v-166h336v-118h-336v-190h370v-118h-510v710h499zM292 909v-122h-125v122h125zM489 909v-122h-125v122h125z" />
    <glyph glyph-name="uni0402" unicode="&#x402;" horiz-adv-x="820" 
d="M775 221c0 -70 -20.332 -126.333 -60.999 -169c-41.333 -43.333 -99.333 -65 -174 -65c-26.667 0 -60.334 3.66699 -101.001 11l19 113c26 -4.66699 49.667 -7 71 -7c70 0 105 37.667 105 113c0 38.667 -12.333 67.667 -37 87s-59 29 -103 29
c-50.667 0 -98.334 -7.66699 -143.001 -23v-310h-140v592h-184v118h548v-118h-224v-163c50.667 18 104.334 27 161.001 27c86 0 151.333 -20.5 196 -61.5s67 -98.833 67 -173.5z" />
    <glyph glyph-name="uni0403" unicode="&#x403;" horiz-adv-x="577" 
d="M550 592h-337v-592h-140v710h477v-118zM474 918l-96 -145h-115l69 145h142z" />
    <glyph glyph-name="uni0404" unicode="&#x404;" horiz-adv-x="677" 
d="M583 197l81.999 -94.999c-44.667 -42 -88.5 -72.333 -131.5 -91s-91.5 -28 -145.5 -28c-106 -1.33301 -191.667 33.667 -257 105s-97.333 161 -96 269c-1.33301 107.333 30.5 196.166 95.5 266.499s151.167 104.833 258.5 103.5c52.667 0 99.334 -8.16699 140.001 -24.5
s82.334 -43.5 125.001 -81.5l-82 -97c-34.667 30 -66 50.833 -94 62.5s-58.333 17.5 -91 17.5c-54 0 -99.333 -15.833 -136 -47.5s-60.334 -75.5 -71.001 -131.5h298v-117h-301c8 -62.667 30.333 -112 67 -148s83.667 -54 141 -54c35.333 0 67.333 6.66699 96 20
c26.667 13.333 60.667 37 102 71z" />
    <glyph glyph-name="uni0405" unicode="&#x405;" horiz-adv-x="645" 
d="M603 616l-81.999 -98c-41.333 34.667 -76 57.667 -104 69c-28.667 12 -62.334 18 -101.001 18c-39.333 0 -70.833 -8 -94.5 -24s-35.5 -37 -35.5 -63c0 -17.333 5.66699 -31.666 17 -42.999c12 -11.333 29 -20.333 51 -27s57 -15.667 105 -27
c94.667 -23.333 160 -49 196 -77s55 -71.333 57 -130c0 -68 -25.5 -123.5 -76.5 -166.5s-119.167 -64.5 -204.5 -64.5c-62 0 -117 9.66699 -165 29c-46.667 20 -96.667 54 -150 102l84 99c48.667 -42.667 88.667 -71 120 -85c34 -15.333 72 -23 114 -23
s75.667 8.83301 101 26.5s38 41.5 38 71.5c0 18 -5.66699 32.667 -17 44c-10.667 10.667 -24.834 19.167 -42.501 25.5s-46.5 13.833 -86.5 22.5l-34 8c-94 22.667 -158.333 49.167 -193 79.5s-52 74.166 -52 131.499c0 60 25.333 110.333 76 151s115.667 61 195 61
c58.667 0 108.667 -8.33301 150 -25c42.667 -16.667 87.334 -45 134.001 -85z" />
    <glyph glyph-name="uni0406" unicode="&#x406;" horiz-adv-x="300" 
d="M220 710v-710h-140v710h140z" />
    <glyph glyph-name="uni0407" unicode="&#x407;" horiz-adv-x="300" 
d="M220 710v-710h-140v710h140zM114 909v-122h-125v122h125zM311 909v-122h-125v122h125z" />
    <glyph glyph-name="uni0408" unicode="&#x408;" horiz-adv-x="473" 
d="M405 710l-0.000976562 -520c0 -68 -18.667 -119.167 -56 -153.5s-89.666 -51.5 -156.999 -51.5c-64 0 -126.333 14.333 -187 43l41 112c57.333 -20 103.333 -30 138 -30c54 0 81 32 81 96v504h140z" />
    <glyph glyph-name="uni0409" unicode="&#x409;" horiz-adv-x="1121" 
d="M1094 224c0 -68 -22.167 -122.334 -66.5 -163.001s-102.5 -61 -174.5 -61h-318v592h-244l-2 -296c-1.33301 -109.333 -15 -187.166 -41 -233.499s-75.667 -70.5 -149 -72.5c-28 0 -55 3.66699 -81 11l14 118c15.333 -2.66699 31.333 -4 48 -4c24 0 41.333 7.33301 52 22
c10.667 13.333 17.5 32 20.5 56s4.83301 64.333 5.5 121l2 396h515v-262h178c72 0 130.167 -20.333 174.5 -61s66.5 -95 66.5 -163zM955 223.999c0 34.667 -11 61.332 -33 79.999s-52.667 28 -92 28h-155v-216h155c39.333 0 70 9.33301 92 28s33 45.334 33 80.001z" />
    <glyph glyph-name="uni040A" unicode="&#x40a;" horiz-adv-x="1116" 
d="M1089 219c0 -67.333 -21.667 -120.668 -65 -160.001s-100.666 -59 -171.999 -59h-322v322h-317v-322h-140v710h140v-272h317v272h140v-272h182c71.333 0 128.666 -19.667 171.999 -59s65 -92.666 65 -159.999zM950 218.998c0 33.333 -10.667 58.833 -32 76.5
s-51 26.5 -89 26.5h-159v-206h159c38 0 67.667 8.83301 89 26.5s32 43.167 32 76.5z" />
    <glyph glyph-name="uni040B" unicode="&#x40b;" horiz-adv-x="832" 
d="M770 219v-219.001h-141v219c0 40.667 -11 69.834 -33 87.501s-56 26.5 -102 26.5c-55.333 0 -103 -8 -143 -24v-309h-140v592h-184v118h548v-118h-224v-162c50 17.333 103.333 26 160 26c90.667 0 156.5 -20 197.5 -60s61.5 -99 61.5 -177z" />
    <glyph glyph-name="uni040C" unicode="&#x40c;" horiz-adv-x="704" 
d="M537 0l-216 314h-108v-314h-140v710h140v-278h110l205 278h159l-249 -334l259 -376h-160zM501 918l-96 -145h-115l69 145h142z" />
    <glyph glyph-name="uni040E" unicode="&#x40e;" horiz-adv-x="646" 
d="M640 710h-138.002l-171 -388l-178 388h-146l258 -539l-4 -9c-9.33301 -20.667 -20.166 -34.834 -32.499 -42.501s-28.166 -11.5 -47.499 -11.5c-18 0 -39.333 3 -64 9l-26 -117c35.333 -10 68 -15 98 -15c34.667 0.666992 63 6.33398 85 17.001s40 25.5 54 44.5
s30.333 47.833 49 86.5zM501.998 911c0 -49.333 -15.833 -86.333 -47.5 -111s-75.5 -37 -131.5 -37s-99.833 12.333 -131.5 37s-47.5 61.667 -47.5 111h103c0 -46 25.333 -69 76 -69s76 23 76 69h103z" />
    <glyph glyph-name="uni040F" unicode="&#x40f;" horiz-adv-x="723" 
d="M73 710h140v-592h297v592h140v-710h-221v-158h-136v158h-220v710z" />
    <glyph glyph-name="uni0410" unicode="&#x410;" horiz-adv-x="712" 
d="M557 0l-48 142h-309l-49 -142h-141l254 710h184l254 -710h-145zM240 258l229.001 -0.000976562l-28 82l-17 50c-32 90.667 -55.333 161.334 -70 212.001c-12.667 -43.333 -38.334 -121.333 -77.001 -234l-10 -30z" />
    <glyph glyph-name="uni0411" unicode="&#x411;" horiz-adv-x="658" 
d="M73 0v709.998h506v-118h-366v-154h181c71.333 0 128.666 -19.667 171.999 -59s65 -92.666 65 -159.999s-21.667 -120.666 -65 -159.999s-100.666 -59 -171.999 -59h-321zM213 115.998h158c38 0 67.5 8.83301 88.5 26.5s31.5 43.167 31.5 76.5s-10.5 58.833 -31.5 76.5
s-50.5 26.5 -88.5 26.5h-158v-206z" />
    <glyph glyph-name="uni0412" unicode="&#x412;" horiz-adv-x="683" 
d="M650 200c0 -62 -19.667 -110.833 -59 -146.5s-93 -53.5 -161 -53.5h-357v710h338c62.667 0 114 -16 154 -48s60 -77 60 -135c0 -38 -9.66699 -70.167 -29 -96.5s-46.333 -45.5 -81 -57.5c90 -28 135 -85.667 135 -173zM213 602v-178h164c36 0 63.667 8.16699 83 24.5
s29 38.833 29 67.5c0 57.333 -37 86 -111 86h-165zM510 211c0 32.667 -11.333 58.167 -34 76.5s-54.667 27.5 -96 27.5h-167v-207h167c42 0 74.167 9 96.5 27s33.5 43.333 33.5 76z" />
    <glyph glyph-name="uni0413" unicode="&#x413;" horiz-adv-x="577" 
d="M550 592h-337v-592h-140v710h477v-118z" />
    <glyph glyph-name="uni0414" unicode="&#x414;" horiz-adv-x="790" 
d="M161 710h510v-592h87v-266h-136v148h-465v-148h-136v266h63c22.667 34 40.667 74 54 120c13.333 47.333 20.333 114 21 200zM228 118h303v474h-239l-2 -158c-0.666992 -86 -7 -154 -19 -204c-10.667 -44.667 -25 -82 -43 -112z" />
    <glyph glyph-name="uni0415" unicode="&#x415;" horiz-adv-x="629" 
d="M572 710v-118h-359v-166h336v-118h-336v-190h370v-118h-510v710h499z" />
    <glyph glyph-name="uni0416" unicode="&#x416;" horiz-adv-x="1051" 
d="M881 0l-197 314h-91v-314h-135v314h-91l-197 -314h-163l242 378l-230 332h159l188 -278h92v278h135v-278h92l188 278h159l-230 -332l242 -378h-163z" />
    <glyph glyph-name="uni0417" unicode="&#x417;" horiz-adv-x="663" 
d="M621 208c0 -68.667 -26.498 -123.333 -79.498 -164s-124.5 -61 -214.5 -61c-117.333 0 -217.666 39.333 -300.999 118l81 96c36.667 -32.667 71.667 -56.167 105 -70.5s72 -21.5 116 -21.5c47.333 0 84.833 9.33301 112.5 28s41.5 45.667 41.5 81
c0 62 -46.333 93 -139 93h-134v113h128c46 0 78.667 7.5 98 22.5s29 37.5 29 67.5c0 28.667 -12 51.667 -36 69s-56.667 26 -98 26c-42 0 -77 -6.33301 -105 -19c-28.667 -12 -60.667 -33 -96 -63l-82 97c43.333 37.333 87.166 64.5 131.499 81.5s94.166 25.5 149.499 25.5
c85.333 0 152.166 -18.167 200.499 -54.5s72.5 -86.5 72.5 -150.5c0 -72 -35.333 -122.667 -106 -152c84 -29.333 126 -83.333 126 -162z" />
    <glyph glyph-name="uni0418" unicode="&#x418;" horiz-adv-x="745" 
d="M520 710l152 -0.000976562v-710h-136v245c0 122.667 2.33301 223.334 7 302.001c-36.667 -68 -85.667 -153.333 -147 -256l-174 -291h-149v710h136v-258c0 -122.667 -2 -216.667 -6 -282c32.667 64 76.667 141.333 132 232z" />
    <glyph glyph-name="uni0419" unicode="&#x419;" horiz-adv-x="745" 
d="M672 710l-152 0.000976562l-185 -308c-55.333 -90.667 -99.333 -168 -132 -232c4 65.333 6 159.333 6 282v258h-136v-710h149l174 291c61.333 102.667 110.333 188 147 256c-4.66699 -78.667 -7 -179.334 -7 -302.001v-245h136v710zM552 911.001
c0 -49.333 -15.833 -86.333 -47.5 -111s-75.5 -37 -131.5 -37s-99.833 12.333 -131.5 37s-47.5 61.667 -47.5 111h103c0 -46 25.333 -69 76 -69s76 23 76 69h103z" />
    <glyph glyph-name="uni041A" unicode="&#x41a;" horiz-adv-x="704" 
d="M537 0l-216 314h-108v-314h-140v710h140v-278h110l205 278h159l-249 -334l259 -376h-160z" />
    <glyph glyph-name="uni041B" unicode="&#x41b;" horiz-adv-x="748" 
d="M18 1l14 117.999c15.333 -2.66699 31.333 -4 48 -4c24 0 41.333 7.33301 52 22c10.667 13.333 17.5 32 20.5 56s4.83301 64.333 5.5 121l2 396h515v-710h-140v592h-244l-2 -296c-1.33301 -109.333 -15 -187.166 -41 -233.499s-75.667 -70.5 -149 -72.5
c-28 0 -55 3.66699 -81 11z" />
    <glyph glyph-name="uni041C" unicode="&#x41c;" horiz-adv-x="911" 
d="M621 710h217v-710h-136v360c0 12 0.666992 66 2 162l1 79c-12 -44 -36.333 -124.333 -73 -241l-114 -360h-122l-116 360c-8.66699 29.333 -18.667 60 -30 92c-14.667 44 -30 92.667 -46 146c2 -78.667 3 -158 3 -238v-360h-134v710h220l93 -289
c30.667 -95.333 54.667 -176 72 -242c15.333 62 39 142.667 71 242z" />
    <glyph glyph-name="uni041D" unicode="&#x41d;" horiz-adv-x="743" 
d="M670 710v-710h-140v314h-317v-314h-140v710h140v-278h317v278h140z" />
    <glyph glyph-name="uni041E" unicode="&#x41e;" horiz-adv-x="771" 
d="M736 355c1.33301 -106.667 -30.5 -195.667 -95.5 -267s-149.833 -106.333 -254.5 -105c-105.333 -1.33301 -190.5 33.5 -255.5 104.5s-96.833 160.167 -95.5 267.5c-1.33301 107.333 30.5 196.5 95.5 267.5s150.167 105.833 255.5 104.5
c104.667 1.33301 189.5 -33.667 254.5 -105s96.833 -160.333 95.5 -267zM179 355c0 -74.667 18.833 -134.667 56.5 -180s87.834 -68 150.501 -68c62 0 111.833 22.667 149.5 68s56.5 105.333 56.5 180s-18.833 134.667 -56.5 180s-87.5 68 -149.5 68
c-62.667 0 -112.834 -22.667 -150.501 -68s-56.5 -105.333 -56.5 -180z" />
    <glyph glyph-name="uni041F" unicode="&#x41f;" horiz-adv-x="730" 
d="M657 0h-140v592h-304v-592h-140v710h584v-710z" />
    <glyph glyph-name="uni0420" unicode="&#x420;" horiz-adv-x="682" 
d="M649 486c0 -67.333 -21.167 -121.333 -63.5 -162s-99.166 -61 -170.499 -61h-202v-263h-140v710h342c71.333 0 128.166 -20.5 170.499 -61.5s63.5 -95.167 63.5 -162.5zM390 594h-176.999v-215h177c37.333 0 66.666 9.33301 87.999 28s32 45 32 79s-10.5 60.5 -31.5 79.5
s-50.5 28.5 -88.5 28.5z" />
    <glyph glyph-name="uni0421" unicode="&#x421;" horiz-adv-x="679" 
d="M656 621l-81.999 -96.999c-34.667 30 -65.834 50.833 -93.501 62.5s-57.834 17.5 -90.501 17.5c-64.667 0 -116.167 -22.5 -154.5 -67.5s-57.5 -105.167 -57.5 -180.5s19.167 -135.833 57.5 -181.5s89.166 -68.5 152.499 -68.5c35.333 0 67 6.66699 95 20
c26.667 13.333 60.667 37 102 71l82 -95c-44.667 -42 -88.5 -72.333 -131.5 -91s-91.5 -28 -145.5 -28c-106 -1.33301 -192 33.667 -258 105s-98.333 161 -97 269c-1.33301 107.333 30.5 196.166 95.5 266.499s151.833 104.833 260.5 103.5
c52.667 0 99.334 -8.16699 140.001 -24.5s82.334 -43.5 125.001 -81.5z" />
    <glyph glyph-name="uni0422" unicode="&#x422;" horiz-adv-x="622" 
d="M595 710v-120h-214v-590h-140v590h-214v120h568z" />
    <glyph glyph-name="uni0423" unicode="&#x423;" horiz-adv-x="646" 
d="M502 710h138.002l-263 -577c-18.667 -38.667 -35 -67.5 -49 -86.5s-32 -33.833 -54 -44.5s-50.333 -16.334 -85 -17.001c-30 0 -62.667 5 -98 15l26 117c24.667 -6 46 -9 64 -9c19.333 0 35.166 3.83301 47.499 11.5s23.166 21.834 32.499 42.501l4 9l-258 539h146
l178 -388z" />
    <glyph glyph-name="uni0424" unicode="&#x424;" horiz-adv-x="934" 
d="M899 360c0 -96 -32 -172 -96 -228s-150.333 -84 -259 -84h-9v-83h-136v83h-9c-108.667 0 -195 28 -259 84s-96 132 -96 228s32 172 96 228s150.333 84 259 84h9v73h136v-73h9c108.667 0 195 -28 259 -84s96 -132 96 -228zM390 162l11 -0.00195312v396h-11
c-67.333 0 -119.666 -17.167 -156.999 -51.5s-56 -83.166 -56 -146.499s18.667 -112.166 56 -146.499s89.666 -51.5 156.999 -51.5zM757 359.998c0 63.333 -18.667 112.168 -56 146.501s-89.666 51.5 -156.999 51.5h-11v-396h11c67.333 0 119.666 17.167 156.999 51.5
s56 83.166 56 146.499z" />
    <glyph glyph-name="uni0425" unicode="&#x425;" horiz-adv-x="705" 
d="M695 0h-157l-186 275l-187 -275h-155l258 377l-231 333h158l159 -235l158 235h156l-232 -334z" />
    <glyph glyph-name="uni0426" unicode="&#x426;" horiz-adv-x="769" 
d="M73 710h140v-592h297v592h140v-592h87v-266h-135v148h-529v710z" />
    <glyph glyph-name="uni0427" unicode="&#x427;" horiz-adv-x="687" 
d="M474 710l140 0.000976562v-710h-140v275c-50 -17.333 -103.333 -26 -160 -26c-90 0 -155.5 20 -196.5 60s-61.5 99 -61.5 177v224h140v-224c0 -40.667 11 -69.834 33 -87.501s56 -26.5 102 -26.5c55.333 0 103 8 143 24v314z" />
    <glyph glyph-name="uni0428" unicode="&#x428;" horiz-adv-x="1060" 
d="M987 710v-710h-914v710h140v-592h247v592h140v-592h247v592h140z" />
    <glyph glyph-name="uni0429" unicode="&#x429;" horiz-adv-x="1106" 
d="M939 -148v148h-866v710h140v-592h247v592h140v-592h247v592h140v-592h87v-266h-135z" />
    <glyph glyph-name="uni042A" unicode="&#x42a;" horiz-adv-x="796" 
d="M769 224c0 -68 -22.167 -122.333 -66.5 -163s-102.5 -61 -174.5 -61h-318v592h-183v118h323v-262h178c72 0 130.167 -20.333 174.5 -61s66.5 -95 66.5 -163zM630 224c0 34.667 -11 61.332 -33 79.999s-52.667 28 -92 28h-155v-216h155c39.333 0 70 9.33301 92 28
s33 45.334 33 80.001z" />
    <glyph glyph-name="uni042B" unicode="&#x42b;" horiz-adv-x="922" 
d="M73 0v710h140v-262h178c72 0 130.167 -20.333 174.5 -61s66.5 -95 66.5 -163s-22.167 -122.333 -66.5 -163s-102.5 -61 -174.5 -61h-318zM213 116l155 -0.00195312c39.333 0 70 9.33301 92 28s33 45.334 33 80.001s-11 61.334 -33 80.001s-52.667 28 -92 28h-155v-216z
M849 709.998v-710h-140v710h140z" />
    <glyph glyph-name="uni042C" unicode="&#x42c;" horiz-adv-x="659" 
d="M73 0v710h140v-262h178c72 0 130.167 -20.333 174.5 -61s66.5 -95 66.5 -163s-22.167 -122.333 -66.5 -163s-102.5 -61 -174.5 -61h-318zM213 116l155 -0.00195312c39.333 0 70 9.33301 92 28s33 45.334 33 80.001s-11 61.334 -33 80.001s-52.667 28 -92 28h-155v-216z
" />
    <glyph glyph-name="uni042D" unicode="&#x42d;" horiz-adv-x="677" 
d="M642 357c1.33301 -108 -30.668 -197.668 -96.001 -269.001s-151 -106.333 -257 -105c-54 0 -102.5 9.33301 -145.5 28s-86.833 49 -131.5 91l82 95c41.333 -34 75.333 -57.667 102 -71c28.667 -13.333 60.667 -20 96 -20c57.333 0 104.333 18 141 54s59 85.333 67 148
h-301v117h298c-10.667 56 -34.334 99.833 -71.001 131.5s-82 47.5 -136 47.5c-32.667 0 -63 -5.83301 -91 -17.5s-59.333 -32.5 -94 -62.5l-82 97c42.667 38 84.334 65.167 125.001 81.5s87.334 24.5 140.001 24.5c107.333 1.33301 193.5 -33.167 258.5 -103.5
s96.833 -159.166 95.5 -266.499z" />
    <glyph glyph-name="uni042E" unicode="&#x42e;" horiz-adv-x="1051" 
d="M1016 355c1.33301 -106.667 -30.5 -195.667 -95.5 -267s-149.833 -106.333 -254.5 -105c-98 0 -178.167 30 -240.5 90s-98.5 138.333 -108.5 235h-103v-308h-141v710h141v-284h106c14 90 51.833 162.667 113.5 218s139.167 83 232.5 83
c104.667 1.33301 189.5 -33.667 254.5 -105s96.833 -160.333 95.5 -267zM872 355c0 74.667 -18.833 134.667 -56.5 180s-87.5 68 -149.5 68c-62.667 0 -112.834 -22.667 -150.501 -68s-56.5 -105.333 -56.5 -180s18.833 -134.667 56.5 -180s87.834 -68 150.501 -68
c62 0 111.833 22.667 149.5 68s56.5 105.333 56.5 180z" />
    <glyph glyph-name="uni042F" unicode="&#x42f;" horiz-adv-x="692" 
d="M286 710h333v-710h-136v258h-107l-191 -258h-156l200 264c-52 10.667 -95 36 -129 76c-32 38.667 -48 86.667 -48 144c0 66 22 120.167 66 162.5s100 63.5 168 63.5zM483 375v219h-172c-36.667 0 -66 -9.83301 -88 -29.5s-33 -46.5 -33 -80.5s11 -60.667 33 -80
s51.333 -29 88 -29h172z" />
    <glyph glyph-name="uni0430" unicode="&#x430;" horiz-adv-x="560" 
d="M503 345v-345h-117v53c-34 -46.667 -89 -70 -165 -70c-54.667 0 -98.834 12.667 -132.501 38s-50.5 61.333 -50.5 108c0 51.333 18.667 91 56 119s92.333 48.333 165 61l120 22v12c0 24.667 -8.5 43.834 -25.5 57.501s-40.5 20.5 -70.5 20.5
c-32.667 0 -59.334 -6.33301 -80.001 -19c-24 -14.667 -50.333 -36 -79 -64l-82 75c64.667 76.667 144.334 115 239.001 115c70.667 0 125.334 -16.333 164.001 -49s58 -77.334 58 -134.001zM379 208l-0.000976562 30l-86 -18c-46 -10 -78.833 -20.833 -98.5 -32.5
s-29.5 -28.167 -29.5 -49.5c0 -16 6.83301 -28.5 20.5 -37.5s32.834 -13.5 57.501 -13.5c40 0 72.667 10.333 98 31s38 50.667 38 90z" />
    <glyph glyph-name="uni0431" unicode="&#x431;" horiz-adv-x="587" 
d="M556 244c0 -77.333 -24 -139.669 -72 -187.002s-109.333 -71 -184 -71c-84 0 -149.333 27.833 -196 83.5s-70 136.167 -70 241.5c0 126 23.5 221.333 70.5 286s127.833 101.667 242.5 111l171 15l11 -123l-170 -14c-74.667 -7.33301 -126.834 -23.666 -156.501 -48.999
s-48.167 -73.666 -55.5 -144.999c16.667 30 41.334 53.667 74.001 71s68.667 26 108 26c71.333 0 127 -21.833 167 -65.5s60 -103.5 60 -179.5zM424 239.997c0 42 -11.332 75.833 -33.999 101.5s-53.334 38.5 -92.001 38.5s-70.167 -13 -94.5 -39s-36.5 -59.667 -36.5 -101
c0 -44.667 11.667 -79.834 35 -105.501s55 -38.5 95 -38.5c39.333 0 70.333 12.833 93 38.5s34 60.834 34 105.501z" />
    <glyph glyph-name="uni0432" unicode="&#x432;" horiz-adv-x="567" 
d="M532 142c0 -44 -15.168 -78.666 -45.501 -103.999s-72.5 -38 -126.5 -38h-301v511h280c54.667 0 98.334 -12.167 131.001 -36.5s49 -57.833 49 -100.5c0 -54.667 -28.333 -92.334 -85 -113.001c65.333 -17.333 98 -57 98 -119zM186.999 414.001v-112h127
c50.667 0 76 19 76 57c0 36.667 -25 55 -75 55h-128zM399.999 157.001c0 38 -27.667 57 -83 57h-130v-115h131c54.667 0 82 19.333 82 58z" />
    <glyph glyph-name="uni0433" unicode="&#x433;" horiz-adv-x="441" 
d="M421 406h-232v-406h-130v511h362v-105z" />
    <glyph glyph-name="uni0434" unicode="&#x434;" horiz-adv-x="630" 
d="M18 -125v229.999h51c38 42.667 57.333 113.334 58 212.001l2 194h407v-406h72v-230h-126v125h-338v-125h-126zM203 104.999l203 0.000976562v301h-159l-2 -95c-2 -102.667 -16 -171.334 -42 -206.001z" />
    <glyph glyph-name="uni0435" unicode="&#x435;" horiz-adv-x="561" 
d="M454 164l73.002 -79.999c-35.333 -36 -71 -61.667 -107 -77s-76.333 -23 -121 -23c-82 0 -147.167 24.333 -195.5 73s-72.5 114 -72.5 196c0 80.667 23.333 146.667 70 198s109 77 187 77c76 0 134.833 -22.333 176.5 -67s62.5 -107.334 62.5 -188.001
c0 -14 -0.666992 -31 -2 -51h-367c6 -40.667 21.167 -72.167 45.5 -94.5s57.166 -33.5 98.499 -33.5c28.667 0 53 5 73 15c21.333 10 47.666 28.333 78.999 55zM161.002 315.001l239 -0.000976562c-2.66699 34.667 -14.167 61.834 -34.5 81.501s-47.5 29.5 -81.5 29.5
c-66 0 -107 -37 -123 -111z" />
    <glyph glyph-name="uni0436" unicode="&#x436;" horiz-adv-x="831" 
d="M679 0l-136 214h-65v-214h-125v214h-65l-137 -214h-144l176 273l-158 238h140l122 -192h66v192h125v-192h66l122 192h140l-158 -238l176 -273h-145z" />
    <glyph glyph-name="uni0437" unicode="&#x437;" horiz-adv-x="520" 
d="M486 148c0 -50.667 -20.668 -91.333 -62.001 -122s-98.666 -46 -171.999 -46c-89.333 0 -170 31 -242 93l71 83c54.667 -44.667 112 -67 172 -67c34 0 60 6 78 18s27 28.333 27 49c0 20 -8 34.167 -24 42.5s-42.333 12.5 -79 12.5h-85v96h93c56 0 84 18.667 84 56
c0 18 -7.83301 33 -23.5 45s-38.5 18 -68.5 18c-54 0 -109.333 -22 -166 -66l-62 83c70.667 57.333 148.667 86 234 86c56 0 105.667 -13 149 -39s65 -63 65 -111c0 -54 -28 -92.333 -84 -115c63.333 -21.333 95 -60 95 -116z" />
    <glyph glyph-name="uni0438" unicode="&#x438;" horiz-adv-x="601" 
d="M398 511h144v-511h-121v170c0 96 1.33301 167.667 4 215c-24.667 -46 -55.667 -101 -93 -165l-129 -220h-144v511h121v-175c0 -92 -1.33301 -161.667 -4 -209l92 164z" />
    <glyph glyph-name="uni0439" unicode="&#x439;" horiz-adv-x="601" 
d="M542 511h-144l-130 -220l-92 -164c2.66699 47.333 4 117 4 209v175h-121v-511h144l129 220c37.333 64 68.333 119 93 165c-2.66699 -47.333 -4 -119 -4 -215v-170h121v511zM480 712c0 -49.333 -15.833 -86.333 -47.5 -111s-75.5 -37 -131.5 -37s-99.833 12.333 -131.5 37
s-47.5 61.667 -47.5 111h103c0 -46 25.333 -69 76 -69s76 23 76 69h103z" />
    <glyph glyph-name="uni043A" unicode="&#x43a;" horiz-adv-x="564" 
d="M413 0l-145 214h-79v-214h-130v511h130v-192h79l133 192h140l-168 -238l186 -273h-146z" />
    <glyph glyph-name="uni043B" unicode="&#x43b;" horiz-adv-x="606" 
d="M17 1l12.002 103c16 -2 28.667 -3 38 -3c28 2 45.667 13.167 53 33.5s11.666 67.833 12.999 142.5l2 234h412v-511h-130v406h-164l-2 -131c-1.33301 -107.333 -12.333 -180.5 -33 -219.5s-62.334 -59.833 -125.001 -62.5c-28 0 -53.333 2.66699 -76 8z" />
    <glyph glyph-name="uni043C" unicode="&#x43c;" horiz-adv-x="757" 
d="M511 511h187v-511h-121v195c0 35.333 0.666992 95.666 2 180.999l1 41c-14 -49.333 -31.333 -101.666 -52 -156.999l-93 -260h-116l-91 260c-27.333 78.667 -45 131 -53 157c3.33301 -72 5 -146 5 -222v-195h-121v511h192l74 -208c26 -74.667 44.333 -131.667 55 -171
c12 42 30.333 99 55 171z" />
    <glyph glyph-name="uni043D" unicode="&#x43d;" horiz-adv-x="576" 
d="M517 0h-130v214h-198v-214h-130v511h130v-192h198v192h130v-511z" />
    <glyph glyph-name="uni043E" unicode="&#x43e;" horiz-adv-x="593" 
d="M562 256c0 -80.667 -24.833 -146.167 -74.5 -196.5s-113.167 -75.5 -190.5 -75.5c-78 0 -141.833 25.167 -191.5 75.5s-74.5 115.833 -74.5 196.5s24.833 146.167 74.5 196.5s113.5 75.5 191.5 75.5c77.333 0 140.833 -25.167 190.5 -75.5s74.5 -115.833 74.5 -196.5z
M163 256c0 -49.333 12.167 -88.666 36.5 -117.999s56.833 -44 97.5 -44c40 0 72.167 14.667 96.5 44s36.5 68.666 36.5 117.999c0 48.667 -12.167 87.834 -36.5 117.501s-56.5 44.5 -96.5 44.5c-40.667 0 -73.167 -14.833 -97.5 -44.5s-36.5 -68.834 -36.5 -117.501z" />
    <glyph glyph-name="uni043F" unicode="&#x43f;" horiz-adv-x="569" 
d="M59 0v511h451v-511h-130v406h-191v-406h-130z" />
    <glyph glyph-name="uni0440" unicode="&#x440;" horiz-adv-x="599" 
d="M567 256c0 -80.667 -21.333 -145.832 -64 -195.499s-97 -74.5 -163 -74.5c-67.333 0 -118.333 22.333 -153 67v-233h-130v691h121v-67c36.667 54.667 91 82 163 82c66 0 120.167 -24.833 162.5 -74.5s63.5 -114.834 63.5 -195.501zM435 256.002
c0 48 -11.167 86.333 -33.5 115s-52.5 43 -90.5 43s-69 -14.5 -93 -43.5s-36 -67.167 -36 -114.5c0 -48 11.833 -86.167 35.5 -114.5s54.5 -42.5 92.5 -42.5s68.333 14.167 91 42.5s34 66.5 34 114.5z" />
    <glyph glyph-name="uni0441" unicode="&#x441;" horiz-adv-x="529" 
d="M295 418c-40.667 0 -72.834 -15.168 -96.501 -45.501s-35.5 -69.166 -35.5 -116.499s11.667 -86 35 -116s55.333 -45 96 -45c24 0 46.5 6 67.5 18s44.833 32.333 71.5 61l86 -72c-34.667 -43.333 -69.5 -73.833 -104.5 -91.5s-75.833 -26.5 -122.5 -26.5
c-78 0 -141 24.667 -189 74s-72 115.333 -72 198s24.333 148.667 73 198s112.334 74 191.001 74c43.333 0 81.833 -7.5 115.5 -22.5s66.5 -39.833 98.5 -74.5l-81 -80c-26.667 25.333 -50 42.833 -70 52.5s-41 14.5 -63 14.5z" />
    <glyph glyph-name="uni0442" unicode="&#x442;" horiz-adv-x="506" 
d="M486 406h-168v-406h-130v406h-168v105h466v-105z" />
    <glyph glyph-name="uni0443" unicode="&#x443;" horiz-adv-x="521" 
d="M379 511l132 -0.000976562l-197 -568c-17.333 -49.333 -39.5 -84.666 -66.5 -105.999s-63.833 -32 -110.5 -32c-37.333 0 -70 4.33301 -98 13l22 97c20.667 -4 40.667 -6 60 -6c40 0 67 21.333 81 64l-192 538h136l45 -134c36.667 -109.333 61 -186 73 -230l71 231z" />
    <glyph glyph-name="uni0444" unicode="&#x444;" horiz-adv-x="765" 
d="M320 710h125.999v-183c85.333 -2.66699 154.666 -27.667 207.999 -75c53.333 -46 80 -111.333 80 -196s-26.667 -150.667 -80 -198c-53.333 -46.667 -122.666 -71.334 -207.999 -74.001v-164h-126v164c-86.667 2.66699 -156.667 27.334 -210 74.001
c-52.667 46.667 -79 112.667 -79 198c0 84.667 26.667 150 80 196c52.667 46.667 122.334 71.667 209.001 75v183zM322.999 89v333c-51.333 -1.33301 -90.833 -16.166 -118.5 -44.499s-41.5 -68.833 -41.5 -121.5s13.833 -93.334 41.5 -122.001s67.167 -43.667 118.5 -45z
M442.999 422l-0.00195312 -332.997c50.667 1.33301 89.834 16.166 117.501 44.499s41.5 69.166 41.5 122.499c0 52.667 -13.667 93.167 -41 121.5s-66.666 43.166 -117.999 44.499z" />
    <glyph glyph-name="uni0445" unicode="&#x445;" horiz-adv-x="524" 
d="M519 0h-143l-115 175l-116 -175h-140l184 268l-167 243h141l100 -150l98 150h140l-165 -238z" />
    <glyph glyph-name="uni0446" unicode="&#x446;" horiz-adv-x="609" 
d="M461 -125v125h-402v511h130v-406h196v406h130v-406h72v-230h-126z" />
    <glyph glyph-name="uni0447" unicode="&#x447;" horiz-adv-x="552" 
d="M363 511h130.001v-511h-130v181c-38 -15.333 -79.667 -23 -125 -23c-68.667 0 -118.834 14 -150.501 42s-47.5 71.333 -47.5 130v181h130v-166c0 -28 7.16699 -48 21.5 -60s38.5 -18 72.5 -18c42 0 75 5.33301 99 16v228z" />
    <glyph glyph-name="uni0448" unicode="&#x448;" horiz-adv-x="834" 
d="M775 511v-511h-716v511h130v-405h163v405h130v-405h163v405h130z" />
    <glyph glyph-name="uni0449" unicode="&#x449;" horiz-adv-x="869" 
d="M721 -125v125h-662v511h130v-405h164v405h129v-405h163v405h130v-407h72v-229h-126z" />
    <glyph glyph-name="uni044A" unicode="&#x44a;" horiz-adv-x="642" 
d="M617 179c0 -55.333 -18.333 -99.001 -55 -131.001s-85.334 -48 -146.001 -48h-256v406h-140v105h270v-152h126c60.667 0 109.334 -16.167 146.001 -48.5s55 -76.166 55 -131.499zM485 178.999c0 49.333 -28.333 74 -85 74h-110v-147h110c56.667 0 85 24.333 85 73z" />
    <glyph glyph-name="uni044B" unicode="&#x44b;" horiz-adv-x="758" 
d="M59 0v510.999h130v-152h126c60.667 0 109.334 -16.167 146.001 -48.5s55 -76.166 55 -131.499s-18.333 -99 -55 -131s-85.334 -48 -146.001 -48h-256zM189 105.999h110c56.667 0 85 24.333 85 73c0 49.333 -28.333 74 -85 74h-110v-147zM699 510.999v-511h-130v511h130z
" />
    <glyph glyph-name="uni044C" unicode="&#x44c;" horiz-adv-x="541" 
d="M59 0v510.999h130v-152h126c60.667 0 109.334 -16.167 146.001 -48.5s55 -76.166 55 -131.499s-18.333 -99 -55 -131s-85.334 -48 -146.001 -48h-256zM189 105.999h110c56.667 0 85 24.333 85 73c0 49.333 -28.333 74 -85 74h-110v-147z" />
    <glyph glyph-name="uni044D" unicode="&#x44d;" horiz-adv-x="529" 
d="M498 256c0 -82.667 -24 -148.667 -72 -198s-111 -74 -189 -74c-46.667 0 -87.5 8.83301 -122.5 26.5s-69.833 48.167 -104.5 91.5l86 72c28 -30 52.333 -50.667 73 -62s44.667 -17 72 -17c34 0 62 10.333 84 31s36 48.667 42 84h-205v96h204
c-6.66699 34.667 -20.834 62 -42.501 82s-49.5 30 -83.5 30c-25.333 0 -48 -4.66699 -68 -14s-43.667 -27 -71 -53l-81 80c32 34.667 64.833 59.5 98.5 74.5s72.167 22.5 115.5 22.5c78.667 0 142.334 -24.667 191.001 -74s73 -115.333 73 -198z" />
    <glyph glyph-name="uni044E" unicode="&#x44e;" horiz-adv-x="833" 
d="M802 256c0 -80.667 -24.834 -146.168 -74.501 -196.501s-113.167 -75.5 -190.5 -75.5c-71.333 0 -131.166 21.333 -179.499 64s-76.5 99.334 -84.5 170.001h-86v-218h-130v511h130v-201h88c10.667 66 40 118.667 88 158c47.333 40 105.333 60 174 60
c77.333 0 140.833 -25.167 190.5 -75.5s74.5 -115.833 74.5 -196.5zM669.999 255.999c0 48.667 -12.167 87.834 -36.5 117.501s-56.5 44.5 -96.5 44.5c-40.667 0 -73.167 -14.833 -97.5 -44.5s-36.5 -68.834 -36.5 -117.501c0 -49.333 12.167 -88.666 36.5 -117.999
s56.833 -44 97.5 -44c40 0 72.167 14.667 96.5 44s36.5 68.666 36.5 117.999z" />
    <glyph glyph-name="uni044F" unicode="&#x44f;" horiz-adv-x="559" 
d="M236 511h264v-511h-125v164h-80l-127 -164h-148l141 175c-38 11.333 -67.5 31.5 -88.5 60.5s-31.5 63.167 -31.5 102.5c0 52 17.5 93.833 52.5 125.5s82.5 47.5 142.5 47.5zM375 268v138.999h-123c-26 0 -46 -6.16699 -60 -18.5s-21 -29.166 -21 -50.499
s7 -38.333 21 -51s34 -19 60 -19h123z" />
    <glyph glyph-name="uni0451" unicode="&#x451;" horiz-adv-x="561" 
d="M454 164l73.002 -79.999c-35.333 -36 -71 -61.667 -107 -77s-76.333 -23 -121 -23c-82 0 -147.167 24.333 -195.5 73s-72.5 114 -72.5 196c0 80.667 23.333 146.667 70 198s109 77 187 77c76 0 134.833 -22.333 176.5 -67s62.5 -107.334 62.5 -188.001
c0 -14 -0.666992 -31 -2 -51h-367c6 -40.667 21.167 -72.167 45.5 -94.5s57.166 -33.5 98.499 -33.5c28.667 0 53 5 73 15c21.333 10 47.666 28.333 78.999 55zM161.002 315.001l239 -0.000976562c-2.66699 34.667 -14.167 61.834 -34.5 81.501s-47.5 29.5 -81.5 29.5
c-66 0 -107 -37 -123 -111zM262.002 710v-122h-125v122h125zM459.002 710v-122h-125v122h125z" />
    <glyph glyph-name="uni0452" unicode="&#x452;" horiz-adv-x="604" 
d="M549 330l0.00292969 -348.999c0 -114.667 -53 -172 -159 -172c-38 0 -73 5 -105 15l22 97c21.333 -4.66699 40.333 -7 57 -7c19.333 0 33.333 5 42 15s13 26.333 13 49v313c0 33.333 -8.33301 59.166 -25 77.499s-40.334 27.5 -71.001 27.5c-30 0 -54.5 -10 -73.5 -30
s-28.5 -46 -28.5 -78v-288h-130v573h-74v80h74v57h130v-57h187v-80h-187v-129c35.333 42.667 83.666 64 144.999 64c57.333 0 102.166 -16.167 134.499 -48.5s48.5 -75.5 48.5 -129.5z" />
    <glyph glyph-name="uni0453" unicode="&#x453;" horiz-adv-x="441" 
d="M421 406h-232v-406h-130v511h362v-105zM373 719l-96 -145h-115l69 145h142z" />
    <glyph glyph-name="uni0454" unicode="&#x454;" horiz-adv-x="529" 
d="M433 174l86 -72c-34.667 -43.333 -69.5 -73.833 -104.5 -91.5s-75.833 -26.5 -122.5 -26.5c-78 0 -141 24.667 -189 74s-72 115.333 -72 198s24.333 148.667 73 198s112.334 74 191.001 74c43.333 0 81.833 -7.5 115.5 -22.5s66.5 -39.833 98.5 -74.5l-81 -80
c-27.333 26 -51 43.667 -71 53s-42.667 14 -68 14c-34 0 -61.833 -10 -83.5 -30s-35.834 -47.333 -42.501 -82h204v-96h-205c6 -35.333 20 -63.333 42 -84s50 -31 84 -31c27.333 0 51.333 5.66699 72 17s45 32 73 62z" />
    <glyph glyph-name="uni0455" unicode="&#x455;" horiz-adv-x="509" 
d="M473 448l-70.001 -84.9971c-29.333 23.333 -55.166 39.166 -77.499 47.499s-47.5 12.5 -75.5 12.5c-26 0 -46.833 -4.66699 -62.5 -14s-23.5 -21.666 -23.5 -36.999c0 -10.667 3.66699 -19 11 -25c11.333 -8.66699 47.333 -19.667 108 -33
c74 -16.667 125.5 -36.334 154.5 -59.001s43.5 -57.334 43.5 -104.001c0 -50.667 -19.667 -91.167 -59 -121.5s-92.666 -45.5 -159.999 -45.5c-49.333 0 -92.833 7.33301 -130.5 22s-76.5 39.667 -116.5 75l75 84c36.667 -30 67.334 -50.333 92.001 -61
c25.333 -10 53 -15 83 -15c26.667 0 48.167 4.66699 64.5 14s24.5 22.666 24.5 39.999c0 14 -5 24.333 -15 31c-10.667 8.66699 -22.667 14.334 -36 17.001c-14 4 -39 10 -75 18c-72.667 16 -122.167 35.167 -148.5 57.5s-39.5 56.166 -39.5 101.499s19.167 83.333 57.5 114
s90.166 46 155.499 46c44.667 0 83.667 -6 117 -18s67.666 -32.667 102.999 -62z" />
    <glyph glyph-name="uni0456" unicode="&#x456;" horiz-adv-x="244" 
d="M187 511v-511h-130v511h130zM187 710v-122h-130v122h130z" />
    <glyph glyph-name="uni0457" unicode="&#x457;" horiz-adv-x="244" 
d="M187 511v-511h-130v511h130zM86 710v-122h-125v122h125zM283 710v-122h-125v122h125z" />
    <glyph glyph-name="uni0458" unicode="&#x458;" horiz-adv-x="248" 
d="M7 -86c19.333 0 33.167 5 41.5 15s12.5 26.333 12.5 49v533h130v-530c0 -114.667 -53 -172 -159 -172c-38 0 -73 5 -105 15l23 97c21.333 -4.66699 40.333 -7 57 -7zM191.001 710v-122h-130v122h130z" />
    <glyph glyph-name="uni0459" unicode="&#x459;" horiz-adv-x="910" 
d="M885 167c0 -52 -16.998 -92.833 -50.998 -122.5s-80 -44.5 -138 -44.5h-279v406h-164l-2 -131c-1.33301 -107.333 -12.333 -180.5 -33 -219.5s-62.334 -59.833 -125.001 -62.5c-28 0 -53.333 2.66699 -76 8l12 103c16 -2 28.667 -3 38 -3c28 2 45.667 13.167 53 33.5
s11.666 67.833 12.999 142.5l2 234h412v-176h149c58 0 104 -15 138 -45s51 -71 51 -123zM752.002 167c0 41.333 -23.667 62 -71 62h-134v-123h134c47.333 0 71 20.333 71 61z" />
    <glyph glyph-name="uni045A" unicode="&#x45a;" horiz-adv-x="880" 
d="M59 0v511h130v-176h198v176h130v-176h149c58 0 104 -15 138 -45s51 -71 51 -123s-17 -92.833 -51 -122.5s-80 -44.5 -138 -44.5h-279v229h-198v-229h-130zM517 106h134c48 0 72 20.333 72 61c0 41.333 -24 62 -72 62h-134v-123z" />
    <glyph glyph-name="uni045B" unicode="&#x45b;" horiz-adv-x="604" 
d="M549 330l0.00195312 -329.999h-130v291c0 33.333 -8.33301 59.166 -25 77.499s-40.334 27.5 -71.001 27.5c-30 0 -54.5 -10 -73.5 -30s-28.5 -46 -28.5 -78v-288h-130v573h-74v80h74v57h130v-57h187v-80h-187v-128c34.667 42 83 63 145 63
c57.333 0 102.166 -16.167 134.499 -48.5s48.5 -75.5 48.5 -129.5z" />
    <glyph glyph-name="uni045C" unicode="&#x45c;" horiz-adv-x="564" 
d="M413 0l-145 214h-79v-214h-130v511h130v-192h79l133 192h140l-168 -238l186 -273h-146zM447 719l-96 -145h-115l69 145h142z" />
    <glyph glyph-name="uni045E" unicode="&#x45e;" horiz-adv-x="521" 
d="M511 511l-132 0.000976562l-44 -133l-71 -231c-12 44 -36.333 120.667 -73 230l-45 134h-136l192 -538c-14 -42.667 -41 -64 -81 -64c-19.333 0 -39.333 2 -60 6l-22 -97c28 -8.66699 60.667 -13 98 -13c46.667 0 83.5 10.667 110.5 32s49.167 56.666 66.5 105.999z
M440 712.001c0 -49.333 -15.833 -86.333 -47.5 -111s-75.5 -37 -131.5 -37s-99.833 12.333 -131.5 37s-47.5 61.667 -47.5 111h103c0 -46 25.333 -69 76 -69s76 23 76 69h103z" />
    <glyph glyph-name="uni045F" unicode="&#x45f;" horiz-adv-x="578" 
d="M226 -130v130h-167v511h130v-406h200v406h130v-511h-168v-130h-125z" />
    <glyph glyph-name="uni0490" unicode="&#x490;" horiz-adv-x="577" 
d="M73 0v710h341v146h136v-264h-337v-592h-140z" />
    <glyph glyph-name="uni0491" unicode="&#x491;" horiz-adv-x="463" 
d="M59 0v511h265v132h125v-237h-260v-406h-130z" />
    <glyph glyph-name="Wgrave" unicode="&#x1e80;" horiz-adv-x="971" 
d="M808 710l137.998 -0.000976562l-172 -710h-161l-70 274c-24.667 100.667 -43.667 182.334 -57 245.001c-14 -65.333 -33.333 -147 -58 -245l-70 -274h-160l-173 710h142l71 -306c20.667 -90.667 36.334 -168 47.001 -232c24 108 42.333 185.333 55 232l81 306h136
l79 -306c16.667 -64 34.667 -142.667 54 -236c16.667 95.333 32.334 174 47.001 236zM334.998 917.999h142l69 -145h-115z" />
    <glyph glyph-name="wgrave" unicode="&#x1e81;" horiz-adv-x="792" 
d="M644 511h134.001l-142 -511h-154l-38 139c-13.333 50 -30 119.333 -50 208c-16.667 -84 -32.334 -153.333 -47.001 -208l-36 -139h-155l-142 511h137l41 -168c16 -66.667 32.333 -141.667 49 -225c19.333 92 36.666 167 51.999 225l44 168h120l44 -168
c18.667 -72 36.334 -147.667 53.001 -227c16.667 84 33 159.667 49 227zM247.001 719h142l69 -145h-115z" />
    <glyph glyph-name="Wacute" unicode="&#x1e82;" horiz-adv-x="971" 
d="M808 710l137.998 -0.000976562l-172 -710h-161l-70 274c-24.667 100.667 -43.667 182.334 -57 245.001c-14 -65.333 -33.333 -147 -58 -245l-70 -274h-160l-173 710h142l71 -306c20.667 -90.667 36.334 -168 47.001 -232c24 108 42.333 185.333 55 232l81 306h136
l79 -306c16.667 -64 34.667 -142.667 54 -236c16.667 95.333 32.334 174 47.001 236zM636.998 917.999l-96 -145h-115l69 145h142z" />
    <glyph glyph-name="wacute" unicode="&#x1e83;" horiz-adv-x="792" 
d="M644 511h134.001l-142 -511h-154l-38 139c-13.333 50 -30 119.333 -50 208c-16.667 -84 -32.334 -153.333 -47.001 -208l-36 -139h-155l-142 511h137l41 -168c16 -66.667 32.333 -141.667 49 -225c19.333 92 36.666 167 51.999 225l44 168h120l44 -168
c18.667 -72 36.334 -147.667 53.001 -227c16.667 84 33 159.667 49 227zM549.001 719l-96 -145h-115l69 145h142z" />
    <glyph glyph-name="Wdieresis" unicode="&#x1e84;" horiz-adv-x="971" 
d="M808 710l137.998 -0.000976562l-172 -710h-161l-70 274c-24.667 100.667 -43.667 182.334 -57 245.001c-14 -65.333 -33.333 -147 -58 -245l-70 -274h-160l-173 710h142l71 -306c20.667 -90.667 36.334 -168 47.001 -232c24 108 42.333 185.333 55 232l81 306h136
l79 -306c16.667 -64 34.667 -142.667 54 -236c16.667 95.333 32.334 174 47.001 236zM449.998 908.999v-122h-125v122h125zM646.998 908.999v-122h-125v122h125z" />
    <glyph glyph-name="wdieresis" unicode="&#x1e85;" horiz-adv-x="792" 
d="M644 511h134.001l-142 -511h-154l-38 139c-13.333 50 -30 119.333 -50 208c-16.667 -84 -32.334 -153.333 -47.001 -208l-36 -139h-155l-142 511h137l41 -168c16 -66.667 32.333 -141.667 49 -225c19.333 92 36.666 167 51.999 225l44 168h120l44 -168
c18.667 -72 36.334 -147.667 53.001 -227c16.667 84 33 159.667 49 227zM362.001 710v-122h-125v122h125zM559.001 710v-122h-125v122h125z" />
    <glyph glyph-name="Ygrave" unicode="&#x1ef2;" horiz-adv-x="657" 
d="M500 710h149l-251 -412v-298h-140v299l-250 411h154l169 -288zM178 918h142l69 -145h-115z" />
    <glyph glyph-name="ygrave" unicode="&#x1ef3;" horiz-adv-x="521" 
d="M379 511l132 -0.000976562l-197 -568c-17.333 -49.333 -39.5 -84.666 -66.5 -105.999s-63.833 -32 -110.5 -32c-37.333 0 -70 4.33301 -98 13l22 97c20.667 -4 40.667 -6 60 -6c40 0 67 21.333 81 64l-192 538h136l45 -134c36.667 -109.333 61 -186 73 -230l71 231z
M110 718.999h142l69 -145h-115z" />
    <glyph glyph-name="endash" unicode="&#x2013;" horiz-adv-x="737" 
d="M677 346v-111h-617v111h617z" />
    <glyph glyph-name="emdash" unicode="&#x2014;" horiz-adv-x="986" 
d="M916 346v-111h-846v111h846z" />
    <glyph glyph-name="quoteleft" unicode="&#x2018;" horiz-adv-x="227" 
d="M40 431v138l77 141h72l-70 -141h66v-138h-145z" />
    <glyph glyph-name="quoteright" unicode="&#x2019;" horiz-adv-x="227" 
d="M187 710v-138l-77 -141h-72l70 141h-66v138h145z" />
    <glyph glyph-name="quotesinglbase" unicode="&#x201a;" horiz-adv-x="225" 
d="M185 143v-143l-76 -136h-71l66 136h-64v143h145z" />
    <glyph glyph-name="quotedblleft" unicode="&#x201c;" horiz-adv-x="445" 
d="M40 431v138l77 141h72l-70 -141h66v-138h-145zM258 431v138l77 141h72l-70 -141h66v-138h-145z" />
    <glyph glyph-name="quotedblright" unicode="&#x201d;" horiz-adv-x="445" 
d="M187 710v-138l-77 -141h-72l70 141h-66v138h145zM405 710v-138l-77 -141h-72l70 141h-66v138h145z" />
    <glyph glyph-name="quotedblbase" unicode="&#x201e;" horiz-adv-x="443" 
d="M185 143v-143l-76 -136h-71l66 136h-64v143h145zM403 143v-143l-76 -136h-71l66 136h-64v143h145z" />
    <glyph glyph-name="dagger" unicode="&#x2020;" 
d="M550 461v-118h-188v-540h-134v540h-188v118h188v249h134v-249h188z" />
    <glyph glyph-name="daggerdbl" unicode="&#x2021;" 
d="M550 393h-188v-184h188v-118h-188v-288h-134v288h-188v118h188v184h-188v118h188v199h134v-199h188v-118z" />
    <glyph glyph-name="bullet" unicode="&#x2022;" horiz-adv-x="519" 
d="M454 294c0 -52.667 -19.167 -98.167 -57.5 -136.5s-83.833 -57.5 -136.5 -57.5s-98.167 19.167 -136.5 57.5s-57.5 83.833 -57.5 136.5c0 53.333 19 99 57 137s83.667 57 137 57c52.667 0 98.167 -19 136.5 -57s57.5 -83.667 57.5 -137z" />
    <glyph glyph-name="ellipsis" unicode="&#x2026;" horiz-adv-x="717" 
d="M192 145v-145h-142v145h142zM429 145v-145h-142v145h142zM667 145v-145h-142v145h142z" />
    <glyph glyph-name="perthousand" unicode="&#x2030;" horiz-adv-x="1282" 
d="M641 697l75 -47l-469 -667l-74 48zM832 157c0 -48.667 -16 -88.832 -48 -120.499s-71.667 -47.5 -119 -47.5c-48 0 -87.667 15.667 -119 47s-47 71.666 -47 120.999c0 48 15.833 87.833 47.5 119.5s71.167 47.5 118.5 47.5s87 -15.833 119 -47.5s48 -71.5 48 -119.5z
M588 157.002c0 -26.667 7 -48.167 21 -64.5s32.667 -24.5 56 -24.5c24 0 43 8.16699 57 24.5s21 37.833 21 64.5c0 26 -7 47.167 -21 63.5s-33 24.5 -57 24.5c-23.333 0 -42 -8.16699 -56 -24.5s-21 -37.5 -21 -63.5zM383 525.002c0 -48.667 -16 -88.832 -48 -120.499
s-71.667 -47.5 -119 -47.5c-48 0 -87.667 15.667 -119 47s-47 71.666 -47 120.999c0 48 15.833 87.833 47.5 119.5s71.167 47.5 118.5 47.5s87 -15.833 119 -47.5s48 -71.5 48 -119.5zM139 525.004c0 -26.667 7 -48.167 21 -64.5s32.667 -24.5 56 -24.5
c24 0 43 8.16699 57 24.5s21 37.833 21 64.5c0 26 -7 47.167 -21 63.5s-33 24.5 -57 24.5c-23.333 0 -42 -8.16699 -56 -24.5s-21 -37.5 -21 -63.5zM1217 157.004c0 -48.667 -16 -88.832 -48 -120.499s-71.667 -47.5 -119 -47.5c-48 0 -87.667 15.667 -119 47
s-47 71.666 -47 120.999c0 48 15.833 87.833 47.5 119.5s71.167 47.5 118.5 47.5s87 -15.833 119 -47.5s48 -71.5 48 -119.5zM973 157.006c0 -26.667 7 -48.167 21 -64.5s32.667 -24.5 56 -24.5c24 0 43 8.16699 57 24.5s21 37.833 21 64.5c0 26 -7 47.167 -21 63.5
s-33 24.5 -57 24.5c-23.333 0 -42 -8.16699 -56 -24.5s-21 -37.5 -21 -63.5z" />
    <glyph glyph-name="guilsinglleft" unicode="&#x2039;" horiz-adv-x="380" 
d="M320 478l-146 -225l146 -225h-122l-143 225l143 225h122z" />
    <glyph glyph-name="guilsinglright" unicode="&#x203a;" horiz-adv-x="380" 
d="M60 478h122l143 -225l-143 -225h-122l141 225z" />
    <glyph glyph-name="fraction" unicode="&#x2044;" horiz-adv-x="223" 
d="M308 697l75 -47l-469 -667l-74 48z" />
    <glyph glyph-name="Euro" unicode="&#x20ac;" horiz-adv-x="610" 
d="M524 145l70.999 -89.999c-32 -26 -63.5 -44.5 -94.5 -55.5s-67.5 -16.5 -109.5 -16.5c-68.667 0 -126.667 21.667 -174 65s-79.333 102.666 -96 177.999h-71v90h59v24c0 21.333 0.333008 35 1 41h-60v90h75c18.667 70.667 51 126 97 166s102.333 60 169 60
c42 0 78.5 -5.5 109.5 -16.5s62.5 -29.5 94.5 -55.5l-71 -90c-26 18 -48.667 30.333 -68 37c-16 6.66699 -37.667 10 -65 10c-60.667 0 -103 -37 -127 -111h223v-90h-240c-0.666992 -6 -1 -19.667 -1 -41v-24h241v-90h-228c23.333 -85.333 67.333 -128 132 -128
c26 0 47.667 3 65 9c20.667 8 43.334 20.667 68.001 38z" />
    <glyph glyph-name="uni20B9" unicode="&#x20b9;" 
d="M553 595l-106 -0.000976562c17.333 -23.333 28.333 -50.666 33 -81.999h73v-85h-72c-8.66699 -52 -33 -92.833 -73 -122.5s-90.667 -44.5 -152 -44.5h-11l257 -261h-177l-247 261v102h167c57.333 0 92 21.667 104 65h-271v85h267c-14.667 36.667 -48 55 -100 55h-167v112
h475v-85z" />
    <glyph glyph-name="uni20BA" unicode="&#x20ba;" 
d="M448 307l121 -20.001l-11 -58c-17.333 -84.667 -46.333 -143.667 -87 -177s-109 -50.666 -205 -51.999h-139v235l-89 -39v95l89 39v76l-89 -39v95l89 39v179h135v-119l137 60v-95l-137 -60v-76l137 60v-95l-137 -60v-180h7c52 0 90.167 8.83301 114.5 26.5
s41.833 53.5 52.5 107.5z" />
    <glyph glyph-name="uni20BD" unicode="&#x20bd;" horiz-adv-x="610" 
d="M343 261h-88.001v-65h189v-85h-189v-111h-135v111h-85v85h85v65h-85v102h85v317h223c70 0 125.333 -19 166 -57c41.333 -38 62 -89 62 -153s-20.667 -115 -62 -153c-41.333 -37.333 -96.666 -56 -165.999 -56zM254.999 568v-204.999h77
c33.333 0 59.833 9.16699 79.5 27.5s29.5 43.166 29.5 74.499c0 32 -9.83301 57.167 -29.5 75.5s-46.167 27.5 -79.5 27.5h-77z" />
    <glyph glyph-name="uni2116" unicode="&#x2116;" horiz-adv-x="1085" 
d="M744 549c0 50 15.833 90.667 47.5 122s71.834 47 120.501 47s88.834 -15.667 120.501 -47s47.5 -72 47.5 -122c0 -49.333 -15.833 -89.666 -47.5 -120.999s-71.834 -47 -120.501 -47s-88.834 15.667 -120.501 47s-47.5 71.666 -47.5 120.999zM529 452v258h137v-710h-150
l-177 288c-52 84 -97.333 161.667 -136 233c4.66699 -72 7 -164.333 7 -277v-244h-137v710h153l187 -306c56 -88.667 96.333 -157 121 -205c-3.33301 70 -5 154.333 -5 253zM837 549c0 -27.333 7.16699 -49.167 21.5 -65.5s32.166 -24.5 53.499 -24.5c22 0 40.167 8 54.5 24
s21.5 38 21.5 66c0 27.333 -7.33301 49.333 -22 66s-32.667 25 -54 25s-39.166 -8.16699 -53.499 -24.5s-21.5 -38.5 -21.5 -66.5zM755 262.999v77h313v-77h-313z" />
    <glyph glyph-name="uni2117" unicode="&#x2117;" horiz-adv-x="856" 
d="M60 355c-1.33301 102.667 34.167 190.167 106.5 262.5s159.5 107.5 261.5 105.5c102 2 189.167 -33.167 261.5 -105.5s107.833 -159.833 106.5 -262.5c1.33301 -102.667 -34.167 -190.167 -106.5 -262.5s-159.5 -107.5 -261.5 -105.5
c-102 -2 -189.167 33.167 -261.5 105.5s-107.833 159.833 -106.5 262.5zM725 355c1.33301 86 -26.834 158.667 -84.501 218s-128.5 88.333 -212.5 87c-84.667 1.33301 -155.667 -27.667 -213 -87s-85.333 -132 -84 -218c-1.33301 -86 26.667 -158.667 84 -218
s128.333 -88.333 213 -87c84 -1.33301 154.833 27.667 212.5 87s85.834 132 84.501 218zM294 149v414h169c39.333 0 71.333 -12.167 96 -36.5s37 -55.5 37 -93.5c0 -84 -44.333 -126 -133 -126h-95v-158h-74zM368 369h80c50 0 75 21.333 75 64c0 42 -25 63 -75 63h-80v-127z
" />
    <glyph glyph-name="trademark" unicode="&#x2122;" horiz-adv-x="954" 
d="M372 710v-73h-128v-314h-85v314h-129v73h342zM894 710v-387h-78v278l-110 -278h-71l-114 274v-274h-79v387h111l118 -286l112 286h111z" />
    <glyph glyph-name="uni2126" unicode="&#x2126;" horiz-adv-x="769" 
d="M624 118h108v-118h-281v118c92.667 42.667 139 123.667 139 243c0 73.333 -18.5 132 -55.5 176s-86.833 66 -149.5 66c-62 0 -111.833 -22 -149.5 -66s-56.5 -102.667 -56.5 -176c0 -119.333 46.333 -200.333 139 -243v-118h-281v118h109
c-73.333 57.333 -110 139 -110 245s31.833 193.167 95.5 261.5s148.167 102.5 253.5 102.5s189.833 -34.167 253.5 -102.5s95.5 -155.5 95.5 -261.5s-36.667 -187.667 -110 -245z" />
    </font>
</defs>
</svg>
